<?xml version="1.0" encoding="utf-8"?>
<!-- Generator: $$$/GeneralStr/196=Adobe Illustrator 27.6.0, SVG Export Plug-In . SVG Version: 6.00 Build 0)  -->
<svg version="1.1" id="Ebene_1" xmlns="http://www.w3.org/2000/svg" xmlns:xlink="http://www.w3.org/1999/xlink" x="0px" y="0px"
	 viewBox="0 0 1000 1000" style="enable-background:new 0 0 1000 1000;" xml:space="preserve">
<path d="M799.9,214.5c0-9.4-7.7-17.1-17.1-17.1c-0.1,0.1-0.2,0.1-0.4,0H497.2c-4.5,0-8.8,1.8-12.1,5L199.9,487.9V512l285.3,285.3
	c3.2,3.2,7.6,5,12.1,5h285.3c6.9,0,13.2-4.2,15.8-10.5c2.6-6.4,1.2-13.7-3.7-18.6L521.4,500l271.3-271.5
	C797.1,225.4,799.9,220.3,799.9,214.5L799.9,214.5z M647.6,674.6c-23-15.7-66.5-42.8-148.5-93.8c38,19.2,55.3,27.2,63.7,30.4
	l0.1,0.1v-0.1c6.3,2.3,7.6,1.9,9,1.5c2.6-0.8,4.8-2.7,6.1-5.1c0.4-0.7,0.1-1.5,0.2-2.3L647.6,674.6L647.6,674.6z M727.1,754.1
	l-164.2-96.7c56.8,29,80.7,41,91.5,45.6c5.1,2.2,7.3,2.8,8.6,2.8c0.7,0,1.1-0.1,1.6-0.3c2.6-0.8,4.8-2.7,6-5.1
	c0.4-0.7,0.6-1.3,0.8-2L727.1,754.1L727.1,754.1z M686.7,766.7c-13.3-9.9-43-27.8-106.1-64.3c40,20.7,74.9,38.8,98.7,51.2
	c11.9,6.2,21.1,10.9,28.6,14.8H690L686.7,766.7z M501.3,765.3c1.9,1,4,2.1,5.9,3h-2.8L501.3,765.3z M493.2,728
	c10,5.1,19.7,10.2,28.8,14.8c21.1,10.9,36.9,19.1,49.2,25.5H553C534.7,756,514,742.1,493.2,728z M492,690.4l152.9,77.9h-28.5
	c-0.4-0.2-1.5-0.7-2.9-1.5c-8.2-5.9-22.4-14.7-46.4-29.6L492,690.4L492,690.4z M451.8,507.4c18.6,9,20.3,8.6,22.9,7.7
	c3.5-1.1,6.2-4.1,7-7.7l-0.1-0.7c0.8,1.9,2,3.8,3.6,5.4l65,65L451.8,507.4L451.8,507.4z M382,646c5.6,3.5,11.1,7,16.8,10.5
	l-12.6-6.3L382,646L382,646z M301.6,565.6c25.2,14.5,51.3,29.3,77.4,44.3l-67.5-34.4L301.6,565.6L301.6,565.6z M246.3,510.3
	l13.6-7.7l153.6,90.6c-114.8-58.9-152.8-77.3-167-82.6l-0.1-0.1C246.4,510.4,246.3,510.3,246.3,510.3L246.3,510.3z M542.6,231.7
	c-0.8,0.8-1.6,1.6-2.1,2.7c-3,5.9-3.7,7.2,38.6,50c-23.7-12.2-50.6-26.1-71.4-37c-2.2-1.3-5.3-1.5-7.9-0.7s-4.8,2.7-6,5.1
	c-1.8,3.4-2.7,5.3,4.5,13.3l-0.2,0.4l1.1,0.6c5.9,6.4,16.8,16.2,35.6,32.6c-55.2-28.8-55.2-28.7-60-27.2c-3.4,1.1-6.1,3.9-6.8,7.5
	c-0.8,3.5,0.3,7.2,2.9,9.7l48.5,46.2c-22.2-11.4-46.5-24-65.6-33.9h-0.1c-4.7-2.4-10.4-0.9-13.2,3.5c-2.8,4.5-1.9,10.3,2.3,13.6
	c9.4,7.4,20.1,16,31.2,24.8l-41.2-21c-5-2.6-11.3-0.6-13.8,4.5c-2.1,4.1-3.1,6.1,4.6,13.5l-0.1,0.2l1,0.5c3.9,3.6,9.7,8.4,18.3,15.2
	c-32.4-16.6-33.6-16.2-37.5-14.9c-2.6,0.9-4.8,2.7-6.1,5.2c-2.1,4-1.2,8.9,2.1,12l46.8,44.1c-67.3-34.2-67.8-34-71.3-32.9
	c-2.6,0.8-4.8,2.7-6,5.1c-2.1,4.1-3,5.9,5,14c3.1,3.2,7.6,7.3,14,12.9c6.3,5.6,14.4,12.7,24.8,21.8l-55-28.1
	c-5-2.6-11.2-0.5-13.7,4.5c-1.8,3.4-2.8,5.5,4.6,13.6l0.5,0.5c7.2,7.7,21.8,20.7,49.9,44.8c-23.5-12.2-48.7-25.2-68.8-35.7
	c-4.5-3-10.7-0.8-13.5,3.8c-2.8,4.5-1.5,10.5,2.8,13.7L456.7,536c-50.8-26.2-109.4-56.8-156.5-81.5c-2.8-1-5.3-1.5-7.9-0.7
	s-4.8,2.7-6,5.1c-1.8,3.5-3,5.9,4.8,12.7l-0.5,1c1.6,0.8,3.1,1.8,4.7,2.5c17.8,13.8,63.5,42.4,174.9,111.8
	c-6.1-3.1-12.2-6.2-18.2-9.4c-115.1-58.9-158.8-81.3-176.4-89.5l-5.3-3.1l-0.4,0.7c-5.6-2.3-6.6-2-8-1.5l-16,25.8l-10-9.9
	l268.2-268.3L542.6,231.7L542.6,231.7z M629.8,242.2l10.5,32.1c-22-11.3-56.9-29.3-82.6-42.7h75
	C629.8,234.4,628.6,238.4,629.8,242.2L629.8,242.2z M741.3,231.7L485.2,487.9c-1.8,1.8-2.9,3.7-3.8,5.9l-0.1,0.2
	c-0.8,2.1-1.1,4.3-1.1,6.5c-0.5-1.1-1.1-2.2-2.1-3c-16.2-13.7-36.2-30.9-55.2-47.1l54.8,27.9c5,2.5,11.2,0.6,13.7-4.5
	c1.9-3.7,2.8-5.6-4.7-13.4l0.1-0.4l-1-0.4c-6.2-6.5-17.7-16.8-38-34.5c18.6,9.6,38.2,19.5,54.8,28c1.5,0.7,3.1,1.1,4.7,1.1
	c3.3,0,6.4-1.5,8.3-4.4c3-4.2,2.4-9.9-1.3-13.4L466,390.8c14.3,7.4,28.2,14.7,38.4,20c30.4,15.8,30.4,15.8,34.5,14.5
	c2.6-0.8,4.8-2.7,6-5.1c2.2-4.2,3.1-6.2-5-13.9l0.1-0.1c-0.1-0.1-0.2-0.1-0.4-0.2c-4.4-4.1-11.3-9.7-22-18.1l33.3,17
	c5,2.6,11.3,0.5,13.8-4.5c1.8-3.5,2.8-5.7-4.7-13.4l0.2-0.7l-1.5-1.1c-4.5-4.4-11.6-3.3-22.6-20.3h0.1c38.6,17,39.8,20.1,43.4,18.9
	c3.4-1.1,6.1-3.1,6.9-6.7c0.8-3.6-0.3-7.2-2.9-9.7l-47.3-45c67,35,67.2,34.9,72.1,33.3c3.5-1.1,6.2-4.1,6.9-7.7
	c0.8-3.6-0.5-7.4-3.3-9.8c-11.7-10-25.7-22.2-39.6-34.2c55.4,28.7,56.7,28.2,60.8,26.9c3.4-1,6-3.9,6.8-7.3s-0.1-7.1-2.7-9.7
	c-10.8-10.8-23.9-24-36.5-36.8c54.3,28.1,55.4,27.9,59.7,26.4c2.6-0.8,4.8-2.6,6-5c1.3-2.4,1.5-5.3,0.7-7.8l-10.1-30.9
	c28.7,15.1,29.5,14.8,33.8,13.5l-3.1-9.7l3.1-9.7c-3-1.2-23.8-11.9-43.4-22.3L741.3,231.7L741.3,231.7z"/>
</svg>
