<?xml version="1.0" encoding="utf-8"?>
<!-- Generator: $$$/GeneralStr/196=Adobe Illustrator 27.6.0, SVG Export Plug-In . SVG Version: 6.00 Build 0)  -->
<svg version="1.1" id="Ebene_1" xmlns="http://www.w3.org/2000/svg" xmlns:xlink="http://www.w3.org/1999/xlink" x="0px" y="0px"
	 viewBox="0 0 1000 1000" style="enable-background:new 0 0 1000 1000;" xml:space="preserve">
<path d="M207.2,228.5L478.5,500L205.3,773.3c-4.9,4.9-6.4,12.2-3.7,18.6c2.6,6.3,8.9,10.5,15.8,10.5h285.3c4.5,0,8.8-1.8,12.1-5
	L800,512.1V488L514.8,202.5c-3.3-3.2-7.6-5-12.1-5H217.4c-0.1,0.1-0.2,0.1-0.4,0c-9.4,0-17.1,7.7-17.1,17.1
	C200,220.3,202.8,225.4,207.2,228.5L207.2,228.5z M375.8,651l45.7-45.7c0.2,0.8-0.1,1.6,0.2,2.3c1.2,2.4,3.4,4.3,6.1,5.1
	c1.4,0.4,2.7,0.8,9-1.5v0.1l0.1-0.1c8.4-3.1,25.7-11.2,63.7-30.4c-82,51.1-125.5,78.2-148.5,93.8L375.8,651L375.8,651z M299.5,727.4
	l29-29c0.2,0.7,0.5,1.3,0.8,2c1.2,2.4,3.4,4.2,6,5.1c0.5,0.1,1,0.3,1.6,0.3c1.3,0,3.5-0.5,8.6-2.8c10.8-4.7,34.7-16.6,91.5-45.6
	l-164.2,96.7L299.5,727.4z M309.9,768.3h-18c7.5-3.9,16.6-8.6,28.6-14.8c23.8-12.4,58.7-30.5,98.7-51.2
	c-63,36.5-92.7,54.3-106.1,64.3L309.9,768.3z M495.6,768.3h-2.8c1.8-0.9,3.9-2,5.9-3L495.6,768.3z M446.8,768.3h-18.2
	c12.4-6.4,28.2-14.6,49.2-25.5c9.1-4.7,18.8-9.7,28.8-14.8C485.9,742.1,465.2,756,446.8,768.3z M432.9,737.3
	c-23.9,14.9-38.2,23.8-46.4,29.6c-1.5,0.8-2.5,1.2-2.9,1.5h-28.5L508,690.5L432.9,737.3L432.9,737.3z M449.7,577.1l65-65
	c1.6-1.6,2.7-3.5,3.6-5.4l-0.1,0.7c0.7,3.6,3.4,6.6,7,7.7c2.7,0.9,4.2,1.3,22.9-7.7L449.7,577.1z M613.7,650.2l-12.6,6.3
	c5.7-3.5,11.3-7,16.8-10.5L613.7,650.2z M688.3,575.6L620.9,610c26.1-15,52.2-29.9,77.4-44.3L688.3,575.6L688.3,575.6z M753.4,510.4
	l-0.1,0.1c-14.2,5.3-52.2,23.7-166.9,82.6L740,502.5l13.6,7.7L753.4,510.4L753.4,510.4z M495.6,231.7L763.8,500l-9.9,9.9l-16-25.8
	c-1.4-0.4-2.3-0.8-8,1.5l-0.4-0.7l-5.3,3.1c-17.7,8.1-61.3,30.6-176.4,89.5l-18.2,9.4c111.4-69.4,157.1-98,174.9-111.8
	c1.5-0.8,3.1-1.7,4.7-2.5l-0.5-1c7.9-6.9,6.7-9.2,4.8-12.7c-1.2-2.4-3.4-4.3-6-5.1c-2.6-0.8-5.1-0.3-7.9,0.7
	c-47.1,24.7-105.8,55.3-156.5,81.5l135.3-95.9c4.4-3.1,5.6-9.1,2.8-13.7s-9-6.7-13.5-3.8c-20,10.5-45.2,23.5-68.8,35.7
	c28.1-24.1,42.7-37,49.9-44.8l0.5-0.5c7.4-8,6.4-10.2,4.6-13.6c-2.6-5-8.7-7.1-13.7-4.5L585,423c10.4-9.1,18.5-16.2,24.8-21.8
	c6.4-5.6,10.8-9.7,14-12.9c8-8,7.1-9.9,5-14c-1.2-2.4-3.4-4.3-6-5.1c-3.5-1.1-4-1.4-71.3,32.9l46.8-44.1c3.3-3.1,4.2-8,2.1-12
	c-1.2-2.5-3.4-4.3-6.1-5.2c-3.8-1.2-5-1.7-37.5,14.9c8.6-6.8,14.4-11.6,18.3-15.2l1-0.5l-0.1-0.2c7.7-7.4,6.7-9.4,4.6-13.5
	c-2.6-5-8.8-7-13.8-4.5l-41.2,21c11-8.8,21.8-17.4,31.2-24.8c4.2-3.3,5.1-9.1,2.3-13.6c-2.8-4.4-8.6-5.9-13.2-3.5h-0.1
	c-19.2,9.9-43.4,22.4-65.6,33.9l48.5-46.2c2.6-2.5,3.8-6.2,2.9-9.7c-0.8-3.5-3.4-6.4-6.8-7.5c-4.7-1.5-4.8-1.6-60,27.2
	c18.8-16.5,29.6-26.3,35.6-32.6l1.1-0.6l-0.2-0.4c7.3-8,6.3-9.9,4.5-13.3c-1.2-2.4-3.4-4.2-6-5.1s-5.7-0.7-7.9,0.7
	c-20.8,10.9-47.7,24.9-71.4,37c42.3-42.8,41.6-44,38.6-50c-0.5-1-1.3-1.9-2.1-2.7L495.6,231.7L495.6,231.7z M367.1,231.7h75
	c-25.7,13.4-60.6,31.3-82.6,42.7l10.5-32.1C371.2,238.4,370,234.4,367.1,231.7z M352.3,231.7c-19.6,10.3-40.5,21.1-43.4,22.3
	l3.1,9.7l-3.1,9.7c4.2,1.3,5,1.6,33.8-13.5l-10.1,30.9c-0.8,2.6-0.7,5.4,0.7,7.8c1.2,2.4,3.4,4.2,6,5c4.3,1.5,5.3,1.7,59.7-26.4
	c-12.6,12.8-25.8,26-36.5,36.8c-2.5,2.6-3.5,6.2-2.7,9.7s3.4,6.3,6.8,7.3c4.1,1.3,5.4,1.8,60.8-26.9c-13.9,12-27.9,24.1-39.6,34.2
	c-2.8,2.4-4.1,6.2-3.3,9.8c0.7,3.6,3.4,6.6,6.9,7.7c5,1.6,5.1,1.6,72.1-33.3l-47.3,45c-2.6,2.5-3.7,6.1-2.9,9.7
	c0.8,3.6,3.4,5.5,6.9,6.7c3.6,1.1,4.8-1.9,43.4-18.9h0.1c-11,17-18.1,15.9-22.6,20.3l-1.5,1.1l0.2,0.7c-7.6,7.7-6.5,9.9-4.7,13.4
	c2.6,5,8.8,7.1,13.8,4.5l33.3-17c-10.7,8.3-17.6,14-22,18.1l-0.4,0.2l0.1,0.1c-8.2,7.6-7.2,9.6-5,13.9c1.2,2.4,3.4,4.2,6,5.1
	c4.2,1.3,4.2,1.3,34.5-14.5c10.2-5.3,24.1-12.6,38.4-20l-48.5,45.7c-3.7,3.5-4.3,9.2-1.3,13.4c2,2.8,5.1,4.4,8.3,4.4
	c1.6,0,3.1-0.4,4.7-1.1c16.6-8.5,36.1-18.5,54.8-28c-20.3,17.7-31.8,28-38,34.5l-1,0.4l0.1,0.4c-7.5,7.9-6.5,9.7-4.7,13.4
	c2.6,5,8.7,7,13.7,4.5l54.8-27.9c-18.9,16.2-39,33.3-55.2,47.1c-1,0.8-1.5,1.9-2.1,3c0.1-2.2-0.3-4.5-1.1-6.5l-0.1-0.2
	c-0.8-2.1-2.1-4.1-3.8-5.9l-256-256.3L352.3,231.7L352.3,231.7z"/>
</svg>
