<?xml version="1.0" encoding="utf-8"?>
<!-- Generator: $$$/GeneralStr/196=Adobe Illustrator 27.6.0, SVG Export Plug-In . SVG Version: 6.00 Build 0)  -->
<svg version="1.1" id="Ebene_1" xmlns="http://www.w3.org/2000/svg" xmlns:xlink="http://www.w3.org/1999/xlink" x="0px" y="0px"
	 viewBox="0 0 1000 1000" style="enable-background:new 0 0 1000 1000;" xml:space="preserve">
<path d="M827.6,800.7C790.5,747,747,699.9,687.1,671.2C610,634.3,522,638,458.6,709.1c-26.5,29.7-49.3,62.8-74.6,93.7
	c-18.9,23-37.6,46.5-59.1,67c-21.1,20.1-45.4,20.9-70.6,5.9c-12.2-7.3-23.9-16-34.2-25.8c-27.6-26.1-33.6-53.1-18.2-80.9
	c7.3-13,19.2-20.3,23-18.8c2.3,1,4.6,1.8,7,2.4c14.8,3.9,30.2,7.8,43.3-3.1c63.9-53.1,127.4-106.7,191.2-160
	c46.1-38.6,92.4-76.8,138.4-115.4c5.5-4.6,10.9-9.4,16.5-14.3c9-8,4.7-18-9-23.9c-53.9-22.8-92.9-59.3-114.4-113.9
	c-5.5-13.9-9.4-24.8-10.7-23.7c-0.8,0.7-1.5,1.4-2.1,2.1c-58.7,69.4-117.3,138.8-175.8,208.3C271.1,554.2,233.4,600,195,645.3
	c-12.3,14.5-16.9,30.9-13.2,48.6c2,9.7-0.2,15.7-6.1,22.7c-41.4,49.2-45.7,104.9-8.8,150.8c15,18.7,34.3,35.2,54.3,48.5
	c50,33.1,101.6,27.6,145.5-13.2c13.3-12.4,25.6-26.1,36.8-40.4c27.5-35.1,53.3-71.7,81.4-106.2c21-25.8,46.1-47.2,80.7-53.5
	c45.8-8.1,86.8,4.7,124.4,30c51.4,34.6,88.3,82.2,118.6,135.4c9.4,16.5,23.6,22.1,37.4,14.4c13.7-7.7,17.1-22.7,7.8-39.3
	C845.6,828.8,837.1,814.4,827.6,800.7L827.6,800.7z M841.5,308.6c9-24.7,12.2-54,9.4-83.3c-9.1-93.4-92-173.2-190.3-161.7
	c-19.8,2.3-38.1,8-55.3,17.4c-13.1,7.2-16.1,25.5-7.7,37.8c55.5,82.2,125.8,147.8,209,200.1C819.3,326.8,836.5,322.7,841.5,308.6
	L841.5,308.6z M792.4,380.1c4.3-3.8-2.5-13.2-15.1-21.3c-84.7-55.1-155.9-122.6-212.5-206.2c-8.4-12.3-16.6-19.9-18.8-16.5
	c-1.5,2.2-2.8,4.2-4,6.2c-43.7,73.1-28.5,171.3,35.7,230.6c59.3,54.8,144.4,60.5,206.8,13.9C787.1,384.8,789.8,382.5,792.4,380.1
	L792.4,380.1z"/>
</svg>
