<?xml version="1.0" encoding="utf-8"?>
<!-- Generator: $$$/GeneralStr/196=Adobe Illustrator 27.6.0, SVG Export Plug-In . SVG Version: 6.00 Build 0)  -->
<svg version="1.1" id="Ebene_1" xmlns="http://www.w3.org/2000/svg" xmlns:xlink="http://www.w3.org/1999/xlink" x="0px" y="0px"
	 viewBox="0 0 1000 1000" style="enable-background:new 0 0 1000 1000;" xml:space="preserve">
<path d="M799.8,509.3l-2.3-17.1c-0.6-2.9-2.7-5.2-5.2-5.2H668.2l-2.1-16.4h98.3c1.7,0,3.1-0.8,4.2-2.3c0.8-1.2,1.2-3.1,1-4.8
	l-2.9-20c-0.4-3.1-2.5-5.2-5-5.2h-351l109.7-109.7c8.1-8.1,9.3-22.3,2.6-31.6l-41.6-58c-6.7-9.3-18.7-10.3-26.9-2.2L206.1,485.3
	c-8.1,8.1-8.1,21.3,0,29.4l248.4,248.4c8.1,8.1,20,7.1,26.6-2.4L522,702c6.6-9.4,5.3-23.7-2.8-31.8L410.8,561.8h331.6
	c1.5,0,2.9-0.8,4-2.3c1-1.2,1.5-3.1,1-5l-2.3-16.2c-0.4-2.9-2.7-5.2-5.2-5.2h-93.5l-2.1-16.4h150.5c1.5,0,2.9-0.8,4-2.3
	C799.8,513,800.3,511.2,799.8,509.3L799.8,509.3z"/>
</svg>
