<?xml version="1.0" encoding="utf-8"?>
<!-- Generator: $$$/GeneralStr/196=Adobe Illustrator 27.6.0, SVG Export Plug-In . SVG Version: 6.00 Build 0)  -->
<svg version="1.1" id="Ebene_1" xmlns="http://www.w3.org/2000/svg" xmlns:xlink="http://www.w3.org/1999/xlink" x="0px" y="0px"
	 viewBox="0 0 1000 1000" style="enable-background:new 0 0 1000 1000;" xml:space="preserve">
<path d="M200.2,509.3l2.3-17.1c0.6-2.9,2.7-5.2,5.2-5.2h124.1l2.1-16.4h-98.3c-1.7,0-3.1-0.8-4.2-2.3c-0.8-1.2-1.2-3.1-1-4.8l2.9-20
	c0.4-3.1,2.5-5.2,5-5.2h351L479.5,328.6c-8.1-8.1-9.3-22.3-2.6-31.6l41.6-57.9c6.7-9.3,18.8-10.3,26.9-2.2l248.4,248.4
	c8.1,8.1,8.1,21.3,0,29.4L545.5,763.2c-8.1,8.1-20,7.1-26.6-2.4L478,702c-6.6-9.4-5.3-23.7,2.8-31.8l108.4-108.4H257.6
	c-1.5,0-2.9-0.8-4-2.3c-1-1.2-1.5-3.1-1-5l2.3-16.2c0.4-2.9,2.7-5.2,5.2-5.2h93.5l2.1-16.4H205.2c-1.5,0-2.9-0.8-4-2.3
	C200.2,513,199.7,511.2,200.2,509.3L200.2,509.3z"/>
</svg>
