<?xml version="1.0" encoding="utf-8"?>
<!-- Generator: $$$/GeneralStr/196=Adobe Illustrator 27.6.0, SVG Export Plug-In . SVG Version: 6.00 Build 0)  -->
<svg version="1.1" id="Ebene_1" xmlns="http://www.w3.org/2000/svg" xmlns:xlink="http://www.w3.org/1999/xlink" x="0px" y="0px"
	 viewBox="0 0 1000 1000" style="enable-background:new 0 0 1000 1000;" xml:space="preserve">
<path d="M937,580.3l-39.7-124.4c-1.7-5.4-7.6-9.3-13.3-9.1c-39.6,1.1-63.6-13-74.2-42.6c-5.2-14.5-5.6-29.2-0.8-43.9
	c5.8-18.3,18-30.7,33.6-39.4c5-2.8,7.8-9,6.1-14.5l-39.9-125.1c-1.7-5.4-7.5-8.4-12.9-6.7l-177.1,56.6l3.7,11.6
	c-4.8,2.4-9.8,4.5-15,6.2c-5.3,1.7-10.6,2.9-15.9,3.7l-3.7-11.6L69.7,406.4c-5.4,1.7-8.4,7.5-6.7,12.9L102.8,544
	c1.8,5.5,7.7,9.4,13.4,9.3c39.9-1.1,63.9,13.5,74.1,44.4c10.5,32.3,0.3,57.2-34,81.2c-4.7,3.2-7.2,10-5.4,15.4l39.7,124.3
	c1.8,5.5,7.5,8.4,12.9,6.7l518-165.4l-3.8-11.8c4.7-2.4,9.7-4.4,14.9-6.1c5.4-1.7,10.6-3,16-3.8l3.8,11.8l177.9-56.8
	C935.8,591.4,938.7,585.7,937,580.3L937,580.3z M598.9,275.8c4.7-2.4,9.7-4.4,14.9-6.1c5.4-1.7,10.6-3,16-3.8l16.3,51.1
	c-4.8,2.5-9.8,4.5-15,6.2c-5.3,1.7-10.6,3-15.9,3.7L598.9,275.8L598.9,275.8z M622.7,350.3c4.7-2.4,9.7-4.4,14.9-6.1
	c5.4-1.7,10.6-3,16-3.8l16.3,51.1c-4.8,2.4-9.8,4.5-15,6.2c-5.3,1.7-10.6,2.9-15.9,3.7L622.7,350.3L622.7,350.3z M646.5,424.7
	c4.7-2.4,9.7-4.4,14.9-6.1c5.4-1.7,10.6-3,16-3.8l16.3,51.1c-4.8,2.4-9.8,4.5-15,6.2c-5.3,1.7-10.6,2.9-15.9,3.7L646.5,424.7
	L646.5,424.7z M670.3,499.2c4.7-2.4,9.7-4.4,14.9-6.1c5.4-1.7,10.6-3,16-3.8l16.3,51.1c-4.8,2.5-9.8,4.5-15,6.2
	c-5.3,1.7-10.6,3-15.9,3.7L670.3,499.2z M726.3,621.1c-5.3,1.7-10.6,3-15.9,3.7L694,573.6c4.7-2.4,9.7-4.4,14.9-6.1
	c5.4-1.7,10.6-3,16-3.8l16.3,51.1C736.4,617.4,731.4,619.5,726.3,621.1L726.3,621.1z"/>
</svg>
