<?xml version="1.0" encoding="UTF-8"?><svg xmlns="http://www.w3.org/2000/svg" id="Ebene_2" data-name="Ebene 2" viewBox="0 0 55.44 46.58"><g id="Logo"><g><path d="m11.04,1.72c-3.68.04-7.36.06-11.04.06v44.8c7.36,0,14.72-.08,22.07-.22v-10.71c-3.68.07-7.36.13-11.04.16V1.72Z" style="fill: #ba9a83;"/><path d="m50.63,20.76c2.66-2.33,3.64-5.67,3.64-8.59C54.27,6.27,50.31.15,42.26,0c-1.82-.02-3.9.17-6.23.39-4.13.39-8.27.77-12.4,1.15v44.8c5.76-.53,11.51-1.06,17.27-1.61,9.09-.86,14.54-7.42,14.54-14.36,0-4.16-1.95-7.87-4.8-9.61Zm-15.97-9.86c1.71-.16,3.42-.32,5.13-.48,1.62-.15,3.44.98,3.44,3.12,0,2.14-1.82,3.55-3.44,3.7-1.71.16-3.42.32-5.13.48v-6.82Zm6.23,23.44c-2.08.2-4.16.39-6.23.58v-6.82c2.08-.19,4.15-.39,6.23-.58,1.69-.16,3.51.84,3.51,3.11,0,2.27-1.82,3.55-3.51,3.71Z" style="fill: #ba9a83;"/></g></g></svg>