<?xml version="1.0" encoding="UTF-8"?><svg xmlns="http://www.w3.org/2000/svg" xmlns:xlink="http://www.w3.org/1999/xlink" version="1.1" id="Ebene_1" x="0px" y="0px" viewBox="0 0 388.3 100" style="enable-background:new 0 0 388.3 100;" xml:space="preserve"><style type="text/css">.st0{fill:#965D35;}	.st1{fill:#451C0D;}</style><g id="Gruppe_4" transform="translate(0 0)"><g><g><g id="Gruppe_3" transform="translate(0 0)"><path id="Pfad_56" class="st0" d="M388.3,70.8l-0.9-0.5c-1.8-1-3.4-2.5-4.6-4.2c-0.3-0.4-0.5-0.8-0.5-0.8 c-0.9-1.5-2.1-2.7-3.7-3.5c-2.7-1.5-5.4-1.7-6.5-0.7c-0.8-0.6-1.7-1.1-2.6-1.7c1,0.3,2,0.5,3,0.4c1.2-0.1,2.3-0.5,3.3-1.1 c0,0,0.2-0.1,0.5-0.3c1.3-0.7,2.7-1.2,4.1-1.3L381,57c-0.1,0-0.3,0-0.4,0c0.1,0,0.3,0,0.4,0l-0.7,0.1c-1.4,0.1-2.9-0.1-4.2-0.6 c-0.3-0.1-0.6-0.3-0.6-0.3c-1.1-0.5-2.3-0.7-3.4-0.6c-2.3,0.2-4.1,1.3-4,2.5c0.1,0.4,0.3,0.7,0.6,0.9c-1.3-0.8-2.7-1.5-4.1-2.1 c1,0.1,2-0.1,2.9-0.5c1.1-0.4,2.1-1.1,2.8-2c0,0,0.1-0.2,0.4-0.4c1-1.1,2.2-1.9,3.6-2.4l0.7-0.3c-0.1,0.1-0.3,0.1-0.4,0.1 c0.1-0.1,0.2-0.1,0.4-0.2l-0.7,0.3c-1.3,0.5-2.8,0.7-4.2,0.6c-0.4,0-0.6-0.1-0.6-0.1c-1.2-0.2-2.4-0.1-3.5,0.4 c-2.2,0.8-3.6,2.4-3.1,3.5c0,0.1,0.1,0.2,0.2,0.2c-1.2-0.5-2.5-1-3.7-1.5c1.1-0.1,2.1-0.4,3-1c1-0.6,1.9-1.5,2.4-2.5 c0,0,0.1-0.2,0.3-0.5c0.8-1.2,1.8-2.3,3.1-3.1l0.6-0.4c-0.1,0.1-0.2,0.1-0.4,0.2c0.1-0.1,0.2-0.2,0.3-0.2l-0.6,0.4 c-1.2,0.8-2.6,1.2-4,1.4c-0.4,0-0.6,0-0.6,0c-1.2,0-2.3,0.4-3.3,1c-2,1.2-3,3-2.4,4l0.1,0.1c-1.3-0.4-2.7-0.8-4-1.2 c1-0.2,1.9-0.7,2.6-1.3c1-0.7,1.7-1.7,2.2-2.8c0,0,0.1-0.2,0.2-0.5c0.7-1.3,1.6-2.5,2.8-3.4l0.6-0.5c-0.1,0.1-0.2,0.2-0.3,0.2 c0.1-0.1,0.2-0.2,0.3-0.3l-0.6,0.5c-1.2,0.9-2.5,1.5-4,1.8c-0.4,0.1-0.6,0.1-0.6,0.1c-1.2,0.1-2.3,0.6-3.3,1.4 c-1.8,1.4-2.7,3.2-2.1,4.2c-1.3-0.3-2.6-0.6-3.9-0.9c0.8-0.3,1.6-0.7,2.3-1.3c1-0.7,1.7-1.8,2.1-2.9c0,0,0.1-0.2,0.2-0.5 c0.6-1.4,1.5-2.6,2.7-3.5l0.6-0.5c-0.1,0.1-0.2,0.2-0.3,0.3c0.1-0.1,0.2-0.2,0.3-0.3l-0.6,0.5c-1.1,0.9-2.5,1.6-3.9,2 c-0.4,0.1-0.6,0.1-0.6,0.1c-1.2,0.2-2.3,0.7-3.2,1.5c-1.7,1.4-2.5,3.2-2,4.2c-1.5-0.3-3-0.5-4.6-0.7c2.2-0.6,4-2.2,4.8-4.4 c0,0,0.1-0.2,0.2-0.5c0.5-1.3,1.3-2.5,2.4-3.5l0.5-0.5c-0.1,0.1-0.2,0.2-0.3,0.3c0.1-0.1,0.2-0.2,0.3-0.3l-0.5,0.5 c-1,0.9-2.3,1.6-3.6,2c-0.3,0.1-0.6,0.1-0.6,0.1c-1.1,0.2-2.2,0.8-3,1.6c-1.7,1.5-2.4,3.4-1.6,4.3c0.1,0.1,0.2,0.1,0.3,0.2 c-1.4-0.2-2.9-0.3-4.3-0.5c2.1-0.7,3.7-2.5,4.3-4.7c0,0,0-0.2,0.1-0.5c0.4-1.3,1.1-2.6,2-3.6l0.5-0.5c-0.1,0.1-0.2,0.2-0.3,0.3 c0.1-0.1,0.2-0.2,0.3-0.3l-0.5,0.5c-0.9,1-2.1,1.8-3.3,2.3c-0.3,0.1-0.6,0.2-0.6,0.2c-1.1,0.3-2,1-2.8,1.8 c-1.5,1.6-2,3.6-1.2,4.3c0.1,0,0.1,0.1,0.2,0.1c-1.1-0.1-2.3-0.2-3.4-0.2c0.5-0.3,0.9-0.7,1.3-1.2c0.6-0.7,1-1.6,1.2-2.6 c0,0,0-0.2,0.1-0.5c0.3-1.2,0.8-2.2,1.6-3.2l0.4-0.5c-0.1,0.1-0.1,0.2-0.2,0.3c0.1-0.1,0.1-0.2,0.2-0.3l-0.4,0.5 c-0.7,0.9-1.7,1.6-2.7,2.1c-0.3,0.1-0.5,0.2-0.5,0.2c-0.9,0.3-1.7,0.9-2.3,1.7c-0.8,0.9-1.3,2-1.1,3.2c-9.9-1.7-23.7-2.2-32-0.7 c-1,0.2-2.2-0.4-1.6,2.1l0.4,0.6c11-1.2,22-1.5,33-0.7c-0.5,0.7-0.4,2.1,0.2,3.5c0.4,0.9,1,1.6,1.8,2.2c0,0,0.2,0.1,0.4,0.3 c0.9,0.7,1.7,1.7,2.2,2.7l0.3,0.5c0-0.1-0.1-0.2-0.1-0.3c0,0.1,0.1,0.2,0.1,0.3l-0.3-0.5c-0.5-1.1-0.7-2.2-0.7-3.4 c0-0.3,0-0.5,0-0.5c0.1-0.9-0.1-1.9-0.5-2.8c-0.3-0.7-0.8-1.4-1.5-1.9c1.2,0.1,2.3,0.2,3.5,0.3c-0.9,0.5-1.1,2.4-0.3,4.3 c0.4,1,1,1.9,1.9,2.6c0,0,0.2,0.1,0.4,0.3c1,0.9,1.8,2,2.3,3.3l0.3,0.6c0-0.1-0.1-0.2-0.1-0.4c0,0.1,0.1,0.2,0.1,0.4l-0.3-0.6 c-0.5-1.2-0.7-2.6-0.6-3.9c0-0.3,0.1-0.6,0.1-0.6c0.2-1.1,0-2.2-0.4-3.2c-0.4-1.1-1.1-2.1-2.1-2.7c1.4,0.1,2.8,0.3,4.1,0.4 c-0.9,0.5-1.2,2.3-0.6,4.2c0.3,1.1,0.9,2,1.7,2.7c0,0,0.2,0.1,0.4,0.3c0.9,1,1.6,2.2,2.1,3.5l0.2,0.7c0-0.1-0.1-0.2-0.1-0.4 c0,0.1,0.1,0.2,0.1,0.4l-0.2-0.7c-0.4-1.3-0.5-2.6-0.3-4c0.1-0.3,0.1-0.6,0.1-0.6c0.2-1.1,0.2-2.2-0.2-3.2 c-0.3-1.1-1-2.1-1.9-2.8c1.4,0.2,2.8,0.4,4.2,0.6c-0.8,0.7-1,2.5-0.3,4.5c0.3,1.2,1,2.2,1.9,3c0,0,0.2,0.2,0.4,0.4 c1,1.1,1.8,2.4,2.3,3.8l0.2,0.7c0-0.1-0.1-0.3-0.1-0.4c0,0.1,0.1,0.3,0.1,0.4l-0.2-0.7c-0.4-1.4-0.6-2.9-0.4-4.3 c0.1-0.4,0.1-0.6,0.1-0.6c0.3-1.2,0.2-2.4-0.2-3.5c-0.3-1-0.9-2-1.6-2.8c1.6,0.3,3.1,0.6,4.5,0.9c-0.1,0-0.2,0-0.3,0 c-1.1,0.4-1.5,2.5-0.8,4.7c0.3,1.2,1,2.2,1.9,3c0,0,0.2,0.2,0.4,0.4c1,1.1,1.8,2.4,2.3,3.8l0.2,0.7c0-0.1-0.1-0.3-0.1-0.4 c0,0.1,0.1,0.3,0.1,0.4l-0.2-0.7c-0.4-1.4-0.6-2.9-0.4-4.3c0.1-0.4,0.1-0.6,0.1-0.6c0.3-1.2,0.2-2.4-0.2-3.5 c-0.3-1.3-1.2-2.5-2.3-3.2c1.8,0.4,3.5,0.8,5,1.3c-1.1,0.3-1.6,2.4-1.1,4.7c0.2,1.2,0.8,2.3,1.7,3.2c0,0,0.2,0.2,0.4,0.4 c1,1.2,1.6,2.5,2,4l0.2,0.7c0-0.1-0.1-0.3-0.1-0.4c0,0.1,0.1,0.3,0.1,0.4l-0.2-0.7c-0.3-1.4-0.4-2.9,0-4.4 c0.1-0.4,0.2-0.6,0.2-0.6c0.4-1.2,0.4-2.4,0.1-3.6c-0.2-1.3-0.9-2.4-1.8-3.3c1.3,0.4,2.6,0.8,3.7,1.2c-0.1,0-0.1,0-0.2,0 c-1.1,0.4-1.3,2.6-0.4,4.8c0.4,1.1,1.1,2.1,2.1,2.9c0,0,0.2,0.1,0.5,0.4c1.1,1,2,2.3,2.5,3.7L366,69c-0.1-0.1-0.1-0.3-0.1-0.4 c0.1,0.1,0.1,0.3,0.2,0.4l-0.3-0.7c-0.5-1.4-0.8-2.9-0.7-4.3c0-0.4,0.1-0.6,0.1-0.6c0.2-1.2,0-2.4-0.5-3.6c-0.4-1-1-1.9-1.8-2.7 c1.6,0.6,3,1.2,4.3,1.7c-0.1,0-0.3,0-0.4,0.1c-1.1,0.4-1.3,2.5-0.4,4.7c0.4,1.1,1.1,2.1,2.1,2.8c0,0,0.2,0.1,0.4,0.3 c1.1,1,1.9,2.2,2.5,3.6l0.3,0.7c-0.1-0.1-0.1-0.3-0.1-0.4c0.1,0.1,0.1,0.2,0.2,0.4l-0.3-0.7c-0.5-1.3-0.8-2.8-0.7-4.2 c0-0.4,0.1-0.6,0.1-0.6c0.2-1.2,0-2.4-0.4-3.4c-0.4-0.9-0.9-1.8-1.6-2.5c1.3,0.6,2.4,1.2,3.2,1.7c-0.1,0.1-0.2,0.2-0.2,0.3 c-0.8,1.5,0.9,4.1,3.8,5.7c1.5,0.9,3.2,1.3,4.9,1.3c0,0,0.4,0,0.8,0c2.1,0.1,4.2,0.7,6.1,1.8L388.3,70.8 c-0.2-0.1-0.4-0.2-0.5-0.3C387.9,70.6,388.1,70.7,388.3,70.8 M372.9,55.9c1,0,1.7,0.3,1.7,0.6s-0.8,0.6-1.8,0.6 s-1.7-0.3-1.7-0.6C371.1,56.1,371.9,55.9,372.9,55.9 M366.8,52.5c0.9-0.3,1.7-0.2,1.8,0.1c0.1,0.3-0.6,0.8-1.5,1.1 s-1.7,0.2-1.8-0.1S365.9,52.7,366.8,52.5 M360.8,49.9c0.9-0.4,1.7-0.5,1.8-0.2s-0.4,0.9-1.3,1.3c-0.9,0.4-1.7,0.5-1.8,0.2 C359.4,51,360,50.4,360.8,49.9 M354.4,48c0.8-0.5,1.7-0.7,1.8-0.4s-0.4,1-1.2,1.5s-1.7,0.7-1.8,0.4S353.6,48.5,354.4,48 M347.8,46.6c0.8-0.6,1.6-0.8,1.8-0.5c0.2,0.3-0.3,1-1.1,1.5c-0.8,0.6-1.6,0.8-1.8,0.5S347,47.2,347.8,46.6 M341.3,45.4 c0.7-0.6,1.5-0.8,1.7-0.5s-0.3,0.9-1,1.5s-1.5,0.8-1.7,0.5C340.1,46.7,340.5,46,341.3,45.4 M335.3,44.8c0.7-0.6,1.4-0.9,1.6-0.7 s-0.2,0.9-0.9,1.5c-0.7,0.6-1.4,0.9-1.6,0.7C334.2,46.1,334.6,45.4,335.3,44.8 M329.3,45.6c0.6-0.6,1.2-0.8,1.3-0.6 s-0.1,0.8-0.7,1.4c-0.6,0.6-1.2,0.8-1.3,0.6S328.7,46.2,329.3,45.6 M329.8,52c0.3-0.1,0.7,0.4,0.9,1.2c0.3,0.7,0.3,1.4,0,1.5 s-0.7-0.4-0.9-1.2C329.6,52.8,329.5,52.1,329.8,52 M335.1,53.1c0.3-0.1,0.7,0.5,1,1.4c0.2,0.9,0.2,1.6-0.1,1.7s-0.7-0.5-1-1.4 C334.7,53.9,334.8,53.1,335.1,53.1 M340.3,53.7c0.3-0.1,0.7,0.6,0.9,1.5s0.1,1.6-0.2,1.7c-0.3,0.1-0.7-0.6-0.9-1.5 C339.9,54.6,340,53.8,340.3,53.7 M346.3,54.6c0.3-0.1,0.8,0.6,1,1.6s0.1,1.8-0.2,1.8c-0.3,0.1-0.8-0.7-1-1.6 S346,54.6,346.3,54.6 M352.3,56.2c0.3-0.1,0.8,0.7,1,1.6s0.1,1.8-0.2,1.8c-0.3,0.1-0.8-0.6-1-1.6 C351.9,57.1,352,56.2,352.3,56.2 M358.3,57.8c0.3,0,0.7,0.7,0.9,1.7c0.1,1,0,1.8-0.4,1.8c-0.3,0-0.7-0.7-0.9-1.7 C357.8,58.7,358,57.8,358.3,57.8 M363.5,59.1c0.3-0.1,0.8,0.6,1.1,1.6s0.2,1.8-0.1,1.9c-0.3,0.1-0.8-0.6-1.1-1.6 S363.2,59.2,363.5,59.1 M369.2,61.4c0.3-0.1,0.8,0.6,1.1,1.5c0.3,0.9,0.2,1.7-0.1,1.8c-0.3,0.1-0.8-0.6-1.1-1.5 C368.8,62.3,368.9,61.5,369.2,61.4 M380.8,65c-0.3,0.4-1.4,0.1-2.6-0.7s-1.8-1.8-1.6-2.2s1.4-0.1,2.6,0.7S381.1,64.6,380.8,65"/><path id="Pfad_57" class="st0" d="M0,56.6l0.9,0.5c1.8,1,3.4,2.5,4.6,4.2C5.9,61.7,6,62.1,6,62.1c0.9,1.5,2.1,2.7,3.7,3.5 c2.7,1.5,5.4,1.7,6.5,0.7c0.8,0.6,1.7,1.1,2.6,1.7c-1-0.3-2-0.5-3-0.4c-1.2,0.1-2.3,0.5-3.3,1.1c0,0-0.2,0.1-0.5,0.3 c-1.3,0.7-2.7,1.2-4.1,1.3l-0.7,0.1c0.1,0,0.3,0,0.4,0c-0.1,0-0.3,0-0.4,0L8,70.3c1.4-0.1,2.9,0.1,4.2,0.6 c0.3,0.1,0.6,0.3,0.6,0.3c1.1,0.5,2.3,0.7,3.4,0.6c2.3-0.2,4.1-1.3,4-2.5c-0.1-0.4-0.3-0.7-0.6-0.9c1.3,0.8,2.7,1.5,4.1,2.1 c-1-0.1-2,0.1-2.9,0.5c-1.1,0.4-2.1,1.1-2.8,2c0,0-0.1,0.2-0.4,0.4c-1,1.1-2.2,1.9-3.6,2.4l-0.7,0.3c0.1-0.1,0.3-0.1,0.4-0.1 c-0.1,0.1-0.2,0.1-0.4,0.2l0.7-0.3c1.3-0.5,2.8-0.7,4.2-0.6c0.4,0,0.6,0.1,0.6,0.1c1.2,0.2,2.4,0.1,3.5-0.4 c2.2-0.8,3.6-2.4,3.1-3.5c0-0.1-0.1-0.2-0.2-0.2c1.2,0.5,2.5,1,3.7,1.5c-1.1,0.1-2.1,0.4-3,1c-1,0.6-1.9,1.5-2.4,2.5 c0,0-0.1,0.2-0.3,0.5c-0.8,1.2-1.8,2.3-3.1,3.1l-0.6,0.4c0.1-0.1,0.2-0.1,0.4-0.2c-0.1,0.1-0.2,0.2-0.3,0.2l0.6-0.4 c1.2-0.8,2.6-1.2,4-1.4c0.4,0,0.6,0,0.6,0c1.2,0,2.3-0.4,3.3-1.1c2-1.2,3-3,2.4-4l-0.1-0.1c1.3,0.4,2.7,0.8,4,1.2 c-1,0.2-1.9,0.7-2.6,1.3c-1,0.7-1.7,1.7-2.2,2.8c0,0-0.1,0.2-0.2,0.5c-0.7,1.3-1.6,2.5-2.8,3.4L26.2,83c0.1-0.1,0.2-0.2,0.3-0.2 c-0.1,0.1-0.2,0.2-0.3,0.3l0.6-0.5c1.2-0.9,2.5-1.5,4-1.8c0.4-0.1,0.6-0.1,0.6-0.1c1.2-0.1,2.3-0.6,3.3-1.4 c1.8-1.4,2.7-3.2,2.1-4.2c1.3,0.3,2.6,0.6,3.9,0.9c-0.8,0.3-1.6,0.7-2.3,1.3c-1,0.7-1.7,1.8-2.1,2.9c0,0-0.1,0.2-0.2,0.5 c-0.6,1.4-1.5,2.6-2.7,3.5l-0.6,0.5c0.1-0.1,0.2-0.2,0.3-0.3c-0.1,0.1-0.2,0.2-0.3,0.3l0.6-0.5c1.1-0.9,2.5-1.6,3.9-2 c0.4-0.1,0.6-0.1,0.6-0.1c1.2-0.2,2.3-0.7,3.2-1.5c1.7-1.4,2.5-3.2,2-4.2c1.5,0.3,3,0.5,4.6,0.7c-2.2,0.6-4,2.2-4.8,4.4 c0,0-0.1,0.2-0.2,0.5c-0.5,1.3-1.3,2.5-2.4,3.5L39.8,86c0.1-0.1,0.2-0.2,0.3-0.3c-0.1,0.1-0.2,0.2-0.3,0.3l0.5-0.5 c1-0.9,2.3-1.6,3.6-2c0.3-0.1,0.6-0.1,0.6-0.1c1.1-0.2,2.2-0.8,3-1.6c1.7-1.5,2.4-3.4,1.6-4.3c-0.1-0.1-0.2-0.1-0.3-0.2 c1.4,0.2,2.9,0.3,4.3,0.5c-2.1,0.7-3.7,2.5-4.3,4.7c0,0,0,0.2-0.1,0.5c-0.4,1.3-1.1,2.6-2,3.6l-0.5,0.5c0.1-0.1,0.2-0.2,0.3-0.3 c-0.1,0.1-0.2,0.2-0.3,0.3l0.5-0.5c0.9-1,2.1-1.8,3.3-2.3c0.3-0.1,0.6-0.2,0.6-0.2c1.1-0.3,2-1,2.8-1.8c1.5-1.6,2-3.6,1.2-4.3 c-0.1,0-0.1-0.1-0.2-0.1c1.1,0.1,2.3,0.2,3.4,0.2c-0.5,0.3-0.9,0.7-1.3,1.2c-0.6,0.7-1,1.6-1.2,2.6c0,0,0,0.2-0.1,0.5 c-0.3,1.2-0.8,2.2-1.6,3.2l-0.4,0.5c0.1-0.1,0.1-0.2,0.2-0.3c-0.1,0.1-0.1,0.2-0.2,0.3l0.4-0.5c0.7-0.9,1.7-1.6,2.7-2.1 c0.3-0.1,0.5-0.2,0.5-0.2c0.9-0.3,1.7-0.9,2.3-1.7c0.8-0.9,1.3-2,1.1-3.2c30.3,1.4,33.5-2.8,33.5-2.8l-0.2-1.8 c-7,2.3-17.6,4.1-33.2,3.3c0.5-0.7,0.4-2.1-0.2-3.5c-0.4-0.9-1-1.6-1.8-2.2c0,0-0.2-0.1-0.4-0.3c-0.9-0.7-1.7-1.7-2.2-2.7 l0.3-0.7c0,0.1,0.1,0.2,0.1,0.3c0-0.1-0.1-0.2-0.1-0.3l0.3,0.5c0.5,1.1,0.7,2.2,0.7,3.4c0,0.3,0,0.5,0,0.5 c-0.1,0.9,0.1,1.9,0.5,2.8c0.3,0.7,0.8,1.4,1.5,1.9c-1.2-0.1-2.3-0.2-3.5-0.3c0.9-0.5,1.1-2.4,0.3-4.3c-0.4-1-1-1.9-1.9-2.6 c0,0-0.2-0.1-0.4-0.3c-1-0.9-1.8-2-2.3-3.3l-0.3-0.6c0,0.1,0.1,0.2,0.1,0.4c0-0.1-0.1-0.2-0.1-0.4l0.3,0.6 c0.5,1.2,0.7,2.6,0.6,3.9c0,0.3-0.1,0.6-0.1,0.6c-0.2,1.1,0,2.2,0.4,3.2c0.4,1.1,1.1,2.1,2.1,2.7c-1.4-0.1-2.8-0.3-4.1-0.4 c0.9-0.5,1.2-2.3,0.6-4.2c-0.3-1.1-0.9-2-1.7-2.7c0,0-0.2-0.1-0.4-0.3c-0.9-1-1.6-2.2-2.1-3.5l-0.2-0.7c0,0.1,0.1,0.2,0.1,0.4 c0-0.1-0.1-0.2-0.1-0.4l0.2,0.7c0.4,1.3,0.5,2.6,0.3,4c-0.1,0.3-0.1,0.6-0.1,0.6c-0.2,1.1-0.2,2.2,0.2,3.2 c0.3,1.1,1,2.1,1.9,2.8c-1.4-0.2-2.8-0.4-4.2-0.6c0.8-0.7,1-2.5,0.3-4.5c-0.3-1.2-1-2.2-1.9-3c0,0-0.2-0.2-0.4-0.4 c-1-1.1-1.8-2.4-2.3-3.8l-0.2-0.7c0,0.1,0.1,0.3,0.1,0.4c0-0.1-0.1-0.3-0.1-0.4l0.2,0.7c0.4,1.4,0.6,2.9,0.4,4.3 c-0.1,0.4-0.1,0.6-0.1,0.6c-0.3,1.2-0.2,2.4,0.2,3.5c0.3,1,0.9,2,1.6,2.8c-1.6-0.3-3.1-0.6-4.5-0.9c0.1,0,0.2,0,0.3,0 c1.1-0.4,1.5-2.5,0.8-4.7c-0.3-1.2-1-2.2-1.9-3c0,0-0.2-0.2-0.4-0.4c-1-1.1-1.8-2.4-2.3-3.8l-0.2-0.7c0,0.1,0.1,0.3,0.1,0.4 c0-0.1-0.1-0.3-0.1-0.4l0.2,0.7c0.4,1.4,0.6,2.9,0.4,4.3c-0.1,0.4-0.1,0.6-0.1,0.6c-0.3,1.2-0.2,2.4,0.2,3.5 c0.3,1.3,1.2,2.5,2.3,3.2c-1.8-0.4-3.5-0.8-5-1.3c1.1-0.3,1.6-2.4,1.1-4.7c-0.2-1.2-0.8-2.3-1.7-3.2c0,0-0.2-0.2-0.4-0.4 c-1-1.2-1.6-2.5-2-4L29,59.4c0,0.1,0.1,0.3,0.1,0.4c0-0.1-0.1-0.3-0.1-0.4l0.2,0.7c0.3,1.4,0.4,2.9,0,4.4 c-0.1,0.4-0.2,0.6-0.2,0.6c-0.4,1.2-0.4,2.4-0.1,3.6c0.2,1.3,0.9,2.4,1.8,3.3c-1.3-0.4-2.6-0.8-3.7-1.2c0.1,0,0.1,0,0.2,0 c1.1-0.4,1.3-2.6,0.4-4.8c-0.4-1.1-1.1-2.1-2.1-2.9c0,0-0.2-0.1-0.5-0.4c-1.1-1-2-2.3-2.6-3.7l-0.3-0.7c0.1,0.1,0.1,0.3,0.1,0.4 c-0.1-0.1-0.1-0.3-0.2-0.4l0.3,0.7c0.5,1.4,0.8,2.9,0.7,4.3c0,0.4-0.1,0.6-0.1,0.6c-0.2,1.2,0,2.4,0.5,3.6c0.4,1,1,1.9,1.8,2.7 c-1.6-0.6-3-1.2-4.3-1.7c0.1,0,0.3,0,0.4-0.1c1.1-0.4,1.3-2.5,0.4-4.7c-0.4-1.1-1.1-2.1-2.1-2.8c0,0-0.2-0.1-0.4-0.3 c-1.1-1-1.9-2.2-2.5-3.6l-0.3-0.7c0.1,0.1,0.1,0.3,0.1,0.4c-0.1-0.1-0.1-0.2-0.2-0.4l0.3,0.7c0.5,1.3,0.8,2.8,0.7,4.2 c0,0.4-0.1,0.6-0.1,0.6c-0.2,1.2,0,2.4,0.4,3.4c0.4,0.9,0.9,1.8,1.6,2.5c-1.3-0.6-2.4-1.2-3.2-1.7c0.1-0.1,0.2-0.2,0.2-0.3 c0.8-1.5-0.9-4.1-3.8-5.7c-1.5-0.9-3.2-1.3-4.9-1.3c0,0-0.4,0-0.8,0c-2.1-0.1-4.2-0.7-6.1-1.8L0,56.6c0.2,0.1,0.4,0.2,0.5,0.3 C0.4,56.8,0.2,56.7,0,56.6 M15.4,71.5c-1,0-1.7-0.3-1.7-0.6s0.8-0.6,1.8-0.6s1.7,0.3,1.7,0.6S16.3,71.5,15.4,71.5 M21.5,74.9 c-0.9,0.3-1.7,0.2-1.8-0.1s0.6-0.8,1.5-1.1s1.7-0.2,1.8,0.1S22.4,74.6,21.5,74.9 M27.4,77.4c-0.9,0.4-1.7,0.5-1.8,0.2 s0.4-0.9,1.3-1.3s1.7-0.5,1.8-0.2S28.3,77,27.4,77.4 M33.8,79.4c-0.8,0.5-1.7,0.7-1.8,0.4s0.4-1,1.2-1.5s1.7-0.7,1.8-0.4 S34.7,78.9,33.8,79.4 M40.5,80.8c-0.8,0.6-1.6,0.8-1.8,0.5s0.3-1,1.1-1.5s1.6-0.8,1.8-0.5S41.3,80.2,40.5,80.8 M47,81.9 c-0.7,0.6-1.5,0.8-1.7,0.5s0.3-0.9,1-1.5s1.5-0.8,1.7-0.5S47.7,81.4,47,81.9 M53,82.5c-0.7,0.6-1.4,0.9-1.6,0.7s0.2-0.9,0.9-1.5 s1.4-0.9,1.6-0.7S53.7,81.9,53,82.5 M59,81.7c-0.6,0.6-1.2,0.8-1.3,0.6s0.1-0.8,0.7-1.4s1.2-0.8,1.3-0.6S59.6,81.2,59,81.7 M58.5,75.3c-0.3,0.1-0.7-0.4-0.9-1.2s-0.3-1.4,0-1.5s0.7,0.4,0.9,1.2S58.7,75.3,58.5,75.3 M53.2,74.3c-0.3,0.1-0.7-0.5-1-1.4 s-0.2-1.6,0.1-1.7s0.7,0.5,1,1.4S53.5,74.2,53.2,74.3 M47.9,73.6c-0.3,0.1-0.7-0.6-0.9-1.5s-0.1-1.6,0.2-1.7s0.7,0.6,0.9,1.5 S48.2,73.6,47.9,73.6 M41.9,72.8c-0.3,0.1-0.8-0.6-1-1.6s-0.1-1.8,0.2-1.8s0.8,0.7,1,1.6S42.3,72.7,41.9,72.8 M35.9,71.2 c-0.3,0.1-0.8-0.7-1-1.6s-0.1-1.8,0.2-1.8s0.8,0.6,1,1.6S36.3,71.1,35.9,71.2 M30,69.6c-0.3,0-0.7-0.7-0.9-1.7s0-1.8,0.4-1.8 s0.7,0.7,0.9,1.7S30.3,69.5,30,69.6 M24.7,68.2c-0.3,0.1-0.8-0.6-1.1-1.6s-0.2-1.8,0.1-1.9s0.8,0.6,1.1,1.6S25.1,68.2,24.7,68.2 M19.1,66c-0.3,0.1-0.8-0.6-1.1-1.5s-0.2-1.7,0.1-1.8s0.8,0.6,1.1,1.5C19.5,65.1,19.4,65.9,19.1,66 M7.4,62.4 c0.3-0.4,1.4-0.1,2.6,0.7s1.8,1.8,1.6,2.2s-1.4,0.1-2.6-0.7S7.1,62.8,7.4,62.4"/><path id="Pfad_58" class="st1" d="M45.7,21.3c-2.9,0-5.8,0-8.6,0v35.1c5.8,0,11.5-0.1,17.3-0.2v-8.4C51.5,48,48.6,48,45.7,48 V21.3z"/><path id="Pfad_59" class="st1" d="M55.8,56.3c7.4-0.2,14.8-0.4,22.1-0.7v-8.4c-4.5,0.2-9,0.4-13.5,0.5v-5.1 c3.1-0.1,6.1-0.2,9.2-0.3v-8.1c-3.1,0.1-6.1,0.2-9.2,0.3v-5.1c4.5-0.1,9-0.3,13.5-0.5v-8.4c-7.4,0.3-14.8,0.6-22.1,0.7 L55.8,56.3"/><path id="Pfad_60" class="st1" d="M79.4,55.5c2.9-0.1,5.8-0.3,8.7-0.4V20c-2.9,0.1-5.8,0.3-8.7,0.4V55.5z"/><path id="Pfad_61" class="st1" d="M110.8,53.7c1.3-0.1,2.6-0.2,4-0.3V18.3c-2.9,0.2-5.8,0.4-8.6,0.6V25c-4-3.6-9.5-5.5-16.5-5.1 V55c2.9-0.2,5.8-0.3,8.6-0.5V30.1c5.4,1.5,7.9,6,7.9,13v10.4c0.5-0.3,1.1-0.4,1.6-0.4C108.8,53.2,109.8,53.4,110.8,53.7"/><path id="Pfad_62" class="st1" d="M123.5,52.8c5-0.4,10-0.7,15-1.2v-8.4c-4.5,0.4-9,0.7-13.5,1.1v-5.1c3.1-0.2,6.1-0.5,9.2-0.7 v-8.1c-3.1,0.2-6.1,0.5-9.2,0.7V26c4.5-0.3,9-0.7,13.5-1.1v-8.4c-7.4,0.6-14.8,1.2-22.1,1.7v35.1c0.8-0.1,1.5-0.1,2.3-0.2 c0.6-0.5,1.3-0.7,2-0.8C121.6,52.4,122.5,52.5,123.5,52.8"/><path id="Pfad_63" class="st1" d="M163,49.5l1.2-0.1v-2.3c0-5-1.8-8.5-5-10.6c3-2.2,4.8-5.7,4.7-9.5c0-6.9-5-11.3-12-11.4 c-2.1,0-4.2,0.1-6.4,0.3c-1.9,0.2-3.7,0.3-5.6,0.5v35.1c2.9-0.2,5.8-0.5,8.6-0.7v-9.4c4.1-0.4,6.9,2.6,6.9,6.5v0.3 c0.2-0.1,0.5-0.2,0.8-0.2C158.6,47.7,160.9,48.3,163,49.5 M148.6,33.2v-9.4c3.6-0.3,6.6,0.7,6.6,4.3S152.2,32.9,148.6,33.2"/><path id="Pfad_64" class="st1" d="M190.3,36.7c0.1-3-1.3-5.8-3.8-7.5c1.9-1.7,2.9-4.2,2.8-6.7c0.2-5.1-3.8-9.4-8.9-9.5 c-0.2,0-0.3,0-0.5,0c-1.6,0-3.3,0.1-4.9,0.3c-3.2,0.3-6.5,0.6-9.7,0.9v35.1c4.5-0.4,9-0.8,13.5-1.3 C186.1,47.3,190.3,42.2,190.3,36.7 M174.1,21.5l4-0.4c1.3-0.2,2.5,0.8,2.7,2.1c0,0.1,0,0.2,0,0.3c0,1.5-1.2,2.8-2.7,2.9l-4,0.4 V21.5z M174.1,34.9l4.9-0.5c1.3-0.2,2.5,0.7,2.7,2c0,0.2,0,0.3,0,0.5c0,1.5-1.2,2.8-2.7,2.9l-4.9,0.5V34.9z"/><path id="Pfad_65" class="st1" d="M204.8,38.9c1.6-0.3,5.4,0.2,7.1,1.6c0.9,0.7,1.4,1.7,1.4,2.9c0,0.5-0.1,1-0.3,1.4l3.2-0.3 V9.4c-14.5,1.4-24.9,9.8-24.9,26.6v10.9l8.6-0.8V41l2.4-0.2C202.8,39.7,203.7,39.1,204.8,38.9 M207.5,20.3v11.5l-7.5,0.7 C200.5,26.8,202.8,22.6,207.5,20.3"/><path id="Pfad_66" class="st1" d="M234.6,36.8c2-0.1,3.9,0.3,5.6,1.2c1.8-2.7,2.7-5.9,2.7-9.1v-22c-2.9,0.2-5.8,0.5-8.6,0.8 v21.9c0,3.3-1,5.4-4,5.7s-4-1.7-4-5V8.4c-2.9,0.3-5.8,0.5-8.6,0.8v21.9c0,9.4,6.2,12.9,12,12.6c0.2-0.9,0.5-1.8,0.8-2.7 C231,40,232,37.2,234.6,36.8"/><path id="Pfad_67" class="st1" d="M259.7,32.3c-2.2,0.2-4.4,0.3-6.6,0.5v-5.1c3.1-0.3,6.1-0.5,9.2-0.7v-8.1 c-3.1,0.2-6.1,0.5-9.2,0.7v-5.1c4.5-0.4,9-0.7,13.5-1.1V5c-7.4,0.6-14.8,1.2-22.1,1.8v35.1c4.1-0.4,8.2-0.7,12.2-1v-0.1 C257.4,37.9,258.4,35,259.7,32.3"/><path id="Pfad_68" class="st1" d="M271.2,34.7c0,0.9-0.3,1.7-0.8,2.3l-0.2,0.2c0,0.1-0.1,0.1-0.1,0.2c-0.4,0.8-0.8,1.6-1.1,2.4 c2.6-0.2,5.1-0.4,7.7-0.6V30c4.1-0.3,6.9,2.7,6.9,6.7V39c2.9-0.2,5.8-0.4,8.6-0.5v-2.3c0-5-1.8-8.6-5-10.7 c3-2.1,4.8-5.6,4.7-9.3c0-6.9-5-11.5-12-11.8c-2.1,0-4.2,0-6.4,0.2c-1.9,0.1-3.7,0.3-5.6,0.4v25.9c0.7,0.3,1.3,0.6,1.8,1.1 C270.7,32.6,271.2,33.6,271.2,34.7 M276.7,12.4c3.6-0.2,6.6,0.8,6.6,4.4s-3.1,4.8-6.6,5V12.4z"/><path id="Pfad_69" class="st1" d="M310.1,8.4c-4-3.6-9.5-5.6-16.5-5.2c0,11.7,0,23.4,0,35.1c2.9-0.2,5.8-0.3,8.6-0.5V13.4 c5.4,1.5,7.9,6.1,7.9,13.1v10.9c2.9-0.1,5.8-0.3,8.6-0.4V2c-2.9,0.1-5.8,0.2-8.6,0.4V8.4"/><path id="Pfad_70" class="st1" d="M319.6,7.5c2.4-0.1,4.9-0.2,7.3-0.2c1.3-2.4,2.5-4.9,3.8-7.3c-2.7,0.1-5.4,0.1-8.1,0.2 C321.7,2.7,320.7,5.1,319.6,7.5"/><path id="Pfad_71" class="st1" d="M350.6,18c-1.9-1.6-4.7-2.4-8.1-3.4c-1.3-0.2-2.3-1.3-2.3-2.7c0-1.2,0.7-2.2,2.4-2.2 c2.3,0,4.5,0,6.8-0.1V1.3c-1.6,0-3.2,0-4.7,0c-1.8-0.1-3.6,0-5.3,0.4c-5.1,1.2-7.8,5.4-7.8,10.4c-0.1,2.7,0.9,5.3,2.7,7.2 c1.7,1.7,3.8,2.4,8.4,3.8c1.3,0.3,2.3,1.4,2.4,2.7c0,1.2-1,2.2-3.1,2.3c-3.4,0-6.9,0.1-10.3,0.2v8.4c3.8-0.1,7.6-0.2,11.3-0.2 c5.8,0.1,10.6-4.6,10.7-10.4c0-0.2,0-0.3,0-0.5C353.9,22.7,352.7,20,350.6,18"/><path id="Pfad_72" class="st0" d="M120,73.8c1.4-6.1,3.2-12.3,4.7-15.2c0.2-0.3,0.4-0.7,0.6-1c0.1-0.1,0.2-0.2,0.2-0.3 c0-0.8-3.6-1.8-4.6-1.8c-1.3,0.1-3.8,8.6-5.6,17.3c-2,0.1-5.6,0.9-8.2,1.2c1.4-6,3.2-11.9,4.6-14.6c0.2-0.4,0.4-0.6,0.6-0.9 c0.1-0.1,0.2-0.2,0.2-0.3c0-0.8-3.6-2-4.6-2c-1.4,0.1-3.9,8.8-5.7,17.6c-1.1-0.2-2.1-0.5-3.1-0.9c-0.2-0.1-0.3-0.1-0.4,0.1 s-0.2,0.4-0.2,0.6c0,0.7,0.8,3.4,1.4,3.6c0.5,0.2,1,0.4,1.5,0.5c-0.6,3.4-1,6.8-1.2,10.2c0.1,1.2,2.2,2.3,3.5,2.3 c0.5,0,0.6-0.2,0.6-0.6c0.3-4,0.9-7.9,1.8-11.8c2.5-0.3,5.8-1,8.4-1.5c-0.7,3.7-1.2,7.5-1.3,11.3c0.1,1.2,2.2,2.2,3.5,2.1 c0.5,0,0.6-0.3,0.6-0.7c0-2.3,0.9-7.8,2.2-13.6h0.3c0.7-0.1,0.8-0.3,0.7-0.9C120.4,74.4,120.3,74.1,120,73.8"/><path id="Pfad_73" class="st0" d="M290.6,49.5c-1.8,4.8-5.6,13.5-9.9,13.6c-2.4,0.1-3.3-2.1-3.2-4.9c4-0.2,9.8-4.1,9.8-9 c0-2.3-3.5-4.9-5.5-4.8c-3.7,0.2-7.2,5.4-8.4,10.6c-1,1.3-2.2,2.6-3.5,3.6c1.7-2.9,2.6-6.2,2.8-9.6c0-1.7-2.1-4.5-4.3-4.3 c-1.3,0.1-2.6,1.5-3.6,3.1s-1.9,3.2-2.6,4.9c1.4-6.7,3.4-13.7,5-16.8c0.2-0.3,0.4-0.7,0.6-0.9c0.1-0.1,0.1-0.2,0.1-0.3 c0-0.8-3.5-1.8-4.6-1.7c-1.7,0.2-5.4,14.6-6.9,25.1c-1.1,2.6-2.5,5-4.3,7.1c-0.5,0.5-0.9,0.5-0.8-0.3c0.9-5.1,2.3-10.1,4-15 c0.2-0.5,0.8-1.3,0.2-1.7c-1-0.7-2.2-1.1-3.4-1.1c-0.4,0.1-0.7,0.4-0.8,0.8c-0.5,1.2-0.9,2.4-1.3,3.7c-0.8,2.6-4.5,14.6-7,15 c-0.6,0.1-0.9-0.5-0.7-1.8c0.9-4.7,2.1-9.2,3.7-13.7c0.2-0.6,0.8-1.3,0.3-1.7c-1-0.7-2.2-1-3.4-1c-0.3,0-0.6,0.3-0.8,0.8 c-1.1,2.8-2,5.6-2.7,8.5c-1.6,3.5-3.6,6.9-5.9,10c-0.7,0.9-0.9,0.7-0.8-0.4c1-6.5,2.4-13,4.2-19.3c1.7-0.3,3.4-0.4,5-0.2h0.2 c0.2-0.2,0.2-0.4,0.2-0.6c0-0.5-0.3-1.9-0.6-2c-0.7-0.4-2.4-0.3-3.9,0c0.2-0.5,0.3-1.1,0.5-1.7c0.1-0.5,0.4-1,0.7-1.4 c0.1-0.1,0.1-0.2,0.2-0.2c0.1-0.1,0.2-0.2,0.2-0.3c0-0.8-3.2-1.7-4.3-1.5c-0.5,0.1-1,0.8-1.5,2.2s-0.9,2.8-1.2,4.2 c-1.7,0.5-3.4,1-5.1,1.3c-0.5,0.1-0.6,0.3-0.5,0.7c0.5,1.3,2.8,0.9,3.8,0.7l1.2-0.2c-0.8,3.1-1.5,6.5-2.1,9.8 c-1,2-2.5,3.7-4.3,5c-1.1-2.2-3.9-3.7-3.9-6.4c0-0.9,0.6-3.3,1.9-3.5c0.6-0.1,0.8,0.4,0.8,1c0,1-0.7,2.5-1.6,2.7 c-0.1,0.1-0.1,0.1-0.1,0.2c0,0.5,1.6,1,2.8,0.8c0.7-0.1,1.9-2.3,1.9-3.4c0-1.9-2.4-4.2-4.3-3.8c-2.9,0.5-5.8,3-5.8,6.4 c0,0.7,0.1,1.4,0.4,2.1c-1.3,3.8-2.9,8.8-5.6,12c-0.3,0.3-0.4,0.4-0.6,0.4c-1.7,0.3-2.6-5.9-2.7-6.9c2.2-1.7,4.1-3.8,5.5-6.1 c0.7-1,0.9-2.3,0.4-3.4c-0.4-0.9-1.1-1.6-1.9-2c-1.1-0.5-2.3,0.6-3.3,1.7c-2.7,3.1-4.5,7.3-6,10.9c1.5-7.8,3.9-17.7,5.9-21.7 c0.2-0.4,0.4-0.7,0.6-1c0.1-0.1,0.1-0.2,0.1-0.3c0-0.8-3.5-1.5-4.6-1.3c-1.8,0.3-5.5,15.5-7,26.2c-1.8,3.8-4.1,7.4-6.9,7.9 c-6.5,1.3-1.5-15.9,2.9-16.8c0.7-0.1,0.9,0.6,0.4,2s-1.3,2.6-2.4,3.5c-0.6,0.4-0.8,1-0.4,1.3c0.8,0.7,1.8,1.1,2.9,1.1 c1.2-0.2,2.7-3.6,2.7-6.5c0-2.3-2.6-4-5-3.5c-4.1,0.8-8.3,8.7-8.7,14.7c-0.9,2.1-2.1,4.1-3.5,5.9c-0.4,0.5-0.9,0.6-0.7-0.2 c0.9-5.2,2.1-10.3,3.7-15.3c0.2-0.6,0.8-1.4,0.3-1.7c-1-0.6-2.2-0.9-3.4-0.9c-0.3,0.1-0.6,0.4-0.8,0.8c-0.1,0.3-0.1,0.5-0.3,0.7 c-1.9-0.6-3.8-1.5-5.4-0.2c-2.9,2.1-5.1,6-6.4,10c-1.2,1.9-2.6,3.6-4.2,5.1c1.7-3.1,2.6-6.4,2.8-9.9c0-1.7-2.1-4.3-4.3-3.9 c-1.3,0.2-2.6,1.7-3.6,3.4c-1,1.6-1.9,3.3-2.6,5.1c1.4-6.7,3.4-13.9,5-17.2c0.2-0.4,0.4-0.7,0.6-1c0.1-0.1,0.1-0.2,0.1-0.3 c0-0.8-3.5-1.6-4.6-1.4c-1.5,0.3-4.6,11.7-6.3,21.7c-1.4,1.6-3.2,2.7-5.2,3.5c1.4-6.1,3.2-12.3,4.6-15.2c0.2-0.4,0.4-0.7,0.7-1 c0.1-0.1,0.1-0.2,0.1-0.3c0-0.8-3.6-1.6-4.6-1.5c-0.6,0.1-1.3,1.6-2.2,4c-1.3,3.8-2.4,7.7-3.3,11.6c-1.1,2.1-2.5,4-4.2,5.6 c1-2.4,1.5-5,1.5-7.5c0-2.4-2.7-4.3-6-3.9c-1.1-0.7-2.5-0.8-3.7-0.2c-4.4,2.8-7.1,9.8-7.1,15c0,2.7,2.3,6.3,6,6 c3.1-0.3,5.9-2.9,7.8-6.4c1.8-1.4,3.4-2.9,4.8-4.7c-1.1,5.5-2,11.1-2.5,16.1c-0.2,1.5-0.3,3-0.3,4.5c0,1.2,2.2,1.7,3.5,1.5 c1,0,1.9-0.5,2.5-1.2c0.9-1.3,1.6-2.7,1.9-4.3c1.3-5.5,1.4-11.2,0.4-16.8c1.8-0.6,3.4-1.6,4.8-2.8c-0.5,3-0.8,5.9-0.9,8.9 c0,1.2,2.2,2,3.5,1.8c0.7-0.1,0.6-0.7,0.6-1c0.5,0.4,1.1,0.6,1.8,0.6c1.9-0.3,4.3-2.7,6.4-5.8c1.9-1.4,3.7-3,5.2-4.8 c-0.4,1.8-0.4,3.7-0.3,5.5c0,1.5,1.2,2.7,2.7,2.7c0.3,0,0.5,0,0.8-0.1c2.4-0.4,4.4-3.5,5.9-7c0,0.1,0,0.3-0.1,0.4 c-0.1,0.7-0.2,1.3-0.3,2c-0.2,1.7,1.1,3.4,2.9,3c2-0.4,4.1-3.2,5.8-6.5c0.5,3,2.5,4.9,6.7,4.1c3-0.6,5.4-3.4,7.3-6.7 c-0.1,1.1-0.1,2.1-0.1,3c0,1.2,2.2,1.9,3.5,1.6c0.4,0,0.7-0.3,0.6-0.7c0,0,0,0,0-0.1c0-0.7,0.1-1.3,0.2-2c0.4-2.2,1.1-4.3,2-6.3 c0.3,3,2.3,8,5.5,7.4c1.4-0.3,2.7-1.6,4-3.5c0,1.6,1.4,2.8,3.8,2.4c4-0.8,9-4.4,8.4-8.9c1.2-0.9,2.3-1.9,3.2-3 c-0.2,1.6-0.4,3.2-0.6,4.5c-0.2,2.1-0.3,5.2,2.7,4.7c2.3-0.4,5-4.2,7.2-8.2c-0.1,0.5-0.2,1-0.2,1.5c-0.1,0.7-0.2,1.3-0.3,2 c-0.2,1.5,1.7,3.3,3.7,3c2.4-0.4,4.3-3.4,5.9-6.8c-0.1,0.2-0.1,0.3-0.1,0.4c-0.1,0.7-0.2,1.3-0.3,2c-0.2,1.5,0.8,2.9,2.3,3.2 c0.2,0,0.4,0,0.6,0c2.1-0.3,4.2-3,5.9-6.3c-0.1,1.2-0.2,2.3-0.2,3.2c0,1.2,2.2,2.1,3.5,1.9c0.7-0.1,0.6-0.6,0.6-1 c0.5,0.4,1.1,0.7,1.8,0.7c1.9-0.2,4.3-2.4,6.4-5.4c1.8-1.1,3.4-2.5,4.9-4c-0.3,4.5,1.4,8.3,6.9,8c5.9-0.3,10.1-10.4,12-15.6 C292.3,49.2,290.9,48.6,290.6,49.5 M129.8,84.2c-1,0.5-2,0.8-3,1c-0.2,0-0.4,0.1-0.5,0.2c-1.3-2.7,0.2-10.3,3.2-13.9 c1.9-2.2,3.8-2.3,3.8,1.2C133,76.7,131.9,80.7,129.8,84.2 M143.3,95.1c-0.2,0.5-0.7,2.3-1.1,2.4c-0.2,0-0.3-0.8-0.1-2.5 c0.5-4.7,1.3-9.4,2.2-14.1C145,85.7,144.6,90.5,143.3,95.1 M157,80.4c-1.1,0.5-2.2,1-3.4,1.3c0.5-3.4,1.5-6.6,3-9.7 c0.8-1.8,1.8-3.6,2.8-5.4c0.9-1.5,1.9-1.2,1.8,0.4C160.9,71.8,159.5,76.4,157,80.4 M178.2,64.5c-0.8,2.6-4.3,14.8-6.8,15.2 c-0.8,0.2-0.7-1.8-0.7-2.3c0.3-4.6,3.1-14.1,6.7-14.8c0.5-0.1,1,0,1.3,0.4C178.5,63.5,178.3,64,178.2,64.5 M205,66 c1.3-3.1,2.8-6,4.7-8.7c0.9-1.2,1.1-0.4,0.8,0.3C209.8,60.6,206.9,64.4,205,66 M217.9,71.6c-2.5,1.3-3.2-1.8-0.9-2.8 c1.2-0.5,3-0.7,4.1-1.2C220.6,69.3,219.5,70.7,217.9,71.6 M217.8,67.1c-0.8,0.2-1.6,0.6-2.2,1.1c1.1-2.3,2-4.7,2.8-6.7 c1.1,1.6,2.6,2.8,2.9,4.7C220.2,66.5,219,66.7,217.8,67.1 M263.6,62.3c-1.1,0.5-2.2,0.8-3.4,1.1c0.5-3.3,1.5-6.5,3-9.6 c0.8-1.8,1.8-3.5,2.8-5.2c0.9-1.5,1.9-1.1,1.8,0.6C267.5,53.9,266.1,58.4,263.6,62.3 M282,47.5c0.8-0.7,1.7-0.3,1.7,0.8 c0,4.2-3.2,8.6-6,8.7C278.1,53.4,279.9,49.2,282,47.5"/></g></g></g></g></svg>