<?xml version="1.0" encoding="UTF-8"?><svg xmlns="http://www.w3.org/2000/svg" xmlns:xlink="http://www.w3.org/1999/xlink" version="1.1" id="Gruppe_47" x="0px" y="0px" viewBox="0 0 495.5 163.2" style="enable-background:new 0 0 495.5 163.2;" xml:space="preserve"><style type="text/css">.st0{fill:#FFFFFF;}	.st1{fill:#AE886F;}</style><g><g><g id="Gruppe_46"><path id="Pfad_8308" class="st0" d="M199.7,154.9c0.6-0.1,1.5,0.2,2.5,0.2c1.3,0,2.6,0,3.9-0.2c0.3-0.2,0.7,0,0.8,0.3 c0,0,0,0,0,0.1c0.2,0.4,0.8,0.8-1.1,1.2c-1.1,0.2-2.1,0.3-3.2,0.3c-1.7,0.1-2.7,0.3-3.2-0.2C199.1,156.3,199.1,154.9,199.7,154.9 "/><path id="Pfad_8309" class="st0" d="M221.2,154.8c-1.3,0.8-2.5,1.6-3.7,2.5c0,0.2,0,0.3,0.1,0.5c0.3,1,0,2.1-0.7,2.9 c-0.6,0.6-1.5,0.6-2.2,0.2c-0.2-0.1-0.4-0.4-0.5-0.6c-0.2-0.2-0.1-0.9,0.3-1.5c0.5-0.6,1-1.2,1.7-1.6c-0.1-0.2-0.2-0.4-0.2-0.6 c-0.3-0.9,0-2,0.7-2.7c0.6-0.6,1.6-0.9,2.4-0.7c0.3,0.1,0.3,0.6,0.2,0.7c-0.1,0.1-0.2,0.1-0.3,0.1c-0.5,0-0.9,0.4-1.2,1.2 c-0.1,0.4-0.2,0.8-0.2,1.2c0.5-0.4,1.1-0.7,1.6-1C220.5,154.5,221.7,154.5,221.2,154.8 M216.3,158.2l-0.1,0.1c-1,0.9-1,1.5-1,1.7 c0,0.1,0.1,0.2,0.2,0.3c0.4,0,0.8-0.3,1-0.8C216.4,159.1,216.4,158.6,216.3,158.2"/><path id="Pfad_8310" class="st0" d="M227.1,157c-1.8,1.2-3.6,2.2-5.6,3c-1.5,0.4-2.1-0.7-1.9-1.5c0.4-1.4,1.1-2.6,2.1-3.7 c0.6-0.7,1.4-1.2,2.3-1.2c0.6,0,1.4,0.9,1.5,1.7s-1.2,1.6-2,2.1c-0.8,0.4-1.5,1-2,0.2c-0.2,0.2-0.5,1,0.5,0.8 c1.7-0.4,3.4-1.1,4.9-2.1C228.3,155.3,227.7,156.6,227.1,157 M222.4,156.5c0.4-0.1,1.2-0.6,1.3-1.1 C223.1,155.6,222.7,156,222.4,156.5"/><path id="Pfad_8311" class="st0" d="M233.7,155.6c-0.7,0.7-4.3,3.8-5.1,4c-0.8,0.3-1.6-0.3-1.5-1.5c0.3-1.4,0.8-2.8,1.6-4 c0.5-0.7,0.7-0.7,0.9-0.8c0.4,0,1.2,0.8,1.1,1.1c0,0.3-0.2,0.4-0.5,0.6c-0.3,0.3-1.7,3-1.1,2.8c1.5-0.9,3-1.8,4.4-2.8 C234.2,154.5,234.4,154.9,233.7,155.6 M229.8,152.1c-0.3-0.4-0.5-1.3-0.2-1.4c0.4-0.2,0.8-0.3,1.2-0.4c0.3-0.1,0.6,0.5,0.9,0.8 c0.2,0.3-0.1,0.4-0.4,0.7S230,152.6,229.8,152.1"/><path id="Pfad_8312" class="st0" d="M240.8,145.4c-1.3,1.8-2.5,3.7-3.6,5.7c0.6-0.1,1.1-0.2,1.5-0.3c1.3-0.3,1.6-0.3,1.5-0.1 c-0.5,0.8-1.2,1.4-2.1,1.6c-0.5,0.1-1.1,0.3-1.8,0.5c-0.2,0.5-0.5,1-0.8,1.5c-2.8,5.9-3,7.3-3.2,8s-0.7,1.1-1.2,0.6 c-0.4-0.5-0.3-1.7,0.4-3.2c0.3-0.8,1.4-3.6,2.6-6.3c-0.3,0.1-0.6,0.2-1,0.2c-0.7,0.1-1-1.4-0.4-1.7c0.5-0.3,0.4-0.1,1.1-0.3 c0.2,0,0.6-0.1,1.1-0.2c0.6-1.3,1.1-2.4,1.6-3.3c1.7-3,2.6-4.2,3-4.2c0.6,0.1,1.1,0.4,1.6,0.8C241.2,145.2,241,145.2,240.8,145.4 "/><path id="Pfad_8313" class="st0" d="M247.1,155.9c1.3-0.1,2.2,0,3.3-0.3c1.6-0.3,1.6-0.5,1.9-0.7c0.3-0.2,0.8,0.2,0.5,1.1 c-0.3,0.8-0.9,1.1-3,1.4c-2.1,0.3-1.9-0.4-5,0.7c-0.2,0.3-0.6,0.2-0.7-0.2c-0.2-0.1-0.2-0.4-0.1-0.5l0,0c1.2-1.7,2.6-3.2,4.2-4.6 c1.8-1.7,4.2-4.6,4.2-5.9c0-1.4-0.8-1.5-2.2-0.8s-1.8,1.9-3,1.2c-0.8-0.5-0.5-1.2-0.4-1.3c0.5-0.1,1.3-1.8,4.5-2.2 c3.1-0.5,3.5,3.2,2.3,5C251.7,151.3,249.5,153.7,247.1,155.9"/><path id="Pfad_8314" class="st0" d="M263.6,149.4c-1.3,3.2-3.4,5.8-6.1,6.7c-0.6,0.4-1.3,0.5-2,0.3c-0.8-0.1-1.9-1.7-0.9-4.9 c1-3.1,2-5.8,5-7.7c0.6-0.5,1.3-0.8,2-1c0.9,0,1.7,0.5,2.3,1.1C264.5,145.7,264.4,147.6,263.6,149.4 M261.2,144.5 c-0.6,0.1-1.2,0.4-1.5,0.9c-1,0.9-2,3.2-3,5.7c-0.5,1.2-0.8,2.5,0,2.8c0.6,0.4,1.4,0.3,1.8-0.3c0.2-0.2,0.4-0.3,0.4-0.3 c1.2-1.2,2.2-2.6,2.9-4.2C263.1,146.4,262.7,144.4,261.2,144.5"/><path id="Pfad_8315" class="st0" d="M273.8,148.4c-1.3,3.1-3.4,5.7-6.1,6.6c-0.6,0.4-1.3,0.5-2,0.2c-0.8-0.1-1.9-1.7-0.9-4.9 c1-3.1,2-5.8,5-7.7c0.6-0.5,1.3-0.8,2-1c0.9,0.1,1.7,0.5,2.3,1.2C274.7,144.7,274.6,146.7,273.8,148.4 M271.4,143.5 c-0.6,0.1-1.2,0.4-1.5,0.9c-1,0.9-2,3.2-3,5.7c-0.5,1.2-0.8,2.5,0,2.8c0.6,0.4,1.3,0.3,1.8-0.2c0.2-0.2,0.4-0.3,0.4-0.2 c1.2-1.2,2.2-2.6,2.9-4.2C273.3,145.5,272.9,143.4,271.4,143.5"/><path id="Pfad_8316" class="st0" d="M283,141.8c-0.3,0.5-2.8,3.9-4.9,7.8c-2.1,3.8-2.3,4.8-2.3,5s-0.1,0.6-0.5,0.6 s-1-0.6-0.3-2.4c0.7-1.8,3.5-6.8,4.3-8.2c0.2-0.4,0.5-0.8,0.7-1.3c-1.9,0.3-5.6,0.7-5.6-0.1c0-0.9-0.1-1.2,0.5-1.1 c0.4,0.1,4.7-0.8,6.6-1c0.1-0.1,0.2-0.2,0.4-0.3C282,140.7,283.3,141.3,283,141.8"/><path id="Pfad_8317" class="st0" d="M289.2,147.7c0.6-0.1,1.5,0.2,2.5,0.2c1.3,0,2.6,0,3.9-0.2c0.3-0.1,0.7,0,0.8,0.3 c0,0,0,0,0,0.1c0.2,0.4,0.8,0.8-1.1,1.2c-1.1,0.2-2.1,0.3-3.2,0.3c-1.7,0.1-2.7,0.4-3.2-0.1C288.6,149.1,288.6,147.8,289.2,147.7 "/><path id="Pfad_8318" class="st0" d="M140.4,19.5c0.6-0.4,1-0.4,2.2,0.1c1.1,0.5-0.6,1.7-1.1,2.4c-1.2,1.9-3.9,7.1-4.3,7.8 c-0.4,0.8-1.6,3.8-0.9,4.4c0.5,0.4,2.5-0.2,4.4-0.5c0.9-0.3,1.9-0.4,2.9-0.5c0.8,0.2,0.1,1.9-1.7,2c-2.6,0.1-4.7,1.3-6.3,1 c-0.7-0.2-1.8-0.1-1.8-1.2c0.3-1.8,0.8-3.6,1.6-5.3c1-2.6,2.8-5.9,3.9-8.3C139.8,20.5,140.1,19.6,140.4,19.5"/><path id="Pfad_8319" class="st0" d="M150.8,30.8c-1.8,1.1-3.6,2-5.6,2.7c-0.7,0.3-1.5-0.1-1.8-0.8c-0.1-0.3-0.1-0.5-0.1-0.8 c0.4-1.3,1.1-2.6,2.1-3.6c0.6-0.7,1.4-1.1,2.3-1.1c0.8,0.3,1.3,1,1.5,1.8c0.1,0.8-1.2,1.5-2,1.9s-1.5,0.9-2,0.1 c-0.2,0.2-0.5,0.9,0.5,0.8c1.7-0.3,3.4-0.9,4.9-1.8C152,29.1,151.4,30.4,150.8,30.8 M146.1,29.9c0.4-0.1,1.2-0.5,1.3-1 C146.8,29.1,146.4,29.5,146.1,29.9"/><path id="Pfad_8320" class="st0" d="M156.7,26.6c0.3,0.6,0.2,1-0.1,1s-0.3-0.7-1.2-0.1c-1.2,0.9-2.2,2.1-2.9,3.5 c-0.3,0.9,0,1.5,1.4,1c2.3-1,4.5-2.2,6.6-3.7c0.4-0.3,0.5,0-0.1,0.9c-0.5,0.8-6.4,4.5-7.7,4.7c-0.9,0.1-1.8-0.4-2.1-1.2 c-0.4-0.7-0.4-1.6,0-2.3c0.4-0.9,3-3.9,4-4.2C155.2,25.9,156.3,26,156.7,26.6"/><path id="Pfad_8321" class="st0" d="M165.4,27.3c-1.1,0.4-2.2,1-3.1,1.7c0.1,0.5,0.2,1.1,0.5,1.7c0.2,0.7,0.9,1.1,1.5,0.9h0.1 c0.6-0.3,1.2-0.6,1.8-1c0.5-0.4,0.3,0.6-0.6,1.5c-0.9,0.9-1.4,1.1-2,1.1c-1.2,0.1-2.5-2-2.5-3.1c-0.2,0.2-0.4,0.4-0.6,0.6 c-0.8,1.8-1.2,3-1.7,2.9c-0.6,0-0.8-1.5-0.5-2.1s3.1-6.5,4.4-9.3c0.5-1.1,0.9-2.2,1.2-3.3c0.1-0.3,0.6-0.5,1.4-0.1 c0.3,0.1,0.6,0.6,0.4,0.8c-1.7,2.8-3.1,5.7-4.4,8.7c1.8-1.4,4.2-2.9,5.1-2.9C167.4,25.4,165.8,27.3,165.4,27.3"/><path id="Pfad_8322" class="st0" d="M173.2,29.6c-1.8,1.1-3.6,2.1-5.6,2.9c-1.5,0.4-2.1-0.7-1.9-1.5c0.4-1.4,1.1-2.6,2.1-3.7 c0.6-0.7,1.4-1.1,2.3-1.2c0.6,0,1.4,0.9,1.5,1.7c0.1,0.8-1.2,1.6-2,2s-1.5,1-2,0.1c-0.2,0.2-0.5,0.9,0.5,0.8 c1.7-0.4,3.4-1.1,4.9-2C174.4,27.9,173.8,29.2,173.2,29.6 M168.5,28.9c0.4-0.1,1.2-0.5,1.3-1.1C169.2,28.1,168.8,28.5,168.5,28.9 "/><path id="Pfad_8323" class="st0" d="M179,28.7c-0.4,0-1.3-0.2-1.2-0.8c0.1-0.6-0.3-0.7-0.8-0.4c-0.1,0.1-0.5,0.3-0.9,0.5 c-0.3,0.6-0.6,1.2-0.8,1.9c-0.4,1.1,0,1.7-1.4,2.5c-0.6,0.3-1,0.4-1.2-0.1c-0.5-1.2,1.7-4.7,2-5.4c0.3-0.7,0.1-1,0.6-1.4 c0.6-0.5,0.9-0.7,1.2-0.3c0.3,0.4,1.2-0.1,0.5,1.3c0.6-0.5,1.3-1,2-1.3c0.7-0.1,0.2,1.1,0.3,2C179.4,28.2,179.4,28.7,179,28.7"/><path id="Pfad_8324" class="st0" d="M187.1,28.5c-1.8,1.2-3.6,2.2-5.6,3c-1.5,0.4-2.1-0.7-1.9-1.5c0.4-1.4,1.1-2.6,2.1-3.7 c0.6-0.7,1.4-1.2,2.3-1.2c0.6,0,1.4,0.9,1.5,1.7c0.1,0.8-1.2,1.6-2,2.1c-0.8,0.4-1.5,1-2,0.2c-0.2,0.2-0.5,1,0.5,0.8 c1.7-0.4,3.4-1.1,4.9-2.1C188.3,26.8,187.7,28.1,187.1,28.5 M182.4,27.9c0.4-0.1,1.2-0.6,1.3-1.1 C183.2,27.1,182.8,27.5,182.4,27.9"/><path id="Pfad_8325" class="st0" d="M193.1,25.2c-1.3,0.8-2.5,1.6-3.7,2.6c0,0.2,0,0.3,0.1,0.5c0.3,1,0,2.1-0.7,2.9 c-0.6,0.6-1.5,0.7-2.2,0.2c-0.2-0.1-0.4-0.4-0.5-0.6c-0.2-0.1-0.1-0.9,0.3-1.5c0.5-0.7,1-1.2,1.7-1.7c-0.1-0.2-0.2-0.4-0.2-0.6 c-0.3-1,0-2,0.7-2.7c0.6-0.6,1.5-0.9,2.4-0.8c0.3,0.1,0.3,0.6,0.2,0.7s-0.2,0.1-0.3,0.1c-0.5,0-0.9,0.4-1.2,1.2 c-0.1,0.4-0.2,0.8-0.2,1.2c0.5-0.4,1.1-0.7,1.6-1C192.4,24.9,193.6,24.9,193.1,25.2 M188.2,28.7l-0.1,0.1c-1,0.9-1,1.5-1,1.7 c0,0.1,0.1,0.2,0.2,0.3c0.5-0.1,0.8-0.4,1-0.8C188.3,29.6,188.3,29.2,188.2,28.7"/><path id="Pfad_8326" class="st0" d="M200.8,26.5c0.2,0,3.3-1.8,3.4-1.7c0.3,0.2,0.4,0.5,0.2,0.8c0,0,0,0.1-0.1,0.1 c-0.3,0.4-0.8,1.1-0.3,0.7s4.2-2.1,4.9-2.4c0.8-0.3,0.1,0.7-0.9,1.5c-1.5,1-3,2-4.5,2.8c-0.6,0.3-1.8,0.1-1.5-1 c-0.6,0.4-1.3,0.8-2,1.1c-0.7,0.2-1.4-0.2-1.6-0.9c-0.1-0.2-0.1-0.4,0-0.6c0.2-1.4,2.5-3,3.2-3.2c0.7-0.3,1.6-0.3,2.3,0.2 c0.1,0.1-0.1,0.5-0.3,0.4C203.4,24.1,200.8,25.8,200.8,26.5"/><path id="Pfad_8327" class="st0" d="M210.5,23.7c-0.5,0.8-1.8,3.4-1.3,3c1.3-1.1,2.5-2.5,3.5-3.9c0.2-0.5,0.3-0.5,0.7-0.5 s1.6,0.4,1.2,0.9c-0.7,1.2-1.4,2.5-1.9,3.8c-0.3,0.8,0,1.2-0.4,1.5c-0.3,0.3-0.6,0.2-1-0.3c-0.4-0.4-0.2-1.4-0.1-2.1 c-1.1,1-1.7,2-2.8,2.3c-1.1,0.4-1.4-1-1.4-1.4c0.4-1.3,1-2.5,1.7-3.7c0.3-0.6,0.4-0.7,0.9-0.8c0.4-0.1,0.8,0,1.2,0.1 C210.8,22.7,211.1,22.9,210.5,23.7"/><path id="Pfad_8328" class="st0" d="M221.4,22.3c-1.3,0.8-2.5,1.7-3.7,2.7c0,0.2,0,0.3,0.1,0.5c0.3,1,0,2.2-0.7,2.9 c-0.6,0.6-1.5,0.7-2.2,0.3c-0.2-0.1-0.4-0.4-0.5-0.5c-0.2-0.1-0.1-0.9,0.3-1.5c0.5-0.7,1-1.3,1.7-1.7c-0.1-0.2-0.2-0.4-0.2-0.6 c-0.3-1,0-2,0.7-2.7c0.6-0.7,1.5-1,2.4-0.8c0.3,0.1,0.3,0.6,0.2,0.7s-0.2,0.1-0.3,0.1c-0.5,0.1-0.9,0.5-1.2,1.2 c-0.1,0.4-0.2,0.8-0.2,1.2c0.5-0.4,1.1-0.8,1.6-1C220.7,22,221.9,22,221.4,22.3 M216.5,25.9l-0.1,0.1c-1,0.9-1,1.5-1,1.7 c0,0.1,0.1,0.2,0.2,0.3c0.5-0.1,0.8-0.4,1-0.8C216.6,26.8,216.6,26.3,216.5,25.9"/><path id="Pfad_8329" class="st0" d="M233.4,21.3c-0.2,0.6-0.5,1.3-0.8,2c1.1-0.7,2.3-1.3,3.5-1.8c0.9,0-1.4,1.6-2.2,2.5 c-0.9,0.9-1.9,1.7-2.5,1.6c-0.5,0-0.9-0.2-1.1-0.6c-0.1-0.2-0.1-0.4-0.1-0.6c0-0.1,0-0.3,0-0.4c-0.6,0.7-1.5,1.2-2.4,1.4 c-0.8,0-0.9-0.7-1-0.8c-0.1-0.2,0-1.1,0.8-2.1c1-1.1,2.3-2.1,3.7-2.7c0.3-0.1,0.7-0.1,1,0.1c0.6-1.2,1.2-2.4,1.8-3.6 c0.7-1.2,1.3-2.5,1.8-3.8c0.1-0.3,0.4-0.6,1.2-0.2c0.3,0.1,0.6,0.6,0.4,0.8C235.9,15.7,234.5,18.5,233.4,21.3 M231,22.3l0.2-0.2 l0.4-0.9l-0.4,0.2c-0.8,0.6-1.5,1.3-2.2,2C229.7,23.2,230.3,22.8,231,22.3"/><path id="Pfad_8330" class="st0" d="M242.3,22.6c-1.8,1.2-3.6,2.3-5.6,3.2c-1.5,0.5-2.1-0.6-1.9-1.4c0.4-1.4,1.1-2.7,2.1-3.8 c0.6-0.7,1.4-1.2,2.3-1.3c0.6,0,1.4,0.8,1.5,1.7c0.1,0.8-1.2,1.6-2,2.1s-1.5,1-2,0.3c-0.2,0.2-0.5,1,0.5,0.8 c1.7-0.5,3.4-1.3,4.9-2.3C243.5,20.9,242.9,22.2,242.3,22.6 M237.7,22.2c0.4-0.1,1.2-0.6,1.3-1.1C238.4,21.3,238,21.7,237.7,22.2 "/><path id="Pfad_8331" class="st0" d="M255.6,21.2c-1.1,1.1-2.3,2.1-3.6,3c-0.4,0.3-1.4,0.4-1.4-0.4c-0.2-0.3-0.3-0.6-0.2-1 s0.3-1.1,0.5-1.7c0.1-0.4,0.2-0.7,0.4-1.1c-0.6,0.8-2.5,2.3-3.1,3s-0.6,0.9-1.1,1s-1-0.2-1.1-0.7c0-0.1,0-0.1,0-0.2 c0.1-0.5,0.3-1,0.5-1.5c0.1-0.3,0.3-0.6,0.5-1c-0.9,0.9-2.6,2.9-3.1,3.4s-0.5,0.7-1.1,0.5c-0.6-0.3-0.5-1.1-0.6-1.2 s0.2-0.9,0.6-1.4c0.4-0.5,2.3-3,2.4-3.4c0.2-0.4,0.4-0.9,0.7-0.8c0.2,0,0.5,0.1,0.7,0.2s0.3,0.2,0.1,0.7 c-0.1,0.2-0.5,0.8-0.8,1.4l-0.6,1.1c0.5-0.6,2.6-2.5,2.8-2.6c0.2-0.2,0.4-0.3,1.1,0s0.6,0.5,0.5,0.8c-0.2,0.3-0.3,0.6-0.5,0.9 c-0.1,0.2-0.2,0.4-0.3,0.6c1.4-1.2,2.5-2,2.8-2.2c0.3-0.1,1.5,0.2,1.4,0.8c-0.2,1.1-0.6,2.1-1.1,3.2c0,0.2,0.1,0.2,0.2,0.1 c0.4-0.4,3.4-2.3,4-2.7C256.9,19.5,256.4,20.4,255.6,21.2"/><path id="Pfad_8332" class="st0" d="M279.8,6.4c-2,2.8-3.8,5.8-5.2,9c-2.9,5.9-3,7.4-3.3,8c-0.2,0.7-0.7,1.1-1.2,0.6 c-0.4-0.5-0.3-1.7,0.4-3.2c0.3-0.6,0.8-2.3,1.5-4.3c-2,0.7-4.1,1-6.2,1.2c-0.1,0.2-0.2,0.5-0.3,0.7c-2,4.4-2.1,5.7-2.2,6 c0,0.3-0.1,0.7-0.5,0.7s-1.2-0.7-0.6-2.7c0.2-0.8,0.9-2.5,1.7-4.3c-0.8,0.1-1.2,0.2-1.5,0.3c-0.4,0.1-0.8-0.2-0.5-0.8 c0.4-0.8,0.9-1,2.8-1.3c1-2.2,1.9-4.4,2.3-5.2c0.8-1.7,1.8-4,2.5-4.3c0.4-0.1,1.8,0.4,1.6,1.1c-0.2,0.5-2.4,4.4-4.3,8.2 c2-0.3,4-0.8,5.9-1.5c0.1-0.1,0.2-0.1,0.3-0.1c0.6-1.8,1.4-3.5,2.3-5.2c1.7-3,2.6-4.2,3-4.2c0.5,0.1,1.9,0.6,1.9,0.9 C280.2,6.2,279.9,6.2,279.8,6.4"/><path id="Pfad_8333" class="st0" d="M279.3,17.9c-0.5,1.7-2,2.9-3.8,3c-1.3-0.1-1.3-1.8-0.8-2.6s1.7-2.5,2.5-2.7l0.2-0.1 c-0.1-0.1-0.1-0.2-0.2-0.2c-0.6-0.5,0.2-0.5,0.5-0.3C278,15.2,279.8,16.2,279.3,17.9 M277.5,18.1c0.2-0.3,0.2-0.7,0.2-1 c-0.5,0.5-1,1.1-1.4,1.8C276.3,19.1,277.2,18.6,277.5,18.1"/><path id="Pfad_8334" class="st0" d="M283.6,14.7c-2.9,5.9-3,7.3-3.3,8s-0.7,1.1-1.2,0.6c-0.4-0.5-0.3-1.7,0.4-3.2 c1.5-3.9,3.2-7.8,5-11.5c1.7-3,2.6-4.2,3-4.2C288,4.5,289,5,289,5.3c0.1,0.2-0.2,0.2-0.4,0.5C286.7,8.6,285,11.6,283.6,14.7"/><path id="Pfad_8335" class="st0" d="M290.7,12.8c0.8,0.4,0.9,1.2-0.1,2.1s-4.7,3.3-4,3.3c1.1,0,2.2-0.1,3.2-0.4 c0.8-0.1,0,0.8-1.6,1.3c-1.6,0.6-2.8,0.7-3.7,0.1c-0.9-0.6,3.1-3.9,4.2-4.7c-0.2-0.3-1.2,0-3,0.9c-1.8,0.9,0.1-1.9,0.4-1.9 C288.2,12.9,289.9,12.4,290.7,12.8"/><path id="Pfad_8336" class="st0" d="M299.9,4.7c-1.9,3.7-3.7,7.5-5.2,11.3c1.4-1.9,3.4-3.8,4.6-4c1.2-0.1,1.8,0.8,1.6,2.1 c-0.4,2.2-2,4.1-4.2,4.7c-2.8,0.7-3.5-0.5-2.3-0.5c2,0,4.6-3.7,4.1-4c-0.3-0.2-2.2,1.2-3.5,2.8c-1.4,1.6-2.3,3.9-2.9,3.9 s-1-1.6-0.7-2.2s4.3-9.3,5.2-11c0.7-1.2,1.3-2.5,1.8-3.8c0.1-0.3,0.4-0.6,1.2-0.2C299.7,4,300,4.4,299.9,4.7"/><path id="Pfad_8337" class="st0" d="M303.7,15c0.2,0,3.3-1.8,3.4-1.7c0.3,0.2,0.4,0.5,0.2,0.8v0.1c-0.3,0.4-0.8,1-0.3,0.7 c0.5-0.4,4.2-2,4.9-2.3c0.8-0.3,0.1,0.7-0.9,1.4s-3.9,2.5-4.5,2.8s-1.8,0.1-1.5-1c-0.6,0.4-1.3,0.7-2,1c-0.7,0.2-1.4-0.2-1.6-0.9 c-0.1-0.2-0.1-0.4,0-0.6c0.2-1.4,2.5-3,3.2-3.2c0.7-0.3,1.6-0.3,2.3,0.2c0.1,0.1-0.1,0.5-0.3,0.4C306.3,12.7,303.7,14.4,303.7,15 "/><path id="Pfad_8338" class="st0" d="M316,10.9c0.3,0.6,0.2,1-0.1,1c-0.3,0-0.3-0.7-1.2-0.1c-1.2,1-2.2,2.2-2.9,3.6 c-0.3,0.9,0,1.5,1.4,0.9c2.3-1.1,4.5-2.4,6.6-3.9c0.4-0.3,0.5,0-0.1,0.9c-0.5,0.8-6.4,4.6-7.7,4.9c-0.9,0.2-1.7-0.3-2.1-1.1 c-0.4-0.7-0.4-1.6,0-2.3c0.4-0.9,3-4.1,4-4.4C314.5,10.2,315.6,10.2,316,10.9"/><path id="Pfad_8339" class="st0" d="M324.7,11.3c-1.1,0.4-2.2,1-3.1,1.8c0.1,0.5,0.2,1.1,0.5,1.7c0.2,0.7,0.9,1.1,1.5,0.9h0.1 c0.6-0.3,1.2-0.6,1.8-1c0.5-0.4,0.3,0.6-0.6,1.5c-0.9,0.9-1.4,1.1-2,1.1c-1.2,0.1-2.5-2-2.5-3.1c-0.2,0.2-0.4,0.4-0.6,0.6 c-0.8,1.8-1.2,3-1.7,3c-0.6,0-0.8-1.4-0.5-2.1c0.3-0.6,3.1-6.6,4.4-9.4c0.5-1.1,0.9-2.2,1.2-3.3c0.1-0.3,0.6-0.5,1.4-0.2 c0.3,0.1,0.6,0.6,0.4,0.8c-1.7,2.8-3.1,5.8-4.4,8.8c1.8-1.4,4.2-3,5.1-3C326.7,9.5,325.1,11.4,324.7,11.3"/><path id="Pfad_8340" class="st0" d="M330,13.5c-0.5,1.7-2.1,2.8-3.8,2.8c-1.3-0.2-1.3-1.8-0.8-2.6s1.7-2.4,2.5-2.6l0.2-0.1 c-0.1-0.1-0.1-0.2-0.2-0.2c-0.6-0.5,0.2-0.5,0.5-0.3C328.7,10.7,330.4,11.8,330,13.5 M328.2,13.5c0.2-0.3,0.2-0.6,0.2-1 c-0.5,0.5-1,1.1-1.4,1.7C327,14.5,327.8,14.1,328.2,13.5"/><path id="Pfad_8341" class="st0" d="M337.1,13.8c-0.5,0.8-1.2,1.3-2.1,1.5c-0.6,0.2-1.6,0.4-2.5,0.6c-1.5,3-2.7,6.3-3.5,8.1 c-0.7,1.7,0.4,1.9-0.3,2.5c-0.7,0.5-1.9,0.1-1.8-1.7c0.1-1.3,1.9-5.5,3.3-8.5c-0.1,0-0.2,0-0.3,0c-0.7,0-1-1.5-0.5-1.7 s0.4-0.2,1.1-0.2c0.1,0,0.3,0,0.5,0c0.1-0.1,0.1-0.2,0.2-0.3c1.2-2.7,3-5.8,4.1-6.2c0.6-0.2,2.3,0.5,2,1.6 c-0.1,0.3-1,0.4-1.7,1.2c-0.9,1.1-1.7,2.3-2.4,3.6c0.8-0.1,1.6-0.2,2.2-0.3C336.9,13.5,337.1,13.6,337.1,13.8"/><path id="Pfad_8342" class="st0" d="M343.8,13.2c-1.8,1.1-3.6,2-5.6,2.8c-0.7,0.3-1.5,0-1.8-0.7c-0.1-0.3-0.2-0.6-0.1-0.9 c0.4-1.4,1.1-2.6,2.1-3.6c0.6-0.7,1.4-1.1,2.3-1.2c0.8,0.3,1.4,1,1.5,1.8s-1.2,1.5-2,2c-0.8,0.4-1.5,0.9-2,0.1 c-0.2,0.2-0.5,0.9,0.5,0.8c1.7-0.4,3.4-1,4.9-1.9C345,11.6,344.4,12.8,343.8,13.2 M339.2,12.4c0.4-0.1,1.2-0.5,1.3-1 C339.9,11.6,339.5,11.9,339.2,12.4"/><path id="Pfad_8343" class="st0" d="M347.5,9c-0.8,1.2-1.5,2.5-1.9,4c1.6-1.3,3.8-4,4.7-3.9c0.9,0,1.2,0.6,0.8,1.7 c-0.5,1.1-0.7,2.9-0.2,2.7c0.9-0.4,1.8-0.9,2.6-1.5c0.6-0.4,0.4,0.6-0.8,1.6c-1.1,1.1-2,1.9-3,1.7s-1.1-3.1-0.4-4.2 c-0.3-0.2-2,2.1-3.2,3.5c-1.2,1.3-1.7,1.5-2.2,1.5s-1-1.5-0.6-2c0.5-0.7,0.9-1.5,1.2-2.3c0.6-1.5,1.1-3,1.3-3.3 c0.1-0.3,0.7-0.5,1.4-0.1C347.4,8.4,347.7,8.8,347.5,9"/><path id="Pfad_8344" class="st0" d="M355.6,14.4c0.4,0.4,0.2,0.6-0.1,0.9c-0.3,0.3-0.7,0.4-1.1,0.3c-0.3-0.2-0.3-0.5-0.4-0.8 c-0.1-0.2-0.4-0.8-0.1-1C354.4,13.8,355.1,13.9,355.6,14.4 M361.6,1.3c-1.3,1.8-2.4,3.6-3.4,5.5c-1.9,3.6-2,4.2-2.1,4.6 c0,0.4-0.4,0.6-0.7,0.6l0,0c-0.4-0.1-0.9-0.2-0.2-2.2c0.6-2,1.4-3.9,2.3-5.7c0.8-1.6,1.8-3.9,2.5-4.1 C360.4-0.1,361.9,0.6,361.6,1.3"/><path id="Pfad_8345" class="st0" d="M58.4,54.1c-3.7,0-7.4,0.1-11,0.1V99c7.4,0,14.7-0.1,22.1-0.2V88c-3.7,0.1-7.4,0.1-11,0.2 L58.4,54.1L58.4,54.1z"/><path id="Pfad_8346" class="st0" d="M71.2,98.7c9.4-0.2,18.8-0.5,28.2-0.9V87.1c-5.7,0.2-11.5,0.5-17.2,0.6v-6.5 c3.9-0.1,7.8-0.3,11.7-0.4V70.4c-3.9,0.2-7.8,0.3-11.7,0.4v-6.5c5.7-0.2,11.5-0.4,17.2-0.6V53c-9.4,0.4-18.8,0.7-28.2,0.9V98.7"/><path id="Pfad_8347" class="st0" d="M101.3,97.7c3.7-0.2,7.4-0.3,11-0.5V52.4c-3.7,0.2-7.4,0.4-11,0.5V97.7z"/><path id="Pfad_8348" class="st0" d="M135.4,58.8c-5.1-4.5-12.1-7-21.1-6.5v44.8c3.7-0.2,7.4-0.4,11-0.6V65.3 c6.9,1.9,10.1,7.7,10.1,16.6v13.3c0.6-0.3,1.4-0.5,2.1-0.5c1.3,0,2.6,0.3,3.9,0.7c1.7-0.1,3.4-0.2,5.1-0.3V50.3 c-3.7,0.3-7.4,0.5-11,0.7L135.4,58.8z"/><path id="Pfad_8349" class="st0" d="M148.4,95c1-0.1,1.9-0.2,2.9-0.2c0.7-0.6,1.6-1,2.5-1c1.2,0,2.5,0.1,3.7,0.5 c6.4-0.5,12.7-1,19.1-1.5V82.1c-5.7,0.5-11.5,0.9-17.2,1.4V77c3.9-0.3,7.8-0.6,11.7-0.9V65.6c-3.9,0.3-7.8,0.6-11.7,0.9V60 c5.7-0.4,11.5-0.9,17.2-1.4V48c-9.4,0.8-18.8,1.5-28.2,2.2V95"/><path id="Pfad_8350" class="st0" d="M203.1,73.5c3.9-2.8,6.1-7.3,6-12.1c0-8.8-6.4-14.4-15.3-14.6c-2.7,0-5.4,0.2-8.1,0.4 c-2.4,0.2-4.8,0.4-7.1,0.6v44.8c3.7-0.3,7.4-0.6,11-0.9v-12c5.2-0.5,8.8,3.3,8.8,8.3v0.3c0.3-0.1,0.6-0.2,1-0.3 c3-0.2,6,0.5,8.6,2l1.5-0.1V87C209.5,80.6,207.2,76.1,203.1,73.5 M189.7,69.3v-12c4.5-0.4,8.4,0.9,8.4,5.4S194.2,68.9,189.7,69.3 "/><path id="Pfad_8351" class="st0" d="M238.1,64.2c2.4-2.2,3.7-5.3,3.6-8.6c0-5.9-4-12-12-12.2c-2.1,0-4.2,0.2-6.2,0.4 c-4.1,0.4-8.3,0.8-12.4,1.2v44.8c5.8-0.5,11.5-1.1,17.3-1.6c9.1-0.9,14.5-7.4,14.5-14.4C242.9,69.6,240.9,65.9,238.1,64.2 M222.1,54.3l5.1-0.5c1.7-0.2,3.2,1,3.4,2.7c0,0.1,0,0.3,0,0.4c0,1.9-1.5,3.5-3.4,3.7l-5.1,0.5V54.3z M228.4,77.8l-6.2,0.6v-6.8 l6.2-0.6c1.7-0.3,3.2,0.9,3.5,2.5c0,0.2,0,0.4,0,0.6C231.8,76,230.3,77.6,228.4,77.8"/><path id="Pfad_8352" class="st0" d="M244,72.8v13.9l11-1.1v-6.5l3-0.3c0.7-1.2,1.9-2.1,3.3-2.3c2.1-0.4,6.9,0.3,9,2.1 c1.1,0.9,1.8,2.2,1.8,3.6c0,0.6-0.1,1.2-0.4,1.8l4-0.4V38.9C257.3,40.6,244,51.4,244,72.8 M264.8,52.8v14.7l-9.6,0.9 C255.8,61.1,258.8,55.7,264.8,52.8"/><path id="Pfad_8353" class="st0" d="M298.9,64.7c0,4.2-1.3,6.9-5.1,7.3s-5.1-2.1-5.1-6.4V37.7c-3.7,0.3-7.4,0.7-11,1v27.9 c0,11.9,7.9,16.4,15.4,16.1c0.3-1.2,0.7-2.3,1.1-3.4c0.5-1.3,1.9-4.9,5.2-5.4c2.5-0.2,5,0.3,7.2,1.5c2.3-3.4,3.5-7.5,3.4-11.7 V35.8c-3.7,0.3-7.4,0.6-11,1L298.9,64.7z"/><path id="Pfad_8354" class="st0" d="M311.9,80.4c5.2-0.4,10.4-0.8,15.6-1.3V79c1.4-5.3,2.6-8.8,3.8-10.9 c-2.8,0.2-5.6,0.4-8.4,0.7v-6.5c3.9-0.3,7.8-0.6,11.7-0.9V50.9c-3.9,0.3-7.8,0.6-11.7,0.9v-6.5c5.7-0.5,11.5-0.9,17.2-1.4V33.3 c-9.4,0.7-18.8,1.5-28.2,2.3V80.4z"/><path id="Pfad_8355" class="st0" d="M366.6,59.2c3.9-2.7,6.2-7.2,6-11.9c0-8.8-6.4-14.6-15.3-15c-2.7-0.1-5.4,0.1-8.1,0.3 c-2.4,0.2-4.8,0.3-7.1,0.5v33.1c0.8,0.3,1.6,0.8,2.3,1.4c1,0.9,1.6,2.2,1.7,3.6c0,1.1-0.4,2.1-1.1,3l-0.2,0.3 c0,0.1-0.1,0.2-0.1,0.2c-0.5,1-1,2-1.3,3.1c3.3-0.2,6.6-0.5,9.8-0.7v-12c5.2-0.4,8.8,3.5,8.8,8.5v2.9c3.7-0.2,7.4-0.5,11-0.7 v-2.9C373,66.6,370.7,62,366.6,59.2 M353.2,54.7v-12c4.5-0.3,8.4,1,8.4,5.6S357.7,54.4,353.2,54.7"/><path id="Pfad_8356" class="st0" d="M395.7,37.6c-5.1-4.6-12.1-7.2-21.1-6.6v44.8c3.7-0.2,7.4-0.4,11-0.6V44 c6.9,1.9,10.1,7.8,10.1,16.8v13.9c3.7-0.2,7.4-0.3,11-0.5V29.4c-3.7,0.1-7.4,0.3-11,0.5V37.6"/><path id="Pfad_8357" class="st0" d="M407.9,36.5c3.1-0.1,6.2-0.2,9.3-0.3c1.6-3.1,3.2-6.2,4.9-9.3c-3.4,0.1-6.9,0.2-10.3,0.3 C410.5,30.3,409.2,33.4,407.9,36.5"/><path id="Pfad_8358" class="st0" d="M447.4,49.9c-2.4-2.1-6-3.1-10.4-4.3c-2-0.6-2.9-1.8-2.9-3.4c0-1.6,0.8-2.8,3.1-2.8 c2.9,0,5.8-0.1,8.6-0.1V28.6c-2,0-4,0-6,0c-4.5,0-5.7,0.2-6.8,0.5c-6.5,1.5-9.9,6.9-9.9,13.3c-0.1,3.4,1.1,6.7,3.5,9.2 c2.2,2.2,4.9,3,10.7,4.9c1.6,0.5,3,1.7,3,3.4c0,1.6-1.2,2.9-4,2.9c-4.4,0.1-8.8,0.1-13.2,0.3v10.7c4.8-0.1,9.7-0.2,14.5-0.3 c7.4,0.1,13.6-5.8,13.7-13.3c0-0.2,0-0.4,0-0.6C451.6,55.9,450.1,52.4,447.4,49.9"/><path id="Pfad_8359" class="st1" d="M495.5,117.3l-1.2-0.7c-2.3-1.3-4.3-3.1-5.9-5.3c-0.4-0.6-0.6-1-0.6-1 c-1.1-1.9-2.7-3.5-4.7-4.5c-3.4-1.9-6.9-2.2-8.3-0.8c-1.1-0.7-2.1-1.4-3.3-2.1c1.2,0.4,2.5,0.6,3.8,0.5c1.5-0.1,3-0.6,4.2-1.5 c0,0,0.2-0.2,0.6-0.4c1.6-1,3.4-1.5,5.3-1.7l0.9-0.1c-0.2,0-0.3,0-0.5,0c0.2,0,0.3,0,0.5-0.1l-0.9,0.1c-1.8,0.1-3.7-0.1-5.4-0.8 c-0.4-0.2-0.7-0.3-0.7-0.3c-1.4-0.7-2.9-0.9-4.4-0.7c-2.9,0.2-5.2,1.7-5.1,3.2c0.1,0.5,0.3,0.9,0.7,1.2c-1.7-1-3.4-1.9-5.2-2.7 c1.3,0.1,2.5-0.1,3.7-0.6c1.4-0.5,2.7-1.4,3.6-2.6c0,0,0.2-0.2,0.4-0.6c1.3-1.4,2.8-2.4,4.6-3.1l0.9-0.3 c-0.2,0.1-0.3,0.1-0.5,0.2c0.2-0.1,0.3-0.1,0.5-0.2l-0.9,0.3c-1.7,0.7-3.6,0.9-5.4,0.8c-0.5-0.1-0.8-0.1-0.8-0.1 c-1.5-0.3-3-0.1-4.4,0.5c-2.8,1.1-4.5,3.1-4,4.5c0.1,0.1,0.1,0.2,0.2,0.3c-1.6-0.7-3.1-1.3-4.8-1.9c1.4-0.1,2.7-0.6,3.9-1.3 c1.3-0.8,2.4-1.9,3.1-3.2c0,0,0.1-0.3,0.3-0.6c1-1.6,2.3-2.9,3.9-3.9l0.8-0.5c-0.2,0.1-0.3,0.2-0.4,0.3c0.1-0.1,0.3-0.2,0.4-0.3 l-0.8,0.5c-1.6,1-3.3,1.6-5.1,1.8c-0.5,0-0.8,0-0.8,0c-1.5,0-3,0.5-4.2,1.3c-2.5,1.6-3.9,3.9-3.1,5.2l0.1,0.1 c-1.7-0.6-3.4-1.1-5.1-1.6c1.2-0.3,2.4-0.9,3.3-1.7c1.3-0.9,2.2-2.1,2.8-3.6c0,0,0.1-0.3,0.3-0.7c0.9-1.7,2.1-3.2,3.6-4.4 l0.8-0.6c-0.1,0.1-0.3,0.2-0.4,0.3c0.1-0.1,0.3-0.2,0.4-0.3l-0.8,0.6c-1.5,1.1-3.2,1.9-5.1,2.3c-0.5,0.1-0.8,0.1-0.8,0.1 c-1.5,0.2-3,0.8-4.2,1.8c-2.3,1.8-3.4,4.1-2.7,5.4c-1.7-0.4-3.3-0.8-5-1.1c1.1-0.4,2-1,2.9-1.7c1.2-1,2.1-2.2,2.6-3.7 c0,0,0.1-0.3,0.2-0.7c0.8-1.7,1.9-3.3,3.4-4.5l0.7-0.6c-0.1,0.1-0.3,0.2-0.4,0.3c0.1-0.1,0.3-0.2,0.4-0.4l-0.7,0.6 c-1.4,1.2-3.1,2.1-4.9,2.6c-0.5,0.1-0.8,0.1-0.8,0.1c-1.5,0.2-2.9,0.9-4.1,2c-2.1,1.8-3.2,4.1-2.6,5.3c-1.9-0.3-3.9-0.6-5.8-0.9 c2.8-0.7,5.1-2.8,6.1-5.6c0,0,0.1-0.3,0.2-0.7c0.7-1.7,1.7-3.2,3-4.4l0.7-0.6c-0.1,0.1-0.3,0.2-0.4,0.3c0.1-0.1,0.2-0.2,0.4-0.3 l-0.7,0.6c-1.3,1.2-2.9,2.1-4.6,2.6c-0.4,0.1-0.8,0.2-0.8,0.2c-1.4,0.3-2.8,1-3.8,2c-2.1,1.9-3,4.4-2,5.4 c0.1,0.1,0.2,0.2,0.3,0.2c-1.8-0.2-3.7-0.4-5.5-0.6c2.7-0.9,4.8-3.2,5.5-6c0,0,0-0.3,0.1-0.7c0.5-1.7,1.4-3.3,2.6-4.6l0.6-0.7 c-0.1,0.1-0.2,0.2-0.3,0.4c0.1-0.1,0.2-0.2,0.3-0.4l-0.6,0.7c-1.2,1.3-2.6,2.3-4.3,3c-0.4,0.1-0.7,0.2-0.7,0.2 c-1.4,0.4-2.6,1.2-3.5,2.3c-1.9,2.1-2.6,4.6-1.5,5.5c0.1,0,0.1,0.1,0.2,0.1c-1.5-0.1-2.9-0.2-4.4-0.3c0.6-0.4,1.2-0.9,1.6-1.5 c0.8-0.9,1.3-2.1,1.5-3.3c0,0,0-0.2,0.1-0.6c0.3-1.5,1-2.9,2-4l0.5-0.6c-0.1,0.1-0.2,0.2-0.3,0.3c0.1-0.1,0.2-0.2,0.3-0.3 l-0.5,0.6c-1,1.2-2.1,2.1-3.5,2.7c-0.4,0.1-0.6,0.2-0.6,0.2c-1.2,0.4-2.2,1.2-2.9,2.1c-1.2,1.5-1.7,3.1-1.4,4.1 c-12.7-2.2-30.2-2.8-40.8-0.8c-1.3,0.2-2.8-0.5-2,2.7l0.5,0.7c15.5-1.4,22.2-1.9,42.2-0.9c-0.6,0.8-0.6,2.7,0.3,4.5 c0.5,1.1,1.3,2.1,2.3,2.7c0,0,0.2,0.1,0.5,0.3c1.2,0.9,2.1,2.1,2.8,3.5l0.3,0.7c-0.1-0.1-0.1-0.3-0.2-0.4 c0.1,0.1,0.1,0.2,0.2,0.4l-0.3-0.7c-0.6-1.3-1-2.8-1-4.3c0-0.4,0.1-0.6,0.1-0.6c0.1-1.2-0.1-2.4-0.7-3.5 c-0.4-0.9-1.1-1.8-1.9-2.5c1.5,0.1,3,0.2,4.4,0.3c-1.2,0.6-1.4,3-0.4,5.5c0.5,1.3,1.3,2.5,2.4,3.3c0,0,0.2,0.2,0.5,0.4 c1.3,1.2,2.3,2.6,2.9,4.2l0.3,0.8c-0.1-0.2-0.1-0.3-0.2-0.5c0.1,0.1,0.1,0.3,0.2,0.4l-0.3-0.8c-0.6-1.6-0.9-3.3-0.8-5 c0-0.4,0.1-0.7,0.1-0.7c0.2-1.4,0-2.8-0.5-4.1c-0.5-1.4-1.5-2.6-2.7-3.5c1.8,0.2,3.5,0.4,5.2,0.6c-1.2,0.6-1.5,2.9-0.7,5.4 c0.4,1.4,1.1,2.6,2.2,3.5c0,0,0.2,0.2,0.5,0.4c1.2,1.3,2.1,2.8,2.6,4.4l0.3,0.8c-0.1-0.2-0.1-0.3-0.1-0.5 c0.1,0.2,0.1,0.3,0.2,0.5l-0.3-0.8c-0.5-1.6-0.7-3.4-0.4-5c0.1-0.4,0.2-0.7,0.2-0.7c0.3-1.4,0.2-2.8-0.2-4.1 c-0.4-1.4-1.2-2.7-2.4-3.6c1.8,0.2,3.6,0.5,5.3,0.8c-1,0.9-1.2,3.2-0.4,5.7c0.4,1.5,1.3,2.8,2.4,3.8c0,0,0.2,0.2,0.5,0.5 c1.3,1.4,2.3,3,2.9,4.8l0.3,0.9c-0.1-0.2-0.1-0.3-0.2-0.5c0.1,0.2,0.1,0.3,0.2,0.5l-0.3-0.9c-0.6-1.8-0.7-3.7-0.5-5.5 c0.1-0.5,0.2-0.8,0.2-0.8c0.3-1.5,0.3-3.1-0.3-4.5c-0.4-1.3-1.1-2.5-2.1-3.5c2,0.4,3.9,0.8,5.8,1.2c-0.1,0-0.2,0-0.3,0 c-1.5,0.5-1.9,3.2-1,6c0.4,1.5,1.3,2.8,2.4,3.8c0,0,0.2,0.2,0.5,0.5c1.3,1.4,2.3,3,2.9,4.8l0.3,0.9c-0.1-0.2-0.1-0.3-0.2-0.5 c0.1,0.2,0.1,0.3,0.2,0.5l-0.3-0.9c-0.6-1.8-0.7-3.7-0.5-5.5c0.1-0.5,0.2-0.8,0.2-0.8c0.3-1.5,0.3-3.1-0.3-4.5 c-0.4-1.7-1.5-3.2-2.9-4.1c2.3,0.5,4.4,1.1,6.4,1.7c-1.5,0.4-2.1,3.1-1.4,6c0.3,1.5,1,2.9,2.1,4c0,0,0.2,0.2,0.5,0.5 c1.2,1.5,2.1,3.2,2.5,5.1l0.2,0.9c0-0.2-0.1-0.4-0.1-0.5c0,0.2,0.1,0.3,0.1,0.5l-0.2-0.9c-0.4-1.8-0.4-3.8-0.1-5.6 c0.1-0.5,0.2-0.8,0.2-0.8c0.5-1.5,0.5-3.1,0.1-4.6c-0.3-1.6-1.1-3.1-2.3-4.2c1.7,0.5,3.3,1,4.8,1.6c-0.1,0-0.2,0-0.3,0.1 c-1.4,0.6-1.7,3.3-0.6,6.2c0.5,1.5,1.5,2.7,2.7,3.7c0,0,0.3,0.2,0.6,0.5c1.4,1.3,2.5,2.9,3.2,4.7l0.4,0.9 c-0.1-0.2-0.1-0.3-0.2-0.5c0.1,0.2,0.1,0.3,0.2,0.5l-0.4-0.9c-0.7-1.8-1-3.6-0.9-5.5c0-0.5,0.1-0.8,0.1-0.8 c0.2-1.5,0-3.1-0.6-4.5c-0.5-1.3-1.3-2.5-2.3-3.4c2.1,0.8,3.9,1.5,5.5,2.2c-0.2,0-0.3,0-0.5,0.1c-1.4,0.6-1.6,3.2-0.5,6 c0.5,1.4,1.4,2.7,2.6,3.6c0,0,0.3,0.2,0.6,0.4c1.4,1.3,2.5,2.8,3.2,4.5l0.4,0.9c-0.1-0.2-0.1-0.3-0.2-0.5 c0.1,0.2,0.1,0.3,0.2,0.5l-0.4-0.9c-0.7-1.7-1-3.5-0.9-5.4c0-0.5,0.1-0.8,0.1-0.8c0.2-1.5,0-3-0.6-4.4c-0.5-1.2-1.2-2.3-2.1-3.1 c1.7,0.8,3.1,1.5,4.1,2.1c-0.1,0.1-0.2,0.2-0.3,0.3c-1.1,1.9,1.1,5.2,4.9,7.3c1.9,1.1,4.1,1.7,6.3,1.7c0,0,0.4,0,1,0 c2.7,0.2,5.4,0.9,7.7,2.2L495.5,117.3c-0.3-0.1-0.5-0.2-0.7-0.4C495,117,495.2,117.1,495.5,117.3 M475.8,98.3 c1.2,0,2.2,0.4,2.2,0.8s-1,0.8-2.2,0.7s-2.2-0.4-2.2-0.8S474.6,98.2,475.8,98.3 M468.1,93.9c1.2-0.3,2.2-0.3,2.3,0.2 s-0.8,1-1.9,1.3s-2.2,0.3-2.3-0.2S466.9,94.2,468.1,93.9 M460.5,90.7c1.1-0.5,2.1-0.7,2.3-0.3s-0.6,1.1-1.7,1.7s-2.1,0.7-2.3,0.3 S459.4,91.2,460.5,90.7 M452.3,88.2c1.1-0.7,2.1-0.9,2.3-0.5s-0.5,1.2-1.5,1.9s-2.1,0.9-2.3,0.5S451.2,88.8,452.3,88.2 M443.8,86.4c1-0.7,2.1-1,2.3-0.6s-0.4,1.2-1.4,1.9s-2.1,1-2.3,0.6S442.8,87.1,443.8,86.4 M435.5,84.9c0.9-0.7,1.9-1,2.2-0.7 s-0.3,1.2-1.3,1.9s-1.9,1-2.2,0.7S434.5,85.6,435.5,84.9 M427.8,84.1c0.9-0.8,1.8-1.2,2.1-0.8s-0.2,1.2-1.1,2s-1.8,1.2-2.1,0.9 S427,84.9,427.8,84.1 M420.2,85.2c0.7-0.7,1.5-1.1,1.7-0.8s-0.1,1-0.8,1.7s-1.5,1.1-1.7,0.8S419.5,85.9,420.2,85.2 M420.9,93.3 c0.3-0.1,0.9,0.6,1.2,1.5s0.3,1.8,0,1.9s-0.9-0.6-1.2-1.5S420.5,93.4,420.9,93.3 M427.6,94.6c0.4-0.1,1,0.7,1.3,1.8 s0.3,2.1-0.1,2.2s-1-0.7-1.3-1.8S427.2,94.7,427.6,94.6 M434.3,95.5c0.4-0.1,0.9,0.8,1.1,1.9s0.1,2.1-0.3,2.2s-0.9-0.8-1.1-1.9 S433.9,95.6,434.3,95.5 M442,96.6c0.4-0.1,1,0.8,1.2,2s0.1,2.3-0.3,2.4s-1-0.8-1.2-2S441.5,96.6,442,96.6 M449.6,98.6 c0.4-0.1,1,0.8,1.2,2s0.1,2.3-0.3,2.4s-1-0.8-1.2-2S449.2,98.7,449.6,98.6 M457.2,100.7c0.4-0.1,0.9,0.9,1.1,2.2s0,2.3-0.5,2.4 s-0.9-0.9-1.1-2.2S456.8,100.7,457.2,100.7 M463.9,102.4c0.4-0.1,1.1,0.8,1.4,2s0.3,2.3-0.1,2.4s-1.1-0.8-1.4-2 S463.5,102.5,463.9,102.4 M471.1,105.3c0.4-0.1,1,0.7,1.4,1.9s0.3,2.2-0.1,2.3s-1-0.7-1.4-1.9S470.7,105.4,471.1,105.3 M486,109.9c-0.4,0.5-1.8,0.1-3.3-0.9s-2.4-2.3-2-2.8s1.8-0.1,3.3,0.9S486.4,109.4,486,109.9"/><path id="Pfad_8360" class="st1" d="M0,99.1l1.2,0.7c2.3,1.3,4.3,3.1,5.9,5.3c0.4,0.6,0.6,1,0.6,1c1.1,1.9,2.7,3.5,4.7,4.5 c3.4,1.9,6.9,2.2,8.3,0.8c1.1,0.7,2.2,1.4,3.3,2.1c-1.2-0.4-2.5-0.6-3.8-0.5c-1.5,0.1-3,0.6-4.2,1.5c0,0-0.2,0.2-0.6,0.4 c-1.6,1-3.4,1.5-5.3,1.7l-0.9,0.1c0.2,0,0.3,0,0.5,0c-0.2,0-0.3,0-0.5,0.1l0.9-0.1c1.8-0.1,3.7,0.1,5.4,0.8 c0.4,0.2,0.7,0.3,0.7,0.3c1.4,0.7,2.9,0.9,4.4,0.7c2.9-0.2,5.2-1.7,5.1-3.2c-0.1-0.5-0.3-0.9-0.7-1.2c1.7,1,3.4,1.9,5.2,2.7 c-1.3-0.1-2.5,0.1-3.7,0.6c-1.4,0.5-2.7,1.4-3.6,2.6c0,0-0.2,0.2-0.4,0.6c-1.3,1.4-2.8,2.4-4.6,3.1L17,124 c0.2-0.1,0.3-0.1,0.5-0.2c-0.2,0.1-0.3,0.1-0.5,0.2l0.9-0.3c1.7-0.7,3.6-0.9,5.4-0.8c0.5,0.1,0.8,0.1,0.8,0.1 c1.5,0.3,3,0.1,4.4-0.5c2.8-1.1,4.5-3.1,4-4.5c-0.1-0.1-0.1-0.2-0.2-0.3c1.6,0.7,3.1,1.3,4.8,1.9c-1.4,0.1-2.7,0.6-3.9,1.3 c-1.3,0.8-2.4,1.9-3.1,3.2c0,0-0.1,0.3-0.3,0.6c-1,1.6-2.3,2.9-3.9,3.9l-0.8,0.5c0.2-0.1,0.3-0.2,0.4-0.3 c-0.1,0.1-0.3,0.2-0.4,0.3l0.8-0.5c1.6-1,3.3-1.6,5.1-1.8c0.5,0,0.8,0,0.8,0c1.5,0,3-0.5,4.2-1.3c2.5-1.6,3.9-3.9,3.1-5.2 l-0.1-0.1c1.7,0.6,3.4,1.1,5.1,1.6c-1.2,0.3-2.4,0.9-3.3,1.7c-1.3,0.9-2.2,2.1-2.8,3.6c0,0-0.1,0.3-0.3,0.7 c-0.9,1.7-2.1,3.2-3.6,4.4l-0.8,0.6c0.1-0.1,0.3-0.2,0.4-0.3c-0.1,0.1-0.3,0.2-0.4,0.3l0.8-0.6c1.5-1.1,3.2-1.9,5.1-2.3 c0.5-0.1,0.8-0.1,0.8-0.1c1.5-0.2,3-0.8,4.2-1.8c2.3-1.8,3.4-4.1,2.7-5.4c1.7,0.4,3.3,0.8,5,1.1c-1.1,0.4-2,1-2.9,1.7 c-1.2,1-2.1,2.2-2.6,3.7c0,0-0.1,0.3-0.2,0.7c-0.8,1.7-1.9,3.3-3.4,4.5l-0.7,0.6c0.1-0.1,0.3-0.2,0.4-0.3 c-0.1,0.1-0.3,0.2-0.4,0.4l0.7-0.6c1.4-1.2,3.1-2.1,4.9-2.6c0.5-0.1,0.8-0.1,0.8-0.1c1.5-0.2,2.9-0.9,4.1-2 c2.1-1.8,3.2-4.1,2.6-5.3c1.9,0.3,3.9,0.6,5.8,0.9c-2.8,0.7-5.1,2.8-6.1,5.6c0,0-0.1,0.3-0.2,0.7c-0.7,1.7-1.7,3.2-3,4.4 l-0.7,0.6c0.1-0.1,0.3-0.2,0.4-0.3c-0.1,0.1-0.2,0.2-0.4,0.4l0.7-0.6c1.3-1.2,2.9-2.1,4.6-2.6c0.4-0.1,0.8-0.2,0.8-0.2 c1.4-0.3,2.7-1,3.8-2c2.1-1.9,3-4.4,2-5.4c-0.1-0.1-0.2-0.2-0.3-0.2c1.8,0.2,3.7,0.4,5.5,0.6c-2.7,0.9-4.8,3.2-5.5,6 c0,0,0,0.3-0.1,0.7c-0.5,1.7-1.4,3.3-2.6,4.6l-0.6,0.7c0.1-0.1,0.2-0.2,0.3-0.4c-0.1,0.1-0.2,0.2-0.3,0.4l0.6-0.7 c1.2-1.3,2.6-2.3,4.3-3c0.4-0.1,0.7-0.2,0.7-0.2c1.4-0.4,2.6-1.2,3.6-2.3c1.9-2.1,2.6-4.6,1.5-5.5c-0.1,0-0.1-0.1-0.2-0.1 c1.5,0.1,2.9,0.2,4.4,0.3c-0.6,0.4-1.2,0.9-1.6,1.5c-0.8,0.9-1.3,2.1-1.5,3.3c0,0,0,0.2-0.1,0.6c-0.3,1.5-1,2.9-2,4l-0.5,0.6 c0.1-0.1,0.2-0.2,0.3-0.3c-0.1,0.1-0.2,0.2-0.3,0.3l0.5-0.6c1-1.2,2.1-2.1,3.5-2.7c0.3-0.1,0.6-0.2,0.6-0.2 c1.2-0.4,2.2-1.2,2.9-2.1c1.2-1.5,1.7-3.1,1.4-4.1c38.7,1.8,42.8-3.6,42.8-3.6l-0.3-2.3c-9,2.9-22.4,5.2-42.4,4.2 c0.6-0.8,0.6-2.7-0.3-4.5c-0.5-1.1-1.3-2.1-2.3-2.7c0,0-0.2-0.1-0.5-0.3c-1.2-0.9-2.1-2.1-2.8-3.5l-0.3-0.7 c0.1,0.1,0.1,0.3,0.2,0.4c-0.1-0.1-0.1-0.2-0.2-0.4l0.3,0.7c0.6,1.3,1,2.8,1,4.3c0,0.4-0.1,0.6-0.1,0.6c-0.1,1.2,0.1,2.4,0.7,3.5 c0.4,0.9,1.1,1.8,1.9,2.5c-1.5-0.1-3-0.2-4.4-0.3c1.2-0.6,1.4-3,0.4-5.5c-0.5-1.3-1.3-2.5-2.4-3.3c0,0-0.2-0.2-0.5-0.4 c-1.3-1.2-2.3-2.6-2.9-4.2l-0.3-0.8c0.1,0.2,0.1,0.3,0.2,0.5c-0.1-0.1-0.1-0.3-0.2-0.4l0.3,0.8c0.6,1.6,0.9,3.3,0.8,5 c0,0.4-0.1,0.7-0.1,0.7c-0.2,1.4,0,2.8,0.5,4.1c0.5,1.4,1.5,2.6,2.7,3.5c-1.8-0.2-3.5-0.4-5.2-0.6c1.2-0.6,1.5-2.9,0.7-5.4 c-0.4-1.4-1.1-2.6-2.2-3.5c0,0-0.2-0.2-0.5-0.4c-1.2-1.3-2.1-2.8-2.6-4.4l-0.3-0.8c0.1,0.2,0.1,0.3,0.1,0.5 c-0.1-0.2-0.1-0.3-0.2-0.5l0.3,0.8c0.5,1.6,0.7,3.4,0.4,5c-0.1,0.4-0.2,0.7-0.2,0.7c-0.3,1.4-0.2,2.8,0.2,4.1 c0.4,1.4,1.2,2.7,2.4,3.6c-1.8-0.2-3.6-0.5-5.3-0.8c1-0.9,1.2-3.2,0.4-5.7c-0.4-1.5-1.3-2.8-2.4-3.8c0,0-0.2-0.2-0.5-0.5 c-1.3-1.4-2.3-3-2.9-4.8l-0.3-0.9c0.1,0.2,0.1,0.3,0.2,0.5c-0.1-0.2-0.1-0.3-0.2-0.5l0.3,0.9c0.6,1.8,0.7,3.7,0.5,5.5 c-0.1,0.5-0.2,0.8-0.2,0.8c-0.3,1.5-0.3,3.1,0.3,4.5c0.4,1.3,1.1,2.5,2.1,3.5c-2-0.4-3.9-0.8-5.8-1.2c0.1,0,0.2,0,0.3,0 c1.5-0.5,1.9-3.2,1-6c-0.4-1.5-1.3-2.8-2.4-3.8c0,0-0.2-0.2-0.5-0.5c-1.3-1.4-2.3-3-2.9-4.8l-0.3-0.9c0.1,0.2,0.1,0.3,0.2,0.5 c-0.1-0.2-0.1-0.3-0.2-0.5l0.3,0.9c0.6,1.8,0.7,3.7,0.5,5.5c-0.1,0.5-0.2,0.8-0.2,0.8c-0.3,1.5-0.3,3.1,0.3,4.5 c0.4,1.7,1.5,3.2,2.9,4.1c-2.3-0.5-4.4-1.1-6.4-1.7c1.5-0.4,2.1-3.1,1.4-6c-0.3-1.5-1-2.9-2.1-4c0,0-0.2-0.2-0.5-0.5 c-1.2-1.5-2.1-3.2-2.5-5.1l-0.2-0.9c0,0.2,0.1,0.4,0.1,0.5c0-0.2-0.1-0.3-0.1-0.5l0.2,0.9c0.4,1.8,0.4,3.8,0.1,5.6 c-0.1,0.5-0.2,0.8-0.2,0.8c-0.5,1.5-0.5,3.1-0.1,4.6c0.3,1.6,1.1,3.1,2.3,4.2c-1.7-0.5-3.3-1-4.8-1.6c0.1,0,0.2,0,0.3-0.1 c1.4-0.6,1.7-3.3,0.6-6.2c-0.5-1.5-1.5-2.7-2.7-3.7c0,0-0.3-0.2-0.6-0.5c-1.4-1.3-2.5-2.9-3.2-4.7l-0.4-0.9 c0.1,0.2,0.1,0.3,0.2,0.5c-0.1-0.2-0.1-0.3-0.2-0.5l0.4,0.9c0.7,1.8,1,3.6,0.9,5.5c0,0.5-0.1,0.8-0.1,0.8c-0.2,1.5,0,3.1,0.6,4.5 c0.5,1.3,1.3,2.5,2.3,3.4c-2.1-0.8-3.9-1.5-5.5-2.2c0.2,0,0.3,0,0.5-0.1c1.4-0.6,1.6-3.2,0.5-6c-0.5-1.4-1.4-2.7-2.6-3.6 c0,0-0.3-0.2-0.6-0.4c-1.4-1.3-2.5-2.8-3.2-4.5L21.3,99c0.1,0.2,0.1,0.3,0.2,0.5c-0.1-0.2-0.1-0.3-0.2-0.5l0.4,0.9 c0.7,1.7,1,3.5,0.9,5.4c0,0.5-0.1,0.8-0.1,0.8c-0.2,1.5,0,3,0.6,4.4c0.5,1.2,1.2,2.3,2.1,3.1c-1.7-0.8-3.1-1.5-4.1-2.1 c0.1-0.1,0.2-0.2,0.3-0.3c1.1-1.9-1.1-5.2-4.9-7.3c-1.9-1.1-4.1-1.7-6.3-1.6c0,0-0.4,0-1.1,0c-2.7-0.2-5.4-0.9-7.7-2.2L0,99.1 c0.2,0.1,0.5,0.2,0.7,0.4C0.5,99.4,0.2,99.3,0,99.1 M19.6,118.1c-1.2,0-2.2-0.4-2.2-0.8s1-0.8,2.2-0.7s2.2,0.4,2.2,0.8 S20.8,118.1,19.6,118.1 M27.4,122.5c-1.2,0.3-2.2,0.3-2.3-0.2s0.8-1,1.9-1.3s2.2-0.3,2.3,0.2S28.6,122.2,27.4,122.5 M35,125.7 c-1.1,0.5-2.1,0.7-2.3,0.3s0.6-1.1,1.7-1.7s2.1-0.7,2.3-0.3S36.1,125.2,35,125.7 M43.2,128.2c-1.1,0.7-2.1,0.9-2.3,0.5 s0.5-1.2,1.5-1.9s2.1-0.9,2.3-0.5S44.3,127.6,43.2,128.2 M51.7,130c-1,0.7-2.1,1-2.3,0.6s0.4-1.2,1.4-1.9s2.1-1,2.3-0.6 S52.7,129.3,51.7,130 M60,131.5c-0.9,0.7-1.9,1-2.2,0.7s0.3-1.2,1.3-1.9s1.9-1,2.2-0.7S60.9,130.8,60,131.5 M67.6,132.3 c-0.9,0.8-1.8,1.2-2.1,0.9s0.2-1.2,1.1-2s1.8-1.2,2.1-0.9S68.5,131.5,67.6,132.3 M75.3,131.2c-0.7,0.7-1.5,1.1-1.7,0.8 s0.1-1,0.8-1.7s1.5-1.1,1.7-0.8S76,130.5,75.3,131.2 M74.6,123.1c-0.3,0.1-0.9-0.6-1.2-1.5s-0.3-1.8,0-1.9s0.9,0.6,1.2,1.5 S74.9,123,74.6,123.1 M67.9,121.8c-0.4,0.1-1-0.7-1.3-1.8s-0.3-2.1,0.1-2.2s1,0.7,1.3,1.8S68.3,121.7,67.9,121.8 M61.2,120.9 c-0.4,0.1-0.9-0.8-1.1-1.9s-0.1-2.1,0.3-2.2s0.9,0.8,1.1,1.9S61.6,120.8,61.2,120.9 M53.5,119.8c-0.4,0.1-1-0.8-1.2-2 s-0.1-2.3,0.3-2.4s1,0.8,1.2,2S53.9,119.7,53.5,119.8 M45.9,117.8c-0.4,0.1-1-0.8-1.2-2s-0.1-2.3,0.3-2.4s1,0.8,1.2,2 S46.3,117.7,45.9,117.8 M38.3,115.7c-0.4,0.1-0.9-0.9-1.1-2.2s0-2.3,0.5-2.4s0.9,0.9,1.1,2.2S38.7,115.7,38.3,115.7 M31.6,114 c-0.4,0.1-1.1-0.8-1.4-2s-0.3-2.3,0.1-2.4s1.1,0.8,1.4,2C32,112.8,32,113.9,31.6,114 M24.3,111.1c-0.4,0.1-1-0.7-1.4-1.9 s-0.3-2.2,0.1-2.3s1,0.7,1.4,1.9S24.7,111,24.3,111.1 M9.5,106.5c0.4-0.5,1.8-0.1,3.3,0.9s2.4,2.3,2,2.8s-1.8,0.1-3.3-0.9 S9.1,107,9.5,106.5"/><path id="Pfad_8361" class="st1" d="M153.2,121.1c1.7-7.8,4-15.7,6-19.4c0.2-0.4,0.5-0.8,0.8-1.2c0.1-0.1,0.2-0.2,0.2-0.4 c0-1-4.6-2.3-5.9-2.2c-1.7,0.1-4.9,11-7.1,22.1c-2.6,0.2-7.1,1.1-10.5,1.6c1.8-7.6,4-15.2,5.9-18.7c0.3-0.5,0.5-0.8,0.8-1.2 c0.1-0.1,0.2-0.2,0.2-0.3c0-1-4.6-2.5-5.9-2.5c-1.7,0.1-5,11.3-7.2,22.5c-1.4-0.2-2.7-0.6-4-1.2c-0.2-0.1-0.3-0.1-0.5,0.1 s-0.2,0.5-0.2,0.8c0,0.9,1.1,4.3,1.8,4.6c0.6,0.3,1.3,0.5,1.9,0.6c-0.8,4.3-1.3,8.6-1.5,13c0.1,1.5,2.8,2.9,4.4,2.9 c0.6,0,0.8-0.3,0.8-0.8c0-2.7,0.9-8.5,2.3-15c3.2-0.4,7.4-1.2,10.7-2c-0.9,4.7-1.5,9.5-1.7,14.4c0.1,1.5,2.8,2.8,4.4,2.7 c0.6,0,0.8-0.3,0.8-0.9c0-3,1.1-9.9,2.7-17.3h0.3c0.9-0.1,1.1-0.4,0.9-1.1C153.7,121.8,153.5,121.4,153.2,121.1"/><path id="Pfad_8362" class="st1" d="M370.8,90.1c-2.3,6.1-7.2,17.2-12.6,17.4c-3.1,0.1-4.2-2.7-4-6.2c5.2-0.3,12.5-5.3,12.5-11.5 c0-3-4.5-6.3-7-6.2c-4.7,0.2-9.2,6.9-10.8,13.6c-1.3,1.7-2.8,3.3-4.5,4.6c2.1-4.1,3.6-8.5,3.6-12.3c0-2.2-2.7-5.8-5.5-5.5 c-1.7,0.1-3.3,1.9-4.6,4c-1.3,2-2.4,4.1-3.4,6.3c1.8-8.5,4.3-17.5,6.4-21.5c0.2-0.4,0.5-0.8,0.8-1.2c0.1-0.1,0.1-0.2,0.1-0.3 c0-1-4.5-2.4-5.8-2.2c-2.2,0.2-6.9,18.7-8.8,32.1c-1.4,3.3-3.2,6.3-5.4,9.1c-0.6,0.6-1.2,0.7-1-0.3c1.2-6.5,2.9-12.9,5.1-19.2 c0.2-0.7,1-1.7,0.3-2.1c-1.3-0.9-2.7-1.4-4.3-1.4c-0.5,0.2-0.8,0.5-1,1c-0.6,1.5-1.1,3.1-1.7,4.8c-1.1,3.3-5.8,18.6-9,19.1 c-0.7,0.1-1.2-0.7-0.9-2.3c1.2-5.9,2.7-11.8,4.7-17.5c0.3-0.7,1-1.7,0.3-2.1c-1.3-0.9-2.8-1.3-4.3-1.3c-0.4,0.1-0.7,0.4-1,1 c-1.4,3.5-2.5,7.1-3.4,10.8c-2,4.5-4.6,8.8-7.6,12.7c-0.9,1.2-1.2,0.9-1.1-0.6c1.3-8.3,3.1-16.6,5.4-24.7 c2.1-0.4,4.3-0.5,6.4-0.3h0.2c0.2-0.2,0.3-0.5,0.3-0.8c0-0.7-0.4-2.4-0.8-2.6c-0.9-0.5-3-0.3-5,0c0.2-0.7,0.4-1.4,0.7-2.1 c0.2-0.6,0.5-1.2,0.9-1.7c0.1-0.1,0.1-0.2,0.2-0.3c0.1-0.2,0.2-0.2,0.2-0.4c0-1.1-4.1-2.1-5.4-1.9c-0.6,0.1-1.3,1.1-1.9,2.8 c-0.6,1.8-1.1,3.5-1.5,5.3c-2.1,0.7-4.3,1.2-6.5,1.6c-0.7,0.1-0.8,0.4-0.6,0.9c0.7,1.7,3.6,1.1,4.9,0.9l1.5-0.2 c-1,4-1.9,8.4-2.7,12.5c-1.3,2.5-3.2,4.7-5.5,6.4c-1.4-2.8-5-4.7-5-8.2c0-1.2,0.7-4.2,2.4-4.5c0.7-0.1,1.1,0.5,1.1,1.3 c0,1.3-0.9,3.2-2.1,3.5c-0.1,0.1-0.1,0.2-0.1,0.3c0,0.7,2.1,1.3,3.6,1c0.9-0.2,2.4-2.9,2.4-4.3c0-2.4-3.1-5.3-5.5-4.9 c-3.7,0.7-7.4,3.9-7.4,8.2c0,0.9,0.2,1.8,0.5,2.7c-1.6,4.9-3.8,11.3-7.1,15.3c-0.3,0.3-0.5,0.5-0.7,0.5c-2.1,0.4-3.4-7.5-3.4-8.8 c2.8-2.2,5.2-4.8,7-7.8c0.9-1.6,1.2-3,0.5-4.4c-0.5-1.1-1.4-2-2.5-2.6c-1.3-0.6-2.9,0.7-4.2,2.2c-3.4,4-5.7,9.3-7.7,13.9 c1.9-9.9,5-22.6,7.6-27.7c0.2-0.5,0.5-0.9,0.8-1.3c0.1-0.1,0.1-0.2,0.1-0.4c0-1-4.5-1.9-5.8-1.6c-2.3,0.4-7.1,19.7-8.9,33.4 c-2.3,4.9-5.2,9.4-8.8,10.1c-8.2,1.6-1.9-20.3,3.8-21.4c0.9-0.2,1.2,0.7,0.5,2.6c-0.6,1.7-1.7,3.3-3.1,4.4 c-0.7,0.5-1,1.3-0.5,1.7c1,0.9,2.3,1.4,3.7,1.4c1.5-0.3,3.5-4.6,3.5-8.3c0-2.9-3.3-5.1-6.4-4.5c-5.3,1-10.6,11.1-11.2,18.8 c-1.2,2.7-2.7,5.3-4.5,7.6c-0.5,0.6-1.1,0.8-0.9-0.3c1.1-6.6,2.7-13.1,4.8-19.5c0.3-0.7,1.1-1.7,0.3-2.1 c-1.3-0.8-2.8-1.2-4.3-1.1c-0.4,0.1-0.7,0.5-1,1.1c-0.1,0.3-0.2,0.6-0.3,0.9c-2.4-0.8-4.8-1.9-6.9-0.3c-3.7,2.7-6.5,7.7-8.1,12.8 c-1.5,2.4-3.3,4.6-5.4,6.5c2.1-4.3,3.6-8.9,3.6-12.6c0-2.2-2.7-5.5-5.5-5c-1.7,0.3-3.3,2.2-4.6,4.3c-1.3,2.1-2.4,4.3-3.4,6.5 c1.8-8.6,4.3-17.8,6.4-21.9c0.2-0.5,0.5-0.9,0.8-1.3c0.1-0.1,0.1-0.2,0.1-0.4c0-1-4.5-2-5.8-1.8c-2,0.3-5.8,15-8,27.7 c-1.8,2-4.1,3.5-6.6,4.4c1.8-7.8,4-15.7,5.9-19.4c0.3-0.4,0.5-0.9,0.9-1.3c0.1-0.1,0.1-0.2,0.1-0.4c0-1-4.6-2.1-5.8-1.9 c-0.7,0.1-1.7,2.1-2.7,5.2c-1.6,4.9-3,9.8-4.2,14.8c-1.4,2.6-3.2,5.1-5.4,7.2c1.2-3.1,1.9-6.3,1.9-9.6c0-3-3.5-5.5-7.6-5 c-1.4-0.9-3.2-1-4.8-0.2c-5.6,3.5-9,12.5-9,19.1c0,3.5,2.9,8.1,7.7,7.6c4-0.4,7.5-3.7,10-8.1c2.3-1.7,4.4-3.8,6.1-6 c-1.4,7-2.5,14.1-3.2,20.6c-0.2,1.9-0.4,3.8-0.4,5.7c0,1.5,2.8,2.1,4.4,1.9c1.3,0,2.4-0.6,3.2-1.6c1.2-1.6,2-3.5,2.4-5.4 c1.7-7,1.8-14.3,0.5-21.4c2.3-0.8,4.4-2,6.2-3.6c-0.6,3.8-1,7.6-1.1,11.4c0,1.5,2.8,2.5,4.4,2.3c0.9-0.1,0.8-0.9,0.8-1.3 c0.7,0.5,1.5,0.8,2.3,0.8c2.4-0.4,5.4-3.4,8.1-7.4c2.5-1.8,4.7-3.8,6.6-6.2c-0.5,2.3-0.6,4.7-0.3,7c0.3,2.4,1.7,3.8,4.4,3.4 c3-0.5,5.6-4.5,7.5-9c0,0.2,0,0.3-0.1,0.5c-0.1,0.9-0.2,1.7-0.3,2.6c-0.2,2.2,1.3,4.3,3.7,3.9c2.6-0.5,5.2-4.1,7.4-8.3 c0.7,3.8,3.2,6.2,8.5,5.2c3.8-0.7,6.8-4.3,9.3-8.5c-0.1,1.4-0.2,2.7-0.2,3.8c0,1.5,2.8,2.4,4.4,2.1c0.5,0,0.8-0.4,0.8-0.9 c0,0,0,0,0-0.1c0-0.8,0.1-1.7,0.3-2.5c0.6-2.7,1.4-5.4,2.5-8c0.4,3.8,2.9,10.2,7,9.4c1.8-0.3,3.5-2.1,5-4.5c0,2,1.8,3.6,4.9,3 c5.2-1,11.5-5.6,10.7-11.4c1.5-1.1,2.9-2.4,4.1-3.9c-0.3,2.1-0.6,4-0.7,5.8c-0.2,2.7-0.3,6.6,3.4,6c2.9-0.5,6.3-5.4,9.2-10.5 c-0.1,0.7-0.2,1.3-0.3,2c-0.1,0.9-0.2,1.7-0.3,2.6c-0.2,2,2.2,4.2,4.8,3.8c3-0.5,5.5-4.3,7.5-8.7c-0.1,0.2-0.1,0.3-0.1,0.5 c-0.1,0.9-0.2,1.7-0.3,2.6c-0.2,2.2,1.4,4.4,3.7,4.1c2.7-0.4,5.3-3.9,7.6-8c-0.1,1.5-0.2,2.9-0.2,4.1c0,1.5,2.8,2.6,4.4,2.4 c0.9-0.1,0.8-0.8,0.8-1.2c0.6,0.5,1.4,0.9,2.3,0.9c2.4-0.2,5.4-3.1,8.1-6.9c2.3-1.4,4.4-3.1,6.2-5.1c-0.4,5.7,1.8,10.7,8.8,10.2 c7.6-0.3,12.9-13.3,15.4-19.9C373,89.7,371.2,89,370.8,90.1 M165.7,134.4c-1.2,0.6-2.5,1-3.9,1.3c-0.2,0-0.5,0.1-0.7,0.2 c-1.7-3.5,0.2-13.1,4-17.8c2.4-2.9,4.8-2.9,4.8,1.6C169.8,124.8,168.3,129.9,165.7,134.4 M182.9,148.3c-0.2,0.6-0.9,2.9-1.3,3 c-0.3,0-0.3-1-0.1-3.1c0.6-6,1.6-12,2.7-17.9C185,136.3,184.6,142.4,182.9,148.3 M200.4,129.6c-1.4,0.7-2.9,1.2-4.4,1.6 c0.7-4.3,2-8.5,3.8-12.4c1.1-2.3,2.3-4.6,3.6-6.8c1.2-1.9,2.4-1.5,2.3,0.5C205.3,118.5,203.5,124.4,200.4,129.6 M227.4,109.2 c-1,3.3-5.4,18.9-8.6,19.4c-1.1,0.2-0.9-2.2-0.9-3c0.4-5.8,4-18,8.6-18.9c0.6-0.2,1.2,0.1,1.6,0.6 C227.8,108,227.6,108.6,227.4,109.2 M261.6,111.1c1.6-3.9,3.6-7.6,6-11.1c1.1-1.5,1.3-0.5,1.1,0.4 C267.7,104.2,264,109.1,261.6,111.1 M278.1,118.3c-3.1,1.7-4.1-2.3-1.1-3.6c1.5-0.7,3.8-0.9,5.2-1.5 C281.5,115.4,280.1,117.2,278.1,118.3 M278,112.5c-1,0.3-2,0.7-2.9,1.4c1.4-2.9,2.6-6,3.5-8.6c1.4,2,3.3,3.6,3.6,6 C281,111.8,279.5,112.1,278,112.5 M336.4,106.4c-1.4,0.6-2.9,1.1-4.4,1.4c0.7-4.2,1.9-8.3,3.8-12.2c1.1-2.3,2.3-4.5,3.6-6.6 c1.2-1.9,2.4-1.4,2.3,0.7C341.4,95.7,339.5,101.4,336.4,106.4 M359.8,87.6c1-0.8,2.1-0.4,2.1,1c0,5.4-4,10.9-7.6,11.1 C354.9,95.1,357.2,89.7,359.8,87.6"/></g></g></g></svg>