<?xml version="1.0" encoding="UTF-8"?><svg xmlns="http://www.w3.org/2000/svg" xmlns:xlink="http://www.w3.org/1999/xlink" version="1.1" id="Ebene_1" x="0px" y="0px" viewBox="0 0 1000.3 678" style="enable-background:new 0 0 1000.3 678;" xml:space="preserve"><style type="text/css">.st0{fill-rule:evenodd;clip-rule:evenodd;fill:none;stroke:#939393;stroke-width:2;stroke-miterlimit:10;}	.st1{fill:none;stroke:#9A6D4F;stroke-width:4;stroke-miterlimit:10;}	.st2{fill:none;stroke:#D6D6D6;stroke-width:4;stroke-miterlimit:10;}	.st3{fill:none;stroke:#A37146;stroke-width:4;stroke-miterlimit:10;}	.st4{fill:#56260F;}	.st5{fill:#886F61;}	.st6{fill-rule:evenodd;clip-rule:evenodd;fill:#56260F;}	.st7{fill:#945D35;}	.st8{fill:#451C0E;}	.st9{fill:#57270F;}</style><path class="st0" d="M110.6,224.9c0,0,31.3,18.8,33,26.8c1.7,7.9,8.2,17.4,8.7,19.4c0.5,2-2,6.4,2.5,11.4c4.5,5,19.4,27.4,22.3,32.1 c3,4.7,5.5,10.8,6.5,19.4c1,8.6,19.7,47.7,23,52"/><path class="st0" d="M4.9,410c0,0,15.4,2.5,30.3,16.9s22.1,23.1,30.3,26.7c8.2,3.6,22.2,13,26,20.2s6.4,19.6,9.8,12.7 c3.4-6.9-2.4-17.2,6-22.8s13.9-1.8,22.1-7.1s17.2-8.6,29.3-8.5c12.1,0.2,28,2.8,33.9,7.4c6,4.6,18.8,20.3,30.2,25.6"/><path class="st0" d="M512.2,242.9c0,0-13.8-3-15.4-18c-1.1-10.1-29.8-10.1-32.7-19c-3-8.9-14.3-33.7-20.3-36.7 c-6-3-15.9-9.9-17.7-13.9c-1.7-4-10.7,9.9-14.6,12.9s-13.6,16.9-27.4,17.9c-13.8,1-33.6,0-40.1-1.5s-8.9-0.5-9.4,3.5 c-0.5,4-1.5,11.4-6,14.4c-4.5,3-8.2,6.3-5.6,8.4c2.6,2,1.9,6.6,0,9.1s-11.4,26.2-12.3,31.7c-0.9,5.5-1.4,17.1-2.4,21 c-1,3.8-9.4,9.7-24.3,0.9"/><path class="st1" d="M245.1,443.2c0,0-32.3-6-35.7-25.3c-3.5-19.4-2.2-25.3-2.8-32.1c0-6.3,8.7,5.9,36.9-25.2 c10.7-11.8,21-19.3,24.5-49.7c3.4-29.8,15.9-37.5,15.9-37.5s6-10.9,6-12.9c0-2-3.5-1.1-3.5-1.1"/><path class="st1" d="M82.7,676.5c0,0,13-6.3,22.3-17.5c9.3-11.2,64-76.3,66.3-79.7c2.2-3.4,13.4-36.9,17.5-39.1 c4.1-2.2,17.8-2.2,17.8-13.8c0-10.8,0.1-17.1,16.1-45.4s20.5-34.6,20.5-34.6s7.4-10.1,16-8.9c8.6,1.1,14.5,2.2,17.9,1.9 c3.4-0.4,9.3-0.9,10.1,3.8c0.7,4.7-2.7,8.8,2.7,10.3c5.5,1.5,15.9,4.8,26.3,1.9s45.8-6,61.1-3.4c15.3,2.6,28.7,9.7,63.3,2.2 s48,1.5,54.3,5.2s27.9,24.9,49.1,2.6s27.5-20.8,49.1-22.7c21.6-1.9,28.7-0.4,51-26.8c6.7-7.1,10.8-12.3,10.8-12.3"/><path class="st2" d="M391.3,1.5c0,0,17.1,51.6,30.5,56.6s35.7,5.5,50.6,9.9c14.9,4.5,26.3,7.4,41.7,39.7s23.8,46.2,8.9,77.9 c-14.9,31.8-20.8,66.9,12.9,98.2c0,0,140.5,133.6,183.6,185.7c11.9,12.4,80.4,58.6,88.8,62c8.4,3.5,55.1,34.2,41.2,70.5"/><path class="st3" d="M751.4,672c0,0,33.8-56.1,46.2-91.3c12.4-35.2,34.7-76.4,40.2-88.8c5.5-12.4,17.9-13.4,0-91.6 c-17.9-78.2-16.9-94.6-14.9-130.8s-2-92.8-7.9-121.6"/><path class="st1" d="M394.3,624.7c0,0-13.9-44.2-43.3-61.2c-19.1-11-39.4-18-61.2-35.2c-15.8-12.5-6.9-26-5-31.9c2-6,10.4-23,5-42.8 "/><g><path class="st4" d="M796,331.2l-0.7,2.7h-2.4l3.2-10.4h3.1l3.2,10.4h-2.5l-0.8-2.7H796z M798.6,329.5l-0.6-2.2 c-0.2-0.6-0.4-1.4-0.5-2h0c-0.2,0.6-0.3,1.4-0.5,2l-0.6,2.2H798.6z"/><path class="st4" d="M804,332.2c0.3,0,0.6,0,1,0c0.7,0,1.4-0.2,2-0.6c0.6-0.4,1.1-1.1,1.3-1.8l0,0c-0.4,0.5-1.1,0.7-2,0.7 c-1.7,0-3.1-1.2-3.1-3.1c0-2,1.6-3.6,3.8-3.6c2.6,0,3.8,2,3.8,4.3c0,2.1-0.7,3.6-1.8,4.6c-1,0.9-2.3,1.3-3.8,1.4 c-0.4,0-0.8,0-1.1,0V332.2z M805.4,327.2c0,0.9,0.5,1.6,1.4,1.6c0.6,0,1.1-0.3,1.3-0.7c0.1-0.1,0.1-0.3,0.1-0.6 c0-1.1-0.4-2.1-1.5-2.1C806,325.4,805.4,326.1,805.4,327.2z"/><path class="st4" d="M812.2,331.6c0.4,0.2,1.4,0.6,2.3,0.6c1.2,0,1.8-0.6,1.8-1.3c0-1-1-1.4-2-1.4h-1v-1.7h0.9 c0.8,0,1.8-0.3,1.8-1.2c0-0.6-0.5-1-1.5-1c-0.8,0-1.7,0.4-2.1,0.6l-0.5-1.7c0.6-0.4,1.8-0.8,3.1-0.8c2.1,0,3.3,1.1,3.3,2.5 c0,1.1-0.6,1.9-1.8,2.3v0c1.2,0.2,2.2,1.1,2.2,2.4c0,1.8-1.6,3.1-4.1,3.1c-1.3,0-2.4-0.3-3-0.7L812.2,331.6z"/></g><g><path class="st4" d="M583.7,314.7c0.6-0.1,1.9-0.2,3-0.2c1.4,0,2.3,0.1,3.1,0.6c0.7,0.4,1.2,1.1,1.2,2c0,0.9-0.5,1.8-1.7,2.2v0 c1.2,0.3,2.1,1.2,2.1,2.6c0,0.9-0.4,1.7-1.1,2.2c-0.8,0.6-2,0.9-4.1,0.9c-1.2,0-2-0.1-2.5-0.2V314.7z M586,318.6h0.8 c1.2,0,1.9-0.5,1.9-1.3c0-0.8-0.6-1.2-1.7-1.2c-0.5,0-0.8,0-1,0.1V318.6z M586,323.3c0.2,0,0.5,0,0.9,0c1.1,0,2-0.4,2-1.5 c0-1-0.9-1.5-2.1-1.5H586V323.3z"/><path class="st4" d="M592.6,324.9v-1.4l1.3-1.2c2.2-2,3.2-3.1,3.3-4.2c0-0.8-0.5-1.5-1.6-1.5c-0.9,0-1.6,0.4-2.1,0.8l-0.7-1.7 c0.8-0.6,1.9-1,3.3-1c2.3,0,3.5,1.3,3.5,3.1c0,1.7-1.2,3-2.7,4.3l-0.9,0.8v0h3.8v1.9H592.6z"/><path class="st4" d="M601.1,324.9v-1.4l1.3-1.2c2.2-2,3.2-3.1,3.3-4.2c0-0.8-0.5-1.5-1.6-1.5c-0.9,0-1.6,0.4-2.1,0.8l-0.7-1.7 c0.8-0.6,1.9-1,3.3-1c2.3,0,3.5,1.3,3.5,3.1c0,1.7-1.2,3-2.7,4.3l-0.9,0.8v0h3.8v1.9H601.1z"/></g><g><path class="st5" d="M231.7,480.2c1-0.2,2.4-0.3,4.3-0.3c2,0,3.4,0.4,4.3,1.1c0.9,0.7,1.5,1.9,1.5,3.3c0,1.4-0.5,2.6-1.3,3.4 c-1.1,1-2.7,1.5-4.6,1.5c-0.4,0-0.8,0-1.1-0.1v5.1h-3.2V480.2z M234.9,486.6c0.3,0.1,0.6,0.1,1.1,0.1c1.7,0,2.8-0.9,2.8-2.3 c0-1.3-0.9-2.1-2.5-2.1c-0.7,0-1.1,0.1-1.3,0.1V486.6z"/><path class="st5" d="M249.3,494.1l-0.2-1H249c-0.7,0.8-1.7,1.3-2.9,1.3c-2.1,0-3.3-1.5-3.3-3.2c0-2.7,2.4-3.9,6-3.9v-0.1 c0-0.5-0.3-1.3-1.9-1.3c-1,0-2.2,0.4-2.8,0.8l-0.6-2.1c0.7-0.4,2.1-0.9,4-0.9c3.4,0,4.5,2,4.5,4.4v3.6c0,1,0,1.9,0.1,2.5H249.3z M248.9,489.3c-1.7,0-3,0.4-3,1.6c0,0.8,0.5,1.2,1.3,1.2c0.8,0,1.4-0.5,1.7-1.2c0-0.2,0.1-0.4,0.1-0.5V489.3z"/><path class="st5" d="M254.5,487.3c0-1.5,0-2.5-0.1-3.4h2.8l0.1,1.9h0.1c0.5-1.5,1.8-2.1,2.8-2.1c0.3,0,0.4,0,0.7,0v3 c-0.2,0-0.5-0.1-0.9-0.1c-1.2,0-2,0.6-2.2,1.6c0,0.2-0.1,0.5-0.1,0.7v5.2h-3.2V487.3z"/><path class="st5" d="M265.6,488.2L265.6,488.2c0.3-0.4,0.5-0.8,0.8-1.2l2.1-3.1h3.8l-3.7,4.2l4.2,6.1h-3.9l-2.5-4.2l-0.8,1v3.2 h-3.2v-14.9h3.2V488.2z"/><path class="st5" d="M273.8,491.3c0.6,0.4,1.8,0.8,2.8,0.8c1,0,1.4-0.3,1.4-0.9c0-0.5-0.3-0.8-1.5-1.2c-2.1-0.7-2.9-1.9-2.9-3.1 c0-1.9,1.6-3.4,4.2-3.4c1.2,0,2.3,0.3,2.9,0.6l-0.6,2.2c-0.5-0.3-1.3-0.6-2.2-0.6c-0.8,0-1.2,0.3-1.2,0.8c0,0.5,0.4,0.7,1.7,1.2 c2,0.7,2.8,1.7,2.8,3.2c0,1.9-1.5,3.3-4.5,3.3c-1.3,0-2.5-0.3-3.3-0.7L273.8,491.3z"/><path class="st5" d="M286.5,480.9v2.9h2.3v2.4h-2.3v3.7c0,1.2,0.3,1.8,1.3,1.8c0.4,0,0.7,0,0.9-0.1l0,2.4c-0.4,0.2-1.2,0.3-2.1,0.3 c-1,0-1.9-0.4-2.4-0.9c-0.6-0.6-0.9-1.6-0.9-3v-4.2H282v-2.4h1.4v-2.2L286.5,480.9z"/><path class="st5" d="M293,490c0.1,1.3,1.4,2,2.9,2c1.1,0,2-0.1,2.8-0.4l0.4,2.2c-1,0.4-2.3,0.6-3.7,0.6c-3.5,0-5.5-2-5.5-5.2 c0-2.6,1.6-5.5,5.2-5.5c3.3,0,4.6,2.6,4.6,5.1c0,0.5-0.1,1-0.1,1.3H293z M296.7,487.8c0-0.8-0.3-2.1-1.8-2.1c-1.3,0-1.9,1.2-2,2.1 H296.7z"/><path class="st5" d="M304.9,481c0,0.9-0.7,1.6-1.7,1.6c-1,0-1.7-0.7-1.7-1.6c0-0.9,0.7-1.6,1.7-1.6S304.9,480.1,304.9,481z M301.6,494.1v-10.3h3.2v10.3H301.6z"/><path class="st5" d="M307.4,487.1c0-1.3,0-2.4-0.1-3.3h2.8l0.1,1.4h0.1c0.4-0.7,1.5-1.6,3.2-1.6c2.1,0,3.7,1.4,3.7,4.4v6.1h-3.2 v-5.7c0-1.3-0.5-2.2-1.6-2.2c-0.9,0-1.4,0.6-1.6,1.2c-0.1,0.2-0.1,0.5-0.1,0.8v5.9h-3.2V487.1z"/></g><g><path class="st4" d="M405.6,612.9l0.9,3.2c0.2,0.6,0.3,1.1,0.4,1.7h0c0.1-0.6,0.2-1.1,0.4-1.7l0.9-3.2h2.2l-2.5,6.8h-2.1l-2.5-6.8 H405.6z"/><path class="st4" d="M418,616.3c0,2.5-1.8,3.7-3.6,3.7c-2,0-3.5-1.3-3.5-3.5s1.5-3.6,3.7-3.6C416.6,612.8,418,614.2,418,616.3z M413,616.3c0,1.2,0.5,2.1,1.4,2.1c0.8,0,1.4-0.8,1.4-2.1c0-1-0.4-2.1-1.4-2.1C413.4,614.3,413,615.3,413,616.3z"/><path class="st4" d="M419.3,615.1c0-0.9,0-1.6-0.1-2.2h1.8l0.1,0.9h0c0.3-0.4,1-1.1,2.1-1.1c1.4,0,2.5,0.9,2.5,2.9v4.1h-2.1V616 c0-0.9-0.3-1.5-1.1-1.5c-0.6,0-0.9,0.4-1.1,0.8c-0.1,0.1-0.1,0.3-0.1,0.5v4h-2.1V615.1z"/><path class="st4" d="M431.4,619.8l-2.2-9.4h2.3l0.7,3.9c0.2,1.1,0.4,2.3,0.6,3.3h0c0.2-1,0.4-2.2,0.6-3.3l0.8-3.9h2.3l0.8,4 c0.2,1.1,0.4,2.1,0.5,3.2h0c0.1-1.1,0.4-2.2,0.5-3.3l0.8-3.9h2.2l-2.4,9.4h-2.3l-0.8-4.1c-0.2-1-0.3-1.8-0.4-2.9h0 c-0.2,1.1-0.3,2-0.5,2.9l-0.9,4.1H431.4z"/><path class="st4" d="M443.3,617c0.1,0.9,0.9,1.3,1.9,1.3c0.7,0,1.3-0.1,1.9-0.3l0.3,1.4c-0.7,0.3-1.6,0.4-2.5,0.4 c-2.3,0-3.7-1.3-3.7-3.5c0-1.7,1.1-3.7,3.5-3.7c2.2,0,3.1,1.7,3.1,3.4c0,0.4,0,0.7-0.1,0.8H443.3z M445.8,615.6 c0-0.5-0.2-1.4-1.2-1.4c-0.9,0-1.3,0.8-1.3,1.4H445.8z"/><path class="st4" d="M451.2,611c0,0.6-0.4,1.1-1.1,1.1c-0.7,0-1.1-0.5-1.1-1.1c0-0.6,0.4-1.1,1.1-1.1 C450.8,609.9,451.2,610.4,451.2,611z M449,619.8v-6.8h2.1v6.8H449z"/><path class="st4" d="M459.5,609.8v7.9c0,0.8,0,1.6,0.1,2h-1.9l-0.1-1h0c-0.4,0.8-1.3,1.2-2.1,1.2c-1.6,0-2.9-1.4-2.9-3.5 c0-2.3,1.4-3.6,3.1-3.6c0.8,0,1.5,0.3,1.8,0.8h0v-3.7H459.5z M457.4,615.8c0-0.1,0-0.3,0-0.4c-0.1-0.6-0.6-1.1-1.2-1.1 c-1,0-1.5,0.9-1.5,1.9c0,1.2,0.6,1.9,1.5,1.9c0.6,0,1.1-0.4,1.2-1c0-0.2,0.1-0.3,0.1-0.5V615.8z"/><path class="st4" d="M462.9,617c0.1,0.9,0.9,1.3,1.9,1.3c0.7,0,1.3-0.1,1.9-0.3l0.3,1.4c-0.7,0.3-1.6,0.4-2.5,0.4 c-2.3,0-3.7-1.3-3.7-3.5c0-1.7,1.1-3.7,3.5-3.7c2.2,0,3.1,1.7,3.1,3.4c0,0.4,0,0.7-0.1,0.8H462.9z M465.4,615.6 c0-0.5-0.2-1.4-1.2-1.4c-0.9,0-1.3,0.8-1.3,1.4H465.4z"/><path class="st4" d="M468.6,615.1c0-0.9,0-1.6-0.1-2.2h1.8l0.1,0.9h0c0.3-0.4,1-1.1,2.1-1.1c1.4,0,2.5,0.9,2.5,2.9v4.1H473V616 c0-0.9-0.3-1.5-1.1-1.5c-0.6,0-0.9,0.4-1.1,0.8c-0.1,0.1-0.1,0.3-0.1,0.5v4h-2.1V615.1z"/><path class="st4" d="M414.6,628.9h-2.5v-1.8h7.3v1.8h-2.6v7.6h-2.1V628.9z"/><path class="st4" d="M422.3,627.8c0,0.6-0.4,1.1-1.1,1.1c-0.7,0-1.1-0.5-1.1-1.1c0-0.6,0.4-1.1,1.1-1.1S422.3,627.2,422.3,627.8z M420.1,636.6v-6.8h2.1v6.8H420.1z"/><path class="st4" d="M425.6,633.8c0.1,0.9,0.9,1.3,1.9,1.3c0.7,0,1.3-0.1,1.9-0.3l0.3,1.4c-0.7,0.3-1.6,0.4-2.5,0.4 c-2.3,0-3.7-1.3-3.7-3.5c0-1.7,1.1-3.7,3.5-3.7c2.2,0,3.1,1.7,3.1,3.4c0,0.4,0,0.7-0.1,0.8H425.6z M428.1,632.4 c0-0.5-0.2-1.4-1.2-1.4c-0.9,0-1.3,0.8-1.3,1.4H428.1z"/><path class="st4" d="M431.3,632c0-1,0-1.7-0.1-2.3h1.8l0.1,1.3h0.1c0.4-1,1.2-1.4,1.8-1.4c0.2,0,0.3,0,0.4,0v2 c-0.2,0-0.3-0.1-0.6-0.1c-0.8,0-1.3,0.4-1.5,1.1c0,0.1,0,0.3,0,0.5v3.5h-2.1V632z"/><path class="st4" d="M436.6,626.6h2.1v3.9h0c0.2-0.3,0.5-0.5,0.8-0.7c0.3-0.2,0.7-0.3,1.1-0.3c1.4,0,2.4,0.9,2.4,3v4H441v-3.8 c0-0.9-0.3-1.5-1.1-1.5c-0.6,0-0.9,0.4-1.1,0.7c-0.1,0.1-0.1,0.3-0.1,0.5v4.1h-2.1V626.6z"/><path class="st4" d="M446.4,633.8c0.1,0.9,0.9,1.3,1.9,1.3c0.7,0,1.3-0.1,1.9-0.3l0.3,1.4c-0.7,0.3-1.6,0.4-2.5,0.4 c-2.3,0-3.7-1.3-3.7-3.5c0-1.7,1.1-3.7,3.5-3.7c2.2,0,3.1,1.7,3.1,3.4c0,0.4,0,0.7-0.1,0.8H446.4z M448.9,632.4 c0-0.5-0.2-1.4-1.2-1.4c-0.9,0-1.3,0.8-1.3,1.4H448.9z"/><path class="st4" d="M454.4,627.8c0,0.6-0.4,1.1-1.1,1.1c-0.7,0-1.1-0.5-1.1-1.1c0-0.6,0.4-1.1,1.1-1.1S454.4,627.2,454.4,627.8z M452.2,636.6v-6.8h2.1v6.8H452.2z"/><path class="st4" d="M456,631.9c0-0.9,0-1.6-0.1-2.2h1.8l0.1,0.9h0c0.3-0.4,0.9-1.1,2.1-1.1c0.9,0,1.6,0.4,1.9,1.2h0 c0.3-0.4,0.6-0.6,0.9-0.8c0.4-0.2,0.8-0.3,1.3-0.3c1.3,0,2.3,0.9,2.3,3v4h-2.1v-3.7c0-1-0.3-1.6-1-1.6c-0.5,0-0.8,0.3-1,0.7 c-0.1,0.2-0.1,0.4-0.1,0.5v4h-2.1v-3.8c0-0.9-0.3-1.5-1-1.5c-0.5,0-0.9,0.4-1,0.8c-0.1,0.2-0.1,0.4-0.1,0.5v4H456V631.9z"/></g><g><path class="st4" d="M61.8,624l0.9,3.2c0.2,0.6,0.3,1.1,0.4,1.7h0c0.1-0.6,0.2-1.1,0.4-1.7l0.9-3.2h2.2l-2.5,6.8H62l-2.5-6.8H61.8z "/><path class="st4" d="M74.2,627.3c0,2.5-1.8,3.7-3.6,3.7c-2,0-3.5-1.3-3.5-3.5s1.5-3.6,3.7-3.6C72.8,623.8,74.2,625.3,74.2,627.3z M69.3,627.4c0,1.2,0.5,2.1,1.4,2.1c0.8,0,1.4-0.8,1.4-2.1c0-1-0.4-2.1-1.4-2.1C69.6,625.3,69.3,626.4,69.3,627.4z"/><path class="st4" d="M75.5,626.2c0-0.9,0-1.6-0.1-2.2h1.8l0.1,0.9h0c0.3-0.4,1-1.1,2.1-1.1c1.4,0,2.5,0.9,2.5,2.9v4.1h-2.1V627 c0-0.9-0.3-1.5-1.1-1.5c-0.6,0-0.9,0.4-1.1,0.8c-0.1,0.1-0.1,0.3-0.1,0.5v4h-2.1V626.2z"/><path class="st4" d="M86.6,621.5c0.6-0.1,1.7-0.2,2.8-0.2c1.3,0,2.1,0.1,2.8,0.5c0.7,0.3,1.1,1,1.1,1.8c0,0.8-0.5,1.6-1.6,2v0 c1.1,0.3,1.9,1.1,1.9,2.3c0,0.9-0.4,1.5-1,2c-0.7,0.5-1.8,0.9-3.7,0.9c-1.1,0-1.8-0.1-2.3-0.1V621.5z M88.8,625.1h0.7 c1.1,0,1.7-0.5,1.7-1.2c0-0.7-0.5-1.1-1.5-1.1c-0.5,0-0.7,0-0.9,0.1V625.1z M88.8,629.3c0.2,0,0.5,0,0.8,0c1,0,1.8-0.4,1.8-1.4 c0-1-0.9-1.3-1.9-1.3h-0.7V629.3z"/><path class="st4" d="M98.5,630.8v-2.2h-4v-1.4l3.4-5.5h2.6v5.3h1.1v1.6h-1.1v2.2H98.5z M98.5,627.1v-2c0-0.5,0-1.1,0.1-1.7h-0.1 c-0.3,0.6-0.5,1.1-0.8,1.7l-1.2,2v0H98.5z"/><path class="st4" d="M109.1,621.7v1.3l-3.8,7.8H103l3.8-7.3v0h-4.2v-1.8H109.1z"/><path class="st4" d="M117,626.2c0,2.8-1.1,4.7-3.5,4.7c-2.4,0-3.4-2.1-3.4-4.7c0-2.6,1.1-4.7,3.5-4.7 C116.1,621.6,117,623.7,117,626.2z M112.3,626.3c0,2.1,0.5,3.1,1.3,3.1c0.8,0,1.3-1,1.3-3.1c0-2-0.4-3.1-1.3-3.1 C112.8,623.2,112.3,624.2,112.3,626.3z"/></g><g><path class="st5" d="M55.5,420.3v5.4h5.3v-5.4h3.2v14.2h-3.2v-5.9h-5.3v5.9h-3.2v-14.2H55.5z"/><path class="st5" d="M72.5,434.5l-0.2-1h-0.1c-0.7,0.8-1.7,1.3-2.9,1.3c-2.1,0-3.3-1.5-3.3-3.1c0-2.7,2.4-3.9,6-3.9v-0.1 c0-0.5-0.3-1.3-1.9-1.3c-1,0-2.2,0.4-2.8,0.8l-0.6-2.1c0.7-0.4,2.1-0.9,4-0.9c3.4,0,4.5,2,4.5,4.4v3.6c0,1,0,1.9,0.1,2.5H72.5z M72.1,429.6c-1.7,0-3,0.4-3,1.6c0,0.8,0.5,1.2,1.3,1.2c0.8,0,1.4-0.5,1.7-1.2c0-0.2,0.1-0.4,0.1-0.5V429.6z"/><path class="st5" d="M77.7,427.5c0-1.3,0-2.4-0.1-3.3h2.7l0.1,1.4h0.1c0.4-0.7,1.3-1.6,3.1-1.6c1.3,0,2.4,0.7,2.8,1.7h0 c0.4-0.5,0.8-0.9,1.3-1.2c0.6-0.3,1.2-0.5,2-0.5c2,0,3.5,1.4,3.5,4.5v6h-3.1v-5.6c0-1.5-0.5-2.4-1.5-2.4c-0.7,0-1.3,0.5-1.5,1.1 c-0.1,0.2-0.1,0.6-0.1,0.8v6h-3.1v-5.8c0-1.3-0.5-2.2-1.5-2.2c-0.8,0-1.3,0.6-1.5,1.2c-0.1,0.3-0.1,0.5-0.1,0.8v6h-3.1V427.5z"/><path class="st5" d="M95.8,427.5c0-1.3,0-2.4-0.1-3.3h2.7l0.1,1.4h0.1c0.4-0.7,1.3-1.6,3.1-1.6c1.3,0,2.4,0.7,2.8,1.7h0 c0.4-0.5,0.8-0.9,1.3-1.2c0.6-0.3,1.2-0.5,2-0.5c2,0,3.5,1.4,3.5,4.5v6h-3.1v-5.6c0-1.5-0.5-2.4-1.5-2.4c-0.7,0-1.3,0.5-1.5,1.1 c-0.1,0.2-0.1,0.6-0.1,0.8v6H102v-5.8c0-1.3-0.5-2.2-1.5-2.2c-0.8,0-1.3,0.6-1.5,1.2c-0.1,0.3-0.1,0.5-0.1,0.8v6h-3.1V427.5z"/><path class="st5" d="M116.3,430.4c0.1,1.3,1.4,2,2.9,2c1.1,0,2-0.1,2.8-0.4l0.4,2.2c-1,0.4-2.3,0.6-3.7,0.6c-3.5,0-5.5-2-5.5-5.2 c0-2.6,1.6-5.5,5.2-5.5c3.3,0,4.6,2.6,4.6,5.1c0,0.5-0.1,1-0.1,1.3H116.3z M120.1,428.2c0-0.8-0.3-2.1-1.8-2.1 c-1.3,0-1.9,1.2-2,2.1H120.1z"/><path class="st5" d="M124.9,427.6c0-1.5,0-2.5-0.1-3.4h2.8l0.1,1.9h0.1c0.5-1.5,1.8-2.1,2.8-2.1c0.3,0,0.4,0,0.7,0v3 c-0.2,0-0.5-0.1-0.9-0.1c-1.2,0-2,0.6-2.2,1.6c0,0.2-0.1,0.5-0.1,0.7v5.2h-3.2V427.6z"/><path class="st5" d="M132.8,419.6h3.2v14.9h-3.2V419.6z"/><path class="st5" d="M141.1,430.4c0.1,1.3,1.4,2,2.9,2c1.1,0,2-0.1,2.8-0.4l0.4,2.2c-1,0.4-2.3,0.6-3.7,0.6c-3.5,0-5.5-2-5.5-5.2 c0-2.6,1.6-5.5,5.2-5.5c3.3,0,4.6,2.6,4.6,5.1c0,0.5-0.1,1-0.1,1.3H141.1z M144.8,428.2c0-0.8-0.3-2.1-1.8-2.1 c-1.3,0-1.9,1.2-2,2.1H144.8z"/><path class="st5" d="M149.7,431.7c0.6,0.4,1.8,0.8,2.8,0.8c1,0,1.4-0.3,1.4-0.9c0-0.5-0.3-0.8-1.5-1.2c-2.1-0.7-2.9-1.9-2.9-3.1 c0-1.9,1.6-3.4,4.2-3.4c1.2,0,2.3,0.3,2.9,0.6l-0.6,2.2c-0.5-0.3-1.3-0.6-2.2-0.6c-0.8,0-1.2,0.3-1.2,0.8c0,0.5,0.4,0.7,1.7,1.2 c2,0.7,2.8,1.7,2.8,3.2c0,1.9-1.5,3.3-4.5,3.3c-1.3,0-2.5-0.3-3.3-0.7L149.7,431.7z"/></g><g><path class="st5" d="M826.6,619.7l-1,3.6h-3.3l4.3-14.2h4.2l4.4,14.2h-3.4l-1.1-3.6H826.6z M830.2,617.3l-0.9-3 c-0.3-0.8-0.5-1.9-0.7-2.7h0c-0.2,0.8-0.4,1.9-0.7,2.7l-0.8,3H830.2z"/><path class="st5" d="M836.9,608.5h3.2v14.9h-3.2V608.5z"/><path class="st5" d="M846.2,610.2v2.9h2.3v2.4h-2.3v3.7c0,1.2,0.3,1.8,1.3,1.8c0.4,0,0.7,0,0.9-0.1l0,2.4c-0.4,0.2-1.2,0.3-2.1,0.3 c-1,0-1.9-0.4-2.4-0.9c-0.6-0.6-0.9-1.6-0.9-3v-4.2h-1.4v-2.4h1.4v-2.2L846.2,610.2z"/><path class="st5" d="M852.7,619.3c0.1,1.3,1.4,2,2.9,2c1.1,0,2-0.1,2.8-0.4l0.4,2.2c-1,0.4-2.3,0.6-3.7,0.6c-3.5,0-5.5-2-5.5-5.2 c0-2.6,1.6-5.5,5.2-5.5c3.3,0,4.6,2.6,4.6,5.1c0,0.5-0.1,1-0.1,1.3H852.7z M856.5,617.1c0-0.8-0.3-2.1-1.8-2.1 c-1.3,0-1.9,1.2-2,2.1H856.5z"/><path class="st5" d="M861.4,616.4c0-1.3,0-2.4-0.1-3.3h2.8l0.1,1.4h0.1c0.4-0.7,1.5-1.6,3.2-1.6c2.1,0,3.7,1.4,3.7,4.4v6.1h-3.2 v-5.7c0-1.3-0.5-2.2-1.6-2.2c-0.9,0-1.4,0.6-1.6,1.2c-0.1,0.2-0.1,0.5-0.1,0.8v5.9h-3.2V616.4z"/><path class="st5" d="M873.6,620.6c0.6,0.4,1.8,0.8,2.8,0.8c1,0,1.4-0.3,1.4-0.9c0-0.5-0.3-0.8-1.5-1.2c-2.1-0.7-2.9-1.9-2.9-3.1 c0-1.9,1.6-3.4,4.2-3.4c1.2,0,2.3,0.3,2.9,0.6l-0.6,2.2c-0.5-0.3-1.3-0.6-2.2-0.6c-0.8,0-1.2,0.3-1.2,0.8c0,0.5,0.4,0.7,1.7,1.2 c2,0.7,2.8,1.7,2.8,3.2c0,1.9-1.5,3.3-4.5,3.3c-1.3,0-2.5-0.3-3.3-0.7L873.6,620.6z"/><path class="st5" d="M886.3,610.2v2.9h2.3v2.4h-2.3v3.7c0,1.2,0.3,1.8,1.3,1.8c0.4,0,0.7,0,0.9-0.1l0,2.4c-0.4,0.2-1.2,0.3-2.1,0.3 c-1,0-1.9-0.4-2.4-0.9c-0.6-0.6-0.9-1.6-0.9-3v-4.2h-1.4v-2.4h1.4v-2.2L886.3,610.2z"/><path class="st5" d="M896.3,623.4l-0.2-1h-0.1c-0.7,0.8-1.7,1.3-2.9,1.3c-2.1,0-3.3-1.5-3.3-3.2c0-2.7,2.4-3.9,6-3.9v-0.1 c0-0.5-0.3-1.3-1.9-1.3c-1,0-2.2,0.4-2.8,0.8l-0.6-2.1c0.7-0.4,2.1-0.9,4-0.9c3.4,0,4.5,2,4.5,4.4v3.6c0,1,0,1.9,0.1,2.5H896.3z M895.9,618.5c-1.7,0-3,0.4-3,1.6c0,0.8,0.5,1.2,1.3,1.2c0.8,0,1.4-0.5,1.7-1.2c0-0.2,0.1-0.4,0.1-0.5V618.5z"/><path class="st5" d="M911.5,608.5v11.8c0,1.2,0,2.4,0.1,3.1h-2.8l-0.1-1.5h0c-0.7,1.2-1.9,1.7-3.2,1.7c-2.4,0-4.4-2.1-4.4-5.3 c0-3.5,2.1-5.5,4.6-5.5c1.3,0,2.2,0.4,2.7,1.2h0v-5.6H911.5z M908.3,617.5c0-0.2,0-0.4,0-0.6c-0.2-0.9-0.9-1.6-1.9-1.6 c-1.4,0-2.2,1.3-2.2,2.9c0,1.7,0.9,2.8,2.2,2.8c0.9,0,1.7-0.6,1.8-1.5c0.1-0.2,0.1-0.5,0.1-0.7V617.5z"/><path class="st5" d="M917.7,610.2v2.9h2.3v2.4h-2.3v3.7c0,1.2,0.3,1.8,1.3,1.8c0.4,0,0.7,0,0.9-0.1l0,2.4c-0.4,0.2-1.2,0.3-2.1,0.3 c-1,0-1.9-0.4-2.4-0.9c-0.6-0.6-0.9-1.6-0.9-3v-4.2h-1.4v-2.4h1.4v-2.2L917.7,610.2z"/><path class="st5" d="M931.9,623.4l-0.2-1h-0.1c-0.7,0.8-1.7,1.3-2.9,1.3c-2.1,0-3.3-1.5-3.3-3.2c0-2.7,2.4-3.9,6-3.9v-0.1 c0-0.5-0.3-1.3-1.9-1.3c-1,0-2.2,0.4-2.8,0.8l-0.6-2.1c0.7-0.4,2.1-0.9,4-0.9c3.4,0,4.5,2,4.5,4.4v3.6c0,1,0,1.9,0.1,2.5H931.9z M931.5,618.5c-1.7,0-3,0.4-3,1.6c0,0.8,0.5,1.2,1.3,1.2c0.8,0,1.4-0.5,1.7-1.2c0-0.2,0.1-0.4,0.1-0.5V618.5z"/><path class="st5" d="M937.1,616.4c0-1.3,0-2.4-0.1-3.3h2.8l0.1,1.4h0.1c0.4-0.7,1.5-1.6,3.2-1.6c2.1,0,3.7,1.4,3.7,4.4v6.1h-3.2 v-5.7c0-1.3-0.5-2.2-1.6-2.2c-0.9,0-1.4,0.6-1.6,1.2c-0.1,0.2-0.1,0.5-0.1,0.8v5.9h-3.2V616.4z"/><path class="st5" d="M831.7,633.7v11.8c0,1.2,0,2.4,0.1,3.1h-2.8l-0.1-1.5h0c-0.7,1.2-1.9,1.7-3.2,1.7c-2.4,0-4.4-2.1-4.4-5.3 c0-3.5,2.1-5.5,4.6-5.5c1.3,0,2.2,0.4,2.7,1.2h0v-5.6H831.7z M828.5,642.7c0-0.2,0-0.4,0-0.6c-0.2-0.9-0.9-1.6-1.9-1.6 c-1.4,0-2.2,1.3-2.2,2.9c0,1.7,0.9,2.8,2.2,2.8c0.9,0,1.7-0.6,1.8-1.5c0.1-0.2,0.1-0.5,0.1-0.7V642.7z"/><path class="st5" d="M836.7,644.5c0.1,1.3,1.4,2,2.9,2c1.1,0,2-0.1,2.8-0.4l0.4,2.2c-1,0.4-2.3,0.6-3.7,0.6c-3.5,0-5.5-2-5.5-5.2 c0-2.6,1.6-5.5,5.2-5.5c3.3,0,4.6,2.6,4.6,5.1c0,0.5-0.1,1-0.1,1.3H836.7z M840.5,642.3c0-0.8-0.3-2.1-1.8-2.1 c-1.3,0-1.9,1.2-2,2.1H840.5z"/><path class="st5" d="M845.3,641.7c0-1.5,0-2.5-0.1-3.4h2.8l0.1,1.9h0.1c0.5-1.5,1.8-2.1,2.8-2.1c0.3,0,0.4,0,0.7,0v3 c-0.2,0-0.5-0.1-0.9-0.1c-1.2,0-2,0.6-2.2,1.6c0,0.2-0.1,0.5-0.1,0.7v5.2h-3.2V641.7z"/><path class="st5" d="M859.2,648.6l-3.4-14.2h3.4l1.1,5.8c0.3,1.7,0.6,3.5,0.8,4.9h0c0.2-1.5,0.6-3.2,0.9-5l1.2-5.8h3.4l1.1,6 c0.3,1.7,0.5,3.2,0.8,4.7h0c0.2-1.6,0.5-3.2,0.8-4.9l1.2-5.8h3.3l-3.7,14.2h-3.5l-1.2-6.1c-0.3-1.4-0.5-2.8-0.7-4.4h0 c-0.3,1.6-0.5,2.9-0.8,4.4l-1.3,6.1H859.2z"/><path class="st5" d="M880.4,648.6l-0.2-1h-0.1c-0.7,0.8-1.7,1.3-2.9,1.3c-2.1,0-3.3-1.5-3.3-3.1c0-2.7,2.4-3.9,6-3.9v-0.1 c0-0.5-0.3-1.3-1.9-1.3c-1,0-2.2,0.4-2.8,0.8l-0.6-2.1c0.7-0.4,2.1-0.9,4-0.9c3.4,0,4.5,2,4.5,4.4v3.6c0,1,0,1.9,0.1,2.5H880.4z M880,643.7c-1.7,0-3,0.4-3,1.6c0,0.8,0.5,1.2,1.3,1.2c0.8,0,1.4-0.5,1.7-1.2c0-0.2,0.1-0.4,0.1-0.5V643.7z"/><path class="st5" d="M885.6,633.7h3.2v14.9h-3.2V633.7z"/><path class="st5" d="M901.3,633.7v11.8c0,1.2,0,2.4,0.1,3.1h-2.8l-0.1-1.5h0c-0.7,1.2-1.9,1.7-3.2,1.7c-2.4,0-4.4-2.1-4.4-5.3 c0-3.5,2.1-5.5,4.6-5.5c1.3,0,2.2,0.4,2.7,1.2h0v-5.6H901.3z M898.2,642.7c0-0.2,0-0.4,0-0.6c-0.2-0.9-0.9-1.6-1.9-1.6 c-1.4,0-2.2,1.3-2.2,2.9c0,1.7,0.9,2.8,2.2,2.8c0.9,0,1.7-0.6,1.8-1.5c0.1-0.2,0.1-0.5,0.1-0.7V642.7z"/><path class="st5" d="M903.9,641.6c0-1.3,0-2.4-0.1-3.3h2.8l0.1,1.4h0.1c0.4-0.7,1.5-1.6,3.2-1.6c2.1,0,3.7,1.4,3.7,4.4v6.1h-3.2 v-5.7c0-1.3-0.5-2.2-1.6-2.2c-0.9,0-1.4,0.6-1.6,1.2c-0.1,0.2-0.1,0.5-0.1,0.8v5.9h-3.2V641.6z"/><path class="st5" d="M922.1,648.6l-0.2-1h-0.1c-0.7,0.8-1.7,1.3-2.9,1.3c-2.1,0-3.3-1.5-3.3-3.1c0-2.7,2.4-3.9,6-3.9v-0.1 c0-0.5-0.3-1.3-1.9-1.3c-1.1,0-2.2,0.4-2.8,0.8l-0.6-2.1c0.7-0.4,2.1-0.9,4-0.9c3.4,0,4.5,2,4.5,4.4v3.6c0,1,0,1.9,0.1,2.5H922.1z M921.7,643.7c-1.7,0-3,0.4-3,1.6c0,0.8,0.5,1.2,1.3,1.2c0.8,0,1.4-0.5,1.7-1.2c0-0.2,0.1-0.4,0.1-0.5V643.7z"/><path class="st5" d="M933.1,648.6l-0.2-1h-0.1c-0.7,0.8-1.7,1.3-2.9,1.3c-2.1,0-3.3-1.5-3.3-3.1c0-2.7,2.4-3.9,6-3.9v-0.1 c0-0.5-0.3-1.3-1.9-1.3c-1.1,0-2.2,0.4-2.8,0.8l-0.6-2.1c0.7-0.4,2.1-0.9,4-0.9c3.4,0,4.5,2,4.5,4.4v3.6c0,1,0,1.9,0.1,2.5H933.1z M932.8,643.7c-1.7,0-3,0.4-3,1.6c0,0.8,0.5,1.2,1.3,1.2c0.8,0,1.4-0.5,1.7-1.2c0-0.2,0.1-0.4,0.1-0.5V643.7z"/><path class="st5" d="M938.3,648.6c0-0.7,0.1-1.9,0.1-3.1v-11.8h3.2v5.9h0c0.6-0.9,1.7-1.4,3.1-1.4c2.5,0,4.3,2,4.2,5.2 c0,3.7-2.4,5.5-4.7,5.5c-1.2,0-2.4-0.4-3.1-1.7h0l-0.1,1.4H938.3z M941.6,644.2c0,0.2,0,0.4,0.1,0.6c0.2,0.9,0.9,1.5,1.9,1.5 c1.4,0,2.2-1,2.2-2.9c0-1.6-0.7-2.9-2.2-2.9c-0.9,0-1.7,0.7-1.9,1.6c0,0.2-0.1,0.4-0.1,0.6V644.2z"/></g><g><path class="st5" d="M875.4,405.4v-14.2h3.7l2.9,5.2c0.8,1.5,1.7,3.3,2.3,4.8h0.1c-0.2-1.9-0.3-3.8-0.3-5.9v-4.1h2.9v14.2h-3.4 l-3-5.5c-0.8-1.5-1.8-3.3-2.5-5l-0.1,0c0.1,1.9,0.1,3.9,0.1,6.2v4.3H875.4z"/><path class="st5" d="M892.2,401.3c0.1,1.3,1.4,2,2.9,2c1.1,0,2-0.1,2.8-0.4l0.4,2.2c-1,0.4-2.3,0.6-3.7,0.6c-3.5,0-5.5-2-5.5-5.2 c0-2.6,1.6-5.5,5.2-5.5c3.3,0,4.6,2.6,4.6,5.1c0,0.5-0.1,1-0.1,1.3H892.2z M896,399.1c0-0.8-0.3-2.1-1.8-2.1c-1.3,0-1.9,1.2-2,2.1 H896z"/><path class="st5" d="M910.5,402.1c0,1.3,0,2.4,0.1,3.3h-2.8l-0.1-1.4h-0.1c-0.4,0.6-1.4,1.7-3.2,1.7c-2.1,0-3.6-1.3-3.6-4.5v-6h3.2 v5.5c0,1.5,0.5,2.4,1.6,2.4c0.9,0,1.4-0.6,1.6-1.1c0.1-0.2,0.1-0.4,0.1-0.7v-6.1h3.2V402.1z"/><path class="st5" d="M913.1,402.6c0.6,0.4,1.8,0.8,2.8,0.8c1,0,1.4-0.3,1.4-0.9c0-0.5-0.3-0.8-1.5-1.2c-2.1-0.7-2.9-1.9-2.9-3.1 c0-1.9,1.6-3.4,4.2-3.4c1.2,0,2.3,0.3,2.9,0.6l-0.6,2.2c-0.5-0.3-1.3-0.6-2.2-0.6c-0.8,0-1.2,0.3-1.2,0.8c0,0.5,0.4,0.7,1.7,1.2 c2,0.7,2.8,1.7,2.8,3.2c0,1.9-1.5,3.3-4.5,3.3c-1.3,0-2.5-0.3-3.3-0.7L913.1,402.6z"/><path class="st5" d="M925.8,392.2v2.9h2.3v2.4h-2.3v3.7c0,1.2,0.3,1.8,1.3,1.8c0.4,0,0.7,0,0.9-0.1l0,2.4c-0.4,0.2-1.2,0.3-2.1,0.3 c-1,0-1.9-0.4-2.4-0.9c-0.6-0.6-0.9-1.6-0.9-3v-4.2h-1.4v-2.4h1.4v-2.2L925.8,392.2z"/><path class="st5" d="M935.7,405.4l-0.2-1h-0.1c-0.7,0.8-1.7,1.3-2.9,1.3c-2.1,0-3.3-1.5-3.3-3.1c0-2.7,2.4-3.9,6-3.9v-0.1 c0-0.5-0.3-1.3-1.9-1.3c-1.1,0-2.2,0.4-2.8,0.8l-0.6-2.1c0.7-0.4,2.1-0.9,4-0.9c3.4,0,4.5,2,4.5,4.4v3.6c0,1,0,1.9,0.1,2.5H935.7z M935.4,400.5c-1.7,0-3,0.4-3,1.6c0,0.8,0.5,1.2,1.3,1.2c0.8,0,1.4-0.5,1.7-1.2c0-0.2,0.1-0.4,0.1-0.5V400.5z"/><path class="st5" d="M950.9,390.5v11.8c0,1.2,0,2.4,0.1,3.1h-2.8l-0.1-1.5h0c-0.7,1.2-1.9,1.7-3.2,1.7c-2.4,0-4.4-2.1-4.4-5.3 c0-3.5,2.1-5.5,4.6-5.5c1.3,0,2.2,0.4,2.7,1.2h0v-5.6H950.9z M947.8,399.4c0-0.2,0-0.4,0-0.6c-0.2-0.9-0.9-1.6-1.9-1.6 c-1.4,0-2.2,1.3-2.2,2.9c0,1.7,0.9,2.8,2.2,2.8c0.9,0,1.7-0.6,1.8-1.5c0.1-0.2,0.1-0.5,0.1-0.7V399.4z"/><path class="st5" d="M957.1,392.2v2.9h2.3v2.4h-2.3v3.7c0,1.2,0.3,1.8,1.3,1.8c0.4,0,0.7,0,0.9-0.1l0,2.4c-0.4,0.2-1.2,0.3-2.1,0.3 c-1,0-1.9-0.4-2.4-0.9c-0.6-0.6-0.9-1.6-0.9-3v-4.2h-1.4v-2.4h1.4v-2.2L957.1,392.2z"/><path class="st5" d="M971.3,405.4l-0.2-1H971c-0.7,0.8-1.7,1.3-2.9,1.3c-2.1,0-3.3-1.5-3.3-3.1c0-2.7,2.4-3.9,6-3.9v-0.1 c0-0.5-0.3-1.3-1.9-1.3c-1.1,0-2.2,0.4-2.8,0.8l-0.6-2.1c0.7-0.4,2.1-0.9,4-0.9c3.4,0,4.5,2,4.5,4.4v3.6c0,1,0,1.9,0.1,2.5H971.3z M970.9,400.5c-1.7,0-3,0.4-3,1.6c0,0.8,0.5,1.2,1.3,1.2c0.8,0,1.4-0.5,1.7-1.2c0-0.2,0.1-0.4,0.1-0.5V400.5z"/><path class="st5" d="M976.5,398.4c0-1.3,0-2.4-0.1-3.3h2.8l0.1,1.4h0.1c0.4-0.7,1.5-1.6,3.2-1.6c2.1,0,3.7,1.4,3.7,4.4v6.1h-3.2 v-5.7c0-1.3-0.5-2.2-1.6-2.2c-0.9,0-1.4,0.6-1.6,1.2c-0.1,0.2-0.1,0.5-0.1,0.8v5.9h-3.2V398.4z"/><path class="st5" d="M877.4,415.7v11.8c0,1.2,0,2.4,0.1,3.1h-2.8l-0.1-1.5h0c-0.7,1.2-1.9,1.7-3.2,1.7c-2.4,0-4.4-2.1-4.4-5.3 c0-3.5,2.1-5.5,4.6-5.5c1.3,0,2.2,0.4,2.7,1.2h0v-5.6H877.4z M874.2,424.6c0-0.2,0-0.4,0-0.6c-0.2-0.9-0.9-1.6-1.9-1.6 c-1.4,0-2.2,1.3-2.2,2.9c0,1.7,0.9,2.8,2.2,2.8c0.9,0,1.7-0.6,1.8-1.5c0.1-0.2,0.1-0.5,0.1-0.7V424.6z"/><path class="st5" d="M882.4,426.5c0.1,1.3,1.4,2,2.9,2c1.1,0,2-0.1,2.8-0.4l0.4,2.2c-1.1,0.4-2.3,0.6-3.7,0.6c-3.5,0-5.5-2-5.5-5.2 c0-2.6,1.6-5.5,5.2-5.5c3.3,0,4.6,2.6,4.6,5.1c0,0.5-0.1,1-0.1,1.3H882.4z M886.2,424.3c0-0.8-0.3-2.1-1.8-2.1 c-1.3,0-1.9,1.2-2,2.1H886.2z"/><path class="st5" d="M891.1,423.7c0-1.5,0-2.5-0.1-3.4h2.8l0.1,1.9h0.1c0.5-1.5,1.8-2.1,2.8-2.1c0.3,0,0.4,0,0.7,0v3 c-0.2,0-0.5-0.1-0.9-0.1c-1.2,0-2,0.6-2.2,1.6c0,0.2-0.1,0.5-0.1,0.7v5.2h-3.2V423.7z"/><path class="st5" d="M904.9,430.6l-3.4-14.2h3.4l1.1,5.8c0.3,1.7,0.6,3.5,0.8,4.9h0c0.2-1.5,0.6-3.2,0.9-5l1.2-5.8h3.4l1.1,6 c0.3,1.7,0.5,3.2,0.8,4.7h0c0.2-1.6,0.5-3.2,0.8-4.9l1.2-5.8h3.3l-3.7,14.2h-3.5l-1.2-6.1c-0.3-1.4-0.5-2.8-0.7-4.4h0 c-0.3,1.6-0.5,2.9-0.8,4.4l-1.3,6.1H904.9z"/><path class="st5" d="M926.1,430.6l-0.2-1h-0.1c-0.7,0.8-1.7,1.3-2.9,1.3c-2.1,0-3.3-1.5-3.3-3.2c0-2.7,2.4-3.9,6-3.9v-0.1 c0-0.5-0.3-1.3-1.9-1.3c-1.1,0-2.2,0.4-2.8,0.8l-0.6-2.1c0.7-0.4,2.1-0.9,4-0.9c3.4,0,4.5,2,4.5,4.4v3.6c0,1,0,1.9,0.1,2.5H926.1z M925.7,425.7c-1.7,0-3,0.4-3,1.6c0,0.8,0.5,1.2,1.3,1.2c0.8,0,1.4-0.5,1.7-1.2c0-0.2,0.1-0.4,0.1-0.5V425.7z"/><path class="st5" d="M931.4,415.7h3.2v14.9h-3.2V415.7z"/><path class="st5" d="M947.1,415.7v11.8c0,1.2,0,2.4,0.1,3.1h-2.8l-0.1-1.5h0c-0.7,1.2-1.9,1.7-3.2,1.7c-2.4,0-4.4-2.1-4.4-5.3 c0-3.5,2.1-5.5,4.6-5.5c1.3,0,2.2,0.4,2.7,1.2h0v-5.6H947.1z M943.9,424.6c0-0.2,0-0.4,0-0.6c-0.2-0.9-0.9-1.6-1.9-1.6 c-1.4,0-2.2,1.3-2.2,2.9c0,1.7,0.9,2.8,2.2,2.8c0.9,0,1.7-0.6,1.8-1.5c0.1-0.2,0.1-0.5,0.1-0.7V424.6z"/><path class="st5" d="M949.7,423.6c0-1.3,0-2.4-0.1-3.3h2.8l0.1,1.4h0.1c0.4-0.7,1.5-1.6,3.2-1.6c2.1,0,3.7,1.4,3.7,4.4v6.1h-3.2 v-5.7c0-1.3-0.5-2.2-1.6-2.2c-0.9,0-1.4,0.6-1.6,1.2c-0.1,0.2-0.1,0.5-0.1,0.8v5.9h-3.2V423.6z"/><path class="st5" d="M967.8,430.6l-0.2-1h-0.1c-0.7,0.8-1.7,1.3-2.9,1.3c-2.1,0-3.3-1.5-3.3-3.2c0-2.7,2.4-3.9,6-3.9v-0.1 c0-0.5-0.3-1.3-1.9-1.3c-1,0-2.2,0.4-2.8,0.8L962,421c0.7-0.4,2.1-0.9,4-0.9c3.4,0,4.5,2,4.5,4.4v3.6c0,1,0,1.9,0.1,2.5H967.8z M967.4,425.7c-1.7,0-3,0.4-3,1.6c0,0.8,0.5,1.2,1.3,1.2c0.8,0,1.4-0.5,1.7-1.2c0-0.2,0.1-0.4,0.1-0.5V425.7z"/><path class="st5" d="M978.9,430.6l-0.2-1h-0.1c-0.7,0.8-1.7,1.3-2.9,1.3c-2.1,0-3.3-1.5-3.3-3.2c0-2.7,2.4-3.9,6-3.9v-0.1 c0-0.5-0.3-1.3-1.9-1.3c-1,0-2.2,0.4-2.8,0.8l-0.6-2.1c0.7-0.4,2.1-0.9,4-0.9c3.4,0,4.5,2,4.5,4.4v3.6c0,1,0,1.9,0.1,2.5H978.9z M978.5,425.7c-1.7,0-3,0.4-3,1.6c0,0.8,0.5,1.2,1.3,1.2c0.8,0,1.4-0.5,1.7-1.2c0-0.2,0.1-0.4,0.1-0.5V425.7z"/><path class="st5" d="M984.1,430.6c0-0.7,0.1-1.9,0.1-3.1v-11.8h3.2v5.9h0c0.6-0.9,1.7-1.4,3.1-1.4c2.5,0,4.3,2,4.2,5.2 c0,3.7-2.4,5.5-4.7,5.5c-1.2,0-2.4-0.4-3.1-1.7h0l-0.1,1.4H984.1z M987.3,426.2c0,0.2,0,0.4,0.1,0.6c0.2,0.9,0.9,1.5,1.9,1.5 c1.4,0,2.2-1.1,2.2-2.9c0-1.6-0.7-2.9-2.2-2.9c-0.9,0-1.7,0.7-1.9,1.6c0,0.2-0.1,0.4-0.1,0.6V426.2z"/></g><path class="st2" d="M955.4,456.6c0,0-41.7,17.4-53.6,33.3c-11.9,15.9-16.9,22.8-15.9,27.8c1,5,6,14.9-6.9,17.4 c-12.9,2.5-24.1,2-31.9,0s-15.4-0.8-20.8,8.5"/><path class="st4" d="M288.1,216.9c-8.2,0-14.9,6.7-14.9,14.9c0,10.1,14.9,23.3,14.9,23.3s14.9-13.2,14.9-23.3 C303,223.6,296.3,216.9,288.1,216.9z M288.1,241.1c-5.1,0-9.3-4.1-9.3-9.3c0-5.1,4.1-9.3,9.3-9.3c5.1,0,9.3,4.1,9.3,9.3 C297.3,236.9,293.2,241.1,288.1,241.1z"/><path class="st5" d="M257,453.5c-4.4,0-7.9,3.5-7.9,7.9c0,5.3,7.9,12.3,7.9,12.3s7.9-7,7.9-12.3C264.9,457.1,261.4,453.5,257,453.5z M257,466.3c-2.7,0-4.9-2.2-4.9-4.9c0-2.7,2.2-4.9,4.9-4.9c2.7,0,4.9,2.2,4.9,4.9C261.9,464.1,259.7,466.3,257,466.3z"/><path class="st5" d="M96.3,442.1c-4.4,0-7.9,3.5-7.9,7.9c0,5.3,7.9,12.3,7.9,12.3s7.9-7,7.9-12.3 C104.2,445.7,100.7,442.1,96.3,442.1z M96.3,454.9c-2.7,0-4.9-2.2-4.9-4.9s2.2-4.9,4.9-4.9c2.7,0,4.9,2.2,4.9,4.9 S99,454.9,96.3,454.9z"/><g><path class="st5" d="M34.8,245.7c0.9,0.4,2.2,0.9,3.5,0.9c1.5,0,2.2-0.6,2.2-1.5c0-0.9-0.7-1.4-2.4-2c-2.4-0.8-3.9-2.1-3.9-4.2 c0-2.4,2-4.3,5.4-4.3c1.6,0,2.8,0.3,3.6,0.7l-0.7,2.6c-0.6-0.3-1.6-0.7-3-0.7s-2.1,0.6-2.1,1.4c0,0.9,0.8,1.3,2.6,2 c2.5,0.9,3.7,2.2,3.7,4.2c0,2.4-1.8,4.4-5.7,4.4c-1.6,0-3.2-0.4-4-0.9L34.8,245.7z"/><path class="st5" d="M53.8,248.7c-0.6,0.3-1.6,0.5-2.9,0.5c-3.3,0-5.4-2-5.4-5.2c0-3,2.1-5.5,5.9-5.5c0.8,0,1.8,0.1,2.4,0.4 l-0.5,2.4c-0.4-0.2-0.9-0.3-1.8-0.3c-1.7,0-2.8,1.2-2.8,2.9c0,1.9,1.3,2.9,2.8,2.9c0.8,0,1.3-0.1,1.8-0.3L53.8,248.7z"/><path class="st5" d="M55.5,234.1h3.2v5.9h0c0.3-0.4,0.8-0.8,1.3-1c0.5-0.3,1.1-0.4,1.7-0.4c2,0,3.6,1.4,3.6,4.5v6h-3.2v-5.6 c0-1.3-0.5-2.3-1.7-2.3c-0.8,0-1.4,0.5-1.6,1.1c-0.1,0.2-0.1,0.5-0.1,0.7v6.1h-3.2V234.1z"/><path class="st5" d="M69.7,238.7l0.8,4.2c0.2,1.1,0.4,2.2,0.6,3.4h0c0.2-1.2,0.5-2.4,0.8-3.4l1.1-4.2h2.5l1,4.1 c0.3,1.2,0.5,2.3,0.8,3.5h0c0.1-1.2,0.4-2.3,0.6-3.5l0.9-4.1h3.1L78.7,249h-3l-1-3.6c-0.3-1-0.4-1.9-0.7-3.2h0 c-0.2,1.3-0.4,2.2-0.7,3.2l-1,3.6h-3l-3-10.3H69.7z"/><path class="st5" d="M89.1,249l-0.2-1h-0.1c-0.7,0.8-1.7,1.3-2.9,1.3c-2.1,0-3.3-1.5-3.3-3.1c0-2.7,2.4-3.9,6-3.9V242 c0-0.5-0.3-1.3-1.9-1.3c-1,0-2.2,0.4-2.8,0.8l-0.6-2.1c0.7-0.4,2.1-0.9,4-0.9c3.4,0,4.5,2,4.5,4.4v3.6c0,1,0,1.9,0.1,2.5H89.1z M88.7,244.1c-1.7,0-3,0.4-3,1.6c0,0.8,0.5,1.2,1.3,1.2c0.8,0,1.4-0.5,1.7-1.2c0-0.2,0.1-0.4,0.1-0.5V244.1z"/><path class="st5" d="M94.3,242c0-1.3,0-2.4-0.1-3.3H97l0.1,1.4h0.1c0.4-0.7,1.5-1.6,3.2-1.6c2.1,0,3.7,1.4,3.7,4.4v6.1h-3.2v-5.7 c0-1.3-0.5-2.2-1.6-2.2c-0.9,0-1.4,0.6-1.6,1.2c-0.1,0.2-0.1,0.5-0.1,0.8v5.9h-3.2V242z"/><path class="st5" d="M116.6,234.1v11.8c0,1.2,0,2.4,0.1,3.1h-2.8l-0.1-1.5h0c-0.7,1.2-1.9,1.7-3.2,1.7c-2.4,0-4.4-2.1-4.4-5.3 c0-3.5,2.1-5.5,4.6-5.5c1.3,0,2.2,0.4,2.7,1.2h0v-5.6H116.6z M113.4,243c0-0.2,0-0.4,0-0.6c-0.2-0.9-0.9-1.6-1.9-1.6 c-1.4,0-2.2,1.3-2.2,2.9c0,1.7,0.9,2.8,2.2,2.8c0.9,0,1.7-0.6,1.8-1.5c0.1-0.2,0.1-0.5,0.1-0.7V243z"/></g><g><path class="st4" d="M221.6,243.7c0,5.3-3.2,8.5-7.9,8.5c-4.8,0-7.6-3.6-7.6-8.2c0-4.8,3.1-8.5,7.9-8.5 C218.9,235.5,221.6,239.2,221.6,243.7z M209.9,243.9c0,3.2,1.5,5.4,3.9,5.4c2.5,0,3.9-2.4,3.9-5.5c0-2.9-1.4-5.4-3.9-5.4 C211.4,238.4,209.9,240.8,209.9,243.9z"/><path class="st4" d="M226.7,247.2c0.1,1.5,1.6,2.2,3.3,2.2c1.2,0,2.3-0.2,3.2-0.5l0.5,2.5c-1.2,0.5-2.7,0.7-4.2,0.7 c-4,0-6.3-2.3-6.3-6c0-3,1.8-6.3,5.9-6.3c3.8,0,5.2,3,5.2,5.9c0,0.6-0.1,1.2-0.1,1.4H226.7z M231,244.7c0-0.9-0.4-2.4-2.1-2.4 c-1.5,0-2.2,1.4-2.3,2.4H231z"/><path class="st4" d="M247.9,234.9v13.5c0,1.3,0,2.7,0.1,3.5h-3.2l-0.2-1.7h0c-0.7,1.3-2.2,2-3.7,2c-2.8,0-5-2.4-5-6 c0-4,2.4-6.2,5.3-6.2c1.4,0,2.6,0.5,3.1,1.3h0v-6.4H247.9z M244.3,245.2c0-0.2,0-0.5,0-0.6c-0.2-1-1-1.8-2.1-1.8 c-1.7,0-2.5,1.5-2.5,3.3c0,2,1,3.2,2.5,3.2c1.1,0,1.9-0.7,2.1-1.8c0.1-0.3,0.1-0.5,0.1-0.8V245.2z"/><path class="st4" d="M255.9,248.4c0.6,0.3,2.1,1,3.6,1c1.9,0,2.9-0.9,2.9-2.1c0-1.5-1.5-2.2-3.1-2.2h-1.5v-2.6h1.4 c1.2,0,2.8-0.5,2.8-1.8c0-0.9-0.8-1.6-2.3-1.6c-1.3,0-2.6,0.6-3.3,0.9l-0.7-2.6c0.9-0.6,2.8-1.2,4.8-1.2c3.3,0,5.2,1.8,5.2,3.9 c0,1.7-0.9,3-2.9,3.6v0c1.9,0.3,3.4,1.8,3.4,3.8c0,2.8-2.4,4.8-6.4,4.8c-2,0-3.7-0.5-4.6-1.1L255.9,248.4z"/></g><path class="st5" d="M99.3,209.3c-4.4,0-7.9,3.5-7.9,7.9c0,5.3,7.9,12.3,7.9,12.3s7.9-7,7.9-12.3 C107.2,212.8,103.7,209.3,99.3,209.3z M99.3,222.1c-2.7,0-4.9-2.2-4.9-4.9c0-2.7,2.2-4.9,4.9-4.9c2.7,0,4.9,2.2,4.9,4.9 C104.2,219.9,102,222.1,99.3,222.1z"/><path class="st5" d="M866.9,582.7c-4.4,0-7.9,3.5-7.9,7.9c0,5.3,7.9,12.3,7.9,12.3s7.9-7,7.9-12.3 C874.8,586.2,871.2,582.7,866.9,582.7z M866.9,595.5c-2.7,0-4.9-2.2-4.9-4.9c0-2.7,2.2-4.9,4.9-4.9c2.7,0,4.9,2.2,4.9,4.9 C871.8,593.3,869.6,595.5,866.9,595.5z"/><path class="st5" d="M968.8,439.5c-4.4,0-7.9,3.5-7.9,7.9c0,5.3,7.9,12.3,7.9,12.3s7.9-7,7.9-12.3 C976.7,443,973.2,439.5,968.8,439.5z M968.8,452.3c-2.7,0-4.9-2.2-4.9-4.9s2.2-4.9,4.9-4.9c2.7,0,4.9,2.2,4.9,4.9 S971.5,452.3,968.8,452.3z"/><path class="st6" d="M137.1,597.3c0.1-0.1,0.1-0.2,0-0.2c-0.1,0-0.2-0.1-0.1-0.2c0-0.1,0-0.2-0.1-0.3c-0.1-0.1-0.1-0.2,0-0.2 c0.1,0,0.2-0.1,0.3-0.1c1.1-0.4,2.2-0.7,3.3-1.1c0.4-0.1,0.8-0.3,1.2-0.4c0.4-0.1,0.7-0.1,1.1-0.2c0.2,0,0.3,0,0.4,0.1 c0.1,0.1,0.1,0.2,0.2,0.2c0.2,0.1,0.2,0.2,0.1,0.3c-0.1,0.1-0.1,0.2,0,0.3c0.2,0.2,0.1,0.3,0.1,0.5c-0.3,1.1-0.6,2.2-0.9,3.3 c-0.1,0.5-0.2,1-0.3,1.5c0,0.1,0,0.2-0.1,0.3c0,0-0.1,0-0.1,0c-0.1,0,0-0.2-0.2-0.2c-0.1,0-0.2,0.1-0.2,0.1 c-0.2,0.1-0.4,0.1-0.7,0.2c-0.1,0.1-0.3,0.1-0.4,0.3c0,0-0.1,0-0.1,0c0,0-0.1,0-0.1-0.1c0-0.1,0-0.3,0-0.4c0.2-0.9,0.4-1.7,0.6-2.6 c0-0.1,0-0.1,0-0.2c0,0,0-0.1,0-0.1c0,0-0.1,0-0.1,0c-0.1,0-0.1,0.1-0.1,0.2c-0.5,0.6-1,1.2-1.5,1.8c0,0,0,0.1-0.1,0.1 c-0.3,0.3-0.6,0.3-0.8,0c-0.1-0.3-0.3-0.3-0.6-0.4c-0.2,0-0.3-0.1-0.3-0.3c0-0.3,0.1-0.5,0.4-0.7c0.2-0.2,0.4-0.4,0.7-0.6 c0.1-0.1,0.1-0.1,0.2-0.2c0.2-0.3,0.5-0.5,0.6-0.9c-0.3,0-0.7,0.1-1,0.2c-0.3,0.1-0.6,0.2-0.9,0.1c-0.1,0-0.3,0-0.5,0 c-0.1,0-0.1,0-0.2-0.1C137.1,597.3,137.1,597.3,137.1,597.3z M134.8,605.5c0.1-0.1,0.2-0.1,0.3-0.2c0.8-0.8,1.5-1.6,2.3-2.4 c0.1-0.1,0.2-0.2,0.2-0.3c0-0.1,0-0.2-0.1-0.2c-0.2,0-0.3-0.1-0.2-0.3c0.1-0.3-0.1-0.4-0.3-0.6c0,0-0.1,0-0.2,0 c-0.1,0-0.1,0.1-0.2,0.2c-0.1,0.1-0.2,0.1-0.2-0.1c0-0.1-0.1-0.2-0.1-0.2c-0.1-0.1-0.2,0-0.3,0.1c-0.1,0.1-0.1,0.2-0.2,0.2 c-0.6,0.8-1.2,1.6-1.9,2.3c-0.3,0.3-0.2,0.3,0,0.5c0.1,0.1,0.2,0.1,0.4,0.2c0.1,0,0.2,0.1,0.2,0.2c0,0.1,0.1,0.2,0.2,0.2 c0.3,0,0.3,0,0.1,0.2c0,0.1-0.1,0.1-0.1,0.2c0,0,0,0.1,0.1,0.1C134.7,605.5,134.7,605.5,134.8,605.5z M133.3,607.1 c0.1-0.2,0-0.3-0.1-0.4c0,0,0,0,0,0c-0.2-0.2-0.5-0.4-0.6-0.7c0-0.1-0.1-0.1-0.2-0.1c-0.1,0-0.1,0.1-0.2,0.1 c-0.2,0.1-0.4,0.2-0.5,0.3c-0.2,0.2-0.2,0.4-0.4,0.6c-0.3,0.4-0.7,0.8-1.1,1.2c-0.3,0.3-0.5,0.5-0.8,0.8c-0.1,0.1-0.1,0.3,0,0.4 c0.2,0.1,0.2,0.2,0.2,0.3c0,0.1,0.1,0.2,0.2,0.2c0.1,0,0.2,0,0.2,0.1c0.1,0.1,0.1,0.2,0.2,0.2c0.1,0.1,0.2-0.1,0.3-0.1 c0,0,0.1-0.1,0.1,0c0.3,0,0.4-0.1,0.5-0.3c0.6-0.7,1.3-1.3,1.9-2c0.1-0.1,0.1-0.1,0.1-0.2C133.3,607.2,133.3,607.1,133.3,607.1z M124.7,613.7C124.7,613.7,124.7,613.8,124.7,613.7c0,0.1,0.1,0.1,0.1,0.1c0.1-0.1,0.2-0.2,0.3-0.2c0,0,0.1,0,0.1,0 c0,0,0.1,0.1,0.1,0.2c0,0,0,0.1,0,0.1c-0.1,0.3-0.1,0.3,0.2,0.3c0.1,0,0.2,0,0.3,0c0.2,0.1,0.3,0,0.5,0c0.2,0,0.3,0,0.4-0.1 c0.4-0.4,0.8-0.8,1.2-1.2c0.3-0.4,0.6-0.8,1-1.1c0.3-0.2,0.2-0.5,0.2-0.7c0-0.1-0.1-0.2-0.1-0.3c-0.1-0.2-0.5-0.4-0.7-0.2 c-0.2,0.1-0.3,0.2-0.5,0.1c0,0-0.1,0-0.1,0c-0.3,0.2-0.5,0.4-0.7,0.6c-0.3,0.3-0.6,0.6-0.9,0.9c-0.4,0.4-0.8,0.9-1.2,1.2 C124.7,613.7,124.7,613.7,124.7,613.7z M121.8,619c0.6-0.6,1.2-1.2,1.8-1.9c0.3-0.4,0.6-0.8,1-1.1c0.1-0.1,0.1-0.2,0.2-0.3 c0.1-0.4,0.1-0.4-0.3-0.3c-0.1,0-0.1,0-0.2,0c-0.1,0-0.1,0-0.2-0.1c-0.1-0.2-0.2-0.2-0.3-0.1c-0.2,0.1-0.3,0.2-0.5,0.3 c-0.4,0.3-0.7,0.6-1.1,1c-0.6,0.5-1.1,1.1-1.7,1.6c-0.1,0.1-0.1,0.2,0,0.3c0.1,0.1,0.2,0.1,0.3,0.1c0.1,0,0.2-0.1,0.2-0.1 c0,0,0.1,0,0.1,0c0,0,0,0.1,0,0.1c0,0.1-0.1,0.1-0.1,0.2c-0.1,0.2,0,0.3,0.1,0.4c0,0,0.1,0.1,0.1,0.1 C121.5,619.2,121.7,619.2,121.8,619z"/><g><path class="st4" d="M468.7,437.6l0.9,3.2c0.2,0.6,0.3,1.1,0.4,1.7h0c0.1-0.6,0.2-1.1,0.4-1.7l0.9-3.2h2.2l-2.5,6.8h-2.1l-2.5-6.8 H468.7z"/><path class="st4" d="M481.1,440.9c0,2.5-1.8,3.7-3.6,3.7c-2,0-3.5-1.3-3.5-3.5s1.5-3.6,3.7-3.6 C479.7,437.4,481.1,438.8,481.1,440.9z M476.1,441c0,1.2,0.5,2.1,1.4,2.1c0.8,0,1.4-0.8,1.4-2.1c0-1-0.4-2.1-1.4-2.1 C476.5,438.9,476.1,440,476.1,441z"/><path class="st4" d="M482.4,439.7c0-0.9,0-1.6-0.1-2.2h1.8l0.1,0.9h0c0.3-0.4,1-1.1,2.1-1.1c1.4,0,2.5,0.9,2.5,2.9v4.1h-2.1v-3.8 c0-0.9-0.3-1.5-1.1-1.5c-0.6,0-0.9,0.4-1.1,0.8c-0.1,0.1-0.1,0.3-0.1,0.5v4h-2.1V439.7z"/><path class="st4" d="M493.5,435.1c0.6-0.1,1.7-0.2,2.8-0.2c1.3,0,2.1,0.1,2.8,0.5c0.7,0.3,1.1,1,1.1,1.8c0,0.8-0.5,1.6-1.6,2v0 c1.1,0.3,1.9,1.1,1.9,2.3c0,0.9-0.4,1.5-1,2c-0.7,0.5-1.8,0.9-3.7,0.9c-1.1,0-1.8-0.1-2.3-0.1V435.1z M495.6,438.7h0.7 c1.1,0,1.7-0.5,1.7-1.2c0-0.7-0.5-1.1-1.5-1.1c-0.5,0-0.7,0-0.9,0.1V438.7z M495.6,442.9c0.2,0,0.5,0,0.8,0c1,0,1.8-0.4,1.8-1.4 c0-1-0.9-1.3-1.9-1.3h-0.7V442.9z"/><path class="st4" d="M501.6,444.4v-1.3l1.2-1.1c2-1.8,3-2.8,3-3.9c0-0.7-0.4-1.3-1.5-1.3c-0.8,0-1.5,0.4-1.9,0.8l-0.6-1.5 c0.7-0.5,1.8-0.9,3-0.9c2.1,0,3.2,1.2,3.2,2.9c0,1.5-1.1,2.7-2.4,3.9l-0.8,0.7v0h3.4v1.8H501.6z"/><path class="st4" d="M509.4,444.4v-1.3l1.2-1.1c2-1.8,3-2.8,3-3.9c0-0.7-0.4-1.3-1.5-1.3c-0.8,0-1.5,0.4-1.9,0.8l-0.6-1.5 c0.7-0.5,1.8-0.9,3-0.9c2.1,0,3.2,1.2,3.2,2.9c0,1.5-1.1,2.7-2.4,3.9l-0.8,0.7v0h3.4v1.8H509.4z"/></g><g><path class="st4" d="M217.7,402c0.6-0.1,1.5-0.2,2.4-0.2c1.2,0,2,0.2,2.6,0.6c0.5,0.4,0.7,0.9,0.7,1.7c0,1-0.7,1.7-1.4,2v0 c0.6,0.2,0.9,0.8,1.1,1.5c0.3,0.9,0.5,2,0.7,2.3H222c-0.1-0.2-0.3-0.9-0.6-1.9c-0.2-1-0.6-1.3-1.3-1.3h-0.6v3.2h-1.8V402z M219.6,405.5h0.7c0.9,0,1.5-0.5,1.5-1.2c0-0.7-0.5-1.1-1.3-1.1c-0.4,0-0.7,0-0.8,0.1V405.5z"/><path class="st4" d="M226.8,402.5c0,0.5-0.4,0.9-1,0.9c-0.6,0-1-0.4-0.9-0.9c0-0.5,0.4-0.9,1-0.9S226.8,402,226.8,402.5z M224.9,410v-5.9h1.8v5.9H224.9z"/><path class="st4" d="M232.6,409.8c-0.3,0.1-0.9,0.3-1.6,0.3c-1.9,0-3.1-1.2-3.1-3c0-1.7,1.2-3.1,3.4-3.1c0.5,0,1,0.1,1.4,0.2 l-0.3,1.4c-0.2-0.1-0.5-0.2-1-0.2c-1,0-1.6,0.7-1.6,1.6c0,1.1,0.7,1.6,1.6,1.6c0.4,0,0.8-0.1,1-0.2L232.6,409.8z"/><path class="st4" d="M233.6,401.5h1.8v3.3h0c0.2-0.3,0.4-0.4,0.7-0.6c0.3-0.1,0.6-0.2,0.9-0.2c1.2,0,2.1,0.8,2.1,2.6v3.4h-1.8v-3.2 c0-0.8-0.3-1.3-0.9-1.3c-0.5,0-0.8,0.3-0.9,0.6c0,0.1-0.1,0.3-0.1,0.4v3.5h-1.8V401.5z"/><path class="st4" d="M242.6,402.4v1.7h1.3v1.3h-1.3v2.1c0,0.7,0.2,1,0.7,1c0.2,0,0.4,0,0.5,0l0,1.4c-0.2,0.1-0.7,0.2-1.2,0.2 c-0.6,0-1.1-0.2-1.4-0.5c-0.3-0.3-0.5-0.9-0.5-1.7v-2.4H240v-1.3h0.8v-1.3L242.6,402.4z"/><path class="st4" d="M250.5,408.1c0,0.8,0,1.4,0,1.9H249l-0.1-0.8h0c-0.2,0.4-0.8,1-1.8,1c-1.2,0-2.1-0.7-2.1-2.6v-3.4h1.8v3.2 c0,0.9,0.3,1.4,0.9,1.4c0.5,0,0.8-0.3,0.9-0.6c0-0.1,0.1-0.3,0.1-0.4v-3.5h1.8V408.1z"/><path class="st4" d="M252,406c0-0.7,0-1.4,0-1.9h1.6l0.1,0.8h0c0.2-0.4,0.8-0.9,1.8-0.9c1.2,0,2.1,0.8,2.1,2.5v3.5h-1.8v-3.2 c0-0.8-0.3-1.3-0.9-1.3c-0.5,0-0.8,0.3-0.9,0.7c0,0.1-0.1,0.3-0.1,0.5v3.4H252V406z"/><path class="st4" d="M264.6,404.1c0,0.4,0,0.9,0,1.7v3.3c0,1.1-0.2,2.1-0.9,2.6c-0.6,0.6-1.5,0.7-2.4,0.7c-0.8,0-1.6-0.2-2.1-0.5 l0.4-1.4c0.4,0.2,1,0.4,1.7,0.4c0.9,0,1.5-0.5,1.5-1.5v-0.4h0c-0.3,0.5-0.9,0.8-1.6,0.8c-1.5,0-2.5-1.2-2.5-2.9 c0-1.9,1.2-3.1,2.7-3.1c0.8,0,1.3,0.3,1.6,0.8h0l0.1-0.7H264.6z M262.7,406.5c0-0.1,0-0.2,0-0.3c-0.1-0.5-0.5-0.8-1-0.8 c-0.7,0-1.2,0.6-1.2,1.7c0,0.9,0.4,1.6,1.2,1.6c0.5,0,0.8-0.3,1-0.7c0-0.1,0.1-0.3,0.1-0.5V406.5z"/><path class="st4" d="M217.8,422.5c0.5,0.3,1.2,0.5,2,0.5c0.8,0,1.3-0.3,1.3-0.9c0-0.5-0.4-0.8-1.4-1.1c-1.3-0.5-2.2-1.2-2.2-2.4 c0-1.4,1.2-2.4,3.1-2.4c0.9,0,1.6,0.2,2.1,0.4l-0.4,1.5c-0.3-0.2-0.9-0.4-1.7-0.4s-1.2,0.4-1.2,0.8c0,0.5,0.5,0.7,1.5,1.1 c1.4,0.5,2.1,1.3,2.1,2.4c0,1.4-1,2.5-3.3,2.5c-0.9,0-1.8-0.2-2.3-0.5L217.8,422.5z"/><path class="st4" d="M228.7,424.2c-0.3,0.1-0.9,0.3-1.6,0.3c-1.9,0-3.1-1.2-3.1-3c0-1.7,1.2-3.1,3.4-3.1c0.5,0,1,0.1,1.4,0.2 l-0.3,1.4c-0.2-0.1-0.5-0.2-1-0.2c-1,0-1.6,0.7-1.6,1.6c0,1.1,0.7,1.6,1.6,1.6c0.4,0,0.8-0.1,1-0.2L228.7,424.2z"/><path class="st4" d="M229.7,415.9h1.8v3.3h0c0.2-0.3,0.4-0.4,0.7-0.6c0.3-0.1,0.6-0.2,0.9-0.2c1.2,0,2.1,0.8,2.1,2.6v3.4h-1.8v-3.2 c0-0.8-0.3-1.3-0.9-1.3c-0.5,0-0.8,0.3-0.9,0.6c0,0.1-0.1,0.3-0.1,0.4v3.5h-1.8V415.9z"/><path class="st4" d="M237.7,418.5l0.5,2.4c0.1,0.6,0.2,1.3,0.3,1.9h0c0.1-0.7,0.3-1.3,0.4-1.9l0.6-2.4h1.4l0.6,2.3 c0.2,0.7,0.3,1.3,0.4,2h0c0.1-0.7,0.2-1.3,0.3-2l0.5-2.3h1.8l-1.8,5.9h-1.7l-0.6-2.1c-0.1-0.6-0.3-1.1-0.4-1.8h0 c-0.1,0.7-0.2,1.3-0.4,1.8l-0.6,2.1h-1.7l-1.7-5.9H237.7z"/><path class="st4" d="M248.8,424.4l-0.1-0.6h0c-0.4,0.5-1,0.7-1.7,0.7c-1.2,0-1.9-0.9-1.9-1.8c0-1.5,1.4-2.3,3.4-2.2v-0.1 c0-0.3-0.2-0.8-1.1-0.8c-0.6,0-1.2,0.2-1.6,0.4l-0.3-1.2c0.4-0.2,1.2-0.5,2.3-0.5c2,0,2.6,1.2,2.6,2.5v2c0,0.6,0,1.1,0.1,1.4H248.8 z M248.6,421.6c-1,0-1.7,0.2-1.7,0.9c0,0.5,0.3,0.7,0.7,0.7c0.5,0,0.8-0.3,0.9-0.7c0-0.1,0-0.2,0-0.3V421.6z"/><path class="st4" d="M251.8,420.4c0-0.7,0-1.4,0-1.9h1.6l0.1,0.8h0c0.2-0.4,0.8-0.9,1.8-0.9c1.2,0,2.1,0.8,2.1,2.5v3.5h-1.8v-3.2 c0-0.8-0.3-1.3-0.9-1.3c-0.5,0-0.8,0.3-0.9,0.7c0,0.1-0.1,0.3-0.1,0.5v3.4h-1.8V420.4z"/><path class="st4" d="M264.5,415.9v6.8c0,0.7,0,1.4,0,1.8H263l-0.1-0.9h0c-0.4,0.7-1.1,1-1.8,1c-1.4,0-2.5-1.2-2.5-3 c0-2,1.2-3.1,2.6-3.1c0.7,0,1.3,0.3,1.5,0.7h0v-3.2H264.5z M262.7,421c0-0.1,0-0.2,0-0.3c-0.1-0.5-0.5-0.9-1.1-0.9 c-0.8,0-1.3,0.7-1.3,1.7c0,1,0.5,1.6,1.2,1.6c0.5,0,0.9-0.4,1.1-0.9c0-0.1,0-0.3,0-0.4V421z"/></g><g><path class="st4" d="M95.1,366.7c0.6-0.1,1.5-0.2,2.4-0.2c1.2,0,2,0.2,2.6,0.6c0.5,0.4,0.7,0.9,0.7,1.7c0,1-0.7,1.7-1.4,2v0 c0.6,0.2,0.9,0.8,1.1,1.5c0.3,0.9,0.5,2,0.7,2.3h-1.9c-0.1-0.2-0.3-0.9-0.6-1.9c-0.2-1-0.6-1.3-1.3-1.3h-0.6v3.2h-1.8V366.7z M96.9,370.2h0.7c0.9,0,1.5-0.5,1.5-1.2c0-0.7-0.5-1.1-1.3-1.1c-0.4,0-0.7,0-0.8,0.1V370.2z"/><path class="st4" d="M103.6,372.4c0.1,0.8,0.8,1.1,1.7,1.1c0.6,0,1.1-0.1,1.6-0.2l0.2,1.2c-0.6,0.2-1.3,0.4-2.1,0.4 c-2,0-3.1-1.2-3.1-3c0-1.5,0.9-3.1,3-3.1c1.9,0,2.6,1.5,2.6,2.9c0,0.3,0,0.6-0.1,0.7H103.6z M105.7,371.1c0-0.4-0.2-1.2-1-1.2 c-0.8,0-1.1,0.7-1.1,1.2H105.7z"/><path class="st4" d="M112.9,374.6c-0.3,0.1-0.9,0.3-1.6,0.3c-1.9,0-3.1-1.2-3.1-3c0-1.7,1.2-3.1,3.4-3.1c0.5,0,1,0.1,1.4,0.2 l-0.3,1.4c-0.2-0.1-0.5-0.2-1-0.2c-1,0-1.6,0.7-1.6,1.6c0,1.1,0.7,1.6,1.6,1.6c0.4,0,0.8-0.1,1-0.2L112.9,374.6z"/><path class="st4" d="M113.9,366.2h1.8v3.3h0c0.2-0.3,0.4-0.4,0.7-0.6c0.3-0.1,0.6-0.2,0.9-0.2c1.2,0,2.1,0.8,2.1,2.6v3.4h-1.8v-3.2 c0-0.8-0.3-1.3-0.9-1.3c-0.5,0-0.8,0.3-0.9,0.6c0,0.1-0.1,0.3-0.1,0.4v3.5h-1.8V366.2z"/><path class="st4" d="M122.9,367.2v1.7h1.3v1.3h-1.3v2.1c0,0.7,0.2,1,0.7,1c0.2,0,0.4,0,0.5,0l0,1.4c-0.2,0.1-0.7,0.2-1.2,0.2 c-0.6,0-1.1-0.2-1.4-0.5c-0.3-0.3-0.5-0.9-0.5-1.7v-2.4h-0.8v-1.3h0.8v-1.3L122.9,367.2z"/><path class="st4" d="M125.3,373.1c0.3,0.2,1,0.4,1.6,0.4c0.6,0,0.8-0.2,0.8-0.5s-0.2-0.4-0.9-0.7c-1.2-0.4-1.7-1.1-1.7-1.8 c0-1.1,0.9-1.9,2.4-1.9c0.7,0,1.3,0.2,1.7,0.3l-0.3,1.3c-0.3-0.1-0.8-0.3-1.3-0.3c-0.4,0-0.7,0.2-0.7,0.5c0,0.3,0.2,0.4,0.9,0.7 c1.1,0.4,1.6,0.9,1.6,1.8c0,1.1-0.9,1.9-2.5,1.9c-0.8,0-1.5-0.2-1.9-0.4L125.3,373.1z"/><path class="st4" d="M136.3,374.7l-0.1-0.6h0c-0.4,0.5-1,0.7-1.7,0.7c-1.2,0-1.9-0.9-1.9-1.8c0-1.5,1.4-2.3,3.4-2.2v-0.1 c0-0.3-0.2-0.8-1.1-0.8c-0.6,0-1.2,0.2-1.6,0.4l-0.3-1.2c0.4-0.2,1.2-0.5,2.3-0.5c2,0,2.6,1.2,2.6,2.5v2c0,0.6,0,1.1,0.1,1.4H136.3 z M136.1,371.9c-1,0-1.7,0.2-1.7,0.9c0,0.5,0.3,0.7,0.7,0.7c0.5,0,0.8-0.3,0.9-0.7c0-0.1,0-0.2,0-0.3V371.9z"/><path class="st4" d="M139.2,374.7c0-0.4,0-1.1,0-1.8v-6.8h1.8v3.3h0c0.3-0.5,1-0.8,1.8-0.8c1.4,0,2.4,1.2,2.4,3 c0,2.1-1.3,3.2-2.7,3.2c-0.7,0-1.3-0.3-1.8-0.9h0l-0.1,0.8H139.2z M141.1,372.2c0,0.1,0,0.2,0,0.3c0.1,0.5,0.5,0.9,1.1,0.9 c0.8,0,1.3-0.6,1.3-1.7c0-0.9-0.4-1.6-1.3-1.6c-0.5,0-0.9,0.4-1.1,0.9c0,0.1,0,0.2,0,0.3V372.2z"/><path class="st4" d="M146.4,374.7c0-0.4,0-1.1,0-1.8v-6.8h1.8v3.3h0c0.3-0.5,1-0.8,1.8-0.8c1.4,0,2.4,1.2,2.4,3 c0,2.1-1.3,3.2-2.7,3.2c-0.7,0-1.3-0.3-1.8-0.9h0l-0.1,0.8H146.4z M148.3,372.2c0,0.1,0,0.2,0,0.3c0.1,0.5,0.5,0.9,1.1,0.9 c0.8,0,1.3-0.6,1.3-1.7c0-0.9-0.4-1.6-1.3-1.6c-0.5,0-0.9,0.4-1.1,0.9c0,0.1,0,0.2,0,0.3V372.2z"/><path class="st4" d="M155.5,367.2c0,0.5-0.4,0.9-1,0.9c-0.6,0-1-0.4-0.9-0.9c0-0.5,0.4-0.9,1-0.9S155.5,366.7,155.5,367.2z M153.6,374.7v-5.9h1.8v5.9H153.6z"/><path class="st4" d="M158.3,372.4c0.1,0.8,0.8,1.1,1.7,1.1c0.6,0,1.1-0.1,1.6-0.2l0.2,1.2c-0.6,0.2-1.3,0.4-2.1,0.4 c-2,0-3.1-1.2-3.1-3c0-1.5,0.9-3.1,3-3.1c1.9,0,2.6,1.5,2.6,2.9c0,0.3,0,0.6-0.1,0.7H158.3z M160.5,371.1c0-0.4-0.2-1.2-1-1.2 c-0.8,0-1.1,0.7-1.1,1.2H160.5z"/><path class="st4" d="M168.8,368.8c0,0.4,0,0.9,0,1.7v3.3c0,1.1-0.2,2.1-0.9,2.6c-0.6,0.6-1.5,0.7-2.4,0.7c-0.8,0-1.6-0.2-2.1-0.5 l0.4-1.4c0.4,0.2,1,0.4,1.7,0.4c0.9,0,1.5-0.5,1.5-1.5v-0.4h0c-0.3,0.5-0.9,0.8-1.6,0.8c-1.5,0-2.5-1.2-2.5-2.9 c0-1.9,1.2-3.1,2.7-3.1c0.8,0,1.3,0.3,1.6,0.8h0l0.1-0.7H168.8z M167,371.2c0-0.1,0-0.2,0-0.3c-0.1-0.5-0.5-0.8-1-0.8 c-0.7,0-1.2,0.6-1.2,1.7c0,0.9,0.4,1.6,1.2,1.6c0.5,0,0.8-0.3,1-0.7c0-0.1,0.1-0.3,0.1-0.5V371.2z"/><path class="st4" d="M171.7,372.4c0.1,0.8,0.8,1.1,1.7,1.1c0.6,0,1.1-0.1,1.6-0.2l0.2,1.2c-0.6,0.2-1.3,0.4-2.1,0.4 c-2,0-3.1-1.2-3.1-3c0-1.5,0.9-3.1,3-3.1c1.9,0,2.6,1.5,2.6,2.9c0,0.3,0,0.6-0.1,0.7H171.7z M173.8,371.1c0-0.4-0.2-1.2-1-1.2 c-0.8,0-1.1,0.7-1.1,1.2H173.8z"/><path class="st4" d="M176.6,370.7c0-0.7,0-1.4,0-1.9h1.6l0.1,0.8h0c0.2-0.4,0.8-0.9,1.8-0.9c1.2,0,2.1,0.8,2.1,2.5v3.5h-1.8v-3.2 c0-0.8-0.3-1.3-0.9-1.3c-0.5,0-0.8,0.3-0.9,0.7c0,0.1-0.1,0.3-0.1,0.5v3.4h-1.8V370.7z"/><path class="st4" d="M183.4,373.7c0-0.6,0.4-1.1,1.1-1.1c0.6,0,1.1,0.5,1.1,1.1c0,0.6-0.4,1.1-1.1,1.1 C183.9,374.8,183.4,374.4,183.4,373.7z M183.8,372.1l-0.3-5.4h1.9l-0.3,5.4H183.8z"/></g><g><path class="st4" d="M276.3,293.7h1.8v6.5h3.2v1.5h-5V293.7z"/><path class="st4" d="M284.2,294.3c0,0.5-0.4,0.9-1,0.9c-0.6,0-1-0.4-0.9-0.9c0-0.5,0.4-0.9,1-0.9S284.2,293.8,284.2,294.3z M282.3,301.8v-5.9h1.8v5.9H282.3z"/><path class="st4" d="M285.6,297.8c0-0.7,0-1.4,0-1.9h1.6l0.1,0.8h0c0.2-0.4,0.8-0.9,1.8-0.9c1.2,0,2.1,0.8,2.1,2.5v3.5h-1.8v-3.2 c0-0.8-0.3-1.3-0.9-1.3c-0.5,0-0.8,0.3-0.9,0.7c0,0.1-0.1,0.3-0.1,0.5v3.4h-1.8V297.8z"/><path class="st4" d="M294.5,298.4L294.5,298.4c0.2-0.2,0.3-0.5,0.4-0.7l1.2-1.8h2.2l-2.1,2.4l2.4,3.5h-2.2l-1.4-2.4l-0.5,0.6v1.8 h-1.8v-8.5h1.8V298.4z"/><path class="st4" d="M299.1,300.2c0.3,0.2,1,0.4,1.6,0.4c0.6,0,0.8-0.2,0.8-0.5s-0.2-0.4-0.9-0.7c-1.2-0.4-1.7-1.1-1.7-1.8 c0-1.1,0.9-1.9,2.4-1.9c0.7,0,1.3,0.2,1.7,0.3l-0.3,1.3c-0.3-0.1-0.8-0.3-1.3-0.3c-0.4,0-0.7,0.2-0.7,0.5c0,0.3,0.2,0.4,0.9,0.7 c1.1,0.4,1.6,0.9,1.6,1.8c0,1.1-0.9,1.9-2.5,1.9c-0.8,0-1.5-0.2-1.9-0.4L299.1,300.2z"/><path class="st4" d="M310.1,301.8l-0.1-0.6h0c-0.4,0.5-1,0.7-1.7,0.7c-1.2,0-1.9-0.9-1.9-1.8c0-1.5,1.4-2.3,3.4-2.2v-0.1 c0-0.3-0.2-0.8-1.1-0.8c-0.6,0-1.2,0.2-1.6,0.4l-0.3-1.2c0.4-0.2,1.2-0.5,2.3-0.5c2,0,2.6,1.2,2.6,2.5v2c0,0.6,0,1.1,0.1,1.4H310.1 z M309.9,299c-1,0-1.7,0.2-1.7,0.9c0,0.5,0.3,0.7,0.7,0.7c0.5,0,0.8-0.3,0.9-0.7c0-0.1,0-0.2,0-0.3V299z"/><path class="st4" d="M313.1,301.8c0-0.4,0-1.1,0-1.8v-6.8h1.8v3.3h0c0.3-0.5,1-0.8,1.8-0.8c1.4,0,2.4,1.2,2.4,3 c0,2.1-1.3,3.2-2.7,3.2c-0.7,0-1.3-0.3-1.8-0.9h0l-0.1,0.8H313.1z M314.9,299.3c0,0.1,0,0.2,0,0.3c0.1,0.5,0.5,0.9,1.1,0.9 c0.8,0,1.3-0.6,1.3-1.7c0-0.9-0.4-1.6-1.3-1.6c-0.5,0-0.9,0.4-1.1,0.9c0,0.1,0,0.2,0,0.3V299.3z"/><path class="st4" d="M320.2,301.8c0-0.4,0-1.1,0-1.8v-6.8h1.8v3.3h0c0.3-0.5,1-0.8,1.8-0.8c1.4,0,2.4,1.2,2.4,3 c0,2.1-1.3,3.2-2.7,3.2c-0.7,0-1.3-0.3-1.8-0.9h0l-0.1,0.8H320.2z M322.1,299.3c0,0.1,0,0.2,0,0.3c0.1,0.5,0.5,0.9,1.1,0.9 c0.8,0,1.3-0.6,1.3-1.7c0-0.9-0.4-1.6-1.3-1.6c-0.5,0-0.9,0.4-1.1,0.9c0,0.1,0,0.2,0,0.3V299.3z"/><path class="st4" d="M329.4,294.3c0,0.5-0.4,0.9-1,0.9c-0.6,0-1-0.4-0.9-0.9c0-0.5,0.4-0.9,1-0.9S329.3,293.8,329.4,294.3z M327.5,301.8v-5.9h1.8v5.9H327.5z"/><path class="st4" d="M332.2,299.4c0.1,0.8,0.8,1.1,1.7,1.1c0.6,0,1.1-0.1,1.6-0.2l0.2,1.2c-0.6,0.2-1.3,0.4-2.1,0.4 c-2,0-3.1-1.2-3.1-3c0-1.5,0.9-3.1,3-3.1c1.9,0,2.6,1.5,2.6,2.9c0,0.3,0,0.6-0.1,0.7H332.2z M334.3,298.2c0-0.4-0.2-1.2-1-1.2 c-0.8,0-1.1,0.7-1.1,1.2H334.3z"/><path class="st4" d="M342.7,295.9c0,0.4,0,0.9,0,1.7v3.3c0,1.1-0.2,2.1-0.9,2.6c-0.6,0.6-1.5,0.7-2.4,0.7c-0.8,0-1.6-0.2-2.1-0.5 l0.4-1.4c0.4,0.2,1,0.4,1.7,0.4c0.9,0,1.5-0.5,1.5-1.5V301h0c-0.3,0.5-0.9,0.8-1.6,0.8c-1.5,0-2.5-1.2-2.5-2.9 c0-1.9,1.2-3.1,2.7-3.1c0.8,0,1.3,0.3,1.6,0.8h0l0.1-0.7H342.7z M340.8,298.3c0-0.1,0-0.2,0-0.3c-0.1-0.5-0.5-0.8-1-0.8 c-0.7,0-1.2,0.6-1.2,1.7c0,0.9,0.4,1.6,1.2,1.6c0.5,0,0.8-0.3,1-0.7c0-0.1,0.1-0.3,0.1-0.5V298.3z"/><path class="st4" d="M345.5,299.4c0.1,0.8,0.8,1.1,1.7,1.1c0.6,0,1.1-0.1,1.6-0.2l0.2,1.2c-0.6,0.2-1.3,0.4-2.1,0.4 c-2,0-3.1-1.2-3.1-3c0-1.5,0.9-3.1,3-3.1c1.9,0,2.6,1.5,2.6,2.9c0,0.3,0,0.6-0.1,0.7H345.5z M347.7,298.2c0-0.4-0.2-1.2-1-1.2 c-0.8,0-1.1,0.7-1.1,1.2H347.7z"/><path class="st4" d="M350.5,297.8c0-0.7,0-1.4,0-1.9h1.6l0.1,0.8h0c0.2-0.4,0.8-0.9,1.8-0.9c1.2,0,2.1,0.8,2.1,2.5v3.5h-1.8v-3.2 c0-0.8-0.3-1.3-0.9-1.3c-0.5,0-0.8,0.3-0.9,0.7c0,0.1-0.1,0.3-0.1,0.5v3.4h-1.8V297.8z"/><path class="st4" d="M357.3,300.8c0-0.6,0.4-1.1,1.1-1.1c0.6,0,1.1,0.5,1.1,1.1c0,0.6-0.4,1.1-1.1,1.1 C357.7,301.9,357.3,301.4,357.3,300.8z M357.7,299.1l-0.3-5.4h1.9l-0.3,5.4H357.7z"/></g><path class="st6" d="M432.4,448.8c-0.1,0-0.2,0.1-0.1,0.2c0,0.1,0.1,0.2,0,0.2c-0.1,0.1-0.1,0.1-0.1,0.3c0,0.1-0.1,0.2-0.2,0.1 c-0.1,0-0.2-0.1-0.3-0.1c-1.1-0.4-2.1-0.8-3.2-1.3c-0.4-0.2-0.8-0.3-1.2-0.5c-0.3-0.2-0.7-0.4-1-0.5c-0.1-0.1-0.2-0.2-0.2-0.4 c0-0.1,0-0.2,0-0.3c-0.1-0.2,0-0.3,0.2-0.3c0.1,0,0.2-0.1,0.2-0.2c0-0.2,0.1-0.3,0.3-0.4c0.9-0.7,1.9-1.3,2.8-2 c0.4-0.3,0.8-0.7,1.2-1c0.1-0.1,0.1-0.1,0.2-0.2c0,0,0.1,0,0.1,0.1c0.1,0.1-0.1,0.2,0,0.3c0.1,0,0.2,0.1,0.2,0.1 c0.2,0.1,0.4,0.2,0.6,0.3c0.2,0,0.3,0.1,0.5,0c0,0,0.1,0,0.1,0c0,0,0,0.1,0,0.1c-0.1,0.1-0.2,0.2-0.3,0.3c-0.7,0.5-1.4,1.1-2.1,1.6 c-0.1,0-0.1,0.1-0.2,0.1c0,0,0,0.1,0,0.1c0,0,0.1,0.1,0.1,0.1c0.1,0,0.1,0,0.2,0c0.8-0.1,1.5-0.3,2.3-0.4c0,0,0.1,0,0.1,0 c0.4-0.1,0.6,0.1,0.6,0.5c-0.1,0.3,0,0.5,0.2,0.7c0.2,0.2,0.2,0.3,0,0.4c-0.2,0.2-0.4,0.4-0.7,0.3c-0.3,0-0.6,0-0.9,0.1 c-0.1,0-0.2,0-0.3,0c-0.3,0.1-0.7,0-1,0.3c0.3,0.2,0.6,0.3,0.9,0.5c0.3,0.1,0.6,0.2,0.7,0.5c0.1,0.1,0.3,0.2,0.4,0.3 c0,0,0.1,0.1,0.1,0.2C432.5,448.7,432.4,448.8,432.4,448.8z M439.4,443.9c-0.1,0-0.3,0-0.4,0c-1.1,0.1-2.2,0.2-3.3,0.4 c-0.1,0-0.3,0.1-0.4,0.1c-0.1,0-0.1,0.1-0.1,0.2c0.2,0.1,0.2,0.3,0,0.4c-0.2,0.2-0.2,0.4-0.1,0.6c0,0.1,0.1,0.1,0.1,0.1 c0.1,0,0.2,0,0.3,0c0.1,0,0.2,0.1,0.1,0.2c0,0.1-0.1,0.2-0.1,0.2c0,0.1,0.2,0.1,0.3,0.1c0.1,0,0.2,0,0.3-0.1c1-0.3,2-0.4,3-0.5 c0.4,0,0.3-0.1,0.3-0.4c0-0.2-0.1-0.3-0.2-0.4c-0.1-0.1-0.1-0.2,0-0.3c0.1-0.1,0-0.2,0-0.3c-0.2-0.2-0.2-0.2,0-0.3 c0.1,0,0.2,0,0.2-0.1c0,0,0-0.1,0-0.2C439.5,444,439.5,443.9,439.4,443.9z M441.6,443.6c-0.2,0.1-0.2,0.2-0.2,0.4c0,0,0,0,0,0.1 c0,0.3,0.2,0.6,0,0.9c-0.1,0.1,0,0.2,0.1,0.2c0.1,0,0.1,0,0.2,0c0.2,0,0.4,0.1,0.6,0.1c0.2,0,0.4-0.1,0.7-0.2 c0.5-0.1,1.1-0.2,1.6-0.2c0.4,0,0.7-0.1,1.1-0.1c0.2,0,0.3-0.1,0.2-0.3c-0.1-0.2,0-0.3,0.1-0.4c0.1-0.1,0-0.2-0.1-0.3 c-0.1,0-0.2-0.1-0.1-0.2c0-0.1,0-0.2,0-0.3c-0.1-0.1-0.2-0.1-0.3-0.1c-0.1,0-0.1,0-0.1-0.1c-0.2-0.2-0.4-0.1-0.6-0.1 c-0.9,0.1-1.8,0.2-2.8,0.3c-0.1,0-0.2,0-0.2,0C441.7,443.6,441.6,443.6,441.6,443.6z M452.4,444C452.5,444,452.5,444,452.4,444 c0.1-0.1,0-0.2,0-0.2c-0.1,0-0.2,0-0.4,0c0,0-0.1,0-0.1-0.1c0-0.1,0-0.1,0-0.2c0,0,0.1-0.1,0.1-0.1c0.3-0.2,0.3-0.2,0-0.3 c-0.1-0.1-0.2-0.1-0.2-0.2c-0.1-0.2-0.2-0.2-0.3-0.3c-0.1-0.1-0.2-0.2-0.4-0.2c-0.6,0.1-1.1,0.1-1.7,0.2c-0.5,0.1-1,0.2-1.5,0.2 c-0.4,0-0.5,0.2-0.6,0.4c-0.1,0.1-0.1,0.2-0.1,0.3c0,0.2,0.1,0.6,0.4,0.6c0.2,0,0.3,0,0.5,0.2c0,0,0.1,0.1,0.1,0.1c0.3,0,0.6,0,1,0 c0.4,0,0.8-0.1,1.2-0.1c0.6-0.1,1.2-0.1,1.7-0.2C452.4,444,452.4,444,452.4,444z M458,441.8c-0.9,0.1-1.7,0.1-2.6,0.3 c-0.5,0.1-1,0.2-1.5,0.3c-0.1,0-0.2,0.1-0.3,0.2c-0.3,0.2-0.3,0.2,0,0.4c0.1,0,0.1,0.1,0.2,0.1c0.1,0.1,0.1,0.1,0.1,0.2 c0,0.2,0,0.2,0.2,0.3c0.2,0,0.4,0.1,0.6,0.1c0.5,0,1,0,1.4-0.1c0.8-0.1,1.6-0.1,2.3-0.2c0.1,0,0.2-0.1,0.2-0.2c0-0.1,0-0.2-0.2-0.3 c-0.1,0-0.2,0-0.3,0c0,0-0.1,0-0.1-0.1c0,0,0-0.1,0-0.1c0.1,0,0.1-0.1,0.2-0.1c0.2-0.1,0.2-0.2,0.1-0.4c0-0.1,0-0.1,0-0.1 C458.4,441.8,458.3,441.7,458,441.8z"/><path class="st6" d="M219.7,436.6c0,0-0.1,0.1-0.1,0.1c-0.1,0-0.2,0-0.3,0.1c-0.2,0.1-0.4,0.2-0.6,0.2c-0.2,0-0.5,0-0.7,0.1 c0.1,0.2,0.4,0.3,0.6,0.4c0.1,0,0.1,0.1,0.2,0.1c0.2,0.1,0.4,0.2,0.6,0.3c0.2,0.1,0.3,0.2,0.4,0.4c0.1,0.1,0,0.2-0.1,0.3 c-0.2,0.1-0.3,0.2-0.3,0.4c0,0.3-0.3,0.3-0.5,0.2c0,0,0,0-0.1,0c-0.5-0.3-1-0.5-1.4-0.8c0,0-0.1-0.1-0.1-0.1c0,0-0.1,0-0.1,0 c0,0,0,0,0,0.1c0,0,0.1,0.1,0.1,0.1c0.3,0.5,0.7,1.1,1,1.6c0.1,0.1,0.1,0.2,0.1,0.3c0,0,0,0.1,0,0.1c0,0-0.1,0-0.1,0 c-0.1-0.1-0.2-0.1-0.3-0.1c-0.2,0-0.3,0-0.5,0c-0.1,0-0.1,0-0.2,0c-0.1,0,0,0.1-0.1,0.2c0,0-0.1,0-0.1,0c0,0-0.1-0.1-0.1-0.2 c-0.2-0.3-0.4-0.7-0.6-1c-0.5-0.7-0.9-1.3-1.4-2c-0.1-0.1-0.2-0.2-0.1-0.3c0-0.1,0-0.2-0.1-0.2c-0.1-0.1-0.1-0.1,0-0.3 c0,0,0-0.1,0.1-0.2c0-0.1,0.1-0.2,0.2-0.2c0.3,0,0.5-0.1,0.8-0.1c0.3,0,0.6,0,0.9,0c0.8,0,1.6-0.1,2.5-0.1c0.1,0,0.2,0,0.2,0 c0.1,0,0.1,0.1,0.1,0.1c0,0.1,0,0.1,0,0.2c0,0.1,0,0.1,0,0.2C219.5,436.4,219.6,436.5,219.7,436.6 C219.7,436.5,219.7,436.6,219.7,436.6z M223.4,441.5c0,0,0-0.1,0-0.1c0,0-0.1-0.1-0.1-0.1c-0.1-0.1-0.1-0.1,0-0.2 c0.1,0,0.1-0.1,0.1-0.2c0-0.1,0-0.1,0.1-0.2c0.1-0.1,0.2-0.1,0.2-0.2c0.1-0.2,0.1-0.2-0.1-0.3c-0.7-0.3-1.3-0.6-1.9-1.1 c-0.1,0-0.1-0.1-0.2-0.1c-0.1,0-0.2-0.1-0.2,0c0,0,0,0.1,0,0.2c0,0.1,0,0.1-0.1,0.1c-0.1,0-0.1-0.1-0.2-0.1c0,0-0.1,0-0.1,0.1 c-0.1,0.1-0.2,0.3-0.1,0.5c0.1,0.1,0.1,0.2-0.1,0.3c-0.1,0-0.1,0.1,0,0.2c0.1,0.1,0.2,0.1,0.3,0.2c0.7,0.4,1.4,0.8,2.1,1.1 c0.1,0,0.2,0.1,0.3,0.1C223.3,441.5,223.3,441.5,223.4,441.5z M224.7,442.3c0,0,0.1,0.1,0.1,0.1c0.6,0.3,1.2,0.6,1.8,0.9 c0.1,0.1,0.3,0.2,0.4,0.1c0,0,0.1,0,0.1,0c0.1,0,0.2,0.1,0.2,0c0-0.1,0.1-0.1,0.1-0.2c0-0.1,0.1-0.1,0.1-0.1c0.1,0,0.2-0.1,0.1-0.2 c-0.1-0.1,0-0.2,0-0.3c0.1-0.1,0.1-0.2-0.1-0.2c-0.2-0.1-0.5-0.2-0.7-0.3c-0.3-0.2-0.7-0.4-1-0.5c-0.1-0.1-0.3-0.2-0.4-0.3 c-0.1-0.1-0.3-0.1-0.4-0.1c0,0-0.1,0-0.1,0c-0.1,0-0.1,0.1-0.1,0.1c0.1,0.3-0.1,0.4-0.2,0.6c0,0,0,0,0,0c-0.1,0.1-0.1,0.2,0,0.3 C224.7,442.2,224.7,442.3,224.7,442.3z M232,444.5c-0.3-0.2-0.7-0.4-1.1-0.5c-0.3-0.1-0.5-0.3-0.8-0.4c-0.2-0.1-0.4-0.2-0.7-0.2 c0,0-0.1,0-0.1,0c-0.1,0.1-0.2,0.1-0.4,0c-0.2,0-0.4,0.1-0.4,0.3c0,0.1,0,0.2,0,0.2c0.1,0.2,0.1,0.3,0.3,0.4c0.3,0.1,0.6,0.3,1,0.5 c0.4,0.2,0.7,0.3,1.1,0.5c0.1,0,0.2,0.1,0.3,0c0.1-0.1,0.2,0,0.3-0.1c0,0,0.1-0.1,0.2-0.1c0.2-0.1,0.2-0.1,0.1-0.2 c0,0-0.1-0.1-0.1-0.1c0,0,0-0.1,0-0.1c0,0,0.1,0,0.1,0c0.1,0,0.2,0.1,0.3,0.1c0,0,0.1,0,0.1,0C232.1,444.6,232.1,444.6,232,444.5 C232.1,444.5,232.1,444.5,232,444.5z M235.7,447.3C235.8,447.3,235.8,447.3,235.7,447.3c0.1-0.2,0.1-0.2,0.1-0.3 c0,0-0.1-0.1-0.1-0.1c0,0,0-0.1,0-0.1c0,0,0,0,0.1,0c0.1,0,0.1,0,0.2,0c0.1,0,0.1-0.1,0.2-0.1c0-0.1,0-0.1-0.1-0.2 c-0.5-0.2-1-0.5-1.5-0.7c-0.3-0.1-0.6-0.3-1-0.4c-0.1,0-0.3-0.1-0.4-0.1c-0.1,0-0.1,0-0.2,0.1c0,0.1,0,0.1-0.1,0.1 c-0.1,0-0.1,0-0.1,0c-0.2,0-0.2,0.1-0.1,0.3c0,0.1,0.1,0.1,0.2,0.2c0.3,0.2,0.6,0.3,0.9,0.5c0.5,0.3,1.1,0.6,1.7,0.8 C235.5,447.5,235.6,447.4,235.7,447.3z"/><path class="st6" d="M385.4,586.5c-0.1-0.1-0.1-0.2-0.2-0.1c-0.1,0.1-0.1,0.1-0.2,0.1c-0.1-0.1-0.2-0.1-0.3,0 c-0.1,0.1-0.2,0-0.2-0.1c0-0.1,0-0.2,0-0.3c-0.1-1.1-0.2-2.3-0.3-3.4c0-0.4-0.1-0.9-0.1-1.3c0-0.4,0-0.7,0-1.1 c0-0.2,0.1-0.3,0.2-0.3c0.1,0,0.2-0.1,0.2-0.1c0.1-0.1,0.2-0.1,0.4,0c0.1,0.1,0.2,0.1,0.3,0c0.2-0.1,0.3,0,0.5,0c1,0.5,2,1.1,3,1.6 c0.5,0.2,1,0.4,1.4,0.6c0.1,0,0.2,0.1,0.2,0.1c0,0,0,0.1,0,0.1c0,0.1-0.2,0-0.2,0.1c0,0.1,0,0.2,0,0.3c0,0.2,0,0.5,0.1,0.7 c0,0.2,0.1,0.3,0.2,0.4c0,0,0,0.1,0,0.1c0,0-0.1,0.1-0.1,0c-0.1,0-0.3-0.1-0.4-0.1c-0.8-0.4-1.6-0.8-2.4-1.1c-0.1,0-0.1-0.1-0.2-0.1 c0,0-0.1,0-0.1,0c0,0,0,0.1,0,0.1c0,0.1,0.1,0.1,0.1,0.2c0.5,0.6,0.9,1.2,1.4,1.9c0,0,0,0.1,0.1,0.1c0.2,0.3,0.2,0.6-0.2,0.7 c-0.3,0.1-0.4,0.2-0.5,0.5c-0.1,0.2-0.2,0.3-0.4,0.2c-0.3-0.1-0.5-0.2-0.6-0.5c-0.1-0.3-0.3-0.5-0.5-0.8c0-0.1-0.1-0.2-0.1-0.2 c-0.2-0.3-0.4-0.6-0.7-0.8c-0.1,0.3,0,0.7,0,1c0,0.3,0,0.6-0.1,0.9c-0.1,0.1,0,0.3-0.1,0.5C385.5,586.4,385.5,586.5,385.4,586.5 C385.4,586.5,385.4,586.5,385.4,586.5z M392.8,590.6c0-0.1-0.1-0.2-0.2-0.3c-0.6-0.9-1.2-1.9-1.9-2.7c-0.1-0.1-0.2-0.2-0.3-0.3 c-0.1-0.1-0.2-0.1-0.2,0c-0.1,0.2-0.2,0.3-0.3,0.2c-0.3-0.1-0.4,0.1-0.6,0.2c0,0-0.1,0.1-0.1,0.2c0,0.1,0.1,0.2,0.1,0.2 c0.1,0.1,0,0.2-0.1,0.2c-0.1,0-0.2,0-0.2,0.1c-0.1,0.1,0,0.2,0,0.3c0.1,0.1,0.1,0.2,0.2,0.3c0.7,0.7,1.2,1.6,1.8,2.4 c0.2,0.3,0.2,0.3,0.5,0.1c0.1-0.1,0.2-0.2,0.2-0.3c0.1-0.1,0.1-0.2,0.3-0.1c0.1,0,0.2,0,0.2-0.2c0.1-0.3,0.1-0.3,0.3-0.1 c0.1,0.1,0.1,0.1,0.2,0.2c0,0,0.1,0,0.2,0C392.8,590.7,392.8,590.6,392.8,590.6z M394.1,592.4c-0.2-0.1-0.3-0.1-0.4,0c0,0,0,0,0,0 c-0.3,0.2-0.5,0.4-0.8,0.4c-0.1,0-0.1,0.1-0.1,0.2c0,0.1,0,0.1,0.1,0.2c0.1,0.2,0.1,0.4,0.2,0.6c0.1,0.2,0.3,0.3,0.5,0.5 c0.3,0.4,0.6,0.9,0.9,1.3c0.2,0.3,0.4,0.6,0.6,1c0.1,0.2,0.2,0.2,0.3,0c0.1-0.1,0.2-0.2,0.4-0.1c0.1,0,0.2,0,0.2-0.2 c0-0.1,0-0.2,0.1-0.2c0.1,0,0.2-0.1,0.3-0.1c0.1-0.1,0-0.2-0.1-0.3c0,0,0-0.1,0-0.2c0.1-0.2,0-0.4-0.2-0.6c-0.5-0.8-1-1.5-1.5-2.3 c0-0.1-0.1-0.1-0.1-0.2C394.1,592.4,394.1,592.4,394.1,592.4z M398.6,602.2C398.6,602.2,398.7,602.3,398.6,602.2 c0.1,0,0.1-0.1,0.1-0.1c0-0.1-0.1-0.2-0.1-0.3c0,0,0-0.1,0-0.1c0.1,0,0.1,0,0.2,0c0,0,0.1,0,0.1,0.1c0.3,0.2,0.3,0.2,0.3-0.1 c0-0.1,0-0.2,0.1-0.3c0.1-0.1,0.1-0.3,0.1-0.4c0.1-0.1,0-0.3,0-0.4c-0.3-0.5-0.6-0.9-0.9-1.4c-0.3-0.4-0.6-0.8-0.8-1.3 c-0.2-0.3-0.4-0.3-0.6-0.4c-0.1,0-0.2,0-0.3,0.1c-0.2,0.1-0.4,0.4-0.4,0.6c0.1,0.2,0.1,0.3,0,0.5c0,0,0,0.1,0,0.2 c0.1,0.3,0.3,0.6,0.4,0.9c0.2,0.4,0.4,0.7,0.6,1.1c0.3,0.5,0.7,1,0.9,1.4C398.5,602.2,398.6,602.2,398.6,602.2z M403.1,606.2 c-0.4-0.7-0.9-1.5-1.4-2.1c-0.3-0.4-0.6-0.8-0.9-1.2c-0.1-0.1-0.2-0.2-0.3-0.2c-0.3-0.1-0.3-0.1-0.4,0.2c0,0.1,0,0.1,0,0.2 c0,0.1-0.1,0.1-0.2,0.2c-0.2,0.1-0.2,0.1-0.2,0.3c0.1,0.2,0.1,0.4,0.2,0.5c0.2,0.4,0.5,0.8,0.7,1.3c0.4,0.7,0.8,1.3,1.2,2 c0.1,0.1,0.2,0.1,0.3,0.1c0.1,0,0.2-0.1,0.2-0.2c0-0.1-0.1-0.2-0.1-0.3c0,0,0-0.1,0-0.1c0,0,0.1,0,0.1,0c0.1,0,0.1,0.1,0.2,0.1 c0.2,0.1,0.3,0.1,0.4,0c0,0,0.1-0.1,0.1-0.1C403.2,606.6,403.2,606.4,403.1,606.2z"/><g><path class="st6" d="M209.7,375.1c0,0.1,0,0.1,0.1,0.2c0.1,0.1,0.3,0.1,0.2,0.3c-0.1,0.2-0.2,0.4-0.5,0.4c-0.2,0-0.4,0-0.6,0 c-1.7,0-3.4-0.1-5.1-0.1c-0.6,0-1.1,0-1.7,0c-0.2,0-0.4,0-0.6-0.1c-0.1-0.1-0.3-0.1-0.5,0c-1.2,0-2.3,0.1-3.5,0.2 c-0.1,0-0.2,0-0.4,0c-0.1,0-0.3,0-0.4,0c0,0.2-0.1,0.4-0.1,0.5c0,0.4,0,0.9,0.1,1.3c0,0.6,0.1,1.3,0.2,1.9c0,0.6,0,1.3,0,1.9 c0,1.9,0,3.7,0,5.6c0,0.7,0,1.3,0,2c0,0.2,0,0.3,0,0.5c0,0-0.1,0.1-0.1,0.1c0,0-0.1,0-0.1,0c0-0.1-0.1-0.2-0.1-0.3 c0-0.4,0-0.8,0-1.2c0-0.1,0-0.2-0.1-0.2c-0.1,0-0.2,0.1-0.2,0.1c0,0.1-0.1,0.3-0.1,0.4c0,0.1,0,0.2,0,0.4c0,0.1-0.1,0.1-0.1,0.1 c-0.1,0-0.2,0-0.2-0.1c0,0-0.1-0.1-0.1-0.2c0-0.1,0-0.3-0.3-0.3c0,0-0.1-0.1-0.1-0.1c-0.1-0.4-0.2-0.9-0.1-1.3c0-0.2,0-0.3,0-0.5 c-0.1-1.1,0-2.2,0-3.3c0-1.2,0-2.4,0-3.5c0-0.6,0-1.3,0-1.9c0-0.4,0-0.8-0.1-1.2c0-0.2,0-0.3,0-0.5c0-0.2,0-0.4,0.2-0.5 c0.1,0,0.1-0.1,0.1-0.2c0.1-0.2,0.1-0.2,0.2-0.1c0.2,0.1,0.3,0.1,0.3-0.1c0-0.1,0.1-0.2,0.2-0.2c0.4,0,0.7-0.1,1.1,0 c0.3,0.1,0.6,0,0.8-0.1c0,0,0.1-0.1,0.1-0.1c0,0-0.1-0.1-0.1-0.1c-0.3,0-0.5,0-0.8,0c-0.6,0-1.2,0-1.8,0.3c-0.1,0-0.2,0-0.3,0 c0,0-0.1-0.1-0.1-0.1c0,0,0-0.1,0-0.2c0.2-0.1,0.5-0.3,0.8-0.3c1.1,0,2.2-0.1,3.4-0.1c0.7,0,1.5-0.1,2.2-0.1c1.1,0,2.2,0.1,3.4,0.1 c1.2,0,2.4,0.1,3.7,0.1c0.1,0,0.3,0,0.4,0c0.1,0,0.2,0.1,0.3,0.1C209.5,374.7,209.6,374.9,209.7,375.1c-0.1,0-0.1,0-0.2,0 c-0.1,0-0.1,0-0.2,0c-0.1,0-0.1,0-0.2,0l0,0l0,0c0.1,0,0.1,0,0.2,0c0.1,0,0.1,0,0.2,0C209.6,375.1,209.7,375.1,209.7,375.1z M196.3,376.1L196.3,376.1L196.3,376.1L196.3,376.1L196.3,376.1z M199.9,375.2c0.1,0,0.1,0,0.2,0c0.1,0,0.1,0,0.2,0l0,0l0,0 c-0.1,0-0.1,0-0.2,0C200,375.3,199.9,375.3,199.9,375.2C199.9,375.3,199.8,375.3,199.9,375.2C199.8,375.3,199.9,375.2,199.9,375.2z M201.1,375.2c0.1,0,0.1,0,0.2,0l0,0l0,0C201.2,375.3,201.1,375.3,201.1,375.2L201.1,375.2L201.1,375.2z M203.4,374.5L203.4,374.5 L203.4,374.5L203.4,374.5L203.4,374.5z M205.2,374.6L205.2,374.6L205.2,374.6L205.2,374.6L205.2,374.6z M208.4,374.7 C208.4,374.7,208.4,374.7,208.4,374.7C208.4,374.7,208.4,374.7,208.4,374.7L208.4,374.7L208.4,374.7z M197.7,375.5c0,0-0.1,0-0.1,0 c0,0,0,0,0,0C197.6,375.5,197.7,375.5,197.7,375.5c0.1,0,0.1,0,0.2,0c0.2,0.1,0.3,0.1,0.5,0l0,0l0,0c-0.2-0.2-0.3-0.2-0.5,0 C197.8,375.5,197.8,375.5,197.7,375.5z M196.4,381.2c0-0.1,0-0.1,0-0.2c0-0.1,0-0.2,0.1-0.4c0-0.5,0-1,0-1.5c0-0.5,0-1-0.1-1.5 c0-0.2-0.1-0.3-0.1-0.5c-0.2,0.1-0.1,0.3-0.1,0.5c0,1,0.1,2,0.1,3c0,0.1,0.1,0.2,0.1,0.3C196.4,381,196.4,381.1,196.4,381.2 c0,0,0,0.1,0,0.1c0,0,0,0,0,0.1c0,0,0,0,0,0c0,0,0-0.1,0-0.1C196.4,381.2,196.4,381.2,196.4,381.2z M196.7,385.3L196.7,385.3 L196.7,385.3c-0.1,0.2-0.1,0.5,0,0.4C196.8,385.6,196.8,385.4,196.7,385.3z M195.9,384.6c0-0.1,0-0.1,0-0.2c0.2-0.4,0.2-0.8,0-1.2 c0.2-0.3,0.1-0.5,0.1-0.8c0-1.1,0-2.1,0-3.2c0-0.8-0.1-1.6-0.1-2.4c0,0-0.1-0.1-0.1-0.1c0,0-0.1,0.1-0.1,0.1c0,0.1,0,0.3,0,0.4 c0,0.9,0.1,1.8,0.1,2.7c0,0.7,0,1.5,0.1,2.2c0,0.3,0,0.7,0.1,1c0,0.1-0.1,0.1-0.1,0.2c0,0.3,0,0.7,0.1,1 C195.8,384.5,195.8,384.6,195.9,384.6c-0.2,0.2-0.1,0.3,0,0.5c-0.3,0.3-0.1,0.6-0.1,0.9c0,0,0,0,0,0c0,0,0.1,0,0.1-0.1 c0-0.3,0.1-0.6,0-0.8C195.9,385,196,384.8,195.9,384.6z M204.4,374.6c-0.1,0-0.3-0.1-0.4-0.1c0,0-0.1,0-0.1,0c0,0,0,0.1,0.1,0.1 C204.1,374.6,204.2,374.6,204.4,374.6L204.4,374.6L204.4,374.6z M196.9,375.3C196.9,375.3,196.9,375.3,196.9,375.3 c0.3,0.1,0.6,0,0.5,0C197.3,375.3,197.1,375.3,196.9,375.3C196.9,375.2,196.9,375.2,196.9,375.3 C196.9,375.3,196.9,375.3,196.9,375.3z M196.8,386.3C196.7,386.2,196.7,386.2,196.8,386.3c-0.1,0-0.1,0.1-0.1,0.1c0,0,0,0,0,0 C196.7,386.4,196.8,386.3,196.8,386.3z M207.9,374.7c0,0-0.1,0-0.1,0c0,0,0,0,0,0C207.8,374.7,207.8,374.7,207.9,374.7 C207.9,374.7,207.9,374.7,207.9,374.7z"/><path class="st6" d="M205.3,381.3c0-0.1,0-0.1,0-0.2c0.4-0.5,0.7-1,1.2-1.4c0.4-0.3,0.7-0.7,1-1c0,0,0-0.1,0-0.1c0,0-0.1,0-0.1,0 c-0.3,0.2-0.5,0.4-0.8,0.6c-0.3,0.2-0.5,0.4-0.7,0.6c-0.1,0.1-0.3,0.3-0.3,0.4c-0.1,0.3-0.3,0.4-0.5,0.5c0,0-0.1,0-0.2,0 c-0.1-0.1,0-0.1,0-0.2c0.2-0.2,0.3-0.4,0.5-0.6c0,0,0-0.1,0-0.1c0,0-0.1,0-0.1,0c0,0,0,0-0.1,0c-0.1,0-0.2,0.3-0.4,0.1 c-0.1-0.1,0.1-0.3,0.1-0.4c0.5-0.6,1-1.1,1.6-1.7c0.1-0.1,0.3-0.2,0.4-0.3c0.7-0.8,1.5-1.5,2.2-2.3c0.2-0.2,0.2-0.3,0-0.4 c-0.2-0.2-0.4-0.4-0.6-0.5c-0.4-0.3-0.8-0.5-1.2-0.8c-0.2-0.1-0.5-0.3-0.7-0.4c-0.8-0.6-1.7-1.1-2.6-1.5c-0.1,0-0.1-0.1-0.2-0.1 c-0.1-0.1-0.1-0.2,0-0.3c0.1-0.1,0.2-0.1,0.3,0c0.3,0.2,0.5,0.3,0.8,0.5c0.1,0.1,0.3,0.1,0.5,0.2c0,0,0,0,0,0c0,0,0,0,0,0 c-0.1-0.1-0.1-0.2-0.2-0.2c-0.2-0.1-0.4-0.2-0.6-0.4c-0.3-0.2-0.3-0.3-0.1-0.5c0.1-0.2,0.3-0.3,0.3-0.6c0,0,0.1-0.1,0.2-0.1 c0.1,0,0.1,0.1,0.2,0.1c0.2,0.2,0.5,0.4,0.7,0.5c1,0.5,1.9,1.2,2.8,1.8c0.7,0.4,1.3,0.9,2,1.4c0.1,0.1,0.2,0.2,0.4,0.2 c0.3,0.1,0.5,0.3,0.6,0.6c0.1,0.2,0.2,0.4,0.2,0.6c0,0.2-0.2,0.3-0.3,0.5c-0.1,0.2-0.3,0.4-0.5,0.5c-0.1,0-0.2,0.2-0.3,0.3 c-0.7,0.8-1.4,1.6-2.2,2.3c-0.5,0.5-1.1,1-1.7,1.5c-0.3,0.3-0.6,0.5-0.7,0.9c0,0.1-0.1,0.2-0.2,0.2c-0.1,0.1-0.3,0.2-0.4,0.2 c-0.2-0.1,0-0.2,0-0.4c0-0.1,0-0.1-0.1-0.1C205.5,381.2,205.4,381.2,205.3,381.3L205.3,381.3z M209.7,375.8c0,0-0.1,0-0.1,0 c-0.1,0.1-0.2,0.2-0.3,0.3c-0.5,0.4-0.9,0.9-1.4,1.3c-0.5,0.4-1,0.8-1.5,1.2c-0.2,0.1-0.3,0.3-0.4,0.5c0,0,0,0.1,0,0.1 c0,0,0.1,0,0.1,0c0.1,0,0.1-0.1,0.2-0.1c0.4-0.3,0.7-0.6,1.1-0.9c0.6-0.5,1.2-1.1,1.8-1.6C209.4,376.3,209.6,376.1,209.7,375.8 C209.7,375.9,209.7,375.8,209.7,375.8z M209.3,374C209.3,374.1,209.3,374.1,209.3,374c-0.1,0.1-0.1,0.1-0.1,0.1 c0.2,0.2,0.4,0.4,0.7,0.5c0,0,0,0,0.1,0c0,0,0.1-0.1,0.1-0.1C209.8,374.3,209.6,374.2,209.3,374z M211.6,374.9 c-0.1,0-0.1-0.1-0.2-0.1c0,0-0.1,0.1-0.1,0.1c0,0,0.1,0.1,0.2,0.1C211.5,375,211.5,375,211.6,374.9z M208.8,373.7 C208.8,373.7,208.7,373.6,208.8,373.7C208.7,373.7,208.7,373.7,208.8,373.7C208.7,373.7,208.7,373.7,208.8,373.7 C208.8,373.7,208.8,373.7,208.8,373.7z M209.5,374.7C209.5,374.7,209.5,374.7,209.5,374.7C209.5,374.7,209.5,374.7,209.5,374.7 C209.5,374.7,209.5,374.7,209.5,374.7C209.5,374.7,209.5,374.7,209.5,374.7z M205.3,381.2L205.3,381.2L205.3,381.2L205.3,381.2z"/></g><path class="st6" d="M289,273.5c0.2-0.5,0.3-1,0.5-1.4c0.5-1.2,0.9-2.3,1.5-3.4c0.2-0.4,0.4-0.8,0.4-1.3c0-0.3,0.1-0.3,0.4-0.3 c1.1,0.2,1.8,1,2.6,1.7c0.7,0.7,1.3,1.6,1.9,2.4c0.2,0.2,0.3,0.4,0.6,0.6c0.2,0.1,0.3,0.4,0.2,0.6c0,0.1-0.1,0.2-0.2,0.2 c-0.2,0-0.3,0.1-0.3,0.3c-0.1,0.2,0,0.3,0.1,0.4c0,0.1,0.1,0.1,0.1,0.2c0,0.1,0,0.1,0,0.2c0,0-0.1,0-0.2,0c-0.1-0.1-0.2-0.1-0.2-0.2 c-0.4-0.5-0.8-1-1.2-1.4c-0.2-0.2-0.3-0.4-0.5-0.7c-0.2-0.2-0.4-0.4-0.6-0.7c-0.2,0.3,0,0.6,0,0.9c0.1,1.4,0.1,2.7-0.2,4 c-0.2,0.7-0.3,1.5-0.5,2.2c-0.2,0.6-0.4,1.2-0.7,1.7c-0.3,0.6-0.5,1.2-0.9,1.7c-0.8,1.3-1.6,2.5-2.7,3.6c-0.4,0.4-0.7,0.8-1.1,1.2 c-0.2,0.2-0.4,0.4-0.7,0.6c-0.2,0.2-0.4,0.4-0.6,0.5c-0.9,0.6-1.8,1.3-2.9,1.7c-0.2,0.1-0.5,0.2-0.7,0.3c-0.2,0.1-0.4-0.1-0.4-0.3 c0-0.3,0-0.3-0.3-0.3c0,0-0.1,0-0.1,0c-0.1-0.1-0.2-0.1-0.2-0.2c0-0.1,0-0.2,0.1-0.2c0.3-0.1,0.3-0.3,0.3-0.5c0-0.1,0-0.3,0.1-0.4 c0-0.1,0.1-0.1,0.2-0.2c1.1-0.2,2.1-0.9,3-1.4c0.2-0.1,0.6-0.2,0.5-0.6c0-0.1,0.1-0.1,0.1-0.2c0.8-0.6,1.6-1.4,2.2-2.2 c0.6-0.7,1.1-1.5,1.5-2.4c0.4-0.9,0.8-1.9,1.2-2.8c0.2-0.5,0.3-1,0.4-1.5c0.1-0.9,0.3-1.8,0.4-2.6c0-0.2,0.1-0.5,0-0.8 c0-0.4-0.1-0.9-0.1-1.3c0-0.1,0-0.2-0.1-0.2c0,0-0.1-0.1-0.1-0.1c0,0-0.1,0-0.1,0.1c-0.2,0.5-0.5,1-0.7,1.6 c-0.1,0.4-0.2,0.8-0.3,1.2c-0.1,0.3-0.2,0.6-0.5,0.7c-0.2,0.1-0.4,0.3-0.6,0.4c-0.1,0.1-0.3,0-0.3-0.2c0-0.2,0-0.4-0.2-0.5 c-0.2-0.1-0.2-0.1-0.2,0c0,0.1,0,0.1-0.1,0.2c0,0-0.1,0-0.2,0.1c0,0-0.1-0.1,0-0.1C289,273.9,289,273.7,289,273.5 C289.1,273.5,289.1,273.5,289,273.5z M290.6,282.2c0,0-0.1,0-0.1,0c0,0,0,0.1,0,0.1C290.5,282.4,290.5,282.4,290.6,282.2 C290.6,282.3,290.6,282.3,290.6,282.2c0.2-0.1,0.3-0.3,0.4-0.5c0,0,0-0.1,0-0.1c0,0-0.1,0-0.1,0.1 C290.7,281.9,290.7,282.1,290.6,282.2z M291.4,280.9c0,0-0.1,0.1-0.1,0.1c0,0,0,0.1,0,0.1c0,0,0.1,0,0.1-0.1 C291.4,281,291.4,280.9,291.4,280.9c0.2-0.1,0.3-0.4,0.4-0.6c0,0,0-0.1,0-0.1c0,0-0.1,0-0.1,0.1 C291.6,280.5,291.5,280.7,291.4,280.9z M293.2,276.6c0-0.1,0-0.2,0-0.3c-0.2,0-0.2,0.2-0.2,0.3c0,0.1,0,0.2,0,0.2c0,0,0,0.1,0.1,0.1 c0,0,0.1,0,0.1-0.1C293.2,276.9,293.2,276.8,293.2,276.6z M292.8,275c0-0.1,0-0.1,0-0.2C292.8,274.9,292.8,274.9,292.8,275 c-0.1,0-0.1,0.1-0.1,0.1C292.8,275.1,292.8,275.1,292.8,275z"/><g id="Gruppe_99" transform="translate(270.442 1888.889)"><g><g id="Gruppe_3" transform="translate(0 0)"><path id="Pfad_56" class="st7" d="M70.3-1672l-0.5-0.3c-0.9-0.5-1.7-1.2-2.3-2.1c-0.2-0.3-0.3-0.4-0.3-0.4 c-0.4-0.8-1.1-1.4-1.9-1.8c-1.4-0.8-2.8-0.9-3.3-0.3c-0.4-0.3-0.9-0.6-1.3-0.9c0.5,0.2,1,0.3,1.5,0.2c0.6,0,1.2-0.3,1.6-0.6 c0,0,0.1-0.1,0.3-0.2c0.6-0.3,1.4-0.6,2.1-0.7h0.3c-0.1,0-0.2,0-0.2,0c0.1,0,0.2,0,0.2,0h-0.3c-0.7,0.1-1.5-0.1-2.1-0.3 c-0.2-0.1-0.3-0.2-0.3-0.2c-0.5-0.3-1.1-0.3-1.7-0.3c-1.2,0.1-2.1,0.7-2.1,1.3c0,0.2,0.2,0.3,0.3,0.5c-0.7-0.3-1.4-0.8-2.1-1 c0.5,0,1-0.1,1.5-0.3c0.6-0.2,1-0.5,1.5-1c0,0,0.1-0.1,0.2-0.3c0.5-0.5,1.1-0.9,1.8-1.2l0.3-0.2c-0.1,0-0.2,0.1-0.2,0.1 c0.1,0,0.1-0.1,0.2-0.1l-0.3,0.2c-0.7,0.3-1.4,0.3-2.1,0.3c-0.2,0-0.3-0.1-0.3-0.1c-0.6-0.1-1.2,0-1.7,0.2 c-1.1,0.4-1.8,1.2-1.5,1.8c0,0.1,0.1,0.1,0.1,0.1c-0.6-0.3-1.2-0.5-1.9-0.8c0.5-0.1,1.1-0.3,1.5-0.5c0.5-0.3,0.9-0.8,1.2-1.3 c0,0,0.1-0.1,0.2-0.3c0.4-0.6,0.9-1.1,1.5-1.5l0.3-0.2c-0.1,0-0.1,0.1-0.2,0.1c0.1,0,0.1-0.1,0.2-0.1l-0.3,0.2 c-0.6,0.3-1.3,0.6-2.1,0.7c-0.2,0-0.3,0-0.3,0c-0.6,0-1.2,0.2-1.7,0.5c-1,0.6-1.5,1.5-1.2,2.1c0,0,0,0,0,0.1 c-0.7-0.3-1.4-0.4-2.1-0.6c0.5-0.1,0.9-0.3,1.3-0.7c0.5-0.3,0.9-0.9,1.1-1.5c0,0,0-0.1,0.1-0.3c0.3-0.7,0.9-1.3,1.5-1.7l0.3-0.3 c-0.1,0.1-0.1,0.1-0.2,0.1c0.1-0.1,0.1-0.1,0.2-0.2l-0.3,0.3c-0.6,0.4-1.3,0.8-2,0.9c-0.2,0-0.3,0-0.3,0 c-0.6,0.1-1.2,0.3-1.6,0.7c-0.9,0.7-1.4,1.6-1.1,2.1c-0.7-0.2-1.3-0.3-2-0.4c0.4-0.2,0.8-0.3,1.1-0.7c0.5-0.3,0.9-0.9,1-1.5 c0,0,0-0.1,0.1-0.3c0.3-0.7,0.8-1.3,1.4-1.8l0.3-0.3c-0.1,0.1-0.1,0.1-0.2,0.2c0.1-0.1,0.1-0.1,0.2-0.2l-0.3,0.3 c-0.6,0.5-1.2,0.9-2,1c-0.2,0-0.3,0.1-0.3,0.1c-0.6,0.1-1.2,0.3-1.6,0.8c-0.9,0.7-1.3,1.6-1,2.1c-0.8-0.2-1.5-0.3-2.3-0.3 c1.1-0.3,2.1-1.1,2.4-2.2c0,0,0-0.1,0.1-0.3c0.3-0.7,0.7-1.3,1.2-1.7l0.3-0.3c-0.1,0.1-0.1,0.1-0.2,0.2c0.1-0.1,0.1-0.1,0.2-0.2 l-0.3,0.3c-0.5,0.4-1.1,0.9-1.8,1c-0.2,0.1-0.3,0.1-0.3,0.1c-0.6,0.1-1.1,0.4-1.5,0.8c-0.9,0.8-1.2,1.7-0.8,2.1 c0,0,0.1,0.1,0.2,0.1c-0.7-0.1-1.5-0.2-2.1-0.3c1.1-0.3,1.9-1.3,2.1-2.4c0,0,0-0.1,0.1-0.3c0.2-0.7,0.5-1.3,1-1.8l0.3-0.3 c-0.1,0.1-0.1,0.1-0.2,0.2c0-0.1,0.1-0.1,0.2-0.2l-0.3,0.3c-0.4,0.5-1,0.9-1.7,1.2c-0.2,0.1-0.3,0.1-0.3,0.1 c-0.5,0.2-1,0.5-1.4,0.9c-0.8,0.9-1,1.8-0.6,2.1c0,0,0.1,0,0.1,0.1c-0.6-0.1-1.1-0.1-1.7-0.1c0.3-0.2,0.4-0.3,0.6-0.6 c0.3-0.3,0.5-0.9,0.6-1.3c0,0,0-0.1,0-0.3c0.2-0.6,0.4-1.1,0.8-1.6l0.2-0.3c0,0.1-0.1,0.1-0.1,0.2c0-0.1,0.1-0.1,0.1-0.2 l-0.2,0.3c-0.3,0.4-0.9,0.9-1.4,1.1c-0.2,0.1-0.3,0.1-0.3,0.1c-0.4,0.2-0.9,0.4-1.1,0.9c-0.4,0.4-0.6,1-0.6,1.6 c-5-0.9-11.9-1.1-16.2-0.3c-0.5,0.1-1.1-0.2-0.8,1l0.2,0.3c5.5-0.6,11.2-0.8,16.7-0.3c-0.3,0.6-0.2,1.2,0.1,1.8 c0.2,0.4,0.5,0.9,0.9,1.1c0,0,0.1,0.1,0.2,0.2c0.4,0.3,0.9,0.9,1.1,1.4l0.1,0.3c0-0.1-0.1-0.1-0.1-0.2c0,0.1,0.1,0.1,0.1,0.2 l-0.1-0.3c-0.3-0.5-0.3-1.1-0.3-1.7c0-0.2,0-0.3,0-0.3c0.1-0.5-0.1-0.9-0.3-1.4c-0.2-0.3-0.4-0.7-0.8-0.9c0.6,0,1.2,0.1,1.7,0.2 c-0.5,0.3-0.5,1.2-0.2,2.1c0.2,0.5,0.5,0.9,0.9,1.3c0,0,0.1,0.1,0.2,0.2c0.5,0.4,0.9,1,1.2,1.6l0.2,0.3c0-0.1-0.1-0.1-0.1-0.2 c0,0.1,0.1,0.1,0.1,0.2l-0.2-0.3c-0.3-0.6-0.3-1.3-0.3-2c0-0.2,0-0.3,0-0.3c0.1-0.5,0-1.1-0.2-1.6c-0.2-0.6-0.6-1-1-1.4 c0.7,0.1,1.4,0.2,2.1,0.3c-0.4,0.3-0.6,1.1-0.3,2.1c0.2,0.5,0.4,1,0.9,1.4c0,0,0.1,0.1,0.2,0.2c0.5,0.5,0.9,1.1,1,1.7l0.1,0.3 c0-0.1,0-0.1-0.1-0.2c0,0.1,0,0.1,0.1,0.2l-0.1-0.3c-0.2-0.7-0.3-1.3-0.2-2c0-0.2,0.1-0.3,0.1-0.3c0.1-0.5,0.1-1.1-0.1-1.6 c-0.2-0.6-0.5-1-0.9-1.5c0.7,0.1,1.5,0.2,2.1,0.3c-0.4,0.7-0.5,1.5-0.2,2.2c0.2,0.6,0.5,1.1,0.9,1.5c0,0,0.1,0.1,0.3,0.2 c0.5,0.5,0.9,1.2,1.1,1.9l0.1,0.3c0-0.1,0-0.2-0.1-0.2c0,0.1,0.1,0.2,0.1,0.2l-0.1-0.3c-0.3-0.7-0.3-1.5-0.2-2.1 c0-0.2,0.1-0.3,0.1-0.3c0.2-0.6,0.1-1.2-0.1-1.8c-0.2-0.5-0.4-1-0.9-1.4c0.8,0.2,1.5,0.3,2.3,0.4c-0.1,0-0.1,0-0.2,0 c-0.6,0.2-0.8,1.3-0.3,2.4c0.2,0.6,0.5,1.1,0.9,1.5c0,0,0.1,0.1,0.3,0.2c0.5,0.5,0.9,1.2,1.1,1.9l0.1,0.3c0-0.1,0-0.2-0.1-0.2 c0,0.1,0.1,0.2,0.1,0.2l-0.1-0.3c-0.3-0.7-0.3-1.5-0.2-2.1c0-0.2,0.1-0.3,0.1-0.3c0.2-0.6,0.1-1.2-0.1-1.8 c-0.2-0.7-0.6-1.3-1.2-1.6c0.9,0.2,1.7,0.4,2.6,0.7c-0.6,0.2-0.9,1.2-0.5,2.4c0.1,0.6,0.4,1.1,0.9,1.6c0,0,0.1,0.1,0.2,0.2 c0.5,0.6,0.9,1.3,1,2l0.1,0.3c0-0.1,0-0.2-0.1-0.2c0,0.1,0,0.2,0.1,0.2l-0.1-0.3c-0.2-0.7-0.2-1.5,0-2.2c0.1-0.2,0.1-0.3,0.1-0.3 c0.2-0.6,0.2-1.2,0-1.8c-0.1-0.6-0.4-1.2-0.9-1.6c0.7,0.2,1.3,0.4,1.9,0.6h-0.1c-0.6,0.3-0.7,1.3-0.3,2.4c0.2,0.6,0.6,1.1,1,1.5 c0,0,0.1,0.1,0.3,0.2c0.6,0.5,1,1.1,1.3,1.8l0.2,0.3c0-0.1-0.1-0.2-0.1-0.2c0,0.1,0.1,0.1,0.1,0.2l-0.2-0.3 c-0.3-0.7-0.4-1.5-0.3-2.2c0-0.2,0.1-0.3,0.1-0.3c0.1-0.6,0-1.2-0.3-1.8c-0.2-0.5-0.5-0.9-0.9-1.4c0.8,0.3,1.5,0.6,2.1,0.9 c-0.1,0-0.2,0-0.2,0c-0.5,0.3-0.7,1.3-0.2,2.4c0.2,0.6,0.6,1,1,1.4c0,0,0.1,0.1,0.3,0.2c0.5,0.5,0.9,1.1,1.3,1.8l0.2,0.3 c0-0.1-0.1-0.2-0.1-0.2c0,0.1,0.1,0.1,0.1,0.2l-0.2-0.3c-0.3-0.7-0.3-1.4-0.3-2.1c0-0.2,0.1-0.3,0.1-0.3c0.1-0.6,0-1.2-0.3-1.7 c-0.2-0.4-0.4-0.9-0.9-1.2c0.7,0.3,1.2,0.6,1.6,0.9c0,0-0.1,0.1-0.1,0.2c-0.4,0.8,0.4,2.1,1.9,2.9c0.8,0.4,1.6,0.7,2.5,0.7 c0,0,0.2,0,0.4,0c1.1,0.1,2.1,0.3,3.1,0.9L70.3-1672c-0.1-0.1-0.2-0.1-0.3-0.2C70.1-1672.1,70.2-1672.1,70.3-1672 M62.6-1679.5 c0.5,0,0.9,0.2,0.9,0.3c0,0.2-0.4,0.3-0.9,0.3s-0.9-0.2-0.9-0.3C61.7-1679.4,62.1-1679.5,62.6-1679.5 M59.5-1681.2 c0.4-0.2,0.9-0.1,0.9,0.1c0.1,0.2-0.3,0.4-0.8,0.5c-0.5,0.1-0.9,0.1-0.9-0.1C58.6-1680.8,59.1-1681.1,59.5-1681.2 M56.5-1682.5 c0.4-0.2,0.9-0.3,0.9-0.1c0.1,0.2-0.3,0.4-0.7,0.7c-0.4,0.3-0.9,0.3-0.9,0.1C55.7-1682,56-1682.3,56.5-1682.5 M53.2-1683.5 c0.4-0.3,0.9-0.3,0.9-0.2c0.1,0.2-0.2,0.5-0.6,0.8s-0.9,0.3-0.9,0.2C52.5-1682.9,52.8-1683.3,53.2-1683.5 M49.9-1684.2 c0.4-0.3,0.9-0.4,0.9-0.3c0.1,0.2-0.2,0.5-0.6,0.8c-0.4,0.3-0.9,0.4-0.9,0.3C49.2-1683.6,49.4-1683.9,49.9-1684.2 M46.6-1684.8 c0.3-0.3,0.8-0.4,0.9-0.3c0.1,0.2-0.2,0.4-0.5,0.8c-0.3,0.3-0.8,0.4-0.9,0.3C46-1684.2,46.2-1684.5,46.6-1684.8 M43.6-1685.1 c0.3-0.3,0.7-0.4,0.8-0.3c0.1,0.1-0.1,0.4-0.4,0.8c-0.3,0.3-0.7,0.4-0.8,0.3C43.1-1684.5,43.2-1684.8,43.6-1685.1 M40.5-1684.7 c0.3-0.3,0.6-0.4,0.7-0.3c0.1,0.1-0.1,0.4-0.3,0.7c-0.3,0.3-0.6,0.4-0.7,0.3C40.1-1684.1,40.2-1684.5,40.5-1684.7 M40.8-1681.5 c0.1-0.1,0.3,0.3,0.4,0.6c0.1,0.3,0.2,0.7,0,0.8c-0.2,0.1-0.3-0.3-0.4-0.6S40.7-1681.5,40.8-1681.5 M43.5-1680.9 c0.2,0,0.3,0.3,0.5,0.7c0.1,0.4,0.1,0.9-0.1,0.9c-0.2,0-0.3-0.3-0.5-0.7C43.3-1680.5,43.3-1680.9,43.5-1680.9 M46.1-1680.6 c0.2,0,0.3,0.3,0.4,0.8c0.1,0.4,0.1,0.9-0.1,0.9c-0.2,0-0.3-0.3-0.4-0.8C45.9-1680.2,46-1680.6,46.1-1680.6 M49.2-1680.2 c0.2,0,0.4,0.3,0.5,0.8c0.1,0.4,0.1,0.9-0.1,0.9c-0.2,0.1-0.4-0.3-0.5-0.8C49-1679.6,49-1680.2,49.2-1680.2 M52.2-1679.4 c0.2,0,0.4,0.3,0.5,0.8c0.1,0.4,0.1,0.9-0.1,0.9c-0.2,0.1-0.4-0.3-0.5-0.8C52-1678.9,52-1679.4,52.2-1679.4 M55.2-1678.5 c0.2,0,0.3,0.3,0.4,0.9s0,0.9-0.2,0.9s-0.3-0.3-0.4-0.9C54.9-1678.1,55-1678.5,55.2-1678.5 M57.9-1677.8c0.2-0.1,0.4,0.3,0.5,0.8 c0.1,0.4,0.1,0.9-0.1,0.9c-0.2,0-0.4-0.3-0.5-0.8C57.7-1677.3,57.7-1677.8,57.9-1677.8 M60.7-1676.7c0.2-0.1,0.4,0.3,0.5,0.8 c0.1,0.5,0.1,0.9-0.1,0.9c-0.2,0.1-0.4-0.3-0.5-0.8C60.5-1676.3,60.5-1676.7,60.7-1676.7 M66.6-1674.9c-0.2,0.2-0.8,0-1.3-0.3 s-0.9-0.9-0.8-1.1s0.8,0,1.3,0.3S66.7-1675.1,66.6-1674.9"/><path id="Pfad_57" class="st7" d="M-125.9-1679.1l0.5,0.3c0.9,0.5,1.7,1.2,2.3,2.1c0.2,0.3,0.3,0.4,0.3,0.4 c0.4,0.8,1.1,1.4,1.9,1.8c1.4,0.8,2.8,0.9,3.3,0.3c0.4,0.3,0.9,0.6,1.3,0.9c-0.5-0.2-1-0.3-1.5-0.2c-0.6,0-1.2,0.3-1.6,0.6 c0,0-0.1,0.1-0.3,0.2c-0.6,0.3-1.4,0.6-2.1,0.7h-0.3c0.1,0,0.2,0,0.2,0c-0.1,0-0.2,0-0.2,0h0.3c0.7-0.1,1.5,0.1,2.1,0.3 c0.2,0.1,0.3,0.2,0.3,0.2c0.5,0.3,1.1,0.3,1.7,0.3c1.2-0.1,2.1-0.7,2.1-1.3c0-0.2-0.2-0.3-0.3-0.5c0.7,0.3,1.4,0.8,2.1,1 c-0.5,0-1,0.1-1.5,0.3c-0.6,0.2-1,0.5-1.5,1c0,0-0.1,0.1-0.2,0.3c-0.5,0.5-1.1,0.9-1.8,1.2l-0.3,0.2c0.1,0,0.2-0.1,0.2-0.1 c-0.1,0-0.1,0.1-0.2,0.1l0.3-0.2c0.7-0.3,1.4-0.3,2.1-0.3c0.2,0,0.3,0.1,0.3,0.1c0.6,0.1,1.2,0,1.7-0.2c1.1-0.4,1.8-1.2,1.5-1.8 c0-0.1-0.1-0.1-0.1-0.1c0.6,0.3,1.2,0.5,1.9,0.8c-0.5,0.1-1,0.3-1.5,0.5c-0.5,0.3-0.9,0.8-1.2,1.3c0,0-0.1,0.1-0.2,0.3 c-0.4,0.6-0.9,1.1-1.5,1.5l-0.3,0.2c0.1,0,0.1-0.1,0.2-0.1c-0.1,0-0.1,0.1-0.2,0.1l0.3-0.2c0.6-0.3,1.3-0.6,2.1-0.7 c0.2,0,0.3,0,0.3,0c0.6,0,1.2-0.2,1.6-0.5c1-0.6,1.5-1.5,1.2-2.1c0,0,0,0,0-0.1c0.7,0.3,1.4,0.4,2.1,0.6 c-0.5,0.1-0.9,0.3-1.3,0.7c-0.5,0.3-0.9,0.9-1.1,1.4c0,0,0,0.1-0.1,0.3c-0.3,0.7-0.9,1.3-1.5,1.7l-0.3,0.3 c0.1-0.1,0.1-0.1,0.2-0.1c-0.1,0.1-0.1,0.1-0.2,0.2l0.3-0.3c0.6-0.4,1.3-0.8,2-0.9c0.2,0,0.3,0,0.3,0c0.6-0.1,1.2-0.3,1.6-0.7 c0.9-0.7,1.4-1.6,1.1-2.1c0.7,0.2,1.3,0.3,2,0.4c-0.4,0.2-0.8,0.3-1.1,0.7c-0.5,0.3-0.9,0.9-1,1.5c0,0,0,0.1-0.1,0.3 c-0.3,0.7-0.8,1.3-1.4,1.8l-0.3,0.3c0.1-0.1,0.1-0.1,0.2-0.2c-0.1,0.1-0.1,0.1-0.2,0.2l0.3-0.3c0.6-0.5,1.2-0.9,2-1 c0.2,0,0.3-0.1,0.3-0.1c0.6-0.1,1.2-0.3,1.6-0.8c0.9-0.7,1.3-1.6,1-2.1c0.8,0.2,1.5,0.3,2.3,0.3c-1.1,0.3-2.1,1.1-2.4,2.2 c0,0,0,0.1-0.1,0.3c-0.3,0.7-0.7,1.3-1.2,1.7l-0.3,0.3c0.1-0.1,0.1-0.1,0.2-0.2c-0.1,0.1-0.1,0.1-0.2,0.2l0.3-0.3 c0.5-0.4,1.1-0.9,1.8-1c0.2-0.1,0.3-0.1,0.3-0.1c0.6-0.1,1.1-0.4,1.5-0.8c0.9-0.8,1.2-1.7,0.8-2.1c0,0-0.1-0.1-0.2-0.1 c0.7,0.1,1.5,0.2,2.1,0.3c-1.1,0.3-1.9,1.3-2.1,2.4c0,0,0,0.1-0.1,0.3c-0.2,0.7-0.5,1.3-1,1.8l-0.3,0.3c0.1-0.1,0.1-0.1,0.2-0.2 c0,0.1-0.1,0.1-0.2,0.2l0.3-0.3c0.4-0.5,1-0.9,1.7-1.2c0.2-0.1,0.3-0.1,0.3-0.1c0.5-0.2,1-0.5,1.4-0.9c0.8-0.9,1-1.8,0.6-2.1 c0,0-0.1,0-0.1-0.1c0.6,0.1,1.1,0.1,1.7,0.1c-0.3,0.2-0.4,0.3-0.6,0.6c-0.3,0.3-0.5,0.9-0.6,1.3c0,0,0,0.1,0,0.3 c-0.2,0.6-0.4,1.1-0.8,1.6l-0.2,0.3c0-0.1,0.1-0.1,0.1-0.2c0,0.1-0.1,0.1-0.1,0.2l0.2-0.3c0.3-0.4,0.9-0.9,1.4-1.1 c0.2-0.1,0.3-0.1,0.3-0.1c0.4-0.2,0.9-0.4,1.1-0.9c0.4-0.4,0.6-1,0.6-1.6c15.3,0.7,16.9-1.4,16.9-1.4l-0.1-0.9 c-3.5,1.2-8.9,2.1-16.8,1.6c0.3-0.6,0.2-1.2-0.1-1.8c-0.2-0.4-0.5-0.9-0.9-1.1c0,0-0.1-0.1-0.2-0.2c-0.4-0.3-0.9-0.9-1.1-1.4 l-0.2-0.3c0,0.1,0.1,0.1,0.1,0.2c0-0.1-0.1-0.1-0.1-0.2l0.2,0.3c0.3,0.5,0.3,1.1,0.3,1.7c0,0.2,0,0.3,0,0.3 c-0.1,0.5,0.1,0.9,0.3,1.4c0.2,0.3,0.4,0.7,0.8,0.9c-0.6,0-1.2-0.1-1.7-0.2c0.5-0.3,0.5-1.2,0.2-2.1c-0.2-0.5-0.5-0.9-0.9-1.3 c0,0-0.1-0.1-0.2-0.2c-0.5-0.4-0.9-1-1.2-1.6l-0.1-0.3c0,0.1,0.1,0.1,0.1,0.2c0-0.1-0.1-0.1-0.1-0.2l0.2,0.3 c0.3,0.6,0.3,1.3,0.3,2c0,0.2,0,0.3,0,0.3c-0.1,0.5,0,1.1,0.2,1.6c0.2,0.6,0.6,1,1,1.4c-0.7-0.1-1.4-0.2-2.1-0.3 c0.4-0.3,0.6-1.1,0.3-2.1c-0.2-0.5-0.4-1-0.9-1.4c0,0-0.1-0.1-0.2-0.2c-0.5-0.5-0.9-1.1-1-1.7l-0.1-0.3c0,0.1,0,0.1,0.1,0.2 c0-0.1,0-0.1-0.1-0.2l0.1,0.3c0.2,0.7,0.3,1.3,0.2,2c0,0.2-0.1,0.3-0.1,0.3c-0.1,0.5-0.1,1.1,0.1,1.6c0.2,0.6,0.5,1,0.9,1.5 c-0.7-0.1-1.5-0.2-2.1-0.3c0.4-0.7,0.5-1.5,0.2-2.2c-0.2-0.6-0.5-1.1-0.9-1.5c0,0-0.1-0.1-0.3-0.2c-0.5-0.5-0.9-1.2-1.1-1.9 l-0.3-0.3c0,0.1,0,0.2,0.1,0.2c0-0.1-0.1-0.2-0.1-0.2l0.1,0.3c0.3,0.7,0.3,1.5,0.2,2.1c0,0.2-0.1,0.3-0.1,0.3 c-0.2,0.6-0.1,1.2,0.1,1.8c0.2,0.5,0.4,1,0.9,1.4c-0.8-0.2-1.5-0.3-2.3-0.4c0.1,0,0.1,0,0.2,0c0.6-0.2,0.8-1.3,0.3-2.4 c-0.2-0.6-0.5-1.1-0.9-1.5c0,0-0.1-0.1-0.3-0.2c-0.5-0.5-0.9-1.2-1.1-1.9v-0.4c0,0.1,0,0.2,0.1,0.2c0-0.1-0.1-0.2-0.1-0.2 l0.1,0.3c0.3,0.7,0.3,1.5,0.2,2.1c0,0.2-0.1,0.3-0.1,0.3c-0.2,0.6-0.1,1.2,0.1,1.8c0.2,0.7,0.6,1.3,1.2,1.6 c-0.9-0.2-1.7-0.4-2.6-0.7c0.6-0.2,0.9-1.2,0.5-2.4c-0.1-0.6-0.4-1.1-0.9-1.6c0,0-0.1-0.1-0.2-0.2c-0.5-0.6-0.9-1.3-1-2v-0.3 c0,0.1,0,0.2,0.1,0.2c0-0.1,0-0.2-0.1-0.2l0.1,0.3c0.2,0.7,0.2,1.5,0,2.2c-0.1,0.2-0.1,0.3-0.1,0.3c-0.2,0.6-0.2,1.2,0,1.8 c0.1,0.6,0.4,1.2,0.9,1.6c-0.7-0.2-1.3-0.4-1.9-0.6h0.1c0.6-0.3,0.7-1.3,0.3-2.4c-0.2-0.6-0.6-1.1-1-1.5c0,0-0.1-0.1-0.3-0.2 c-0.6-0.5-1-1.1-1.3-1.9l-0.2-0.3c0,0.1,0.1,0.2,0.1,0.2c0-0.1-0.1-0.1-0.1-0.2l0.2,0.3c0.3,0.7,0.4,1.5,0.3,2.2 c0,0.2-0.1,0.3-0.1,0.3c-0.1,0.6,0,1.2,0.3,1.8c0.2,0.5,0.5,0.9,0.9,1.4c-0.8-0.3-1.5-0.6-2.1-0.9c0.1,0,0.2,0,0.2,0 c0.5-0.3,0.7-1.3,0.2-2.4c-0.2-0.6-0.6-1-1-1.4c0,0-0.1-0.1-0.3-0.2c-0.5-0.5-0.9-1.1-1.3-1.8l-0.2-0.3c0,0.1,0.1,0.2,0.1,0.2 c0-0.1-0.1-0.1-0.1-0.2l0.2,0.3c0.3,0.7,0.3,1.4,0.3,2.1c0,0.2-0.1,0.3-0.1,0.3c-0.1,0.6,0,1.2,0.3,1.7c0.2,0.4,0.4,0.9,0.9,1.2 c-0.7-0.3-1.2-0.6-1.6-0.9c0,0,0.1-0.1,0.1-0.2c0.4-0.8-0.4-2.1-1.9-2.9c-0.8-0.4-1.6-0.7-2.5-0.7c0,0-0.2,0-0.4,0 c-1.1-0.1-2.1-0.3-3.1-0.9L-125.9-1679.1c0.1,0,0.2,0.1,0.3,0.2C-125.7-1679-125.8-1679.1-125.9-1679.1 M-118.1-1671.7 c-0.5,0-0.9-0.2-0.9-0.3c0-0.2,0.4-0.3,0.9-0.3s0.9,0.2,0.9,0.3C-117.3-1671.7-117.6-1671.7-118.1-1671.7 M-115-1669.9 c-0.4,0.2-0.9,0.1-0.9-0.1c-0.1-0.2,0.3-0.4,0.8-0.5c0.5-0.1,0.9-0.1,0.9,0.1C-114.2-1670.3-114.5-1670-115-1669.9 M-112-1668.6 c-0.4,0.2-0.9,0.3-0.9,0.1c-0.1-0.2,0.3-0.4,0.7-0.7c0.4-0.3,0.9-0.3,0.9-0.1C-111.2-1669.2-111.6-1668.8-112-1668.6 M-108.8-1667.6c-0.4,0.3-0.9,0.3-0.9,0.2c-0.1-0.2,0.2-0.5,0.6-0.8s0.9-0.3,0.9-0.2C-108.1-1668.2-108.3-1667.9-108.8-1667.6 M-105.4-1666.9c-0.4,0.3-0.9,0.4-0.9,0.3c-0.1-0.2,0.2-0.5,0.6-0.8s0.9-0.4,0.9-0.3C-104.7-1667.5-105-1667.3-105.4-1666.9 M-102.1-1666.3c-0.3,0.3-0.8,0.4-0.9,0.3c-0.1-0.2,0.2-0.4,0.5-0.8c0.3-0.3,0.8-0.4,0.9-0.3 C-101.5-1666.9-101.7-1666.7-102.1-1666.3 M-99-1666.1c-0.3,0.3-0.7,0.4-0.8,0.3c-0.1-0.1,0.1-0.4,0.4-0.8 c0.3-0.3,0.7-0.4,0.8-0.3S-98.7-1666.3-99-1666.1 M-96-1666.4c-0.3,0.3-0.6,0.4-0.7,0.3c-0.1-0.1,0.1-0.4,0.3-0.7 s0.6-0.4,0.7-0.3S-95.8-1666.7-96-1666.4 M-96.3-1669.7c-0.2,0.1-0.3-0.3-0.4-0.6c-0.1-0.3-0.2-0.7,0-0.8 c0.2-0.1,0.3,0.3,0.4,0.6S-96.2-1669.8-96.3-1669.7 M-99-1670.2c-0.2,0-0.3-0.3-0.5-0.7c-0.2-0.4-0.1-0.9,0.1-0.9 c0.2,0,0.3,0.3,0.5,0.7C-98.7-1670.6-98.9-1670.3-99-1670.2 M-101.6-1670.5c-0.2,0-0.3-0.3-0.4-0.8c-0.1-0.5-0.1-0.9,0.1-0.9 c0.2,0,0.3,0.3,0.4,0.8S-101.4-1670.5-101.6-1670.5 M-104.6-1671c-0.2,0-0.4-0.3-0.5-0.8c-0.1-0.4-0.1-0.9,0.1-0.9 c0.2-0.1,0.4,0.3,0.5,0.8C-104.5-1671.5-104.5-1671-104.6-1671 M-107.7-1671.7c-0.2,0-0.4-0.3-0.5-0.8c-0.1-0.4-0.1-0.9,0.1-0.9 c0.2-0.1,0.4,0.3,0.5,0.8S-107.6-1671.8-107.7-1671.7 M-110.7-1672.6c-0.2,0-0.3-0.3-0.4-0.9c-0.1-0.5,0-0.9,0.2-0.9 c0.2,0,0.3,0.3,0.4,0.9C-110.5-1673-110.6-1672.6-110.7-1672.6 M-113.4-1673.3c-0.2,0.1-0.4-0.3-0.5-0.8s-0.1-0.9,0.1-0.9 c0.2,0,0.4,0.3,0.5,0.8C-113.2-1673.8-113.2-1673.3-113.4-1673.3 M-116.2-1674.4c-0.2,0.1-0.4-0.3-0.5-0.8 c-0.1-0.5-0.1-0.9,0.1-0.9c0.2-0.1,0.4,0.3,0.5,0.8C-116.1-1674.8-116.1-1674.5-116.2-1674.4 M-122.1-1676.2 c0.2-0.2,0.7,0,1.3,0.3c0.6,0.3,0.9,0.9,0.8,1.1c-0.2,0.3-0.7,0-1.3-0.3S-122.3-1676-122.1-1676.2"/><path id="Pfad_58" class="st8" d="M-102.7-1697c-1.5,0-2.9,0-4.4,0v17.7c2.9,0,5.8,0,8.8-0.1v-4.2c-1.5,0-2.9,0.1-4.4,0.1V-1697z "/><path id="Pfad_59" class="st8" d="M-97.7-1679.3c3.7-0.1,7.5-0.2,11.2-0.3v-4.2c-2.2,0.1-4.6,0.2-6.8,0.3v-2.6 c1.5-0.1,3.1-0.1,4.6-0.2v-4.2c-1.5,0.1-3.1,0.1-4.6,0.2v-2.6c2.2-0.1,4.6-0.2,6.8-0.3v-4.2c-3.7,0.2-7.5,0.3-11.2,0.3V-1679.3"/><path id="Pfad_60" class="st8" d="M-85.7-1679.7c1.5-0.1,2.9-0.2,4.4-0.2v-17.8c-1.5,0.1-2.9,0.2-4.4,0.2V-1679.7z"/><path id="Pfad_61" class="st8" d="M-69.9-1680.6c0.7-0.1,1.4-0.1,2-0.2v-17.7c-1.5,0.1-2.9,0.2-4.4,0.3v3.1 c-2-1.8-4.8-2.8-8.3-2.6v17.7c1.5-0.1,2.9-0.2,4.4-0.3v-12.3c2.8,0.8,4,3,4,6.6v5.2c0.3-0.2,0.5-0.2,0.9-0.2 C-70.8-1680.8-70.3-1680.8-69.9-1680.6"/><path id="Pfad_62" class="st8" d="M-63.5-1681.1c2.5-0.2,5.1-0.3,7.6-0.6v-4.2c-2.2,0.2-4.6,0.3-6.8,0.5v-2.6 c1.5-0.1,3.1-0.3,4.6-0.3v-4.1c-1.5,0.1-3.1,0.3-4.6,0.3v-2.6c2.2-0.2,4.6-0.3,6.8-0.5v-4.2c-3.7,0.3-7.5,0.6-11.2,0.9v17.7 c0.3,0,0.8-0.1,1.1-0.1c0.3-0.3,0.6-0.3,1-0.3C-64.4-1681.3-64-1681.2-63.5-1681.1"/><path id="Pfad_63" class="st8" d="M-43.5-1682.7l0.6-0.1v-1.1c0-2.5-0.9-4.3-2.5-5.3c1.5-1.1,2.4-2.9,2.4-4.8 c0-3.4-2.6-5.7-6-5.8c-1,0-2.1,0.1-3.2,0.2c-0.9,0.1-1.9,0.2-2.8,0.3v17.7c1.5-0.1,2.9-0.3,4.4-0.3v-4.7c1.7-0.2,3.3,1,3.4,2.8 c0,0.2,0,0.3,0,0.5v0.1c0.1-0.1,0.3-0.1,0.4-0.1C-45.7-1683.6-44.5-1683.3-43.5-1682.7 M-50.7-1691v-4.7c1.8-0.2,3.4,0.3,3.4,2.1 C-47.4-1691.8-48.9-1691.2-50.7-1691"/><path id="Pfad_64" class="st8" d="M-29.7-1689.2c0.1-1.5-0.7-2.9-1.9-3.8c0.9-0.9,1.5-2.1,1.5-3.4c0.1-2.6-1.9-4.7-4.5-4.8 c-0.1,0-0.2,0-0.3,0c-0.9,0-1.6,0.1-2.5,0.2c-1.7,0.2-3.4,0.3-5,0.4v17.7c2.3-0.2,4.6-0.4,6.9-0.6 C-31.8-1683.9-29.7-1686.4-29.7-1689.2 M-37.9-1696.9l2.1-0.2c0.7-0.1,1.3,0.4,1.4,1.1c0,0.1,0,0.1,0,0.2c0,0.8-0.6,1.4-1.4,1.5 l-2.1,0.2V-1696.9z M-37.9-1690.1l2.5-0.3c0.7-0.1,1.3,0.3,1.4,1c0,0.1,0,0.2,0,0.3c0,0.8-0.6,1.5-1.4,1.5l-2.5,0.3V-1690.1z"/><path id="Pfad_65" class="st8" d="M-22.4-1688.2c1.3-0.2,2.5,0.2,3.5,0.9c0.4,0.3,0.7,0.9,0.7,1.5c0,0.3-0.1,0.5-0.2,0.7l1.6-0.2 v-17.7c-7.3,0.7-12.6,5-12.6,13.4v5.5l4.4-0.4v-2.6l1.2-0.1C-23.4-1687.6-22.9-1688-22.4-1688.2 M-21-1697.5v5.8l-3.8,0.3 C-24.6-1694.2-23.4-1696.3-21-1697.5"/><path id="Pfad_66" class="st8" d="M-7.3-1689.2c0.9-0.1,2,0.1,2.8,0.6c0.9-1.4,1.4-3,1.4-4.6v-11c-1.5,0.1-2.9,0.3-4.4,0.3v11.1 c0,1.6-0.5,2.8-2,2.9c-1.5,0.2-2-0.9-2-2.5v-11.2c-1.5,0.2-2.9,0.3-4.4,0.4v11.1c0,4.7,3.1,6.5,6.1,6.4c0.1-0.4,0.3-0.9,0.4-1.4 C-9.1-1687.6-8.6-1688.9-7.3-1689.2"/><path id="Pfad_67" class="st8" d="M5.3-1691.4c-1.1,0.1-2.2,0.2-3.4,0.3v-2.6c1.5-0.1,3.1-0.3,4.6-0.3v-4.1 c-1.5,0.1-3.1,0.3-4.6,0.3v-2.6c2.2-0.2,4.6-0.3,6.8-0.5v-4.3c-3.7,0.3-7.5,0.6-11.2,0.9v17.7c2.1-0.2,4.1-0.3,6.2-0.5l0,0 C4.2-1688.6,4.7-1690,5.3-1691.4"/><path id="Pfad_68" class="st8" d="M11.2-1690.2c0,0.4-0.2,0.9-0.4,1.2l-0.1,0.1c0,0,0,0.1-0.1,0.1c-0.2,0.4-0.3,0.8-0.5,1.2 c1.3-0.1,2.6-0.2,3.9-0.3v-4.7c1.7-0.2,3.3,1.1,3.4,2.9c0,0.2,0,0.3,0,0.5v1.1c1.5-0.1,2.9-0.2,4.4-0.3v-1.1 c0-2.5-0.9-4.4-2.5-5.4c1.5-1,2.4-2.8,2.4-4.7c0-3.4-2.6-5.8-6-5.9c-1,0-2.1,0-3.2,0.1c-0.9,0.1-1.9,0.2-2.8,0.2v13.1 c0.3,0.2,0.7,0.3,0.9,0.5C10.9-1691.3,11.2-1690.7,11.2-1690.2 M14-1701.5c1.8-0.1,3.4,0.4,3.4,2.2c0,1.8-1.5,2.4-3.4,2.6 V-1701.5z"/><path id="Pfad_69" class="st8" d="M30.9-1703.5c-2.3-2-5.3-2.9-8.3-2.7c0,5.9,0,11.9,0,17.7c1.5-0.1,2.9-0.2,4.4-0.3v-12.2 c2.8,0.8,4,3.1,4,6.6v5.5c1.5-0.1,2.9-0.1,4.4-0.2v-17.7c-1.5,0.1-2.9,0.1-4.4,0.2L30.9-1703.5"/><path id="Pfad_70" class="st8" d="M35.7-1704c1.2-0.1,2.5-0.1,3.7-0.1c0.6-1.2,1.3-2.5,1.9-3.7c-1.4,0-2.8,0.1-4.1,0.1L35.7-1704 "/><path id="Pfad_71" class="st8" d="M51.3-1698.6c-0.9-0.9-2.4-1.2-4.1-1.7c-0.7-0.1-1.1-0.7-1.1-1.4c0-0.6,0.3-1.1,1.2-1.1 c1.1,0,2.3,0,3.4,0v-4.2c-0.8,0-1.6,0-2.4,0c-0.9,0-1.8,0-2.7,0.2c-2.4,0.5-4.1,2.8-4,5.2c-0.1,1.4,0.4,2.7,1.4,3.6 c0.9,0.9,1.9,1.2,4.2,1.9c0.7,0.2,1.1,0.7,1.2,1.4c0,0.6-0.5,1.1-1.5,1.1c-1.7,0-3.4,0.1-5.2,0.1v4.2c1.9-0.1,3.8-0.1,5.8-0.1 c2.9,0.1,5.4-2.3,5.4-5.2c0-0.1,0-0.2,0-0.3C53-1696.2,52.3-1697.7,51.3-1698.6"/><path id="Pfad_72" class="st7" d="M-65.3-1670.4c0.5-2.7,1.3-5.2,2.3-7.7c0.1-0.2,0.2-0.3,0.3-0.5c0.1,0,0.1-0.1,0.1-0.2 c0-0.4-1.8-0.9-2.3-0.9c-0.7,0.1-2,4.4-2.8,8.8c-1,0.1-2.8,0.4-4.1,0.6c0.5-2.6,1.3-5,2.3-7.4c0.1-0.2,0.2-0.3,0.3-0.4 c0.1,0,0.1-0.1,0.1-0.2c0-0.4-1.8-1-2.3-0.9c-0.7,0-2,4.5-2.8,8.9c-0.5-0.1-1-0.3-1.5-0.4c-0.1,0-0.2,0-0.2,0.1 c-0.1,0.1-0.1,0.2-0.1,0.3c0.1,0.7,0.3,1.3,0.7,1.8c0.3,0.1,0.5,0.2,0.8,0.3c-0.3,1.7-0.5,3.4-0.6,5.2c0,0.6,1.1,1.1,1.7,1.1 c0.3,0,0.3-0.1,0.3-0.3c0.2-2,0.4-4,0.9-5.9c1.3-0.2,2.9-0.5,4.2-0.8c-0.3,1.9-0.6,3.8-0.7,5.7c0,0.6,1.1,1.1,1.7,1 c0.3,0,0.3-0.1,0.3-0.3c0.2-2.3,0.5-4.6,1.1-6.9h0.2c0.3,0,0.4-0.2,0.3-0.4C-65-1670.2-65.1-1670.4-65.3-1670.4"/><path id="Pfad_73" class="st7" d="M21-1682.7c-0.9,2.4-2.8,6.8-5,6.9c-1.2,0.1-1.6-1-1.6-2.5c2.1-0.1,4.9-2.1,4.9-4.6 c0-1.2-1.8-2.5-2.8-2.4c-1.9,0.1-3.6,2.8-4.3,5.3c-0.5,0.7-1.1,1.3-1.8,1.8c0.9-1.5,1.4-3.2,1.5-4.9c0-0.9-1-2.3-2.1-2.2 c-0.7,0.1-1.3,0.8-1.8,1.5c-0.5,0.8-0.9,1.6-1.3,2.5c0.7-3.4,1.7-7,2.6-8.5c0.1-0.2,0.2-0.3,0.3-0.5c0,0,0.1-0.1,0.1-0.2 c0-0.4-1.8-0.9-2.3-0.9c-0.9,0.1-2.8,7.4-3.4,12.7c-0.5,1.3-1.3,2.5-2.1,3.6c-0.3,0.3-0.5,0.3-0.4-0.2c0.4-2.6,1.1-5.2,2-7.6 c0.1-0.3,0.4-0.7,0.1-0.9c-0.5-0.3-1.1-0.5-1.7-0.6c-0.2,0.1-0.3,0.2-0.4,0.4c-0.3,0.6-0.4,1.2-0.7,1.9c-0.4,1.3-2.3,7.4-3.5,7.6 c-0.3,0-0.5-0.3-0.3-0.9c0.4-2.3,1.1-4.6,1.9-7c0.1-0.3,0.4-0.7,0.2-0.9c-0.5-0.3-1.1-0.5-1.7-0.5c-0.2,0-0.3,0.2-0.4,0.4 c-0.5,1.4-1,2.8-1.4,4.3c-0.8,1.8-1.8,3.5-3,5.1c-0.3,0.4-0.5,0.3-0.4-0.3c0.5-3.3,1.2-6.5,2.1-9.8c0.9-0.2,1.7-0.2,2.6-0.1h0.1 c0.1-0.1,0.1-0.2,0.1-0.3c0-0.3-0.2-0.9-0.3-1c-0.7-0.2-1.4-0.2-2,0c0.1-0.3,0.2-0.5,0.3-0.9c0.1-0.3,0.2-0.5,0.3-0.7l0.1-0.1 c0.1-0.1,0.1-0.1,0.1-0.2c0-0.4-1.6-0.9-2.1-0.8c-0.3,0-0.5,0.4-0.8,1.1c-0.3,0.7-0.4,1.4-0.6,2.1c-0.9,0.3-1.7,0.5-2.6,0.7 c-0.3,0.1-0.3,0.2-0.3,0.3c0.3,0.7,1.5,0.4,2,0.3l0.6-0.1c-0.3,1.5-0.8,3.3-1,4.9c-0.5,1-1.3,1.9-2.1,2.6c-0.5-1.1-2-1.9-2-3.3 c0-0.5,0.3-1.6,0.9-1.8c0.3-0.1,0.4,0.2,0.4,0.5c0,0.5-0.3,1.3-0.9,1.4l-0.1,0.1c0,0.3,0.9,0.5,1.4,0.4c0.3-0.1,0.9-1.1,0.9-1.7 c-0.2-1.1-1-1.9-2.1-1.9c-1.6,0.3-2.8,1.6-2.9,3.3c0,0.3,0.1,0.7,0.2,1c-0.7,1.9-1.5,4.5-2.8,6c-0.2,0.2-0.2,0.2-0.3,0.2 c-0.9,0.2-1.3-2.9-1.4-3.5c1.1-0.9,2.1-1.9,2.8-3.1c0.3-0.5,0.4-1.2,0.2-1.7c-0.2-0.4-0.5-0.8-0.9-1c-0.5-0.3-1.1,0.3-1.6,0.9 c-1.3,1.7-2.3,3.5-3,5.5c0.8-4,2-8.9,3-11c0.1-0.2,0.2-0.3,0.3-0.5c0,0,0.1-0.1,0.1-0.2c0-0.4-1.8-0.8-2.3-0.7 c-0.9,0.2-2.8,7.8-3.5,13.2c-0.9,2-2.1,3.7-3.4,4c-3.3,0.6-0.8-8.1,1.5-8.5c0.3-0.1,0.5,0.3,0.2,1c-0.3,0.7-0.7,1.3-1.2,1.7 c-0.3,0.3-0.4,0.5-0.2,0.7c0.4,0.3,0.9,0.5,1.5,0.5c0.6-0.1,1.4-1.8,1.4-3.3c-0.2-1.1-1.2-2-2.3-1.8c-0.1,0-0.2,0-0.3,0 c-2.1,0.4-4.2,4.4-4.4,7.4c-0.4,1-1,2.1-1.8,3c-0.2,0.3-0.4,0.3-0.3-0.1c0.4-2.6,1-5.2,1.9-7.7c0.1-0.3,0.4-0.7,0.2-0.9 c-0.5-0.3-1.1-0.5-1.7-0.4c-0.2,0-0.3,0.2-0.4,0.4c0,0.1-0.1,0.3-0.2,0.3c-0.9-0.3-1.9-0.8-2.8-0.1c-1.5,1.3-2.7,3.1-3.2,5.1 c-0.6,0.9-1.3,1.8-2.1,2.6c0.9-1.5,1.3-3.3,1.5-5c0-0.9-1-2.1-2.1-2c-0.7,0.1-1.3,0.9-1.8,1.7s-0.9,1.7-1.3,2.6 c0.7-3.4,1.7-7,2.6-8.7c0.1-0.2,0.2-0.3,0.3-0.5c0,0,0.1-0.1,0.1-0.2c0-0.4-1.8-0.8-2.3-0.7c-0.8,0.2-2.3,5.9-3.2,10.9 c-0.7,0.8-1.6,1.4-2.6,1.7c0.5-2.7,1.3-5.2,2.3-7.7c0.1-0.2,0.3-0.3,0.3-0.5c0,0,0.1-0.1,0.1-0.2c0-0.4-1.8-0.8-2.3-0.8 c-0.3,0-0.7,0.8-1.1,2.1c-0.7,1.9-1.2,3.9-1.6,5.8c-0.6,1-1.3,2-2.1,2.8c0.5-1.2,0.8-2.5,0.8-3.8c0-1.2-1.4-2.1-3-2 c-0.6-0.3-1.3-0.4-1.9-0.1c-2.2,1.4-3.6,5-3.6,7.6c0,1.4,1.1,3.2,3.1,3c1.5-0.2,3-1.5,4-3.2c0.9-0.7,1.7-1.5,2.4-2.4 c-0.6,2.8-1,5.6-1.3,8.2c-0.1,0.8-0.2,1.5-0.2,2.2c0,0.6,1.1,0.9,1.7,0.8c0.5,0,0.9-0.3,1.3-0.6c0.4-0.6,0.8-1.4,0.9-2.1 c0.7-2.8,0.7-5.7,0.2-8.4c0.9-0.3,1.7-0.8,2.4-1.4c-0.3,1.5-0.4,3-0.4,4.6c0,0.6,1.1,1,1.7,0.9c0.3-0.1,0.3-0.3,0.3-0.5 c0.3,0.2,0.6,0.3,0.9,0.3c0.9-0.2,2.1-1.4,3.2-2.9c0.9-0.7,1.9-1.5,2.6-2.4c-0.2,0.9-0.3,1.9-0.2,2.8c0,0.8,0.6,1.4,1.4,1.4 c0.2,0,0.3,0,0.4-0.1c1.2-0.3,2.2-1.8,3-3.5c0,0.1,0,0.2,0,0.2c-0.1,0.3-0.1,0.7-0.2,1c-0.2,0.7,0.3,1.4,1,1.5c0.2,0,0.3,0,0.4,0 c1-0.2,2.1-1.6,2.9-3.3c0.3,1.5,1.3,2.5,3.4,2.1c1.5-0.3,2.8-1.7,3.7-3.4c-0.1,0.5-0.1,1-0.1,1.5c0,0.6,1.1,0.9,1.7,0.9 c0.2,0,0.3-0.2,0.3-0.3l0,0c0-0.3,0.1-0.7,0.1-1c0.3-1.1,0.6-2.1,1-3.2c0.2,1.5,1.1,4,2.8,3.8c0.9-0.3,1.5-0.9,2-1.8 c0,0.8,0.7,1.5,1.9,1.2c2.1-0.3,4.6-2.2,4.2-4.5c0.6-0.4,1.2-0.9,1.6-1.5c-0.1,0.9-0.3,1.6-0.3,2.3c-0.1,1-0.2,2.7,1.4,2.4 c1.1-0.2,2.5-2.1,3.6-4.1c-0.1,0.3-0.1,0.5-0.1,0.8c-0.1,0.3-0.1,0.7-0.2,1c0.1,0.9,0.9,1.6,1.7,1.5c0.1,0,0.1,0,0.2,0 c1.2-0.2,2.1-1.7,3-3.4c0,0.1,0,0.2-0.1,0.2c0,0.3-0.1,0.7-0.2,1c-0.1,0.8,0.4,1.5,1.2,1.6c0.1,0,0.2,0,0.3,0 c1-0.2,2.1-1.5,3-3.2c-0.1,0.6-0.1,1.2-0.1,1.6c0,0.6,1.1,1,1.7,0.9c0.3,0,0.3-0.3,0.3-0.5c0.3,0.2,0.6,0.3,0.9,0.3 c0.9-0.1,2.1-1.2,3.2-2.8c0.9-0.6,1.7-1.2,2.5-2.1c-0.2,2.2,0.8,4.2,3.5,4c3-0.2,5.2-5.2,6.1-7.9 C21.8-1682.9,21.1-1683.2,21-1682.7 M-60.3-1665.2c-0.5,0.3-1,0.4-1.5,0.5c-0.1,0-0.2,0-0.3,0.1c-0.7-1.4,0.1-5.2,1.6-7 c0.9-1.1,1.9-1.1,1.9,0.6C-58.6-1669-59.2-1667-60.3-1665.2 M-53.4-1659.7c-0.1,0.3-0.3,1.2-0.5,1.2c-0.1,0-0.2-0.4-0.1-1.2 c0.3-2.4,0.6-4.7,1.1-7.1C-52.6-1664.4-52.8-1662-53.4-1659.7 M-46.5-1667.1c-0.5,0.3-1.1,0.5-1.7,0.7c0.3-1.7,0.8-3.4,1.5-4.9 c0.4-0.9,0.9-1.8,1.5-2.7c0.5-0.8,0.9-0.6,0.9,0.2C-44.5-1671.5-45.3-1669.2-46.5-1667.1 M-35.9-1675.2c-0.4,1.3-2.1,7.5-3.4,7.7 c-0.4,0.1-0.3-0.9-0.3-1.2c0.2-2.3,1.5-7.1,3.4-7.5c0.3-0.1,0.5,0,0.6,0.3C-35.7-1675.7-35.8-1675.4-35.9-1675.2 M-22.3-1674.4 c0.6-1.5,1.5-3,2.4-4.4c0.4-0.6,0.5-0.2,0.4,0.2C-20-1677-21-1675.5-22.3-1674.4 M-15.7-1671.6c-1.3,0.7-1.6-0.9-0.4-1.5 c0.6-0.3,1.5-0.3,2.1-0.6C-14.4-1672.8-15-1672-15.7-1671.6 M-15.8-1673.9c-0.4,0.1-0.8,0.3-1.1,0.5c0.5-1.1,1-2.4,1.4-3.4 c0.5,0.8,1.3,1.4,1.5,2.3C-14.6-1674.1-15.2-1674.1-15.8-1673.9 M7.3-1676.3c-0.5,0.3-1.1,0.4-1.7,0.5c0.3-1.6,0.8-3.3,1.5-4.8 c0.4-0.9,0.9-1.8,1.5-2.6c0.5-0.8,0.9-0.5,0.9,0.3C9.4-1680.5,8.6-1678.3,7.3-1676.3 M16.7-1683.8c0.4-0.3,0.9-0.2,0.9,0.4 c0,2.1-1.6,4.3-3,4.4C14.7-1680.8,15.6-1682.9,16.7-1683.8"/></g></g></g><g id="Arrow-12" transform="translate(315.702 1810.048) rotate(-18)"><path id="Path" class="st9" d="M428.1-1610.2c-0.1-2.8-0.1-5.2-0.2-7.7c-0.3-11.4-0.5-22.8-0.8-34.2c0-0.9,0.3-2.1-0.8-2.3 c-0.9-0.1-1.7,0.3-2.4,0.9c-2.2,1.8-4.3,3.7-6.5,5.8c-0.6-0.4-1.3-1-2-1.5c-1.6-1.1-3.3-2.3-4.9-3.4c-1.2-0.8-2.1-0.3-2.1,1.2 c0,0.3,0,0.7,0.1,0.9c0.5,7.1,0.9,14.2,1.5,21.3c0.4,5.9,0.9,11.9,1.5,17.8c0.1,0.8,0,1.5,0,2.4c-1.7,0.9-3.5,0.7-5.3,0.9 c-2.1,0.3-4.2,0.6-6.4,0.9c-0.9,0.2-1.3,0.8-0.8,1.7c0.4,0.9,1.1,1.9,1.9,2.8c1,1.2,2.2,2.3,3.4,3.5c4.7,5,9.5,10,14,15 c1.6,1.8,2.8,1.6,4.3,0c3.2-3.5,6.4-7,9.5-10.5c2.8-3,5.7-6,8.4-9.1c1-1.2,2.1-2.5,2.9-3.9c1-1.6,0.4-2.8-1.5-2.8 c-4,0.1-7.9,0.2-11.9,0.3C429.4-1610.2,428.9-1610.2,428.1-1610.2z"/></g></svg>