<?xml version="1.0" encoding="UTF-8"?>
<svg id="Ebene_2" data-name="Ebene 2" xmlns="http://www.w3.org/2000/svg" viewBox="0 0 351.15 123.53">
  <g id="Ebene_1-2" data-name="Ebene 1">
    <g>
      <path d="m94.88.02s.03.05.05.08l-.05-.08h0Z" style="fill: #e0cfba;"/>
      <path d="m351.15,21.29c-.34.24-.66.45-.99.67.32-.23.62-.47.96-.7l-1.75,1.24c-5.57,3.58-9.63,4.52-11.64,4.76-.93.11-1.63.14-1.63.14-3.43.26-6.7,1.5-9.44,3.58-5.49,3.88-8.34,9.29-6.36,12.09.15.17.31.33.49.47-1.5,1.09-3.49,2.44-6,3.99,1.27-1.51,2.19-3.29,2.7-5.2.72-2.24.78-4.65.16-6.92,0,0-.16-.5-.31-1.21-.48-2.83-.33-5.72.44-8.48l.4-1.42c-.08.27-.16.52-.24.78.07-.26.13-.52.21-.79l-.4,1.42c-.8,2.8-2.22,5.38-4.16,7.55-.45.46-.81.78-.81.78-1.71,1.62-2.92,3.69-3.49,5.98-1.25,4.43-.44,8.55,1.82,9.18.25.06.51.09.77.06-2.35,1.36-5.04,2.82-8.11,4.34,1.45-1.6,2.49-3.53,3.03-5.63.74-2.31.79-4.78.16-7.12,0,0-.16-.52-.32-1.25-.49-2.91-.34-5.88.45-8.72l.41-1.45c-.08.28-.16.54-.24.8.07-.27.14-.53.22-.81l-.41,1.45c-.82,2.88-2.28,5.53-4.27,7.77-.46.47-.83.8-.83.8-1.76,1.66-3.01,3.8-3.58,6.15-1.29,4.56-.45,8.79,1.88,9.45.15.03.29.04.44.04-2.23,1.05-4.57,2.11-7.13,3.19,1.65-1.93,2.66-4.32,2.88-6.85.39-2.39.09-4.84-.88-7.06,0,0-.24-.49-.5-1.19-.91-2.8-1.19-5.77-.83-8.7l.19-1.5c-.04.29-.08.55-.12.83.03-.28.05-.55.09-.83l-.19,1.5c-.39,2.97-1.45,5.81-3.09,8.31-.39.54-.71.91-.71.91-1.5,1.9-2.42,4.2-2.65,6.61-.6,4.64.81,8.64,3.15,9.04-3.01,1.21-6.23,2.42-9.69,3.61,1.66-1.08,3.19-3.65,3.87-6.88.57-2.32.46-4.76-.32-7.01,0,0-.2-.5-.4-1.2-.68-2.83-.73-5.77-.15-8.62l.31-1.46c-.06.28-.12.54-.19.81.05-.27.09-.53.15-.81l-.31,1.46c-.61,2.89-1.87,5.6-3.67,7.93-.42.5-.77.84-.77.84-1.62,1.75-2.7,3.94-3.1,6.29-.96,4.58.16,8.68,2.49,9.17.17.02.35.02.52,0-2.78.94-5.67,1.87-8.74,2.77,1.34-1.68,2.25-3.67,2.64-5.79.57-2.32.46-4.76-.32-7.01,0,0-.2-.5-.4-1.2-.68-2.83-.73-5.77-.15-8.62l.3-1.46c-.06.28-.12.54-.19.81.05-.27.09-.53.15-.81l-.3,1.46c-.61,2.89-1.87,5.6-3.67,7.93-.42.5-.77.84-.77.84-1.62,1.76-2.7,3.94-3.11,6.3-.82,3.93-.11,7.5,1.59,8.74-2.62.72-5.33,1.42-8.15,2.1,1.66-1.62,2.76-3.73,3.13-6.02.52-2.13.42-4.36-.3-6.43,0,0-.18-.46-.37-1.1-.62-2.59-.67-5.29-.14-7.9l.28-1.34c-.05.26-.11.49-.17.74.05-.25.09-.49.14-.75l-.28,1.34c-.56,2.65-1.71,5.13-3.36,7.27-.39.46-.7.78-.7.78-1.49,1.61-2.48,3.61-2.85,5.77-.83,3.99.06,7.55,1.99,8.28-2.59.6-5.26,1.17-8.01,1.73,1.82-1.49,3.1-3.54,3.64-5.83.67-2.08.73-4.32.16-6.43,0,0-.15-.47-.29-1.13-.44-2.63-.29-5.32.42-7.89l.37-1.32c-.07.25-.15.49-.22.73.06-.24.12-.48.19-.73l-.37,1.32c-.75,2.6-2.07,5-3.87,7.02-.42.43-.75.72-.75.72-1.6,1.5-2.72,3.43-3.25,5.55-1.14,4-.45,7.69,1.51,8.46-2.22.43-4.47.85-6.8,1.24,1.12-1.17,1.97-2.57,2.48-4.11.69-1.77.85-3.7.47-5.56,0,0-.1-.41-.19-.99-.24-2.3.02-4.62.78-6.8l.39-1.12c-.08.22-.15.41-.23.62.07-.21.13-.41.2-.63l-.39,1.12c-.78,2.21-2.05,4.21-3.71,5.86-.38.35-.69.58-.69.58-1.46,1.21-2.54,2.82-3.1,4.64-1.03,2.95-.87,5.77.28,6.97-21.72,3.42-33.34,4.57-46.75,5.06.23-.02.47-.04.7-.07,8.98-.85,14.45-7.19,14.72-14.03,1.02-.85,2.01-1.69,2.94-2.53.27.99,1.55,2.07,3.3,2.67,1.12.42,2.33.52,3.5.27,0,0,.26-.07.62-.13,1.45-.17,2.91-.01,4.29.45l.71.24c-.14-.05-.26-.09-.39-.14.13.04.26.08.4.13l-.71-.24c-1.4-.48-2.67-1.27-3.72-2.31-.22-.24-.37-.43-.37-.43-.77-.91-1.79-1.58-2.94-1.93-.68-.23-1.39-.37-2.11-.4,1.15-.82,2.3-1.66,3.43-2.51-.04.07-.08.14-.1.21-.37,1.34,1.46,3.03,4.1,3.76,1.33.42,2.76.45,4.11.08,0,0,.3-.1.72-.19,1.68-.29,3.4-.21,5.04.24l.84.23c-.16-.05-.31-.09-.46-.14.16.04.31.08.47.12l-.84-.23c-1.66-.47-3.2-1.3-4.5-2.45-.27-.27-.46-.48-.46-.48-2-1.96-4.86-2.77-7.59-2.15,1.44-1.09,2.85-2.21,4.24-3.34-.07.11-.12.24-.15.37-.26,1.39,1.75,2.93,4.48,3.43,1.39.31,2.83.2,4.16-.29,0,0,.29-.12.71-.25,1.67-.44,3.42-.52,5.12-.21l.87.16c-.17-.03-.32-.07-.48-.1.16.03.32.05.49.08l-.87-.16c-1.72-.32-3.35-1.03-4.77-2.07-.3-.24-.51-.44-.51-.44-2.2-1.81-5.17-2.36-7.88-1.48,1.47-1.23,2.92-2.47,4.32-3.74.16,1.36,2.19,2.68,4.85,3.06,1.48.27,3,.11,4.39-.47,0,0,.3-.14.74-.3,1.74-.54,3.58-.68,5.39-.43l.93.13c-.18-.03-.34-.06-.51-.09.17.02.33.04.51.07l-.93-.13c-1.83-.27-3.58-.95-5.12-1.99-.33-.24-.56-.44-.56-.44-1.16-.95-2.58-1.54-4.07-1.7-1.07-.16-2.17-.13-3.23.09,1.22-1.15,2.4-2.32,3.55-3.5.07,1.41,2.22,2.73,5,3,1.49.2,3-.04,4.36-.68,0,0,.29-.16.72-.33,1.72-.62,3.55-.85,5.37-.68l.93.09c-.17-.02-.34-.04-.51-.06.17.01.34.02.52.04l-.93-.09c-1.84-.19-3.62-.79-5.2-1.75-.34-.23-.58-.42-.58-.42-1.21-.89-2.65-1.41-4.14-1.51-1.22-.14-2.45-.02-3.61.36,1.19-1.29,2.34-2.6,3.44-3.93-.01.05-.02.1-.03.15,0,1.47,2.32,2.65,5.19,2.65,1.46.05,2.91-.32,4.17-1.08,0,0,.27-.18.67-.39,1.61-.77,3.38-1.17,5.16-1.18h.92c-.18,0-.34,0-.51-.01.17,0,.33,0,.51,0h-.92c-1.81,0-3.6-.42-5.23-1.21-.35-.19-.6-.35-.6-.35-1.26-.75-2.71-1.12-4.17-1.07-1.35-.03-2.68.28-3.87.9,1.04-1.32,2.03-2.65,2.97-4-.02.12-.02.24,0,.35.27,1.44,2.78,2.17,5.6,1.63,1.45-.22,2.8-.86,3.9-1.84,0,0,.23-.23.59-.51,1.44-1.05,3.1-1.77,4.85-2.11l.9-.17c-.17.03-.34.06-.5.08.17-.04.32-.07.5-.1l-.9.17c-1.78.33-3.61.26-5.36-.21-.38-.12-.66-.23-.66-.23-1.38-.51-2.87-.6-4.3-.28-1.21.21-2.37.68-3.38,1.39,1.05-1.62,2.02-3.25,2.9-4.91-.18.44-.18.93.02,1.37.67,1.3,3.28,1.29,5.83-.02,1.33-.63,2.44-1.62,3.22-2.87,0,0,.16-.28.42-.65,1.08-1.42,2.47-2.58,4.05-3.4l.81-.42c-.15.08-.3.15-.45.22.15-.08.29-.16.45-.24l-.81.42c-1.61.83-3.39,1.28-5.2,1.32-.4,0-.7-.04-.7-.04-1.46-.09-2.92.24-4.2.95-1.13.55-2.11,1.35-2.89,2.34.58-1.13,1.11-2.28,1.6-3.43,1.9.37,4.63-1.67,6.44-4.98,1.09-1.84,1.63-3.96,1.56-6.09,0,0-.04-.48-.03-1.14.16-2.6.88-5.13,2.12-7.42l.57-1.05c-.1.18-.2.35-.3.52.11-.22.22-.43.34-.66l-.64,1.17c-1.28,2.32-3.06,4.31-5.22,5.84-.49.31-.87.52-.87.52-1.85,1.08-3.34,2.67-4.31,4.58-2.02,3.67-2.13,7.48-.26,8.51.13.06.27.1.41.13-.54,1.02-1.29,2.31-2.27,3.87.3-1.19.33-2.44.09-3.65-.21-1.45-.83-2.81-1.8-3.92,0,0-.23-.24-.5-.59-1.04-1.45-1.74-3.12-2.07-4.87l-.16-.9c.03.18.05.34.08.5-.03-.17-.07-.33-.1-.5l.16.9c.32,1.79.22,3.62-.27,5.36-.13.38-.24.66-.24.66-.52,1.37-.63,2.86-.32,4.3.51,2.82,2.09,4.9,3.53,4.65.16-.03.31-.09.45-.17-.94,1.4-2.05,2.95-3.35,4.64.37-1.29.43-2.66.16-3.98-.22-1.49-.86-2.89-1.85-4.03,0,0-.23-.24-.52-.61-1.07-1.49-1.79-3.2-2.13-5.01l-.17-.93c.04.18.06.34.09.51-.03-.17-.07-.33-.1-.51l.17.93c.33,1.83.23,3.72-.27,5.51-.13.39-.25.68-.25.68-.53,1.41-.65,2.95-.33,4.42.52,2.91,2.15,5.05,3.63,4.78.09-.03.18-.06.26-.1-.96,1.2-1.98,2.43-3.12,3.73.4-1.53.31-3.14-.26-4.62-.43-1.45-1.27-2.74-2.42-3.72,0,0-.26-.21-.6-.53-1.27-1.32-2.24-2.91-2.84-4.64l-.3-.89c.06.17.11.33.16.5-.06-.16-.12-.32-.18-.49l.3.89c.59,1.77.78,3.64.54,5.49-.07.41-.15.71-.15.71-.32,1.47-.21,3.01.32,4.42.93,2.76,2.81,4.62,4.23,4.2-1.36,1.49-2.83,3.05-4.44,4.66.7-1.54.8-3.29.29-4.91-.31-1.45-1.04-2.79-2.1-3.84,0,0-.25-.22-.55-.57-1.15-1.4-1.98-3.03-2.43-4.78l-.23-.9c.04.17.08.34.12.5-.05-.17-.09-.32-.14-.5l.23.9c.45,1.78.48,3.64.11,5.44-.1.39-.2.68-.2.68-.43,1.43-.44,2.95-.02,4.38.71,2.82,2.46,4.82,3.9,4.45.1-.03.2-.08.29-.14-1.3,1.29-2.67,2.6-4.14,3.94.29-1.31.26-2.67-.1-3.96-.31-1.45-1.04-2.79-2.1-3.84,0,0-.25-.23-.55-.57-1.15-1.4-1.98-3.03-2.43-4.78l-.23-.9c.04.17.08.34.12.5-.04-.16-.09-.32-.13-.5l.23.9c.44,1.78.48,3.64.1,5.44-.1.39-.2.68-.2.68-.43,1.43-.44,2.95-.02,4.38.61,2.43,1.99,4.23,3.27,4.46-1.27,1.12-2.6,2.25-3.99,3.4.49-1.36.53-2.84.11-4.23-.29-1.33-.95-2.55-1.92-3.52,0,0-.22-.21-.51-.52-1.05-1.28-1.82-2.78-2.23-4.38l-.21-.83c.04.16.07.31.11.46-.04-.15-.08-.3-.12-.46l.21.83c.41,1.64.44,3.34.1,4.99-.09.36-.18.62-.18.62-.39,1.31-.4,2.7-.02,4.01.62,2.46,2.1,4.21,3.37,4.09-1.29,1.04-2.62,2.09-4.01,3.15.61-1.33.77-2.83.44-4.26-.19-1.35-.77-2.62-1.67-3.65,0,0-.21-.22-.46-.56-.96-1.35-1.62-2.9-1.92-4.53l-.15-.84c.03.16.05.31.07.47-.03-.15-.06-.3-.09-.46l.15.84c.29,1.66.21,3.36-.25,4.99-.12.36-.22.61-.22.61-.48,1.28-.59,2.66-.3,4,.46,2.55,1.85,4.43,3.15,4.32-1.12.85-2.27,1.69-3.47,2.55.31-.96.4-1.98.26-2.97-.1-1.18-.53-2.3-1.25-3.24,0,0-.17-.2-.38-.5-.76-1.22-1.25-2.59-1.42-4.02l-.09-.73c.02.14.03.27.04.41-.02-.13-.04-.27-.06-.41l.09.73c.17,1.45,0,2.92-.48,4.3-.12.3-.23.52-.23.52-.49,1.08-.65,2.27-.47,3.44.23,1.93,1.09,3.46,2.06,3.83-.72.51-1.42.99-2.1,1.46-.48-3.45-2.27-6.4-4.73-7.91,2.43-2.24,3.77-5.41,3.69-8.71,0-5.99-4.02-12.19-12.18-12.35-2.11.03-4.22.16-6.32.4-4.19.39-8.38.78-12.58,1.16v42.12c-.53-.28-1.05-.56-1.57-.84v-6.7c-3.73.07-7.46.13-11.19.17v-34.56c-3.73.04-7.46.06-11.19.06v19.58c-.09-.39-.2-.78-.37-1.16,0,0-.1-.21-.23-.52-.48-1.38-.64-2.85-.48-4.29l.09-.73c-.02.14-.04.27-.06.41.01-.13.02-.27.04-.41l-.09.73c-.17,1.43-.66,2.8-1.42,4.02-.21.3-.38.5-.38.5-.72.94-1.16,2.06-1.25,3.24-.14,1-.05,2.02.26,2.97-1.2-.86-2.34-1.7-3.47-2.55,1.31.11,2.7-1.77,3.15-4.32.29-1.33.18-2.72-.3-4,0,0-.11-.26-.22-.61-.46-1.62-.55-3.33-.25-4.99l.15-.84c-.03.16-.06.31-.09.46.02-.15.05-.31.07-.47l-.15.84c-.3,1.63-.95,3.18-1.91,4.53-.26.33-.46.56-.46.56-.9,1.03-1.47,2.3-1.67,3.65-.32,1.43-.17,2.93.44,4.26-1.39-1.06-2.72-2.11-4.01-3.15,1.28.12,2.75-1.63,3.37-4.09.38-1.31.37-2.7-.02-4.01,0,0-.09-.26-.18-.62-.34-1.65-.31-3.36.1-4.99l.21-.83c-.04.16-.08.3-.12.46.03-.15.07-.3.11-.46l-.21.83c-.41,1.61-1.18,3.1-2.23,4.38-.28.31-.51.52-.51.52-.97.96-1.63,2.18-1.92,3.52-.42,1.38-.38,2.87.11,4.23-1.39-1.15-2.72-2.28-3.99-3.4,1.29-.23,2.66-2.03,3.27-4.46.42-1.43.41-2.95-.02-4.38,0,0-.1-.29-.2-.68-.37-1.8-.34-3.66.11-5.44l.23-.9c-.04.17-.09.33-.13.5.04-.17.07-.33.12-.5l-.23.9c-.45,1.75-1.28,3.39-2.43,4.78-.31.34-.55.57-.55.57-1.05,1.05-1.78,2.38-2.1,3.84-.36,1.29-.39,2.66-.1,3.96-1.47-1.34-2.84-2.65-4.14-3.94.09.06.19.1.29.14,1.44.36,3.18-1.63,3.9-4.45.42-1.43.41-2.94-.01-4.37,0,0-.1-.29-.2-.68-.37-1.8-.34-3.66.11-5.44l.23-.9c-.04.17-.09.33-.14.5.04-.17.07-.33.12-.5l-.23.9c-.45,1.75-1.28,3.39-2.43,4.78-.31.34-.55.57-.55.57-1.05,1.05-1.78,2.38-2.1,3.84-.51,1.62-.41,3.36.29,4.91-1.61-1.61-3.08-3.17-4.44-4.66,1.42.42,3.3-1.44,4.23-4.2.53-1.41.64-2.95.32-4.42,0,0-.07-.3-.15-.71-.24-1.85-.05-3.73.54-5.49l.3-.89c-.06.17-.12.33-.18.49.05-.17.1-.33.16-.5l-.3.89c-.59,1.74-1.56,3.32-2.84,4.64-.34.32-.6.53-.6.53-1.15.98-1.99,2.27-2.42,3.72-.57,1.47-.66,3.09-.26,4.62-1.14-1.3-2.17-2.53-3.12-3.73.08.04.17.08.26.1,1.48.27,3.11-1.87,3.63-4.78.32-1.47.21-3.01-.33-4.42,0,0-.12-.29-.25-.68-.5-1.79-.6-3.68-.27-5.51l.17-.93c-.03.18-.07.34-.1.51.03-.17.05-.34.09-.51l-.17.93c-.33,1.8-1.06,3.51-2.13,5.01-.29.37-.52.61-.52.61-.99,1.14-1.64,2.54-1.85,4.03-.27,1.32-.21,2.68.16,3.98-1.3-1.69-2.41-3.24-3.35-4.64.14.08.29.14.45.17,1.44.26,3.02-1.82,3.53-4.65.31-1.44.2-2.93-.32-4.31,0,0-.12-.28-.24-.66-.49-1.74-.58-3.58-.27-5.36l.16-.9c-.03.17-.07.33-.1.5.02-.17.05-.32.08-.5l-.16.9c-.32,1.76-1.03,3.42-2.07,4.87-.28.36-.5.59-.5.59-.96,1.11-1.59,2.47-1.8,3.92-.24,1.21-.21,2.45.09,3.65-.98-1.56-1.73-2.85-2.27-3.87.14-.03.28-.07.41-.13,1.87-1.03,1.75-4.84-.26-8.51-.96-1.91-2.46-3.5-4.31-4.58,0,0-.38-.21-.87-.52-2.16-1.53-3.94-3.52-5.22-5.84L94.91,0c.12.22.23.44.34.66-.11-.19-.22-.37-.32-.56l.6,1.09c1.24,2.29,1.97,4.82,2.12,7.42.01.66-.03,1.14-.03,1.14-.08,2.14.46,4.26,1.56,6.09,1.81,3.31,4.54,5.35,6.44,4.98.49,1.15,1.03,2.3,1.61,3.43-.77-.99-1.76-1.79-2.89-2.34-1.28-.72-2.74-1.05-4.2-.95,0,0-.3.03-.7.04-1.81-.04-3.59-.49-5.2-1.32l-.81-.42c.16.08.3.16.45.24-.15-.07-.3-.14-.45-.22l.81.42c1.58.83,2.96,1.99,4.05,3.4.26.37.42.65.42.65.77,1.25,1.89,2.24,3.22,2.87,2.55,1.31,5.16,1.32,5.83.02.19-.43.2-.93.02-1.37.89,1.65,1.85,3.29,2.9,4.91-1.01-.71-2.16-1.18-3.38-1.39-1.43-.32-2.92-.23-4.3.28,0,0-.28.11-.66.23-1.75.47-3.58.55-5.36.21l-.9-.17c.17.03.33.07.5.1-.17-.03-.33-.05-.5-.08l.9.17c1.75.34,3.41,1.06,4.85,2.11.35.28.59.51.59.51,1.1.97,2.45,1.61,3.9,1.84,2.82.54,5.32-.2,5.59-1.64.01-.12.01-.24,0-.35.94,1.35,1.93,2.68,2.97,4-1.19-.62-2.53-.93-3.87-.9-1.47-.05-2.91.32-4.17,1.07,0,0-.25.16-.6.35-1.63.79-3.42,1.21-5.23,1.21h-.92c.18,0,.34,0,.51,0-.17,0-.33.01-.51.01h.92c1.79.01,3.55.41,5.16,1.18.4.21.67.39.67.39,1.26.75,2.71,1.13,4.17,1.08,2.87,0,5.2-1.18,5.19-2.65,0-.05-.01-.1-.03-.15,1.1,1.33,2.25,2.64,3.44,3.93-1.16-.37-2.4-.5-3.61-.36-1.5.09-2.94.62-4.14,1.51,0,0-.24.19-.58.42-1.58.97-3.36,1.57-5.2,1.75l-.93.09c.18-.02.35-.03.52-.04-.17.02-.34.04-.51.06l.93-.09c1.82-.17,3.65.06,5.37.68.43.17.72.33.72.33,1.36.64,2.87.88,4.36.68,2.78-.27,4.93-1.59,5-3,1.15,1.18,2.33,2.35,3.55,3.5-1.06-.23-2.16-.26-3.23-.09-1.49.16-2.91.75-4.07,1.7,0,0-.23.2-.56.44-1.53,1.04-3.28,1.72-5.12,1.99l-.93.13c.18-.03.34-.04.51-.07-.17.03-.33.06-.51.09l.93-.13c1.81-.25,3.65-.1,5.39.43.44.15.74.3.74.3,1.39.58,2.91.74,4.39.47,2.66-.38,4.69-1.71,4.85-3.06,1.41,1.27,2.85,2.51,4.32,3.74-1.31-.48-2.73-.57-4.09-.28-1.41.21-2.72.82-3.79,1.76,0,0-.21.2-.51.44-1.41,1.04-3.04,1.75-4.77,2.07l-.87.16c.17-.03.33-.05.49-.08-.16.03-.31.07-.48.1l.87-.16c1.7-.3,3.45-.23,5.12.21.42.13.71.25.71.25,1.33.5,2.78.6,4.16.29,2.73-.5,4.74-2.04,4.48-3.43-.03-.13-.08-.25-.15-.37,1.39,1.13,2.8,2.25,4.24,3.34-1.32-.35-2.72-.32-4.02.09-1.36.33-2.6,1.04-3.56,2.05,0,0-.19.21-.46.48-1.3,1.14-2.84,1.98-4.5,2.45l-.84.23c.16-.04.31-.08.47-.12-.15.05-.3.09-.46.14l.84-.23c1.64-.45,3.36-.53,5.04-.24.42.09.72.19.72.19,1.35.37,2.78.35,4.11-.08,2.63-.73,4.47-2.41,4.1-3.76-.03-.07-.06-.14-.1-.21,1.13.85,2.27,1.68,3.43,2.51-.72.03-1.43.17-2.11.4-1.14.35-2.16,1.01-2.94,1.93,0,0-.15.19-.37.43-1.05,1.04-2.32,1.83-3.72,2.31l-.71.24c.14-.05.26-.08.4-.13-.13.05-.25.09-.39.14l.71-.24c1.38-.46,2.84-.62,4.29-.45.36.06.62.13.62.13,1.17.25,2.38.16,3.5-.27,1.76-.6,3.04-1.68,3.3-2.67.92.82,1.9,1.66,2.91,2.5v13.12c-8.46-.76-17.97-2-31.27-4.1,1.14-1.2,1.31-4.02.28-6.97-.57-1.81-1.64-3.42-3.1-4.64,0,0-.3-.23-.69-.58-1.66-1.65-2.93-3.66-3.71-5.86l-.39-1.12c.08.22.14.42.2.63-.08-.2-.15-.4-.23-.62l.39,1.12c.75,2.18,1.02,4.5.78,6.8-.09.58-.19.99-.19.99-.38,1.86-.22,3.79.47,5.56.51,1.54,1.35,2.94,2.48,4.11-2.33-.39-4.57-.81-6.8-1.24,1.96-.77,2.65-4.46,1.51-8.46-.52-2.13-1.65-4.05-3.25-5.55,0,0-.33-.3-.75-.72-1.8-2.02-3.13-4.42-3.87-7.02l-.37-1.32c.07.25.13.49.19.73-.08-.24-.15-.47-.22-.73l.37,1.32c.72,2.57.86,5.26.42,7.89-.14.66-.29,1.13-.29,1.13-.57,2.12-.51,4.35.16,6.43.54,2.29,1.81,4.34,3.64,5.83-2.75-.55-5.42-1.13-8.01-1.73,1.93-.73,2.82-4.29,1.99-8.28-.37-2.16-1.36-4.16-2.84-5.77,0,0-.31-.32-.7-.78-1.65-2.14-2.8-4.63-3.36-7.27l-.28-1.34c.05.26.09.5.14.75-.06-.24-.12-.48-.17-.74l.28,1.34c.53,2.61.49,5.31-.14,7.9-.19.65-.37,1.1-.37,1.1-.72,2.07-.82,4.3-.3,6.43.37,2.29,1.47,4.4,3.13,6.02-2.82-.68-5.53-1.38-8.15-2.1,1.7-1.24,2.41-4.81,1.59-8.74-.41-2.35-1.49-4.54-3.11-6.3,0,0-.34-.35-.77-.84-1.81-2.33-3.06-5.05-3.67-7.93l-.3-1.46c.06.28.1.54.15.81-.06-.27-.13-.53-.19-.81l.3,1.46c.58,2.85.53,5.79-.15,8.62-.2.71-.4,1.2-.4,1.2-.78,2.26-.89,4.69-.32,7.01.39,2.12,1.3,4.11,2.64,5.79-3.07-.9-5.96-1.84-8.74-2.77.17.02.35.02.52,0,2.33-.49,3.45-4.59,2.49-9.17-.41-2.35-1.49-4.54-3.11-6.3,0,0-.34-.35-.77-.84-1.8-2.33-3.06-5.05-3.67-7.93l-.31-1.46c.06.28.1.54.15.81-.06-.27-.13-.53-.19-.81l.31,1.46c.58,2.85.53,5.79-.15,8.62-.2.71-.4,1.2-.4,1.2-.78,2.26-.89,4.69-.32,7.01.68,3.23,2.2,5.8,3.87,6.88-3.46-1.19-6.68-2.4-9.69-3.61,2.34-.4,3.75-4.4,3.15-9.04-.23-2.41-1.15-4.71-2.65-6.61,0,0-.32-.38-.71-.91-1.64-2.5-2.7-5.34-3.09-8.31l-.19-1.5c.04.29.06.56.09.83-.04-.28-.09-.54-.12-.83l.2,1.5c.36,2.92.08,5.89-.83,8.7-.26.7-.5,1.19-.5,1.19-.97,2.22-1.27,4.67-.88,7.06.22,2.53,1.22,4.92,2.88,6.85-2.57-1.08-4.91-2.14-7.13-3.19.15,0,.3-.01.44-.04,2.33-.65,3.17-4.88,1.88-9.45-.58-2.35-1.82-4.49-3.58-6.15,0,0-.37-.33-.83-.8-1.99-2.24-3.45-4.89-4.27-7.77l-.41-1.45c.08.28.14.54.22.81-.08-.27-.17-.52-.24-.8l.41,1.45c.79,2.84.94,5.82.45,8.72-.16.73-.32,1.25-.32,1.25-.63,2.34-.58,4.81.16,7.12.54,2.09,1.58,4.02,3.03,5.63-3.06-1.52-5.76-2.98-8.11-4.34.26.02.52,0,.77-.06,2.26-.64,3.07-4.75,1.82-9.18-.56-2.29-1.77-4.36-3.49-5.98,0,0-.36-.32-.81-.78-1.94-2.17-3.36-4.75-4.16-7.55l-.4-1.42c.07.27.14.53.21.79-.08-.26-.16-.51-.24-.78l.4,1.42c.77,2.76.92,5.66.44,8.48-.15.71-.31,1.21-.31,1.21-.61,2.27-.56,4.68.16,6.92.51,1.91,1.43,3.69,2.7,5.2-2.51-1.55-4.5-2.9-6-3.99.18-.14.35-.3.49-.47,1.98-2.8-.87-8.21-6.36-12.09-2.74-2.08-6.01-3.32-9.44-3.58,0,0-.7-.03-1.63-.14-2.01-.23-6.07-1.17-11.64-4.76L.03,21.23c.34.24.64.47.96.7-.33-.22-.65-.43-.99-.67h0s1.75,1.24,1.75,1.24c5.08,3.93,7.34,7.36,8.28,9.22.48.94.76,1.66.76,1.66,1.39,3.14,3.66,5.82,6.53,7.7,4.95,3.5,10.32,4.52,12.79,2.66,1.52,1.32,3.1,2.59,4.73,3.82-1.81-.88-3.8-1.35-5.82-1.35-2.35-.13-4.69.41-6.74,1.58,0,0-.41.25-.98.54-2.64,1.21-5.53,1.81-8.44,1.76l-1.47-.03c.28,0,.54.02.81.04-.27,0-.53,0-.81,0l1.47.03c2.86.08,5.68.78,8.24,2.07.63.35,1.07.65,1.07.65,1.99,1.25,4.31,1.9,6.66,1.88,4.61.1,8.38-1.72,8.43-4.07-.03-.76-.37-1.48-.94-1.98,2.44,1.77,4.99,3.45,7.64,5.04-1.95-.31-3.95-.18-5.85.37-2.29.54-4.38,1.73-6.01,3.43,0,0-.32.36-.79.8-2.19,1.91-4.78,3.31-7.59,4.08l-1.42.39c.27-.07.53-.13.79-.2-.26.07-.51.16-.78.23l1.42-.39c2.77-.74,5.67-.86,8.49-.36.71.16,1.21.32,1.21.32,2.27.64,4.67.6,6.92-.09,4.45-1.21,7.55-4.03,6.93-6.3-.06-.18-.14-.35-.25-.5,2.3,1.29,4.67,2.52,7.1,3.69-2.16-.06-4.3.43-6.22,1.42-2.15.96-3.98,2.52-5.27,4.49,0,0-.25.41-.62.93-1.8,2.29-4.09,4.14-6.7,5.42l-1.32.64c.25-.12.49-.23.74-.34-.24.13-.47.25-.73.37l1.32-.64c2.58-1.24,5.41-1.9,8.27-1.93.73.02,1.25.09,1.25.09,2.35.2,4.7-.28,6.79-1.38,4.14-2.02,6.67-5.37,5.64-7.48-.05-.07-.1-.13-.15-.19,2.52,1.14,5.1,2.23,7.73,3.25-1.94.28-3.81.97-5.46,2.02-2.1,1.19-3.8,2.96-4.91,5.09,0,0-.21.44-.54,1.01-1.6,2.51-3.74,4.62-6.27,6.19l-1.28.79c.25-.15.48-.28.72-.43-.23.15-.46.3-.7.45l1.28-.79c2.5-1.52,5.31-2.48,8.22-2.8.74-.05,1.28-.03,1.28-.03,2.41-.03,4.75-.75,6.76-2.08,3.82-2.35,6-5.77,5.11-7.86,2.49.9,5.02,1.75,7.59,2.56-1.69.42-3.3,1.15-4.73,2.14-2.04,1.28-3.66,3.13-4.68,5.31,0,0-.19.45-.49,1.03-1.48,2.58-3.53,4.79-5.99,6.47l-1.24.85c.24-.16.47-.3.7-.46-.22.16-.44.32-.68.48l1.24-.85c2.43-1.63,5.19-2.71,8.09-3.17.74-.08,1.28-.09,1.28-.09,2.4-.14,4.71-.96,6.65-2.38,3.57-2.42,5.57-5.76,4.85-7.84,2.92.84,5.87,1.62,8.86,2.35-2.23.24-4.34,1.1-6.1,2.49-1.88,1.29-3.35,3.09-4.23,5.2,0,0-.16.44-.43,1-1.31,2.49-3.16,4.66-5.42,6.34l-1.15.85c.22-.16.43-.31.65-.46-.21.16-.41.32-.63.48l1.15-.85c2.24-1.64,4.81-2.76,7.53-3.3.69-.11,1.2-.13,1.2-.13,2.27-.22,4.43-1.09,6.21-2.51,3.59-2.65,5.4-6.28,4.05-8.11-.13-.17-.29-.31-.47-.43,2.8.66,5.63,1.27,8.47,1.84-2.15.43-4.15,1.46-5.75,2.97-1.73,1.43-3.02,3.33-3.7,5.47,0,0-.12.44-.33,1.02-1.07,2.56-2.7,4.85-4.78,6.7l-1.05.93c.2-.18.4-.34.59-.5-.19.17-.37.35-.57.53l1.05-.93c2.06-1.8,4.48-3.13,7.11-3.89.67-.16,1.17-.23,1.17-.23,2.21-.41,4.25-1.46,5.88-3,3.29-2.91,4.76-6.63,3.27-8.31-.09-.09-.19-.16-.3-.23,2.23.43,4.47.83,6.71,1.21-1.01.55-1.94,1.24-2.76,2.06-1.41,1.3-2.41,2.99-2.88,4.85,0,0-.08.38-.23.88-.78,2.24-2.06,4.27-3.74,5.94l-.85.84c.16-.16.32-.31.48-.46-.15.16-.3.31-.46.48l.85-.84c1.66-1.64,3.66-2.89,5.86-3.67.57-.17.99-.26.99-.26,1.86-.46,3.55-1.45,4.87-2.85,2.12-2.1,3.2-4.57,2.89-6.18,7.66,2.17,16.55,4.07,25.53,5.49.73.75,1.29,1.65,1.63,2.64.07.23.11.41.11.41.22.86.68,1.64,1.33,2.24.38.38.81.7,1.28.95-1.04.17-2.07.36-3.1.56.05-.03.1-.07.14-.11.69-.78,0-2.49-1.51-3.84-.75-.71-1.7-1.19-2.72-1.39,0,0-.23-.03-.54-.11-1.21-.35-2.33-.97-3.28-1.8l-.49-.43c.09.08.18.16.26.24-.09-.08-.18-.15-.27-.23l.49.43c.96.85,1.71,1.91,2.2,3.09.09.27.15.47.15.47.7,1.96,2.34,3.43,4.36,3.9-1.31.26-2.62.55-3.91.85.08-.05.15-.12.22-.2.62-.84-.21-2.52-1.87-3.75-.82-.65-1.82-1.06-2.87-1.16,0,0-.23-.01-.56-.06-1.26-.25-2.45-.77-3.48-1.52l-.53-.39c.1.08.19.15.29.22-.1-.07-.2-.14-.3-.21l.53.39c1.04.78,1.9,1.78,2.51,2.93.12.26.2.46.2.46.88,1.92,2.68,3.26,4.77,3.55-1.38.34-2.75.7-4.09,1.09.33-.96-.59-2.5-2.24-3.62-.9-.66-1.97-1.04-3.08-1.1,0,0-.25,0-.59-.04-1.34-.21-2.61-.71-3.74-1.46l-.57-.39c.11.08.21.15.31.22-.11-.07-.22-.14-.32-.21l.57.39c1.14.77,2.08,1.8,2.77,2.99.14.27.23.48.23.48.47,1.01,1.22,1.86,2.16,2.45.66.46,1.4.79,2.18.99-1.19.37-2.36.77-3.51,1.18.41-.97-.59-2.54-2.36-3.63-.93-.61-2.01-.95-3.12-.96,0,0-.25,0-.59-.02-1.35-.15-2.64-.59-3.8-1.29l-.59-.36c.11.07.22.14.32.21-.11-.06-.22-.13-.33-.2l.59.36c1.17.72,2.16,1.7,2.9,2.86.15.26.25.47.25.47.51.99,1.3,1.8,2.27,2.35.77.49,1.63.81,2.52.93-1.22.48-2.41.98-3.57,1.5.02-.03.05-.06.07-.09.47-.97-.7-2.52-2.61-3.45-.96-.51-2.05-.73-3.13-.64,0,0-.24.03-.58.04-1.32-.02-2.63-.32-3.82-.89l-.61-.3c.12.06.23.11.34.17-.11-.05-.23-.1-.34-.16l.61.3c1.21.59,2.26,1.45,3.09,2.5.17.24.29.43.29.43.59.91,1.44,1.63,2.43,2.07.89.46,1.88.69,2.87.66-1.12.54-2.22,1.11-3.28,1.7.05-.07.09-.15.12-.23.28-1.05-1.15-2.35-3.2-2.91-1.04-.32-2.15-.34-3.2-.04,0,0-.23.08-.56.15-1.3.23-2.64.17-3.92-.17l-.66-.18c.12.03.24.07.36.11-.12-.03-.24-.06-.36-.09l.66.18c1.3.36,2.49,1,3.51,1.88.21.21.36.37.36.37.75.78,1.72,1.33,2.78,1.58.88.26,1.8.31,2.7.17-1.23.73-2.4,1.51-3.53,2.33.26-.23.42-.56.43-.92-.02-1.08-1.77-1.93-3.9-1.88-1.09-.01-2.16.29-3.08.87,0,0-.2.14-.49.3-1.18.59-2.48.92-3.81.95l-.68.02c.13,0,.25,0,.38,0-.13,0-.25.01-.38.02l.68-.02c1.34-.03,2.68.25,3.9.81.26.14.45.25.45.25.95.54,2.03.79,3.11.73.93,0,1.85-.22,2.69-.62-.75.57-1.48,1.15-2.18,1.76-1.14-.86-3.62-.39-5.91,1.23-1.33.87-2.37,2.11-3.02,3.56,0,0-.13.33-.35.77-.95,1.68-2.26,3.13-3.83,4.26l-.69.49c.11-.08.22-.15.34-.23-.15.11-.29.22-.44.33l.81-.57c1.6-1.13,3.44-1.88,5.37-2.2.43-.05.75-.06.75-.06,1.58-.12,3.1-.69,4.36-1.66,2.53-1.79,3.85-4.29,2.94-5.59-.07-.08-.14-.15-.22-.22.69-.5,1.61-1.13,2.77-1.84-.59.7-1.01,1.52-1.25,2.4-.33,1.04-.36,2.15-.08,3.2,0,0,.07.23.14.56.22,1.31.15,2.64-.21,3.92l-.19.65c.04-.13.07-.24.11-.36-.03.12-.06.24-.1.37l.18-.65c.37-1.29,1.03-2.48,1.92-3.48.21-.21.37-.36.37-.36.79-.75,1.35-1.71,1.61-2.76.58-2.05.2-3.95-.84-4.24-.12-.03-.24-.04-.36-.03,1.08-.63,2.33-1.3,3.74-2-.67.74-1.15,1.63-1.4,2.6-.34,1.07-.37,2.21-.07,3.29,0,0,.08.24.15.58.23,1.34.15,2.72-.21,4.03l-.19.67c.04-.13.08-.25.11-.37-.03.12-.06.24-.1.37l.19-.67c.38-1.33,1.05-2.56,1.97-3.59.21-.22.38-.37.38-.37.81-.77,1.39-1.75,1.65-2.84.59-2.1.21-4.06-.87-4.36-.07-.01-.13-.02-.2-.02,1.03-.48,2.11-.98,3.29-1.47-.76.89-1.23,2-1.33,3.16-.18,1.1-.05,2.23.4,3.26,0,0,.11.22.23.55.42,1.3.55,2.67.38,4.02l-.09.69c.02-.13.04-.26.06-.38-.01.13-.02.25-.04.39l.09-.69c.18-1.37.67-2.69,1.43-3.84.18-.25.33-.42.33-.42.69-.88,1.12-1.94,1.22-3.05.28-2.14-.37-3.98-1.45-4.17,1.39-.56,2.88-1.12,4.47-1.67-.97.8-1.6,1.93-1.79,3.18-.26,1.07-.21,2.2.15,3.24,0,0,.09.23.18.56.31,1.31.34,2.66.07,3.98l-.14.67c.03-.13.06-.25.09-.37-.02.12-.04.25-.07.38l.14-.67c.28-1.33.86-2.59,1.7-3.67.2-.23.35-.39.35-.39.75-.81,1.24-1.82,1.43-2.91.44-2.11-.07-4.01-1.15-4.23-.08-.01-.16-.01-.24,0,1.29-.43,2.62-.86,4.04-1.28-.62.78-1.04,1.7-1.22,2.68-.26,1.07-.21,2.2.15,3.24,0,0,.09.23.18.56.31,1.31.34,2.66.07,3.98l-.14.67c.03-.13.06-.25.09-.37-.02.12-.04.25-.07.38l.14-.67c.28-1.33.86-2.59,1.7-3.67.2-.23.35-.39.35-.39.75-.81,1.25-1.82,1.44-2.9.38-1.81.05-3.46-.73-4.04,1.21-.33,2.46-.66,3.76-.97-.77.75-1.28,1.72-1.45,2.78-.24.98-.19,2.01.14,2.97,0,0,.08.21.17.51.29,1.2.31,2.44.06,3.65l-.13.62c.02-.12.05-.23.08-.34-.02.11-.04.22-.06.34l.13-.62c.26-1.22.79-2.37,1.56-3.36.18-.21.32-.36.32-.36.69-.74,1.14-1.67,1.32-2.67.38-1.84-.03-3.49-.92-3.83,1.2-.28,2.43-.54,3.7-.8-.84.69-1.43,1.63-1.68,2.69-.31.96-.33,1.99-.07,2.97,0,0,.07.22.13.52.2,1.21.14,2.46-.2,3.64l-.17.61c.03-.12.07-.22.1-.33-.03.11-.06.22-.09.34l.17-.61c.34-1.2.96-2.31,1.79-3.24.19-.2.35-.34.35-.34.74-.69,1.26-1.58,1.5-2.57.53-1.85.21-3.55-.7-3.91,1.03-.2,2.06-.39,3.14-.57-.52.54-.91,1.18-1.15,1.89-.32.82-.39,1.71-.22,2.57,0,0,.05.19.09.46.11,1.06-.01,2.13-.36,3.14l-.18.52c.03-.1.07-.19.11-.28-.03.1-.06.19-.09.29l.18-.52c.36-1.02.95-1.95,1.72-2.71.18-.16.32-.27.32-.27.67-.56,1.17-1.3,1.44-2.14.48-1.36.4-2.67-.13-3.22,7.91-1.39,15.91-2.2,23.93-2.44-3.73,2.14-7.82,5.09-10.83,7.78-.3-.62-.86-1.07-1.53-1.23-.52-.2-1.08-.24-1.62-.12,0,0-.12.03-.29.06-.67.08-1.34,0-1.98-.21l-.33-.11c.06.02.12.04.18.07-.06-.02-.12-.04-.18-.06l.33.11c.65.22,1.23.59,1.72,1.07.1.11.17.2.17.2.36.42.83.73,1.36.89.31.11.64.17.97.18-.53.38-1.06.77-1.58,1.16.02-.03.03-.06.05-.1.17-.62-.68-1.4-1.89-1.74-.62-.2-1.28-.21-1.91-.04,0,0-.14.05-.33.09-.77.13-1.57.1-2.33-.11l-.39-.11c.07.02.14.04.21.06-.07-.02-.14-.03-.22-.06l.39.11c.77.22,1.48.6,2.08,1.13.13.12.21.22.21.22.92.91,2.25,1.28,3.51.99-.66.51-1.32,1.02-1.96,1.54.03-.05.05-.11.07-.17.12-.64-.81-1.35-2.07-1.59-.64-.14-1.31-.09-1.92.14,0,0-.13.05-.33.12-.77.2-1.58.24-2.36.1l-.4-.08c.08.02.15.03.22.05-.07-.01-.15-.02-.22-.04l.4.08c.8.15,1.55.48,2.2.96.14.11.24.21.24.21,1.02.83,2.39,1.09,3.64.69-.68.57-1.35,1.14-2,1.73-.08-.63-1.02-1.24-2.24-1.42-.68-.12-1.38-.04-2.02.22,0,0-.14.07-.34.14-.81.25-1.66.32-2.49.2l-.43-.06c.08.02.16.03.24.04-.08-.01-.16-.02-.24-.03l.43.06c.85.12,1.65.44,2.36.92.15.11.26.21.26.21.54.44,1.19.71,1.89.79.5.08,1,.06,1.49-.04-.56.53-1.11,1.07-1.64,1.62-.03-.65-1.02-1.26-2.31-1.39-.69-.09-1.39.02-2.01.31,0,0-.14.07-.33.15-.79.28-1.64.39-2.48.31l-.43-.04c.08,0,.16.02.24.03-.08,0-.16-.01-.24-.02l.43.04c.85.09,1.67.36,2.4.81.16.11.27.19.27.19.56.4,1.22.64,1.9.68.56.06,1.13,0,1.67-.16-.55.6-1.08,1.2-1.59,1.82,0-.02.01-.05.01-.07,0-.68-1.08-1.23-2.4-1.22-.68-.02-1.35.15-1.93.5,0,0-.13.08-.31.18-.74.35-1.56.54-2.38.54h-.42c.08,0,.16,0,.24,0-.08,0-.15,0-.23,0h.42c.84,0,1.66.19,2.42.56.16.09.28.16.28.16.58.35,1.25.52,1.93.5.62.02,1.24-.13,1.79-.41-.48.61-.94,1.22-1.37,1.85,0-.05,0-.11,0-.16-.13-.66-1.28-1-2.59-.75-.67.1-1.3.4-1.8.85,0,0-.11.11-.27.24-.67.49-1.43.82-2.24.98l-.42.08c.08-.01.15-.03.23-.04-.08.02-.15.03-.23.05l.42-.08c.82-.15,1.67-.12,2.48.1.18.06.3.11.3.11.64.23,1.33.28,1.99.13.56-.1,1.09-.32,1.56-.64-.49.74-.93,1.5-1.34,2.27.08-.2.08-.43,0-.63-.31-.6-1.51-.6-2.69.01-.61.29-1.13.75-1.49,1.32,0,0-.07.13-.19.3-.5.65-1.14,1.19-1.87,1.57l-.38.19c.07-.04.14-.07.21-.1-.07.04-.13.08-.21.11l.38-.19c.75-.38,1.57-.59,2.41-.61.18,0,.32.02.32.02.68.04,1.35-.11,1.94-.44.52-.26.97-.62,1.33-1.08-.27.52-.52,1.05-.74,1.58-.87-.17-2.14.77-2.97,2.3-.5.85-.75,1.83-.72,2.81,0,0,.02.22.01.53-.07,1.2-.41,2.37-.98,3.43l-.3.54h0c.05-.11.11-.2.17-.3-.05.1-.11.2-.16.31l.3-.54c.59-1.07,1.41-1.99,2.41-2.7.23-.15.4-.24.4-.24.85-.5,1.54-1.23,1.99-2.12.93-1.69.99-3.45.12-3.93-.06-.03-.12-.05-.19-.06.25-.47.59-1.07,1.05-1.79-.14.55-.15,1.13-.04,1.69.1.67.38,1.3.83,1.81,0,0,.1.11.23.27.48.67.8,1.44.95,2.25l.08.42c-.01-.08-.03-.16-.04-.23.02.08.03.15.05.23l-.08-.42c-.14-.82-.1-1.67.13-2.47.06-.18.11-.3.11-.3.24-.63.29-1.32.15-1.99-.24-1.3-.96-2.27-1.63-2.15-.07.01-.14.04-.21.08.43-.65.95-1.37,1.55-2.15-.17.6-.2,1.23-.07,1.84.1.69.4,1.34.86,1.86,0,0,.11.11.24.28.49.69.83,1.48.98,2.31l.08.42c-.02-.08-.03-.16-.04-.24.02.08.03.15.05.24l-.07-.43c-.15-.85-.11-1.72.12-2.55.06-.18.12-.31.12-.31.25-.65.3-1.36.15-2.04-.24-1.34-.99-2.33-1.68-2.21-.04.01-.08.03-.12.05.44-.55.91-1.13,1.44-1.73-.18.71-.14,1.45.12,2.13.2.67.59,1.26,1.12,1.72,0,0,.12.1.28.24.59.61,1.04,1.34,1.31,2.14l.14.41c-.03-.08-.05-.15-.07-.23.03.08.05.15.08.23l-.14-.41c-.27-.82-.36-1.69-.25-2.54.04-.19.07-.33.07-.33.15-.68.1-1.39-.15-2.04-.43-1.28-1.3-2.13-1.95-1.94.63-.69,1.31-1.41,2.05-2.15-.32.71-.37,1.52-.13,2.27.14.67.48,1.29.97,1.78,0,0,.11.1.26.26.53.65.92,1.4,1.12,2.21l.1.42c-.02-.08-.04-.16-.05-.23.02.08.04.15.06.23l-.1-.42c-.21-.82-.22-1.68-.05-2.51.05-.18.09-.31.09-.31.2-.66.2-1.36,0-2.02-.33-1.31-1.14-2.23-1.8-2.06-.05.02-.09.04-.14.07.6-.59,1.23-1.2,1.91-1.82-.14.6-.12,1.23.05,1.83.15.67.48,1.28.97,1.77,0,0,.11.1.26.26.53.65.92,1.4,1.12,2.21l.11.42c-.02-.08-.04-.16-.05-.23.02.08.04.15.06.23l-.11-.42c-.21-.82-.22-1.68-.05-2.51.05-.18.09-.31.09-.31.2-.66.2-1.36,0-2.02-.12-.9-.69-1.68-1.51-2.06.59-.52,1.2-1.04,1.84-1.57-.23.63-.24,1.31-.05,1.95.13.62.44,1.18.89,1.63,0,0,.1.09.23.24.49.59.84,1.28,1.03,2.03l.1.38c-.02-.07-.03-.14-.05-.21.02.07.04.14.06.21l-.1-.38c-.19-.75-.2-1.54-.05-2.3.04-.17.08-.29.08-.29.18-.6.18-1.25,0-1.85-.29-1.14-.97-1.94-1.56-1.89.6-.48,1.21-.97,1.85-1.46-.29.62-.36,1.31-.21,1.97.09.62.36,1.21.77,1.68,0,0,.1.1.22.26.44.62.75,1.34.88,2.09l.07.39c-.01-.07-.02-.14-.03-.21.01.07.03.14.04.21l-.07-.39c-.13-.77-.09-1.55.12-2.3.06-.17.1-.28.1-.28.22-.59.27-1.23.14-1.85-.21-1.18-.85-2.05-1.46-2,.52-.39,1.05-.78,1.6-1.18-.14.44-.19.91-.12,1.37.05.54.25,1.06.58,1.5,0,0,.08.09.17.23.35.56.58,1.2.66,1.86l.04.34c0-.07-.01-.13-.02-.19,0,.06.02.12.03.19l-.04-.35c-.08-.67,0-1.35.22-1.99.06-.14.1-.24.1-.24.22-.5.3-1.05.22-1.59,0-.71-.36-1.37-.95-1.77,4.38-3.17,9-5.98,13.82-8.44.05,0,.09,0,.14,0,4.82,2.46,9.45,5.27,13.83,8.44-.59.4-.94,1.06-.95,1.77-.08.54,0,1.09.22,1.59,0,0,.05.1.1.24.22.64.3,1.32.22,1.99l-.04.34c0-.06.02-.13.03-.19,0,.06-.01.12-.02.19l.04-.34c.08-.66.3-1.29.66-1.86.09-.14.17-.23.17-.23.33-.43.54-.95.58-1.5.06-.46.02-.93-.12-1.37.55.4,1.08.79,1.6,1.18-.6-.05-1.25.82-1.46,2-.13.62-.08,1.26.14,1.85,0,0,.05.12.1.28.21.75.25,1.54.12,2.3l-.07.39c.01-.07.03-.14.04-.21-.01.07-.02.14-.03.21l.07-.39c.14-.75.44-1.47.88-2.09.12-.15.22-.26.22-.26.41-.48.68-1.06.77-1.68.15-.66.08-1.35-.2-1.97.64.49,1.26.97,1.85,1.46-.59-.05-1.27.75-1.56,1.89-.18.61-.17,1.25,0,1.85,0,0,.04.12.08.29.16.76.14,1.55-.05,2.3l-.1.38c.02-.07.04-.14.06-.21-.02.07-.03.14-.05.21l.1-.38c.19-.74.54-1.43,1.03-2.03.13-.14.23-.24.23-.24.45-.44.75-1.01.89-1.63.19-.64.17-1.32-.05-1.95.64.53,1.26,1.05,1.84,1.57-.82.38-1.4,1.16-1.51,2.06-.19.66-.19,1.36,0,2.02,0,0,.05.13.09.31.17.83.16,1.69-.05,2.51l-.11.42c.02-.08.04-.15.06-.23-.02.08-.03.15-.05.23l.11-.42c.21-.81.59-1.56,1.12-2.21.14-.16.26-.26.26-.26.49-.49.82-1.1.96-1.77.17-.6.18-1.23.05-1.83.68.62,1.31,1.23,1.91,1.82-.04-.03-.09-.05-.14-.07-.67-.17-1.47.75-1.8,2.06-.19.66-.19,1.36,0,2.02,0,0,.05.13.09.31.17.83.16,1.69-.05,2.51l-.1.42c.02-.08.04-.15.06-.23-.02.08-.03.15-.05.23l.1-.42c.21-.81.59-1.56,1.12-2.21.14-.16.26-.26.26-.26.49-.49.82-1.1.97-1.77.24-.75.19-1.55-.13-2.27.74.74,1.42,1.46,2.05,2.15-.66-.19-1.52.67-1.95,1.94-.25.65-.3,1.36-.15,2.04,0,0,.03.14.07.33.11.85.03,1.72-.25,2.53l-.14.41c.03-.08.05-.15.08-.23-.02.08-.05.15-.07.23l.14-.41c.27-.8.72-1.53,1.31-2.14.16-.15.28-.24.28-.24.53-.45.92-1.05,1.12-1.72.26-.68.3-1.43.12-2.13.53.6,1,1.17,1.44,1.73-.04-.02-.08-.03-.12-.05-.68-.12-1.43.86-1.68,2.21-.15.68-.1,1.39.15,2.04,0,0,.05.13.12.31.23.83.27,1.7.12,2.55l-.07.43c.02-.08.03-.16.05-.24-.01.08-.02.16-.04.24l.08-.42c.15-.83.49-1.62.98-2.31.13-.17.24-.28.24-.28.46-.53.76-1.17.86-1.86.12-.61.1-1.24-.07-1.84.6.78,1.11,1.5,1.55,2.15-.06-.04-.13-.07-.21-.08-.66-.12-1.39.84-1.63,2.15-.14.66-.09,1.35.15,1.99,0,0,.05.13.11.3.23.81.27,1.65.12,2.48l-.08.42c.01-.08.03-.15.05-.23-.01.08-.02.15-.04.23l.08-.41c.15-.81.48-1.58.95-2.25.13-.16.23-.27.23-.27.45-.51.73-1.14.83-1.81.11-.56.1-1.13-.04-1.69.45.72.8,1.32,1.05,1.79-.06.01-.13.03-.19.06-.86.48-.81,2.24.12,3.93.45.88,1.14,1.62,1.99,2.12,0,0,.18.1.4.24,1,.71,1.82,1.63,2.41,2.7l.3.54c-.05-.1-.11-.2-.16-.31.06.1.12.19.17.3h0s-.3-.54-.3-.54c-.57-1.06-.91-2.23-.98-3.43,0-.31.01-.53.01-.53.04-.99-.21-1.97-.72-2.81-.84-1.53-2.1-2.47-2.97-2.3-.23-.53-.47-1.06-.74-1.58.36.46.81.82,1.33,1.08.59.33,1.27.48,1.94.44,0,0,.14-.01.32-.02.84.02,1.66.23,2.4.61l.38.19c-.07-.04-.14-.07-.21-.11.07.03.14.07.21.1l-.38-.19c-.73-.38-1.37-.92-1.87-1.57-.12-.17-.19-.3-.19-.3-.36-.58-.87-1.04-1.49-1.32-1.18-.61-2.39-.61-2.69-.01-.09.2-.09.43,0,.63-.41-.77-.86-1.52-1.34-2.27.47.33,1,.55,1.56.64.66.15,1.35.1,1.99-.13,0,0,.13-.05.3-.11.81-.22,1.66-.25,2.48-.1l.42.08c-.08-.01-.15-.03-.23-.05.08.01.15.02.23.04l-.42-.08c-.81-.16-1.57-.49-2.24-.98-.16-.13-.27-.24-.27-.24-.51-.45-1.13-.74-1.8-.85-1.3-.25-2.46.09-2.59.75,0,.05,0,.11,0,.16-.43-.62-.89-1.24-1.37-1.85.55.29,1.17.43,1.79.41.68.02,1.35-.15,1.93-.5,0,0,.12-.07.28-.16.75-.36,1.58-.55,2.42-.56h.42c-.08,0-.16,0-.23,0,.08,0,.15,0,.24,0h-.42c-.82,0-1.64-.19-2.38-.55-.19-.1-.31-.18-.31-.18-.58-.35-1.25-.52-1.93-.5-1.32,0-2.4.55-2.4,1.22,0,.02,0,.05.01.07-.51-.61-1.04-1.22-1.59-1.82.54.17,1.11.23,1.67.16.69-.04,1.36-.29,1.91-.7,0,0,.11-.09.27-.19.73-.45,1.55-.72,2.4-.81l.43-.04c-.08,0-.16.02-.24.02.08,0,.16-.02.24-.03l-.43.04c-.84.08-1.69-.03-2.48-.31-.2-.08-.33-.15-.33-.15-.63-.3-1.32-.4-2.01-.31-1.29.13-2.28.74-2.31,1.39-.53-.55-1.08-1.09-1.64-1.62.49.1,1,.12,1.49.04.69-.07,1.34-.34,1.88-.78,0,0,.11-.09.26-.21.71-.48,1.52-.79,2.36-.92l.43-.06c-.08.01-.16.02-.24.03.08-.01.15-.02.24-.04l-.43.06c-.84.12-1.69.05-2.5-.2-.2-.07-.34-.14-.34-.14-.64-.27-1.34-.34-2.02-.22-1.23.18-2.17.79-2.24,1.42-.65-.58-1.32-1.16-2-1.73.61.22,1.26.26,1.89.12.65-.1,1.26-.38,1.75-.81,0,0,.1-.09.24-.21.65-.48,1.4-.81,2.2-.95l.4-.08c-.08.01-.15.02-.22.04.07-.02.14-.03.22-.05l-.4.08c-.78.14-1.59.11-2.36-.1-.2-.06-.33-.12-.33-.12-.61-.23-1.28-.28-1.92-.14-1.26.23-2.19.94-2.07,1.59.01.06.04.12.07.17-.64-.52-1.29-1.04-1.96-1.54.61.16,1.26.14,1.86-.04.63-.15,1.2-.48,1.65-.95,0,0,.09-.1.21-.22.6-.53,1.31-.91,2.07-1.13l.39-.11c-.07.02-.14.04-.22.06.07-.02.14-.04.21-.06l-.39.11c-.76.21-1.55.24-2.33.11-.19-.04-.33-.09-.33-.09-.62-.17-1.29-.16-1.9.04-1.22.34-2.07,1.12-1.89,1.74.01.03.03.07.05.1-.52-.39-1.05-.78-1.58-1.16.33-.01.66-.08.97-.18.53-.16,1-.47,1.36-.89,0,0,.07-.09.17-.2.49-.48,1.07-.84,1.72-1.06l.33-.11c-.06.02-.12.04-.18.06.06-.02.12-.04.18-.07l-.33.11c-.64.21-1.31.28-1.98.21-.17-.03-.29-.06-.29-.06-.54-.12-1.1-.07-1.62.12-.67.16-1.23.61-1.53,1.23-3.01-2.68-7.09-5.63-10.81-7.77,8.01.25,16,1.06,23.91,2.44-.53.55-.61,1.86-.13,3.22.26.84.76,1.58,1.43,2.14,0,0,.14.11.32.27.77.76,1.36,1.69,1.72,2.71l.18.52c-.03-.1-.06-.19-.09-.29.04.09.07.19.11.28l-.18-.52c-.35-1.01-.47-2.08-.36-3.14.04-.27.09-.46.09-.46.18-.86.1-1.75-.22-2.57-.23-.71-.63-1.36-1.14-1.9,1.07.18,2.11.38,3.14.57-.91.35-1.22,2.06-.7,3.91.24.98.76,1.87,1.5,2.57,0,0,.15.14.35.34.83.93,1.44,2.04,1.79,3.24l.17.61c-.03-.12-.06-.23-.09-.34.03.11.07.22.1.33l-.17-.61c-.33-1.19-.4-2.43-.2-3.64.06-.31.13-.52.13-.52.26-.98.24-2.01-.07-2.97-.25-1.06-.84-2-1.68-2.69,1.27.26,2.5.52,3.7.8-.89.34-1.3,1.98-.92,3.83.17,1,.63,1.92,1.32,2.67,0,0,.14.15.32.36.77.99,1.3,2.14,1.56,3.36l.13.62c-.02-.12-.04-.23-.06-.34.03.11.05.22.08.34l-.13-.62c-.25-1.21-.22-2.45.06-3.65.09-.3.17-.51.17-.51.33-.96.38-1.99.14-2.97-.17-1.06-.68-2.03-1.45-2.78,1.3.31,2.56.64,3.76.97-.78.57-1.11,2.22-.73,4.04.19,1.09.69,2.09,1.44,2.9,0,0,.16.16.35.39.83,1.08,1.41,2.33,1.7,3.67l.14.67c-.03-.13-.05-.25-.07-.38.03.12.06.24.09.37l-.14-.67c-.27-1.32-.24-2.67.07-3.98.09-.33.18-.56.18-.56.36-1.04.41-2.17.15-3.24-.18-.98-.6-1.9-1.22-2.68,1.42.42,2.75.85,4.04,1.28-.08,0-.16,0-.24,0-1.08.23-1.59,2.12-1.15,4.23.19,1.09.68,2.1,1.43,2.91,0,0,.16.16.35.39.83,1.08,1.41,2.33,1.7,3.67l.14.67c-.03-.13-.05-.25-.07-.38.03.12.06.24.09.37l-.14-.67c-.27-1.32-.24-2.67.07-3.98.09-.33.18-.56.18-.56.36-1.04.41-2.17.15-3.24-.18-1.24-.82-2.38-1.79-3.18,1.6.55,3.08,1.11,4.47,1.67-1.08.19-1.73,2.03-1.45,4.17.1,1.11.53,2.17,1.22,3.05,0,0,.15.17.33.42.76,1.16,1.25,2.47,1.43,3.84l.09.69c-.02-.13-.03-.26-.04-.39.02.13.04.25.06.38l-.09-.69c-.17-1.35-.04-2.72.38-4.02.12-.32.23-.55.23-.55.45-1.03.59-2.16.4-3.26-.1-1.17-.57-2.27-1.33-3.16,1.19.5,2.27.99,3.29,1.47-.07,0-.14,0-.2.02-1.07.3-1.46,2.26-.87,4.36.27,1.09.84,2.07,1.65,2.84,0,0,.17.15.38.37.92,1.03,1.59,2.26,1.97,3.59l.19.67c-.04-.13-.07-.25-.1-.37.04.12.08.24.11.37l-.19-.67c-.36-1.31-.43-2.69-.21-4.03.07-.34.15-.58.15-.58.29-1.08.27-2.22-.07-3.29-.25-.97-.73-1.86-1.4-2.6,1.42.7,2.66,1.38,3.74,2-.12-.01-.24,0-.36.03-1.04.29-1.42,2.19-.84,4.24.26,1.06.82,2.02,1.61,2.76,0,0,.17.15.37.36.89,1,1.55,2.2,1.92,3.49l.19.65c-.04-.13-.06-.24-.1-.37.04.12.08.24.11.36l-.19-.65c-.35-1.28-.42-2.61-.21-3.92.07-.33.14-.56.14-.56.28-1.05.26-2.16-.08-3.2-.23-.88-.66-1.7-1.25-2.4,1.16.71,2.08,1.34,2.77,1.84-.08.06-.16.14-.22.22-.91,1.29.4,3.79,2.94,5.59,1.26.96,2.78,1.54,4.36,1.66,0,0,.32.01.75.06,1.93.32,3.77,1.07,5.37,2.2l.81.57c-.16-.11-.3-.22-.44-.33.15.1.3.2.46.31h0s-.81-.58-.81-.58c-1.57-1.12-2.88-2.58-3.83-4.26-.22-.44-.35-.77-.35-.77-.64-1.45-1.69-2.69-3.02-3.56-2.28-1.61-4.77-2.09-5.91-1.23-.7-.61-1.43-1.2-2.18-1.76.84.41,1.76.62,2.69.62,1.09.06,2.17-.19,3.11-.73,0,0,.19-.12.45-.25,1.22-.56,2.55-.83,3.9-.8l.68.02c-.13,0-.25-.01-.38-.02.12,0,.25,0,.38,0l-.68-.02c-1.32-.04-2.62-.36-3.81-.95-.29-.16-.49-.3-.49-.3-.92-.58-1.99-.88-3.08-.87-2.13-.05-3.87.8-3.9,1.88.01.35.17.68.43.92-1.13-.82-2.3-1.59-3.53-2.33.9.14,1.83.08,2.7-.17,1.06-.25,2.02-.8,2.78-1.58,0,0,.15-.16.36-.37,1.01-.88,2.21-1.53,3.51-1.88l.66-.18c-.13.03-.24.06-.36.09.12-.04.24-.08.36-.11l-.66.18c-1.28.34-2.62.4-3.92.17-.33-.07-.56-.15-.56-.15-1.05-.29-2.16-.28-3.2.04-2.05.56-3.49,1.86-3.2,2.91.03.08.07.16.12.23-1.06-.6-2.16-1.16-3.28-1.7,1,.03,1.99-.2,2.87-.66.99-.44,1.84-1.16,2.43-2.07,0,0,.12-.19.29-.43.83-1.06,1.89-1.91,3.09-2.5l.61-.3c-.12.06-.23.11-.34.16.11-.06.21-.12.34-.17l-.61.3c-1.19.57-2.49.88-3.82.89-.34-.01-.58-.04-.58-.04-1.08-.09-2.17.13-3.13.64-1.91.93-3.08,2.48-2.6,3.45.02.03.04.06.07.09-1.16-.53-2.35-1.03-3.57-1.5.9-.13,1.76-.45,2.52-.93.97-.55,1.76-1.37,2.27-2.35,0,0,.1-.2.25-.47.74-1.16,1.73-2.14,2.9-2.86l.59-.36c-.11.07-.22.13-.33.2.11-.07.21-.14.32-.21l-.59.36c-1.16.7-2.45,1.14-3.8,1.29-.34.02-.59.02-.59.02-1.11.01-2.19.35-3.12.96-1.77,1.09-2.77,2.66-2.36,3.63-1.15-.41-2.32-.81-3.51-1.18.78-.19,1.52-.53,2.18-.99.94-.6,1.69-1.45,2.15-2.46,0,0,.09-.21.23-.48.69-1.19,1.63-2.21,2.77-2.99l.57-.39c-.11.08-.22.14-.32.21.11-.07.2-.15.31-.22l-.57.39c-1.12.75-2.4,1.25-3.74,1.46-.34.04-.59.04-.59.04-1.11.06-2.18.45-3.08,1.1-1.65,1.12-2.57,2.67-2.24,3.62-1.35-.39-2.71-.75-4.09-1.09,1.03-.11,2-.51,2.82-1.15.87-.6,1.55-1.43,1.95-2.4,0,0,.08-.2.2-.46.6-1.15,1.46-2.15,2.51-2.93l.53-.39c-.1.08-.2.14-.3.21.1-.07.19-.15.29-.22l-.53.39c-1.03.76-2.22,1.28-3.48,1.52-.32.05-.56.06-.56.06-1.05.1-2.04.5-2.87,1.16-1.66,1.22-2.5,2.9-1.87,3.75.06.08.13.14.22.2-1.29-.3-2.6-.59-3.91-.85,1-.2,1.92-.67,2.66-1.37.8-.66,1.39-1.54,1.71-2.53,0,0,.06-.2.15-.47.49-1.18,1.25-2.24,2.2-3.09l.49-.43c-.09.08-.18.16-.27.23.09-.08.17-.16.26-.24l-.49.43c-.95.83-2.07,1.45-3.28,1.8-.31.07-.54.11-.54.11-1.02.19-1.96.67-2.72,1.39-1.52,1.35-2.2,3.06-1.51,3.84.04.04.09.07.14.11-1.03-.2-2.07-.38-3.1-.56.47-.25.9-.57,1.28-.95.65-.6,1.11-1.38,1.33-2.24,0,0,.04-.18.11-.41.34-.98.89-1.86,1.6-2.61,9-1.43,17.91-3.33,25.6-5.51-.31,1.61.77,4.08,2.89,6.18,1.31,1.4,3,2.39,4.87,2.85,0,0,.42.08.99.26,2.2.78,4.2,2.03,5.87,3.67l.85.84c-.16-.16-.31-.32-.46-.48.16.15.32.3.48.46l-.85-.84c-1.68-1.67-2.96-3.71-3.74-5.94-.15-.5-.23-.88-.23-.88-.47-1.86-1.48-3.54-2.88-4.85-.82-.81-1.75-1.51-2.76-2.06,2.25-.38,4.48-.79,6.71-1.21-.11.07-.21.15-.3.23-1.49,1.68-.02,5.4,3.27,8.31,1.63,1.55,3.67,2.59,5.88,3,0,0,.5.07,1.17.23,2.62.76,5.05,2.09,7.11,3.89l1.05.93c-.2-.18-.38-.35-.57-.53.2.17.39.32.59.5l-1.05-.93c-2.08-1.84-3.71-4.13-4.78-6.7-.21-.58-.33-1.02-.33-1.02-1.51-4.24-5.06-7.42-9.44-8.44,2.84-.57,5.67-1.18,8.47-1.84-.18.12-.33.26-.47.43-1.35,1.83.46,5.46,4.05,8.11,1.79,1.42,3.94,2.29,6.21,2.5,0,0,.51.03,1.2.13,2.72.53,5.29,1.66,7.53,3.29l1.15.85c-.22-.16-.42-.32-.63-.48.21.15.43.29.65.46l-1.15-.85c-2.26-1.68-4.11-3.84-5.42-6.34-.26-.56-.43-1-.43-1-1.91-4.15-5.8-7.05-10.33-7.68,2.99-.73,5.95-1.51,8.86-2.35-.72,2.08,1.28,5.41,4.85,7.84,1.94,1.42,4.26,2.25,6.66,2.39,0,0,.54,0,1.28.09,2.9.45,5.66,1.53,8.09,3.17l1.24.85c-.24-.16-.46-.32-.68-.48.23.15.46.29.7.46l-1.24-.85c-2.46-1.68-4.5-3.89-5.99-6.47-.3-.58-.49-1.03-.49-1.03-1.02-2.18-2.64-4.03-4.68-5.31-1.43-.99-3.04-1.72-4.73-2.14,2.57-.81,5.1-1.66,7.59-2.56-.89,2.09,1.28,5.5,5.11,7.86,2.01,1.33,4.35,2.06,6.76,2.08,0,0,.54-.02,1.28.03,2.91.32,5.72,1.27,8.22,2.8l1.28.79c-.25-.15-.47-.3-.7-.45.24.14.47.28.72.43l-1.28-.79c-2.53-1.56-4.67-3.68-6.27-6.19-.33-.57-.54-1.01-.54-1.01-1.11-2.14-2.82-3.91-4.91-5.09-1.66-1.05-3.52-1.74-5.46-2.02,2.63-1.02,5.21-2.11,7.73-3.25-.05.06-.1.13-.15.19-1.03,2.11,1.5,5.46,5.64,7.48,2.08,1.1,4.44,1.58,6.79,1.38,0,0,.52-.07,1.25-.09,2.87.03,5.69.69,8.27,1.93l1.32.64c-.25-.12-.48-.25-.73-.37.25.11.49.22.74.34l-1.32-.64c-2.61-1.28-4.9-3.13-6.7-5.42-.37-.52-.62-.93-.62-.93-1.29-1.97-3.12-3.53-5.27-4.49-1.92-.99-4.06-1.48-6.22-1.42,2.43-1.17,4.8-2.4,7.1-3.69-.1.16-.19.33-.25.5-.62,2.26,2.49,5.08,6.93,6.3,2.25.7,4.65.73,6.92.09,0,0,.5-.16,1.21-.32,2.82-.5,5.72-.38,8.49.36l1.42.39c-.27-.07-.52-.16-.78-.23.26.06.52.13.79.2l-1.42-.39c-2.8-.77-5.4-2.17-7.59-4.08-.47-.44-.79-.8-.79-.8-1.63-1.7-3.72-2.89-6.01-3.43-1.9-.55-3.9-.68-5.85-.37,2.65-1.59,5.2-3.27,7.64-5.04-.57.51-.91,1.22-.94,1.98.05,2.35,3.83,4.17,8.43,4.07,2.35.03,4.67-.62,6.66-1.88,0,0,.43-.3,1.07-.65,2.56-1.28,5.37-1.98,8.24-2.06l1.47-.03c-.28,0-.55,0-.81,0,.27-.01.53-.03.81-.04l-1.47.03c-2.91.06-5.79-.54-8.44-1.76-.57-.29-.98-.54-.98-.54-2.05-1.16-4.39-1.71-6.74-1.58-2.02,0-4,.47-5.82,1.35,1.63-1.23,3.21-2.5,4.73-3.82,2.47,1.87,7.84.84,12.79-2.66,2.87-1.89,5.14-4.56,6.53-7.7,0,0,.28-.71.76-1.66.94-1.86,3.2-5.28,8.28-9.22l1.75-1.24h0Zm-47.09,24.53c.34-1.93,1.17-3.41,1.84-3.3.68.11.95,1.77.61,3.7s-1.17,3.41-1.84,3.3c-.68-.11-.95-1.77-.61-3.7Zm-21.81,8.32c.21-1.92.91-3.43,1.59-3.37.68.06,1.06,1.67.85,3.6-.21,1.92-.92,3.43-1.59,3.37-.68-.06-1.05-1.67-.85-3.6Zm-23.17,7.61c.19-1.76.84-3.15,1.46-3.09.62.06.97,1.53.78,3.3-.19,1.76-.84,3.15-1.46,3.09-.62-.06-.97-1.53-.78-3.3Zm-10,2.37c.31-1.75,1.06-3.08,1.67-2.98.61.1.86,1.6.54,3.34-.31,1.75-1.06,3.08-1.67,2.98-.61-.1-.86-1.6-.54-3.34Zm-9.98,3.56c.36-1.49,1.08-2.6,1.6-2.48.52.12.66,1.43.29,2.92s-1.08,2.6-1.6,2.48c-.52-.12-.66-1.43-.29-2.92Zm-28.09-3.68c.94.22,1.65.66,1.58,1-.07.33-.89.42-1.84.2-.94-.22-1.65-.66-1.58-1,.07-.33.89-.42,1.84-.2Zm6.81-3.32c1.12.19,1.97.67,1.91,1.06s-1.02.55-2.13.36c-1.12-.19-1.97-.67-1.91-1.06.06-.39,1.02-.55,2.13-.36Zm5.77-4.63c1.15.09,2.05.49,2.02.9-.03.4-.98.65-2.13.56-1.15-.09-2.05-.49-2.02-.9.03-.4.98-.65,2.13-.56Zm6-5.59c1.21.05,2.19.43,2.17.86-.01.43-1.01.73-2.22.68-1.21-.05-2.19-.43-2.17-.86.01-.43,1-.73,2.22-.68Zm6.01-5.81c1.21,0,2.2.34,2.21.76,0,.43-.97.77-2.19.78-1.21,0-2.2-.34-2.21-.76,0-.43.97-.77,2.18-.78Zm5.32-6.21c1.18-.11,2.17.12,2.22.53.05.41-.87.84-2.05.96h0c-1.18.11-2.18-.12-2.22-.53-.05-.41.88-.85,2.06-.96Zm4.31-6.52c1.14-.34,2.16-.29,2.28.11.12.4-.7.99-1.84,1.33-1.14.34-2.16.29-2.28-.11s.7-.99,1.84-1.33Zm3.78-7.41c1-.65,1.99-.89,2.22-.55s-.39,1.15-1.39,1.8c-1,.65-1.99.89-2.22.54s.39-1.15,1.39-1.79Zm.97-11.06c.68-1.59,1.68-2.7,2.24-2.47.56.23.47,1.71-.21,3.3-.68,1.6-1.68,2.7-2.24,2.47s-.47-1.71.21-3.3Zm-8.93,7.09c-.33-1.14-.27-2.17.13-2.28.4-.12.98.71,1.31,1.85.33,1.14.27,2.16-.13,2.28-.4.12-.98-.71-1.31-1.85Zm-4.5,6.07c-.34-1.17-.28-2.22.13-2.35.41-.12,1.01.73,1.35,1.9.34,1.17.28,2.23-.13,2.35-.41.12-1.01-.73-1.35-1.9Zm-4.9,5.07c-.5-1.11-.6-2.16-.21-2.34.39-.18,1.11.57,1.61,1.69.5,1.11.6,2.16.21,2.34h0c-.39.18-1.11-.57-1.61-1.69Zm-5.04,5.54c-.42-1.13-.43-2.17-.03-2.32.39-.15,1.05.64,1.46,1.78.41,1.13.42,2.16.03,2.32-.39.15-1.04-.65-1.46-1.78Zm-5.26,5.61c-.41-1.14-.42-2.17-.03-2.32.39-.15,1.04.65,1.46,1.78.41,1.14.42,2.17.03,2.32-.39.15-1.04-.65-1.46-1.78Zm-5.64,4.98c-.38-1.04-.39-1.99-.03-2.12.36-.14.95.6,1.33,1.63.38,1.04.39,1.99.03,2.12-.36.14-.95-.6-1.33-1.63Zm-4.95,4.06c-.3-1.06-.25-2.02.12-2.12.37-.11.91.66,1.22,1.72.3,1.06.24,2.01-.12,2.12-.37.11-.92-.66-1.22-1.72Zm-4.4,2.89c.33-.08.76.62.96,1.55.21.93.11,1.75-.22,1.83-.33.08-.76-.62-.96-1.55-.21-.93-.11-1.75.22-1.83ZM101.34,16.75c-.56.23-1.56-.88-2.24-2.47-.68-1.6-.77-3.08-.21-3.3.56-.23,1.56.88,2.24,2.47.68,1.59.77,3.08.21,3.3Zm2.14,9.55c-.23.34-1.23.1-2.22-.54-1-.65-1.62-1.45-1.39-1.8.23-.35,1.22-.1,2.22.55s1.62,1.45,1.39,1.79Zm5.26-3.91c-.4-.12-.46-1.14-.13-2.28.33-1.14.91-1.97,1.31-1.85.4.12.46,1.14.13,2.28-.33,1.14-.91,1.97-1.31,1.85Zm-1.03,10.86c-.12.4-1.15.45-2.28.11-1.14-.34-1.96-.93-1.84-1.33.12-.4,1.15-.45,2.28-.11,1.14.34,1.96.93,1.84,1.33Zm5.49-4.74c-.41-.12-.47-1.17-.13-2.35.34-1.17.94-2.03,1.35-1.9.41.12.47,1.17.13,2.35-.34,1.17-.94,2.03-1.35,1.9Zm-3.19,11.44h0c-1.18-.12-2.1-.55-2.05-.96.05-.41,1.04-.65,2.22-.53,1.18.11,2.1.55,2.06.96-.05.41-1.04.65-2.22.54Zm7.82-6.59c-.39-.18-.29-1.23.21-2.34.5-1.11,1.23-1.87,1.61-1.69.39.18.29,1.23-.21,2.34-.5,1.11-1.23,1.87-1.61,1.69Zm-2.36,12.84c-1.21,0-2.19-.35-2.19-.78,0-.43,1-.77,2.21-.76,1.21,0,2.19.35,2.18.78s-1,.77-2.21.76Zm7.55-7.2c-.39-.15-.38-1.18.03-2.32.41-1.14,1.06-1.93,1.46-1.78.39.15.38,1.18-.03,2.32-.42,1.13-1.06,1.93-1.46,1.78Zm-1.47,13.02h0c-1.21.05-2.2-.25-2.22-.68-.01-.43.96-.81,2.17-.86,1.21-.05,2.2.25,2.22.68.01.43-.96.81-2.17.86Zm6.73-7.41c-.4-.15-.38-1.18.03-2.32.41-1.14,1.06-1.93,1.46-1.78.39.15.38,1.18-.03,2.32-.41,1.14-1.06,1.93-1.46,1.78Zm-.68,12.91c-1.15.09-2.1-.15-2.13-.56-.03-.4.88-.8,2.02-.9,1.15-.09,2.1.15,2.13.56.03.4-.88.8-2.02.9Zm6.43-8.08c-.36-.14-.35-1.09.03-2.12.38-1.04.97-1.77,1.33-1.63.36.14.35,1.09-.03,2.12-.38,1.04-.97,1.77-1.33,1.63Zm-.54,12.68c-1.12.19-2.07.03-2.13-.36-.06-.39.79-.86,1.91-1.06s2.07-.03,2.13.36-.79.86-1.91,1.06Zm5.6-8.53c-.37-.11-.43-1.06-.12-2.12.3-1.06.84-1.83,1.22-1.72.37.11.43,1.06.12,2.12-.3,1.06-.84,1.83-1.22,1.72Zm1.24,11.63c-.94.22-1.77.13-1.84-.2-.07-.33.63-.78,1.58-.99.94-.22,1.76-.13,1.84.2.07.33-.63.78-1.58.99Zm-28.62,5.37c-.52.12-1.24-.99-1.6-2.48s-.23-2.8.29-2.92c.52-.12,1.24.99,1.6,2.48.36,1.49.23,2.8-.29,2.92Zm-10.22-3.14c-.61.1-1.36-1.23-1.67-2.98-.31-1.75-.07-3.24.54-3.34.61-.1,1.36,1.23,1.67,2.98s.07,3.24-.54,3.34Zm-10.23-2.42c-.62.06-1.27-1.33-1.46-3.09s.16-3.24.78-3.3c.62-.06,1.27,1.33,1.46,3.09.19,1.76-.16,3.24-.78,3.3Zm-23.24-7.31c-.67.06-1.38-1.45-1.59-3.37-.21-1.92.17-3.54.85-3.6.68-.06,1.38,1.44,1.59,3.37.21,1.92-.17,3.53-.85,3.6Zm-21.56-8.22c-.68.11-1.5-1.37-1.84-3.3s-.07-3.59.61-3.7c.68-.11,1.5,1.37,1.84,3.3.34,1.93.07,3.59-.61,3.7Zm-25.4-8.62c-.65.73-2.88-.16-4.98-1.99-2.1-1.83-3.28-3.89-2.63-4.62.65-.73,2.88.16,4.98,1.99s3.28,3.89,2.63,4.62Zm6.23,13.05c-1.89-.23-3.35-.96-3.26-1.62.09-.66,1.7-1.01,3.59-.78,1.89.23,3.35.96,3.26,1.62-.09.66-1.7,1.01-3.59.78Zm8.43-10.12c-.66.11-1.46-1.33-1.79-3.21s-.07-3.49.59-3.6c.66-.11,1.46,1.33,1.79,3.21s.07,3.49-.59,3.6Zm2.93,18.15c-1.88.32-3.49.03-3.59-.62-.1-.66,1.34-1.45,3.22-1.76,1.88-.31,3.49-.03,3.59.62.1.66-1.34,1.45-3.22,1.76Zm11.24,6.28h0c-1.79.66-3.42.68-3.64.06-.22-.63,1.05-1.67,2.84-2.33,1.79-.66,3.42-.69,3.64-.06s-1.05,1.67-2.84,2.33Zm6.67-15h0c-.69.01-1.29-1.57-1.34-3.53-.06-1.96.45-3.56,1.14-3.57s1.29,1.57,1.34,3.53-.45,3.56-1.14,3.57Zm5.61,20.18h0c-1.75.85-3.41,1.04-3.7.42-.29-.62.9-1.81,2.65-2.66,1.76-.85,3.41-1.04,3.7-.42.29.62-.9,1.81-2.65,2.66Zm12.87,4.12c-1.71.93-3.36,1.19-3.68.59-.32-.6.82-1.85,2.53-2.78,1.71-.93,3.36-1.19,3.68-.59s-.82,1.85-2.53,2.78Zm4.51-15.43c-.67.06-1.38-1.45-1.59-3.37-.2-1.92.17-3.53.85-3.6.68-.06,1.39,1.45,1.59,3.37.2,1.92-.17,3.53-.85,3.6Zm8.11,19.11c-1.59.94-3.14,1.25-3.46.69-.32-.56.7-1.78,2.29-2.72s3.14-1.25,3.46-.69-.7,1.78-2.29,2.72Zm11.74,2.48h0c-1.48,1.06-2.97,1.5-3.33.98-.37-.52.54-1.8,2.01-2.87,1.48-1.06,2.97-1.5,3.33-.98.37.52-.54,1.81-2.01,2.87Zm12.06-.34h0c-1.21.99-2.46,1.43-2.79,1.01s.37-1.57,1.58-2.54c1.21-.97,2.46-1.43,2.79-1.01s-.37,1.57-1.58,2.54Zm24.53,3.91c-.15.26-.86.11-1.6-.32s-1.21-1-1.06-1.26c.15-.26.86-.12,1.6.32.73.43,1.21,1,1.06,1.26Zm-17.19,5.81c-.1.29-.86.28-1.68-.02-.83-.3-1.41-.78-1.31-1.08.1-.29.86-.28,1.68.02h0c.83.3,1.41.78,1.31,1.08Zm-6.68,2.93c-.87-.15-1.53-.51-1.49-.81s.79-.43,1.66-.29c.87.15,1.53.51,1.49.81-.05.3-.79.43-1.66.29Zm-4.93,3.71c-.88.11-1.62-.05-1.66-.36-.04-.31.63-.64,1.51-.75.87-.11,1.62.05,1.66.36.04.31-.63.64-1.51.75Zm-4.23,7.06c-.97.84-2,1.25-2.3.92-.3-.34.25-1.29,1.22-2.13s2-1.25,2.3-.92c.3.34-.25,1.29-1.22,2.13Zm8.26-1.83c-.15.87-.53,1.53-.83,1.48-.3-.05-.42-.79-.27-1.66.15-.87.52-1.53.83-1.48.3.05.42.79.27,1.66Zm4.96-2.58c-.16.89-.54,1.57-.85,1.52-.31-.05-.44-.82-.28-1.71s.54-1.57.85-1.52.44.82.28,1.71Zm4.29-.16c-.32,0-.55-.74-.53-1.65.03-.91.3-1.63.62-1.63.32,0,.55.74.53,1.65-.03.9-.3,1.63-.62,1.63Zm3.91-11.38c-.13.28-.9.2-1.71-.2-.81-.39-1.36-.94-1.23-1.23.13-.28.9-.2,1.71.19h0c.81.39,1.36.94,1.23,1.23Zm1.87,7.69c-.09.89-.42,1.58-.73,1.56-.31-.03-.49-.78-.39-1.66.1-.89.42-1.59.74-1.56.31.03.49.78.39,1.66Zm4.02-9.54c-.15.28-.91.16-1.7-.27-.79-.43-1.32-1.01-1.17-1.29s.91-.16,1.7.27c.79.43,1.31,1.01,1.17,1.29Zm1.31,7.51c-.09.89-.42,1.59-.74,1.56-.31-.03-.49-.78-.39-1.66.09-.89.42-1.59.74-1.56.31.03.49.78.39,1.66Zm5.38-1.49c-.09.81-.39,1.45-.67,1.43-.29-.03-.45-.71-.36-1.52.09-.81.39-1.45.67-1.43.29.03.45.71.36,1.52Zm4.33-8.83c-.17.24-.86.04-1.54-.45-.68-.49-1.1-1.08-.93-1.32.17-.24.86-.04,1.54.45h0c.68.49,1.1,1.08.93,1.32Zm.29,7.73c-.15.81-.49,1.42-.77,1.37s-.4-.74-.25-1.55c.15-.81.49-1.42.77-1.37s.4.74.25,1.55Zm4.61-1.65c-.17.69-.5,1.2-.74,1.15-.24-.05-.3-.66-.14-1.35.17-.69.5-1.2.74-1.15.24.05.3.66.14,1.35Zm12.97,1.7c-.44-.1-.76-.31-.73-.46.03-.15.41-.19.85-.09.44.1.76.31.73.46s-.41.19-.85.09Zm-3.14,1.54c-.51-.09-.91-.31-.88-.49.03-.18.47-.26.99-.17.51.09.91.31.88.49-.03.18-.47.26-.99.17Zm-2.67,2.14c-.53-.04-.95-.23-.93-.41.01-.19.45-.3.98-.26.53.04.95.23.93.41s-.45.3-.98.26Zm-2.77,2.58c-.56-.02-1.01-.2-1-.4,0-.2.47-.34,1.03-.31s1.01.2,1,.4-.47.34-1.03.31Zm-2.78,2.68c-.56,0-1.02-.16-1.02-.35,0-.2.45-.36,1.01-.36.56,0,1.02.16,1.02.35s-.45.35-1.01.36Zm-2.46,2.87c-.55.05-1-.05-1.03-.25-.02-.19.4-.39.95-.44h0c.55-.06,1.01.05,1.03.25.02.19-.4.39-.95.44Zm-1.99,3.01c-.52.16-.99.13-1.05-.05s.32-.46.85-.61c.52-.16.99-.13,1.05.05.06.18-.32.46-.85.61Zm-1.75,3.42c-.46.3-.92.41-1.02.25-.11-.16.18-.53.64-.83h0c.46-.3.92-.41,1.02-.25.11.16-.18.53-.64.83Zm-.44,5.1c-.31.74-.78,1.25-1.04,1.14-.26-.11-.22-.79.1-1.53.31-.74.78-1.25,1.04-1.14.26.11.22.79-.1,1.53Zm4.12-3.28c.15.53.12,1-.06,1.05-.18.06-.45-.33-.6-.86-.15-.53-.12-1,.06-1.05.18-.06.45.33.6.86Zm2.08-2.8c.16.54.13,1.03-.06,1.09-.19.06-.47-.34-.62-.88s-.13-1.03.06-1.08h0c.19-.06.47.34.62.88Zm2.26-2.34c.23.51.28,1,.1,1.08-.18.08-.51-.27-.74-.78s-.28-1-.1-1.08c.18-.08.51.27.74.78Zm2.33-2.56c.19.52.2,1,.01,1.07-.18.07-.48-.3-.67-.82s-.2-1-.01-1.07h0c.18-.07.48.3.67.82Zm2.43-2.59c.19.52.2,1,.01,1.07s-.48-.3-.67-.82-.2-1-.01-1.07c.18-.07.48.3.67.82Zm2.6-2.3c.17.48.18.92.01.98-.17.06-.45-.27-.62-.75-.17-.48-.18-.92-.01-.98.17-.06.45.27.62.75Zm2.29-1.87c.14.49.11.93-.06.98s-.42-.31-.56-.8c-.14-.49-.11-.93.06-.98.17-.05.42.31.56.8Zm2.03-1.34c-.15.04-.35-.28-.45-.72-.09-.43-.05-.81.1-.85.15-.04.35.28.45.72.09.43.05.81-.1.85Zm48.52,17.54c.26-.11.72.4,1.04,1.14.31.74.36,1.42.1,1.53-.26.11-.72-.4-1.04-1.14-.31-.74-.36-1.42-.1-1.53Zm-.99-4.4c.11-.16.57-.05,1.02.25h0c.46.3.75.67.64.83-.11.16-.57.05-1.02-.25-.46-.3-.75-.67-.64-.83Zm-2.44,1.8c.18.05.21.53.06,1.05s-.42.91-.6.86c-.18-.06-.21-.53-.06-1.05.15-.53.42-.91.6-.86Zm1.53-5.06c.53.16.91.43.85.61s-.53.21-1.05.05c-.52-.16-.91-.43-.85-.61.06-.18.53-.21,1.05-.05Zm-3.6,2.23h0c.19.06.22.54.06,1.09s-.43.94-.62.88-.22-.54-.06-1.09.43-.94.62-.88Zm1.48-5.28h0c.55.06.97.25.95.44-.02.19-.48.3-1.03.25-.55-.05-.97-.25-.95-.44.02-.19.48-.3,1.03-.25Zm-3.71,4.12c-.23.51-.57.86-.74.78-.18-.08-.14-.57.1-1.08s.57-.86.74-.78c.18.09.14.57-.1,1.08Zm1.19-7.01c.56,0,1.01.16,1.01.36,0,.2-.46.36-1.02.35-.56,0-1.01-.16-1.01-.36,0-.2.46-.36,1.02-.35Zm-3.49,3.33c.18.07.18.55-.01,1.07-.19.52-.49.89-.67.82-.18-.07-.18-.55.01-1.07s.49-.89.67-.82h0Zm.68-6.01c.56-.02,1.02.12,1.03.31,0,.2-.44.37-1,.4-.56.02-1.02-.12-1.03-.31s.44-.37,1-.4Zm-3.11,3.42c.18.07.18.55-.01,1.07s-.49.89-.67.82c-.18-.07-.18-.55.01-1.07.19-.52.49-.89.67-.82Zm.31-5.97c.53-.04.97.07.98.26.01.19-.41.37-.93.41-.53.04-.97-.07-.98-.26-.01-.19.41-.37.93-.41Zm-2.97,3.74h0c.17.06.16.5-.01.98-.17.48-.45.82-.62.75-.17-.06-.16-.5.01-.98.17-.48.45-.82.62-.75Zm.25-5.86c.52-.09.95-.02.99.17.03.18-.37.4-.88.49s-.95.02-.99-.17c-.03-.18.37-.4.88-.49Zm-2.59,3.94c.17.05.2.49.06.98s-.39.85-.56.8c-.17-.05-.2-.49-.06-.98s.39-.85.56-.8Zm-.57-5.37c.44-.1.82-.06.85.09.03.15-.29.36-.73.46-.44.1-.82.06-.85-.09-.03-.15.29-.36.73-.46Zm-2.12,3.99c.09-.43.29-.75.45-.72.15.03.2.41.1.85s-.29.75-.45.72c-.15-.04-.2-.41-.1-.85Zm15.34-6.47c.24-.06.57.46.74,1.15s.11,1.29-.14,1.35c-.24.05-.57-.46-.74-1.15-.17-.69-.11-1.29.14-1.35Zm4.72,1.45c.28-.05.63.57.77,1.37s.03,1.5-.25,1.55c-.28.05-.63-.57-.77-1.37-.15-.81-.03-1.5.25-1.55Zm4.73,1.12c.29-.03.59.61.67,1.43.09.81-.07,1.5-.36,1.52-.29.03-.59-.61-.67-1.43-.09-.81.07-1.5.36-1.52Zm10.73,3.38h0c.31-.03.64.67.74,1.56.1.89-.08,1.63-.39,1.66-.31.03-.64-.67-.73-1.56-.09-.89.08-1.63.39-1.66Zm9.96,3.8c.31-.05.69.63.85,1.52.16.89.03,1.66-.28,1.71-.31.05-.69-.63-.85-1.52-.16-.89-.03-1.66.28-1.71Zm11.73,3.98c.3-.34,1.33.07,2.3.92.97.84,1.51,1.8,1.22,2.13-.3.34-1.33-.08-2.3-.92-.97-.84-1.51-1.8-1.22-2.13Zm-2.87-6.03c.87.11,1.55.44,1.51.75-.04.31-.78.47-1.66.36-.88-.11-1.55-.44-1.51-.75.04-.31.78-.47,1.66-.36Zm-3.9,4.68c.31-.05.68.61.83,1.48.15.87.03,1.61-.27,1.66s-.68-.61-.83-1.48c-.15-.87-.03-1.61.27-1.66Zm-1.35-8.39c.87-.15,1.61-.02,1.66.29.05.3-.62.67-1.49.81-.87.15-1.61.02-1.66-.29s.62-.67,1.49-.81Zm-5.2-2.91h0c.83-.3,1.58-.32,1.68-.02s-.48.77-1.31,1.08c-.83.3-1.58.32-1.68.02-.1-.29.48-.77,1.31-1.08Zm-3.08,6.93c.32,0,.59.72.62,1.63s-.21,1.64-.53,1.65c-.32,0-.59-.73-.62-1.63s.21-1.64.53-1.65Zm-2.59-9.32h0c.81-.39,1.58-.48,1.71-.2.13.29-.42.84-1.23,1.23-.81.39-1.58.48-1.71.2-.13-.28.42-.84,1.23-1.23Zm-5.94-1.9c.79-.43,1.55-.55,1.7-.27s-.38.85-1.17,1.29c-.79.43-1.55.55-1.7.27-.15-.28.38-.85,1.17-1.29Zm-2.08,7.13c.31-.03.64.67.74,1.56.09.89-.08,1.63-.39,1.66-.31.03-.64-.67-.74-1.56-.09-.89.08-1.63.39-1.66Zm-3.74-8.83c.73-.44,1.45-.58,1.6-.32.15.26-.32.82-1.06,1.26s-1.45.58-1.6.32c-.15-.26.32-.82,1.06-1.26Zm-5.42-1.15h0c.68-.49,1.37-.69,1.54-.45s-.25.83-.93,1.32c-.68.49-1.37.69-1.54.45-.17-.24.25-.83.93-1.33Zm-28.13-39.98l5.2-.49c1.72-.2,3.28,1.04,3.47,2.76.01.13.02.26.02.4-.05,1.95-1.55,3.56-3.49,3.75l-5.2.49v-6.91Zm0,17.45l6.32-.59c1.68-.26,3.26.89,3.52,2.57.03.19.04.39.03.59-.01,1.99-1.56,3.64-3.55,3.76h0s-6.32.59-6.32.59v-6.91Zm-37.64-5.78c-.21.93-.64,1.63-.96,1.55-.33-.08-.42-.9-.22-1.83.21-.93.64-1.63.96-1.55.33.08.42.89.22,1.83Zm.54,4.77c.86-.32,1.64-1.58,1.96-3.22v4.58c-.64-.44-1.29-.89-1.96-1.36Zm1.19,24.85c-.16.19-.73-.02-1.29-.47s-.88-.98-.73-1.17c.16-.19.73.02,1.29.47.56.45.88.98.73,1.17Zm1.22,1.89c0-1.1-.49-2.15-1.34-2.85-.61-.65-1.39-1.1-2.25-1.32,0,0-.19-.04-.46-.12-.96-.34-1.83-.88-2.57-1.57,8.26,1.31,16.6,2.21,24.13,2.56-5.96.64-12.34,1.83-17.52,3.3Zm57.81-2.34c-.56.45-1.14.66-1.29.47-.16-.19.17-.72.73-1.17.56-.45,1.13-.66,1.29-.47.16.19-.17.72-.73,1.17Zm1.53-1.94c-.26.08-.46.12-.46.12-.86.21-1.64.67-2.25,1.32-.85.7-1.34,1.75-1.33,2.86-5.14-1.46-11.46-2.64-17.38-3.28,7.48-.35,15.75-1.25,23.95-2.54-.73.67-1.59,1.2-2.53,1.53Zm33.63-1.96c1.21.97,1.91,2.12,1.58,2.54s-1.58-.02-2.79-1c-1.21-.98-1.91-2.12-1.58-2.54s1.58.03,2.79,1Zm12.16,0c1.48,1.06,2.38,2.35,2.01,2.87-.37.52-1.86.08-3.33-.98h0c-1.48-1.06-2.38-2.35-2.01-2.87.37-.52,1.86-.08,3.33.98Zm8.13-3.32c.32-.56,1.87-.25,3.46.69s2.61,2.16,2.29,2.72c-.32.56-1.87.25-3.46-.69-1.59-.94-2.61-2.16-2.29-2.72Zm9.55-19.99c.2-1.92.91-3.43,1.59-3.37.68.06,1.05,1.67.85,3.6-.2,1.92-.91,3.43-1.59,3.37-.68-.06-1.05-1.68-.85-3.6Zm6.5,16.84c1.71.93,2.85,2.17,2.53,2.78-.32.6-1.96.34-3.68-.59-1.71-.93-2.84-2.17-2.53-2.78.32-.6,1.96-.34,3.68.59Zm9.07-4.59c.29-.62,1.94-.43,3.7.42,1.76.85,2.94,2.04,2.65,2.66-.29.62-1.95.43-3.7-.42h0c-1.76-.85-2.94-2.04-2.65-2.66Zm8.48-24.62c.68.01,1.2,1.61,1.14,3.57-.06,1.96-.66,3.54-1.34,3.53h0c-.68-.01-1.2-1.61-1.14-3.57s.66-3.54,1.34-3.53Zm3.62,19.77c.22-.63,1.85-.6,3.64.06,1.79.66,3.06,1.7,2.84,2.33s-1.85.6-3.64-.06h0c-1.79-.66-3.06-1.7-2.84-2.33Zm14.45-6.33c1.88.31,3.32,1.11,3.22,1.76-.1.66-1.71.94-3.59.62-1.88-.31-3.32-1.11-3.22-1.76.1-.66,1.71-.94,3.59-.62Zm1.97-19.36c.33-1.88,1.14-3.32,1.79-3.21.66.11.92,1.71.59,3.6s-1.14,3.32-1.79,3.21c-.66-.11-.92-1.71-.59-3.6Zm8.7,11.33c1.89-.23,3.5.12,3.59.78.09.66-1.37,1.38-3.26,1.62-1.89.23-3.5-.12-3.59-.78-.09-.66,1.37-1.38,3.26-1.62Zm11.52-12.64c-2.1,1.83-4.33,2.71-4.98,1.99-.65-.73.53-2.79,2.63-4.62s4.33-2.71,4.98-1.99c.65.73-.53,2.79-2.63,4.62Z" style="fill: #e0cfba;"/>
      <path d="m256.24.01l-.07.12s.05-.08.07-.12h0Z" style="fill: #e0cfba;"/>
      <path d="m94.45,113.69l.12-.08s-.08.05-.12.08h0Z" style="fill: #e0cfba;"/>
    </g>
  </g>
</svg>