<?xml version="1.0" encoding="utf-8"?>
<!-- Generator: $$$/GeneralStr/196=Adobe Illustrator 27.6.0, SVG Export Plug-In . SVG Version: 6.00 Build 0)  -->
<svg version="1.1" id="Ebene_1" xmlns="http://www.w3.org/2000/svg" xmlns:xlink="http://www.w3.org/1999/xlink" x="0px" y="0px"
	 viewBox="0 0 318.9 97.4" style="enable-background:new 0 0 318.9 97.4;" xml:space="preserve">
<style type="text/css">
	.st0{fill:#965D35;}
</style>
<g id="Gruppe_42" transform="translate(379.066 -525.598)">
	<path id="Pfad_607" class="st0" d="M-157.3,561.7c-0.3-0.5-0.6-1-0.9-1.5c-0.3-0.6-0.7-1.1-1.2-1.6c-2.2-2.8-5-5-8.2-6.4
		c-2.1-1-4.2-1.7-6.5-2.3c-0.6-0.1-1.2-0.2-1.9-0.4c-0.3-0.1-0.6-0.1-1-0.2c-0.3,0-0.7-0.1-1-0.1c-0.7-0.1-1.3-0.2-2-0.3l-2.1-0.2
		c-6.3-0.3-12.5,0-18.7,1c-7.1,1.1-14.1,2.5-21.1,4.2c-7.3,1.8-14.8,3.9-22.3,6.1c-7.6,2.2-15.2,4.6-22.9,6.8
		c-7.6,2.3-15.3,4.5-22.8,6.5c-7.5,2-14.9,3.8-22,5.2c-6.7,1.3-13.5,2.3-20.3,2.9c-5.9,0.5-11.7,0.4-17.6-0.2
		c-4.7-0.5-9.2-1.6-13.6-3.3c-3.2-1.2-6.3-2.8-9.1-4.8c-0.6-0.4-1.1-0.8-1.6-1.2c-0.5-0.4-0.9-0.8-1.4-1.1c-0.4-0.3-0.8-0.7-1.2-1
		s-0.6-0.6-0.9-0.9c-1.1-1-1.7-1.6-1.7-1.6l1.4,1.8c0.2,0.3,0.5,0.6,0.8,1c0.3,0.3,0.6,0.7,1,1.1c0.4,0.4,0.7,0.9,1.2,1.3
		c0.5,0.4,1,0.9,1.5,1.4c2.6,2.3,5.5,4.3,8.6,5.9c4.3,2.1,8.9,3.6,13.6,4.5c6,1.1,12,1.5,18.1,1.2c7-0.2,14-1,21-2.2
		c3.7-0.6,7.4-1.3,11.1-2.2c3.8-0.8,7.6-1.7,11.4-2.7c7.6-2,15.4-4.2,23.1-6.4c7.7-2.3,15.4-4.7,22.9-7c7.5-2.3,14.9-4.6,22-6.5
		s14-3.7,20.5-4.9c3.2-0.6,6.4-1.1,9.4-1.4c1.5-0.2,3-0.3,4.4-0.4c0.7,0,1.4-0.1,2.1-0.1c0.7,0,1.4-0.1,2.1,0c2.5,0,5.1,0.2,7.6,0.5
		c2.2,0.3,4.3,0.8,6.4,1.6c3.2,1.1,6.1,2.9,8.5,5.2c0.5,0.4,0.9,0.9,1.3,1.4c0.4,0.4,0.8,0.9,1.1,1.3c0.6,0.9,1.2,1.6,1.5,2.2
		c0.7,1.3,1.1,2,1.1,2s-0.3-0.8-0.8-2.2C-156.4,563.4-156.8,562.7-157.3,561.7"/>
	<path id="Pfad_608" class="st0" d="M-156.5,562.7c-1-1.8-2.4-3.4-3.9-4.7c-2.8-2.1-6-3.6-9.4-4.2c-4.8-0.9-9.8-1.1-14.6-0.6
		c-6,0.6-11.9,1.6-17.7,2.9c-6.2,1.4-12.8,3.2-19.4,5.1c-3.3,1-6.7,2-10.1,3c-3.4,1-6.9,2.1-10.3,3.2c-6.9,2.1-13.9,4.3-20.9,6.3
		c-7,2.1-13.9,3.9-20.7,5.5c-3.4,0.8-6.8,1.5-10.1,2.2c-1.7,0.3-3.3,0.6-4.9,0.9c-1.6,0.3-3.3,0.6-4.9,0.8
		c-11.3,1.9-22.9,2.3-34.3,1.4c-4.4-0.4-8.7-1.1-13-2.1c-0.9-0.2-1.8-0.5-2.7-0.7c-0.9-0.2-1.7-0.5-2.5-0.7c-1.6-0.4-3-1-4.3-1.4
		c-2.5-0.9-4.6-1.7-5.9-2.3c-1.4-0.6-2.1-0.9-2.1-0.9s0.6,0.5,1.6,1.4c1.6,1.3,3.2,2.5,5,3.6c1.1,0.7,2.4,1.5,3.8,2.3
		c0.7,0.4,1.5,0.8,2.3,1.2c0.8,0.4,1.7,0.8,2.5,1.2c4.1,1.8,8.3,3.2,12.7,4.2c5.4,1.2,10.9,2,16.5,2.3c6.5,0.3,12.9,0.2,19.4-0.5
		c3.4-0.3,6.9-0.8,10.4-1.3c1.8-0.3,3.5-0.6,5.3-0.9c1.8-0.3,3.6-0.7,5.3-1.1c7.2-1.5,14.4-3.4,21.6-5.4c7.2-2.1,14.3-4.4,21.3-6.7
		c3.5-1.2,6.9-2.3,10.3-3.5c3.4-1.2,6.7-2.3,10-3.5c6.5-2.3,12.8-4.4,18.8-6.3c3-0.9,5.9-1.8,8.6-2.5c1.4-0.4,2.7-0.7,4.1-1.1
		c1.3-0.3,2.6-0.6,3.9-0.9c4.5-1,9.1-1.5,13.6-1.4c3.3,0.1,6.5,0.8,9.5,2c1.8,0.9,3.5,2,4.9,3.3l1.5,1.5c0,0-0.1-0.2-0.2-0.5
		S-156.2,563.3-156.5,562.7"/>
	<path id="Pfad_609" class="st0" d="M-331.4,573.5l-2.8-0.2c-1-0.1-2-0.2-3.1-0.4c-1.1-0.1-2.1-0.3-3.2-0.5
		c-1.1-0.2-2.2-0.4-3.4-0.7c-2.3-0.6-4.6-1.3-6.8-2.1c-2.2-0.9-4.4-2-6.4-3.3c-2-1.3-3.8-2.8-5.5-4.5c-1.6-1.7-2.9-3.5-3.9-5.6
		c-0.5-1-0.9-2.1-1.2-3.1c-0.1-0.3-0.2-0.5-0.2-0.8l-0.1-0.8c-0.1-0.5-0.2-1.1-0.3-1.6c-0.1-0.5-0.1-1.1-0.1-1.6c0-0.6,0-1.1,0-1.7
		c0.1-0.6,0.1-1.1,0.2-1.6c0.1-0.5,0.3-1.1,0.4-1.6c0.1-0.3,0.1-0.5,0.2-0.8c0.1-0.3,0.2-0.5,0.3-0.8c0.2-0.5,0.4-1,0.6-1.5
		c0.2-0.5,0.5-1,0.7-1.5c0.3-0.5,0.5-0.9,0.8-1.4c0.1-0.2,0.3-0.5,0.4-0.7c0.1-0.2,0.3-0.4,0.5-0.7c0.3-0.4,0.6-0.9,0.9-1.3
		c0.6-0.8,1.3-1.6,1.9-2.3c0.7-0.7,1.3-1.3,1.9-2c0.6-0.6,1.2-1.1,1.7-1.6c1-1,2-1.7,2.6-2.2l0.9-0.8c0,0-0.4,0.2-1.1,0.5
		c-0.4,0.2-0.8,0.4-1.3,0.6c-0.3,0.1-0.5,0.2-0.8,0.4c-0.3,0.2-0.6,0.3-0.9,0.5c-0.6,0.4-1.4,0.8-2.2,1.3c-0.8,0.5-1.6,1.1-2.5,1.7
		c-0.8,0.7-1.7,1.4-2.6,2.2c-0.4,0.4-0.9,0.9-1.3,1.3c-0.2,0.2-0.5,0.5-0.7,0.7c-0.2,0.2-0.4,0.5-0.6,0.8c-1.8,2.2-3.3,4.6-4.4,7.2
		c-0.3,0.7-0.5,1.4-0.8,2.1c-0.2,0.7-0.4,1.4-0.6,2.1c-0.1,0.7-0.2,1.4-0.3,2.2c-0.1,0.7-0.1,1.4-0.1,2.2c0,2.9,0.5,5.7,1.6,8.3
		c1.1,2.6,2.6,5,4.6,7c1.9,2.1,4.2,3.8,6.7,5.2c0.6,0.3,1.2,0.7,1.9,1c0.7,0.3,1.3,0.6,2,0.8c0.6,0.3,1.3,0.5,2,0.7
		c0.7,0.2,1.3,0.4,2,0.7c2.6,0.7,5.4,1.2,8.1,1.5c1.3,0.1,2.6,0.2,3.9,0.2c1.3,0,2.5,0,3.7-0.1c1.2-0.1,2.3-0.1,3.4-0.3l3.1-0.4
		c1.9-0.3,3.7-0.7,5-1c2.8-0.8,4.4-1.3,4.4-1.3s-1.5-0.1-4.2-0.1C-328,573.6-329.6,573.6-331.4,573.5"/>
	<path id="Pfad_610" class="st0" d="M-62.3,578.1c-0.3-0.3-0.6-0.7-1-1.1c-0.4-0.4-0.7-0.9-1.2-1.3c-0.5-0.4-1-0.9-1.5-1.4
		c-2.6-2.3-5.5-4.3-8.6-5.9c-4.3-2.1-8.9-3.6-13.6-4.5c-6-1.1-12-1.5-18.1-1.2c-7,0.2-14,1-21,2.2c-3.7,0.6-7.4,1.3-11.1,2.2
		c-3.8,0.8-7.6,1.7-11.4,2.7c-7.6,2-15.4,4.2-23.1,6.4c-7.7,2.3-15.4,4.7-22.9,7c-7.5,2.3-14.9,4.6-22,6.5c-7.1,1.9-14,3.6-20.5,4.9
		c-3.2,0.6-6.4,1.1-9.4,1.4c-1.5,0.2-3,0.3-4.4,0.4c-0.7,0-1.4,0.1-2.1,0.1c-0.7,0-1.4,0.1-2.1,0c-2.5,0-5.1-0.2-7.6-0.5
		c-2.2-0.3-4.3-0.8-6.4-1.6c-3.2-1.1-6.1-2.9-8.5-5.2c-0.5-0.4-0.9-0.9-1.3-1.4c-0.4-0.4-0.8-0.9-1.1-1.3c-0.6-0.9-1.2-1.6-1.5-2.2
		c-0.7-1.3-1.1-2-1.1-2s0.3,0.8,0.8,2.2c0.2,0.7,0.7,1.5,1.2,2.5c0.3,0.5,0.6,1,0.9,1.5c0.3,0.6,0.7,1.1,1.2,1.6
		c2.2,2.8,5,5,8.2,6.4c2.1,1,4.2,1.7,6.5,2.3c0.6,0.1,1.2,0.3,1.9,0.4c0.3,0.1,0.6,0.1,1,0.2c0.3,0,0.7,0.1,1,0.1
		c0.7,0.1,1.3,0.2,2,0.3c0.7,0,1.4,0.1,2.1,0.1c6.3,0.3,12.5,0,18.7-1c7.1-1.1,14.1-2.5,21.1-4.2c7.3-1.8,14.8-3.9,22.3-6.1
		c7.6-2.2,15.2-4.6,22.9-6.8c7.6-2.3,15.3-4.5,22.8-6.5c7.5-2,14.9-3.8,22-5.2c6.7-1.3,13.5-2.3,20.3-2.9c5.9-0.4,11.7-0.4,17.6,0.2
		c4.7,0.5,9.2,1.6,13.6,3.3c3.2,1.2,6.3,2.8,9.1,4.8c0.6,0.4,1.1,0.8,1.6,1.2c0.5,0.4,0.9,0.8,1.4,1.1s0.8,0.7,1.2,1
		c0.4,0.3,0.6,0.6,0.9,0.9c1.1,1,1.7,1.6,1.7,1.6l-1.4-1.8C-61.7,578.8-62,578.4-62.3,578.1"/>
	<path id="Pfad_611" class="st0" d="M-77.3,566.8c-1.2-0.7-2.4-1.5-3.8-2.3c-0.7-0.4-1.5-0.8-2.3-1.2c-0.8-0.4-1.7-0.8-2.5-1.2
		c-4.1-1.8-8.3-3.2-12.7-4.2c-5.4-1.2-10.9-2-16.5-2.3c-6.5-0.3-12.9-0.2-19.4,0.5c-3.4,0.3-6.9,0.8-10.4,1.3
		c-1.8,0.3-3.5,0.6-5.3,0.9c-1.8,0.3-3.6,0.7-5.4,1.1c-7.2,1.5-14.4,3.4-21.6,5.4c-7.2,2.1-14.3,4.4-21.3,6.7
		c-3.5,1.2-6.9,2.3-10.3,3.5l-10,3.5c-6.5,2.3-12.8,4.4-18.8,6.3c-3,0.9-5.9,1.8-8.6,2.5c-1.4,0.4-2.7,0.7-4.1,1.1
		c-1.3,0.3-2.6,0.6-3.9,0.9c-4.5,1-9.1,1.5-13.6,1.4c-3.3-0.1-6.5-0.8-9.5-2c-1.8-0.9-3.5-2-4.9-3.3c-1-1-1.5-1.5-1.5-1.5
		s0.1,0.2,0.2,0.5s0.4,0.8,0.7,1.4c1,1.8,2.4,3.4,3.9,4.7c2.8,2.1,6,3.6,9.4,4.2c4.8,0.9,9.8,1.1,14.7,0.6c6-0.6,11.9-1.6,17.7-2.9
		c6.2-1.4,12.8-3.2,19.4-5.1c3.3-1,6.7-2,10.1-3s6.9-2.1,10.3-3.2c6.9-2.1,13.9-4.3,20.9-6.3c7-2.1,13.9-3.9,20.7-5.5
		c3.4-0.8,6.8-1.5,10.1-2.2c1.7-0.3,3.3-0.6,4.9-0.9c1.6-0.3,3.3-0.6,4.9-0.8c11.3-1.9,22.9-2.3,34.3-1.4c4.4,0.4,8.7,1.1,13,2.1
		c0.9,0.2,1.9,0.4,2.7,0.7c0.9,0.2,1.7,0.5,2.5,0.7c1.6,0.4,3,1,4.3,1.4c2.5,0.9,4.6,1.7,5.9,2.3c1.4,0.6,2.1,0.9,2.1,0.9
		s-0.6-0.5-1.6-1.4C-73.9,569.1-75.6,567.9-77.3,566.8"/>
	<path id="Pfad_612" class="st0" d="M-64.5,597.2c0-2.9-0.5-5.7-1.6-8.3c-1.1-2.6-2.7-5-4.6-7c-1.9-2.1-4.2-3.8-6.7-5.2
		c-0.6-0.3-1.2-0.7-1.9-1l-2-0.8c-0.6-0.3-1.3-0.5-2-0.7c-0.7-0.2-1.3-0.4-2-0.7c-2.7-0.7-5.4-1.2-8.1-1.5c-1.3-0.1-2.6-0.2-3.9-0.2
		c-1.3,0-2.5,0-3.7,0.1c-1.2,0.1-2.3,0.1-3.4,0.3l-3.1,0.4c-2,0.3-3.7,0.7-5,1c-2.8,0.8-4.4,1.3-4.4,1.3s1.5,0.1,4.2,0.1
		c1.3,0.1,2.9,0.1,4.7,0.2c0.9,0.1,1.8,0.1,2.8,0.2c1,0.1,2,0.2,3,0.4c1.1,0.1,2.1,0.3,3.2,0.5c1.1,0.2,2.2,0.4,3.3,0.7
		c2.3,0.6,4.6,1.3,6.8,2.1c2.2,0.9,4.4,2,6.4,3.3c2,1.3,3.8,2.8,5.5,4.5c1.6,1.7,2.9,3.5,3.9,5.6c0.5,1,0.9,2.1,1.2,3.1
		c0.1,0.3,0.2,0.5,0.2,0.8l0.1,0.8c0.1,0.5,0.2,1.1,0.3,1.6c0.1,0.5,0.1,1.1,0.1,1.7c0,0.6,0,1.1,0,1.7c-0.1,0.6-0.1,1.1-0.2,1.6
		c-0.1,0.5-0.3,1.1-0.4,1.6c-0.1,0.3-0.1,0.5-0.2,0.8c-0.1,0.3-0.2,0.5-0.3,0.8c-0.2,0.5-0.4,1-0.6,1.5c-0.2,0.5-0.5,1-0.7,1.5
		c-0.2,0.5-0.5,0.9-0.8,1.4c-0.1,0.2-0.3,0.5-0.4,0.7c-0.1,0.2-0.3,0.4-0.5,0.7c-0.3,0.4-0.6,0.9-0.9,1.3c-0.6,0.8-1.3,1.6-1.9,2.3
		c-0.7,0.7-1.3,1.3-1.9,2c-0.6,0.6-1.2,1.1-1.7,1.6c-1,1-2,1.7-2.6,2.2s-0.9,0.8-0.9,0.8l1.1-0.5c0.4-0.2,0.8-0.4,1.3-0.6
		c0.3-0.1,0.5-0.2,0.8-0.4c0.3-0.2,0.6-0.3,0.9-0.5c0.6-0.4,1.4-0.8,2.2-1.3s1.6-1.1,2.5-1.7c0.8-0.7,1.7-1.4,2.6-2.2
		c0.4-0.4,0.9-0.9,1.3-1.3c0.2-0.2,0.5-0.5,0.7-0.7c0.2-0.2,0.4-0.5,0.6-0.8c1.8-2.2,3.3-4.6,4.4-7.2c0.3-0.7,0.5-1.4,0.8-2.1
		c0.2-0.7,0.4-1.4,0.6-2.1c0.1-0.7,0.2-1.4,0.3-2.2C-64.5,598.7-64.5,597.9-64.5,597.2"/>
</g>
</svg>
