<?xml version="1.0" encoding="utf-8"?>
<!-- Generator: $$$/GeneralStr/196=Adobe Illustrator 27.6.0, SVG Export Plug-In . SVG Version: 6.00 Build 0)  -->
<svg version="1.1" id="Ebene_1" xmlns="http://www.w3.org/2000/svg" xmlns:xlink="http://www.w3.org/1999/xlink" x="0px" y="0px"
	 viewBox="0 0 304.2 45" style="enable-background:new 0 0 304.2 45;" xml:space="preserve">
<style type="text/css">
	.st0{clip-path:url(#SVGID_00000169559615668087723800000007194522669202130591_);}
	.st1{fill:#E0CFBA;}
</style>
<g id="Gruppe_48" transform="translate(304.24 45.009) rotate(180)">
	<g>
		<defs>
			<rect id="SVGID_1_" x="0" y="0" width="304.2" height="45"/>
		</defs>
		<clipPath id="SVGID_00000111163518556295817370000010387865838391892123_">
			<use xlink:href="#SVGID_1_"  style="overflow:visible;"/>
		</clipPath>
		
			<g id="Gruppe_7" transform="translate(0 0)" style="clip-path:url(#SVGID_00000111163518556295817370000010387865838391892123_);">
			<path id="Pfad_607" class="st1" d="M185.5,16.7c-0.1-0.2-0.3-0.5-0.4-0.7c-0.2-0.3-0.3-0.5-0.5-0.7c-1-1.3-2.3-2.3-3.8-3
				c-1-0.5-2-0.8-3-1l-0.9-0.2c-0.1,0-0.3-0.1-0.4-0.1l-0.5-0.1c-0.3,0-0.6-0.1-0.9-0.1l-1-0.1c-2.9-0.1-5.8,0-8.7,0.5
				c-3.3,0.5-6.5,1.1-9.7,2c-3.4,0.8-6.8,1.8-10.3,2.8s-7,2.1-10.6,3.2c-3.5,1.1-7.1,2.1-10.5,3c-3.5,0.9-6.9,1.8-10.2,2.4
				c-3.1,0.6-6.2,1.1-9.4,1.3c-2.7,0.2-5.4,0.2-8.1-0.1c-2.1-0.2-4.3-0.7-6.3-1.5c-1.5-0.6-2.9-1.3-4.2-2.2l-0.8-0.5
				c-0.2-0.2-0.4-0.3-0.6-0.5s-0.4-0.3-0.5-0.4c-0.2-0.1-0.3-0.3-0.4-0.4L83,19.4l0.6,0.8c0.1,0.1,0.2,0.3,0.4,0.5
				c0.1,0.2,0.3,0.3,0.5,0.5c0.2,0.2,0.3,0.4,0.5,0.6c0.2,0.2,0.4,0.4,0.7,0.6c1.2,1.1,2.5,2,4,2.7c2,1,4.1,1.7,6.3,2.1
				c2.8,0.5,5.6,0.7,8.4,0.6c3.3-0.1,6.5-0.4,9.7-1c1.7-0.3,3.4-0.6,5.1-1c1.7-0.4,3.5-0.8,5.3-1.2c3.5-0.9,7.1-1.9,10.7-3
				c3.6-1.1,7.1-2.2,10.6-3.2c3.5-1.1,6.9-2.1,10.2-3c3.3-0.9,6.5-1.7,9.5-2.3c1.5-0.3,3-0.5,4.3-0.6c0.7-0.1,1.4-0.1,2-0.2
				c0.3,0,0.7,0,1,0s0.6,0,1,0c1.2,0,2.4,0.1,3.5,0.2c1,0.1,2,0.4,2.9,0.7c1.5,0.5,2.8,1.3,3.9,2.4c0.2,0.2,0.4,0.4,0.6,0.7
				c0.2,0.2,0.3,0.4,0.5,0.6c0.3,0.4,0.5,0.7,0.7,1c0.3,0.6,0.5,0.9,0.5,0.9s-0.1-0.3-0.4-1C185.9,17.5,185.7,17.1,185.5,16.7"/>
			<path id="Pfad_608" class="st1" d="M185.9,17.2c-0.5-0.8-1.1-1.6-1.8-2.2c-1.3-1-2.8-1.6-4.3-1.9c-2.2-0.4-4.5-0.5-6.8-0.3
				c-2.8,0.3-5.5,0.7-8.2,1.4c-2.9,0.7-5.9,1.5-9,2.4c-1.5,0.4-3.1,0.9-4.7,1.4c-1.6,0.5-3.2,1-4.8,1.5c-3.2,1-6.4,2-9.7,2.9
				c-3.2,0.9-6.4,1.8-9.6,2.5c-1.6,0.4-3.1,0.7-4.7,1c-0.8,0.2-1.5,0.3-2.3,0.4s-1.5,0.3-2.2,0.4c-5.2,0.9-10.6,1.1-15.9,0.6
				c-2-0.2-4-0.5-6-1c-0.4-0.1-0.9-0.2-1.3-0.3l-1.2-0.3c-0.8-0.2-1.4-0.4-2-0.6c-1.2-0.4-2.1-0.8-2.7-1.1l-1-0.4
				c0,0,0.3,0.2,0.8,0.6c0.7,0.6,1.5,1.2,2.3,1.7c0.5,0.3,1.1,0.7,1.8,1.1c0.3,0.2,0.7,0.4,1.1,0.6c0.4,0.2,0.8,0.4,1.2,0.5
				c1.9,0.8,3.8,1.5,5.9,1.9c2.5,0.6,5,0.9,7.6,1c3,0.1,6,0.1,9-0.2c1.6-0.1,3.2-0.4,4.8-0.6c0.8-0.1,1.6-0.3,2.5-0.4
				c0.8-0.2,1.6-0.3,2.5-0.5c3.3-0.7,6.7-1.6,10-2.5c3.3-1,6.6-2,9.8-3.1c1.6-0.5,3.2-1.1,4.8-1.6c1.6-0.5,3.1-1.1,4.6-1.6
				c3-1,5.9-2.1,8.7-2.9c1.4-0.4,2.7-0.8,4-1.2c0.6-0.2,1.3-0.3,1.9-0.5c0.6-0.1,1.2-0.3,1.8-0.4c2.1-0.5,4.2-0.7,6.3-0.6
				c1.5,0,3,0.4,4.4,0.9c0.8,0.4,1.6,0.9,2.3,1.5l0.7,0.7c0,0,0-0.1-0.1-0.2C186.1,17.7,186,17.5,185.9,17.2"/>
			<path id="Pfad_609" class="st1" d="M105,22.1l-1.3-0.1c-0.5,0-0.9-0.1-1.4-0.2s-1-0.1-1.5-0.2c-0.5-0.1-1-0.2-1.5-0.3
				c-1.1-0.3-2.1-0.6-3.1-1c-1-0.4-2-0.9-3-1.5c-0.9-0.6-1.8-1.3-2.5-2.1c-0.7-0.8-1.3-1.6-1.8-2.6c-0.2-0.5-0.4-1-0.5-1.4
				c0-0.1-0.1-0.2-0.1-0.4l-0.1-0.4c-0.1-0.2-0.1-0.5-0.1-0.8c0-0.3,0-0.5,0-0.8c0-0.3,0-0.5,0-0.8c0-0.3,0.1-0.5,0.1-0.8
				c0-0.3,0.1-0.5,0.2-0.8c0-0.1,0.1-0.2,0.1-0.4c0-0.1,0.1-0.2,0.1-0.4c0.1-0.2,0.2-0.5,0.3-0.7C88.8,6.4,88.9,6.2,89,6
				c0.1-0.2,0.3-0.4,0.4-0.7c0.1-0.1,0.1-0.2,0.2-0.3c0.1-0.1,0.1-0.2,0.2-0.3c0.1-0.2,0.3-0.4,0.4-0.6c0.3-0.4,0.6-0.7,0.9-1.1
				c0.3-0.3,0.6-0.6,0.9-0.9s0.5-0.5,0.8-0.7c0.5-0.5,0.9-0.8,1.2-1L94.4,0l-0.5,0.2c-0.2,0.1-0.4,0.2-0.6,0.3
				c-0.1,0.1-0.3,0.1-0.4,0.2s-0.3,0.2-0.4,0.2c-0.3,0.2-0.7,0.4-1,0.6c-0.4,0.2-0.7,0.5-1.1,0.8c-0.4,0.3-0.8,0.7-1.2,1
				c-0.2,0.2-0.4,0.4-0.6,0.6c-0.1,0.1-0.2,0.2-0.3,0.3s-0.2,0.2-0.3,0.4c-0.8,1-1.5,2.1-2,3.3c-0.1,0.3-0.2,0.6-0.3,1
				c-0.1,0.3-0.2,0.7-0.3,1c-0.1,0.3-0.1,0.7-0.2,1c0,0.3-0.1,0.7-0.1,1c0,1.3,0.2,2.6,0.7,3.9c0.5,1.2,1.2,2.3,2.1,3.2
				c0.9,0.9,1.9,1.8,3.1,2.4l0.9,0.5c0.3,0.1,0.6,0.3,0.9,0.4c0.3,0.1,0.6,0.2,0.9,0.3c0.3,0.1,0.6,0.2,0.9,0.3
				c1.2,0.3,2.5,0.6,3.7,0.7c0.6,0,1.2,0.1,1.8,0.1c0.6,0,1.2,0,1.7,0s1.1-0.1,1.6-0.1l1.4-0.2c0.9-0.2,1.7-0.3,2.3-0.5
				c1.3-0.4,2-0.6,2-0.6s-0.7,0-1.9,0C106.6,22.2,105.9,22.2,105,22.1"/>
			<path id="Pfad_610" class="st1" d="M229.4,24.3c-0.1-0.2-0.3-0.3-0.5-0.5c-0.2-0.2-0.3-0.4-0.5-0.6l-0.7-0.6
				c-1.2-1.1-2.5-2-4-2.7c-2-1-4.1-1.7-6.3-2.1c-2.8-0.5-5.6-0.7-8.4-0.6c-3.3,0.1-6.5,0.4-9.7,1c-1.7,0.3-3.4,0.6-5.1,1
				c-1.7,0.4-3.5,0.8-5.3,1.2c-3.5,0.9-7.1,1.9-10.7,3c-3.6,1.1-7.1,2.2-10.6,3.2c-3.5,1.1-6.9,2.1-10.2,3c-3.3,0.9-6.5,1.7-9.5,2.3
				c-1.5,0.3-3,0.5-4.3,0.6c-0.7,0.1-1.4,0.1-2,0.2c-0.3,0-0.7,0-1,0c-0.3,0-0.6,0-1,0c-1.2,0-2.4-0.1-3.5-0.2c-1-0.1-2-0.4-2.9-0.7
				c-1.5-0.5-2.8-1.3-3.9-2.4c-0.2-0.2-0.4-0.4-0.6-0.7c-0.2-0.2-0.3-0.4-0.5-0.6c-0.3-0.4-0.5-0.7-0.7-1c-0.3-0.6-0.5-0.9-0.5-0.9
				s0.1,0.4,0.4,1c0.1,0.3,0.3,0.7,0.5,1.2c0.1,0.2,0.3,0.5,0.4,0.7c0.2,0.3,0.3,0.5,0.5,0.7c1,1.3,2.3,2.3,3.8,3c1,0.5,2,0.8,3,1
				c0.3,0.1,0.6,0.1,0.9,0.2l0.4,0.1c0.2,0,0.3,0,0.5,0.1c0.3,0,0.6,0.1,0.9,0.1c0.3,0,0.6,0,1,0.1c2.9,0.1,5.8,0,8.7-0.5
				c3.3-0.5,6.5-1.1,9.7-2c3.4-0.8,6.8-1.8,10.3-2.8c3.5-1,7-2.1,10.6-3.2c3.5-1.1,7.1-2.1,10.5-3c3.5-0.9,6.9-1.8,10.2-2.4
				c3.1-0.6,6.2-1.1,9.4-1.3c2.7-0.2,5.4-0.2,8.1,0.1c2.1,0.2,4.3,0.7,6.3,1.5c1.5,0.6,2.9,1.3,4.2,2.2l0.8,0.5
				c0.2,0.2,0.4,0.3,0.6,0.5s0.4,0.3,0.5,0.4s0.3,0.3,0.4,0.4c0.5,0.5,0.8,0.7,0.8,0.7l-0.6-0.8C229.7,24.6,229.6,24.4,229.4,24.3"
				/>
			<path id="Pfad_611" class="st1" d="M222.5,19c-0.5-0.3-1.1-0.7-1.8-1.1c-0.3-0.2-0.7-0.4-1.1-0.6s-0.8-0.4-1.2-0.5
				c-1.9-0.8-3.9-1.5-5.9-1.9c-2.5-0.6-5-0.9-7.6-1c-3-0.1-6-0.1-9,0.2c-1.6,0.1-3.2,0.4-4.8,0.6c-0.8,0.1-1.6,0.3-2.5,0.4
				c-0.8,0.2-1.6,0.3-2.5,0.5c-3.3,0.7-6.7,1.6-10,2.5c-3.3,1-6.6,2-9.8,3.1c-1.6,0.5-3.2,1.1-4.8,1.6l-4.6,1.6
				c-3,1-5.9,2.1-8.7,2.9c-1.4,0.4-2.7,0.8-4,1.2c-0.6,0.2-1.3,0.3-1.9,0.5c-0.6,0.1-1.2,0.3-1.8,0.4c-2.1,0.5-4.2,0.7-6.3,0.6
				c-1.5,0-3-0.3-4.4-0.9c-0.8-0.4-1.6-0.9-2.3-1.5c-0.4-0.5-0.7-0.7-0.7-0.7s0,0.1,0.1,0.2s0.2,0.4,0.3,0.7
				c0.5,0.8,1.1,1.6,1.8,2.2c1.3,1,2.8,1.6,4.3,1.9c2.2,0.4,4.5,0.5,6.8,0.3c2.8-0.3,5.5-0.7,8.2-1.4c2.9-0.7,5.9-1.5,9-2.4
				c1.5-0.4,3.1-0.9,4.7-1.4c1.6-0.5,3.2-1,4.8-1.5c3.2-1,6.4-2,9.7-2.9c3.2-0.9,6.4-1.8,9.6-2.5c1.6-0.4,3.1-0.7,4.7-1
				c0.8-0.2,1.5-0.3,2.3-0.4c0.8-0.1,1.5-0.3,2.2-0.4c5.2-0.9,10.6-1.1,15.9-0.7c2,0.2,4,0.5,6,1l1.3,0.3c0.4,0.1,0.8,0.2,1.2,0.3
				c0.8,0.2,1.4,0.4,2,0.6c1.2,0.4,2.1,0.8,2.7,1.1l1,0.4c0,0-0.3-0.2-0.8-0.6C224,20.1,223.3,19.5,222.5,19"/>
			<path id="Pfad_612" class="st1" d="M228.4,33.1c0-1.3-0.2-2.6-0.7-3.9c-0.5-1.2-1.2-2.3-2.1-3.2c-0.9-0.9-1.9-1.8-3.1-2.4
				l-0.9-0.5l-0.9-0.4c-0.3-0.1-0.6-0.2-0.9-0.3c-0.3-0.1-0.6-0.2-0.9-0.3c-1.2-0.3-2.5-0.6-3.7-0.7c-0.6,0-1.2-0.1-1.8-0.1
				c-0.6,0-1.2,0-1.7,0c-0.6,0-1.1,0.1-1.6,0.1l-1.4,0.2c-0.9,0.2-1.7,0.3-2.3,0.5c-1.3,0.4-2,0.6-2,0.6s0.7,0,1.9,0
				c0.6,0,1.3,0,2.2,0.1c0.4,0,0.8,0.1,1.3,0.1c0.5,0,0.9,0.1,1.4,0.2c0.5,0.1,1,0.1,1.5,0.2c0.5,0.1,1,0.2,1.5,0.3
				c1.1,0.3,2.1,0.6,3.1,1c1,0.4,2,0.9,3,1.5c0.9,0.6,1.8,1.3,2.5,2.1c0.7,0.8,1.3,1.6,1.8,2.6c0.2,0.5,0.4,1,0.5,1.4
				c0,0.1,0.1,0.2,0.1,0.4l0.1,0.4c0.1,0.2,0.1,0.5,0.1,0.8c0,0.3,0,0.5,0,0.8c0,0.3,0,0.5,0,0.8c0,0.3-0.1,0.5-0.1,0.8
				c0,0.3-0.1,0.5-0.2,0.8c0,0.1-0.1,0.2-0.1,0.4c0,0.1-0.1,0.2-0.1,0.4c-0.1,0.2-0.2,0.5-0.3,0.7c-0.1,0.2-0.2,0.5-0.3,0.7
				c-0.1,0.2-0.3,0.4-0.4,0.7c-0.1,0.1-0.1,0.2-0.2,0.3c-0.1,0.1-0.1,0.2-0.2,0.3c-0.1,0.2-0.3,0.4-0.4,0.6
				c-0.3,0.4-0.6,0.7-0.9,1.1c-0.3,0.3-0.6,0.6-0.9,0.9s-0.5,0.5-0.8,0.7c-0.5,0.5-0.9,0.8-1.2,1S219,45,219,45l0.5-0.2
				c0.2-0.1,0.4-0.2,0.6-0.3c0.1-0.1,0.3-0.1,0.4-0.2c0.1-0.1,0.3-0.2,0.4-0.2c0.3-0.2,0.6-0.4,1-0.6c0.4-0.2,0.7-0.5,1.1-0.8
				c0.4-0.3,0.8-0.7,1.2-1c0.2-0.2,0.4-0.4,0.6-0.6c0.1-0.1,0.2-0.2,0.3-0.3c0.1-0.1,0.2-0.2,0.3-0.4c0.8-1,1.5-2.1,2-3.3
				c0.1-0.3,0.3-0.6,0.4-1c0.1-0.3,0.2-0.7,0.3-1c0.1-0.3,0.1-0.7,0.2-1C228.4,33.8,228.4,33.4,228.4,33.1"/>
			<path id="Pfad_613" class="st1" d="M232.5,21.2l0-0.2l-1.2,0.1L232.5,21.2z"/>
			<path id="Pfad_614" class="st1" d="M234.7,21.3l2.2,0.1l0.2-0.7l-2.3,0.1L234.7,21.3z"/>
			<path id="Pfad_615" class="st1" d="M239.4,20.6l-0.2,0.9l1.1,0l1.1,0l0.3-1.1l-1.2,0.1C240,20.5,239.4,20.6,239.4,20.6"/>
			<path id="Pfad_616" class="st1" d="M243.7,21.6l2.3,0.1l0.4-1.4l-2.3,0.1L243.7,21.6z"/>
			<path id="Pfad_617" class="st1" d="M248.2,21.8l2.3,0l0.4-1.7l-2.3,0.1L248.2,21.8z"/>
			<path id="Pfad_618" class="st1" d="M252.7,21.8l2.3,0l0.5-1.9l-2.3,0.1L252.7,21.8z"/>
			<path id="Pfad_619" class="st1" d="M257.3,21.9l2.3,0l0.5-2l-2.3,0L257.3,21.9z"/>
			<path id="Pfad_620" class="st1" d="M261.8,21.9h2.3l0.5-2l-2.3,0L261.8,21.9z"/>
			<path id="Pfad_621" class="st1" d="M266.9,19.8l-0.5,2.1h1.1c0.6,0,1.1,0,1.1,0l0.5-2.1c0,0-0.6,0-1.1,0S266.9,19.8,266.9,19.8"
				/>
			<path id="Pfad_622" class="st1" d="M270.9,21.9l2.3,0l0.5-2h-2.3L270.9,21.9z"/>
			<path id="Pfad_623" class="st1" d="M276,19.8l-0.5,2l1.1,0l1.1,0l0.5-1.9c0,0-0.6,0-1.1,0C276.6,19.8,276,19.8,276,19.8"/>
			<path id="Pfad_624" class="st1" d="M280.1,21.7l2.3,0l0.5-1.8l-2.3,0L280.1,21.7z"/>
			<path id="Pfad_625" class="st1" d="M284.6,21.6l2.3-0.1l0.4-1.6l-2.3-0.1L284.6,21.6z"/>
			<path id="Pfad_626" class="st1" d="M289.2,21.5l2.3-0.1l0.3-1.3l-2.3-0.1L289.2,21.5z"/>
			<path id="Pfad_627" class="st1" d="M294.1,20.1l-0.3,1.1c0,0,0.6,0,1.2-0.1l1.2-0.1l0.2-0.9l-1.1,0L294.1,20.1"/>
			<path id="Pfad_628" class="st1" d="M298.6,20.3l-0.2,0.7l1.2-0.1l1.2-0.1l0.1-0.5l-1.1-0.1C299.2,20.4,298.6,20.3,298.6,20.3"/>
			<path id="Pfad_629" class="st1" d="M303,20.7l1.2-0.1l-1.1-0.1L303,20.7z"/>
			<path id="Pfad_630" class="st1" d="M1.2,22.5l0-0.1L0,22.5L1.2,22.5z"/>
			<path id="Pfad_631" class="st1" d="M3.4,22.6l2.3,0.1l0.2-0.6l-2.3,0.1L3.4,22.6z"/>
			<path id="Pfad_632" class="st1" d="M7.9,22.8l2.3,0.1l0.3-1L8.1,22L7.9,22.8z"/>
			<path id="Pfad_633" class="st1" d="M12.4,23l2.3,0.1l0.3-1.3l-2.3,0.1L12.4,23z"/>
			<path id="Pfad_634" class="st1" d="M17,23.1l2.3,0l0.4-1.6l-2.3,0.1L17,23.1z"/>
			<path id="Pfad_635" class="st1" d="M21.5,23.2l2.3,0l0.5-1.8l-2.3,0.1L21.5,23.2z"/>
			<path id="Pfad_636" class="st1" d="M26.1,23.2l2.3,0l0.5-1.9l-2.3,0L26.1,23.2z"/>
			<path id="Pfad_637" class="st1" d="M31.1,21.3l-0.5,2c0,0,0.6,0,1.1,0c0.6,0,1.1,0,1.1,0l0.5-2c0,0-0.6,0-1.1,0
				C31.7,21.3,31.1,21.3,31.1,21.3"/>
			<path id="Pfad_638" class="st1" d="M35.2,23.3h2.3l0.5-2.1l-2.3,0L35.2,23.3z"/>
			<path id="Pfad_639" class="st1" d="M40.3,21.2l-0.5,2.1c0,0,0.6,0,1.1,0l1.1,0l0.5-2.1c0,0-0.6,0-1.1,0
				C40.8,21.2,40.3,21.2,40.3,21.2"/>
			<path id="Pfad_640" class="st1" d="M44.3,23.2l2.3,0l0.5-2h-2.3L44.3,23.2z"/>
			<path id="Pfad_641" class="st1" d="M49.4,21.2l-0.5,2c0,0,0.6,0,1.1,0l1.1,0l0.5-2c0,0-0.6,0-1.1,0S49.4,21.2,49.4,21.2"/>
			<path id="Pfad_642" class="st1" d="M53.5,23.1l2.3,0l0.5-1.8l-2.3,0L53.5,23.1z"/>
			<path id="Pfad_643" class="st1" d="M58.5,21.2L58,23c0,0,0.6,0,1.1,0c0.6,0,1.1,0,1.1,0l0.4-1.7c0,0-0.6,0-1.1,0L58.5,21.2"/>
			<path id="Pfad_644" class="st1" d="M62.6,22.9l2.3-0.1l0.4-1.5l-2.3,0L62.6,22.9z"/>
			<path id="Pfad_645" class="st1" d="M67.2,22.7l2.3-0.1l0.3-1.2l-2.3-0.1L67.2,22.7z"/>
			<path id="Pfad_646" class="st1" d="M71.8,22.5l2.3-0.1l0.2-0.8l-2.3-0.1L71.8,22.5z"/>
			<path id="Pfad_647" class="st1" d="M76.5,22.3l2.3-0.1l0.1-0.4l-2.3-0.1L76.5,22.3z"/>
			<path id="Pfad_648" class="st1" d="M81.1,22.1l1.2-0.1l-1.1-0.1L81.1,22.1z"/>
		</g>
	</g>
</g>
</svg>
