<?xml version="1.0" encoding="utf-8"?>
<!-- Generator: $$$/GeneralStr/196=Adobe Illustrator 27.6.0, SVG Export Plug-In . SVG Version: 6.00 Build 0)  -->
<svg version="1.1" id="Ebene_1" xmlns="http://www.w3.org/2000/svg" xmlns:xlink="http://www.w3.org/1999/xlink" x="0px" y="0px"
	 viewBox="0 0 638.2 194.9" style="enable-background:new 0 0 638.2 194.9;" xml:space="preserve">
<style type="text/css">
	.st0{fill:#965d35;}
</style>
<g id="Gruppe_45" transform="translate(379.066 -525.598)">
	<path id="Pfad_607" class="st0" d="M64.7,597.8c-0.5-1-1.1-2-1.8-3c-0.7-1.1-1.5-2.2-2.3-3.2c-4.3-5.5-10-9.9-16.3-12.8
		c-4.2-2-8.5-3.5-13-4.5c-1.2-0.2-2.5-0.5-3.7-0.7c-0.6-0.1-1.3-0.2-1.9-0.4c-0.7-0.1-1.3-0.2-2-0.3c-1.3-0.2-2.7-0.3-4-0.5
		c-1.4-0.1-2.8-0.2-4.2-0.3c-11.3-0.8-24,0.1-37.5,2c-14.2,2.1-28.3,5-42.2,8.5c-14.6,3.6-29.6,7.7-44.7,12.2
		c-15.2,4.4-30.5,9.1-45.8,13.7c-15.3,4.6-30.6,9.1-45.6,13.1c-15,3.9-29.8,7.7-44,10.4c-13.4,2.7-27,4.6-40.7,5.7
		c-11.7,0.9-23.5,0.8-35.2-0.4c-9.3-1.1-18.5-3.2-27.2-6.5c-6.4-2.4-12.6-5.6-18.2-9.5c-1.1-0.8-2.2-1.6-3.3-2.3
		c-1-0.8-1.9-1.5-2.7-2.2c-0.8-0.7-1.6-1.3-2.3-1.9c-0.7-0.6-1.3-1.2-1.8-1.7c-2.2-2.1-3.3-3.2-3.3-3.2l2.7,3.7
		c0.5,0.6,0.9,1.3,1.5,2c0.6,0.7,1.3,1.4,2,2.2c0.7,0.8,1.5,1.7,2.4,2.6c0.9,0.9,1.9,1.8,2.9,2.7c5.2,4.7,11,8.6,17.2,11.7
		c8.6,4.3,17.8,7.3,27.3,9c11.9,2.1,24.1,2.9,36.2,2.5c14.1-0.5,28.1-1.9,42-4.4c7.3-1.3,14.8-2.7,22.3-4.3
		c7.5-1.6,15.1-3.4,22.8-5.3c15.3-3.9,30.7-8.3,46.1-12.8c15.4-4.6,30.7-9.4,45.8-14c15.1-4.6,29.8-9.2,44.1-13
		c14.3-3.9,28.1-7.3,41.1-9.8c6.5-1.2,12.8-2.2,18.8-2.8c3-0.4,6-0.6,8.9-0.8c1.4-0.1,2.8-0.1,4.2-0.2s2.8-0.1,4.1-0.1
		c5.1,0,10.2,0.3,15.2,1c4.3,0.6,8.6,1.7,12.7,3.2c6.4,2.2,12.2,5.8,17.1,10.4c1,0.9,1.9,1.8,2.7,2.8c0.8,0.8,1.5,1.7,2.2,2.6
		c1.2,1.8,2.4,3.2,3,4.5c1.5,2.6,2.2,4,2.2,4s-0.6-1.5-1.5-4.3C66.5,601.3,65.6,599.7,64.7,597.8"/>
	<path id="Pfad_608" class="st0" d="M66.3,599.9c-2-3.6-4.7-6.7-7.9-9.3c-4.2-3.4-10.5-6.6-18.8-8.4c-8.3-1.7-18.3-2.1-29.3-1.1
		c-11.9,1.1-23.8,3.1-35.4,5.9c-12.5,2.9-25.5,6.4-38.9,10.3c-6.7,1.9-13.5,4-20.3,6.1s-13.7,4.2-20.6,6.4
		c-13.8,4.2-27.8,8.6-41.8,12.6c-13.9,4.1-27.8,7.8-41.5,11c-6.8,1.6-13.6,3.1-20.2,4.4c-3.3,0.7-6.6,1.3-9.9,1.8
		c-3.3,0.6-6.5,1.1-9.7,1.6c-25.7,4-49.3,4.7-68.7,2.8c-8.7-0.8-17.4-2.2-26-4.1c-1.9-0.5-3.7-0.9-5.5-1.3c-1.7-0.5-3.4-1-5-1.4
		c-3.3-0.8-6.1-1.9-8.7-2.7c-5.1-1.9-9.2-3.3-11.9-4.6c-2.7-1.1-4.2-1.7-4.2-1.7s1.1,1,3.3,2.8c3.2,2.6,6.5,5,9.9,7.2
		c2.3,1.4,4.8,3.1,7.7,4.6c1.4,0.8,2.9,1.6,4.5,2.4c1.6,0.8,3.3,1.5,5.1,2.3c8.2,3.5,16.7,6.3,25.3,8.4c10.8,2.5,21.9,4,33,4.5
		c12.9,0.6,25.9,0.3,38.8-1c6.8-0.6,13.8-1.5,20.8-2.6c3.5-0.5,7.1-1.2,10.6-1.8c3.6-0.7,7.1-1.4,10.7-2.1
		c14.3-3,28.8-6.7,43.2-10.9c14.4-4.2,28.6-8.7,42.6-13.4c7-2.3,13.8-4.7,20.6-7.1c6.8-2.3,13.4-4.7,20-7
		c13.1-4.5,25.7-8.9,37.6-12.6c5.9-1.9,11.7-3.6,17.3-5.1c2.8-0.8,5.5-1.4,8.2-2.1c2.7-0.6,5.3-1.2,7.8-1.7c9-2,18.1-2.9,27.3-2.8
		c7.8,0.4,14.2,1.9,18.9,4.1c3.6,1.7,6.9,3.9,9.9,6.6l3,3c0,0-0.2-0.3-0.5-1C67.4,602.1,66.9,601.1,66.3,599.9"/>
	<path id="Pfad_609" class="st0" d="M-283.7,621.5c-1.8-0.1-3.6-0.3-5.6-0.5c-2-0.1-4-0.5-6.1-0.7c-2.1-0.2-4.3-0.6-6.5-1
		c-2.2-0.3-4.4-0.9-6.7-1.4c-4.6-1.1-9.2-2.5-13.6-4.3c-4.5-1.8-8.8-4-12.8-6.6c-4-2.5-7.7-5.5-10.9-9c-3.2-3.3-5.8-7.1-7.9-11.2
		c-0.9-2-1.7-4.1-2.4-6.3c-0.1-0.5-0.3-1.1-0.5-1.6l-0.3-1.6c-0.3-1.1-0.4-2.2-0.5-3.3c-0.1-1.1-0.2-2.2-0.2-3.3
		c0-1.1,0.1-2.2,0.1-3.3c0.1-1.1,0.3-2.2,0.4-3.3c0.1-1.1,0.5-2.2,0.7-3.3c0.1-0.5,0.2-1.1,0.4-1.6c0.2-0.5,0.4-1.1,0.6-1.6
		c0.3-1.1,0.7-2.1,1.2-3.1c0.5-1,0.9-2,1.4-3c0.5-1,1.1-1.9,1.6-2.8c0.3-0.5,0.5-0.9,0.8-1.4c0.3-0.5,0.6-0.9,0.9-1.3
		c0.6-0.9,1.2-1.7,1.8-2.6c1.2-1.7,2.6-3.2,3.7-4.6c1.3-1.4,2.6-2.7,3.7-3.9c1.2-1.2,2.4-2.2,3.4-3.2c2-2,4-3.4,5.2-4.4l1.9-1.6
		c0,0-0.8,0.3-2.2,1c-0.7,0.3-1.6,0.7-2.6,1.2c-0.5,0.2-1.1,0.5-1.7,0.8c-0.6,0.3-1.2,0.7-1.9,1.1c-1.3,0.8-2.8,1.6-4.4,2.6
		c-1.5,1-3.2,2.2-4.9,3.4c-1.6,1.4-3.4,2.8-5.2,4.5c-0.9,0.9-1.7,1.8-2.6,2.7c-0.5,0.5-0.9,0.9-1.4,1.4c-0.4,0.5-0.8,1-1.3,1.5
		c-3.7,4.3-6.6,9.2-8.8,14.4c-0.6,1.4-1.1,2.7-1.5,4.1c-0.4,1.4-0.7,2.8-1.1,4.3c-0.3,1.4-0.5,2.9-0.7,4.3c-0.2,1.4-0.2,2.9-0.2,4.3
		c-0.1,5.7,1,11.4,3.2,16.7c2.2,5.2,5.3,9.9,9.2,14c3.9,4.1,8.4,7.6,13.3,10.3c1.2,0.7,2.5,1.4,3.7,2c1.3,0.6,2.6,1.1,3.9,1.7
		c1.3,0.6,2.6,1.1,4,1.5c1.3,0.5,2.7,0.9,4,1.3c5.3,1.5,10.7,2.4,16.2,2.9c2.7,0.2,5.2,0.5,7.8,0.4c2.6,0,5,0.1,7.4-0.1
		c2.4-0.2,4.7-0.2,6.9-0.5c2.2-0.3,4.3-0.6,6.2-0.9c3.9-0.7,7.3-1.4,10.1-2.1c5.6-1.6,8.7-2.5,8.7-2.5s-3.1-0.1-8.4-0.1
		C-276.9,621.7-280.1,621.7-283.7,621.5"/>
	<path id="Pfad_610" class="st0" d="M254.9,630.7c-0.6-0.7-1.3-1.4-2-2.2c-0.7-0.8-1.5-1.7-2.4-2.6c-0.9-0.9-1.9-1.8-2.9-2.7
		c-5.2-4.7-11-8.6-17.2-11.7c-8.6-4.3-17.8-7.3-27.3-9c-11.9-2.1-24.1-2.9-36.2-2.5c-14.1,0.5-28.1,1.9-42,4.4
		c-7.3,1.3-14.8,2.7-22.3,4.3c-7.5,1.6-15.1,3.4-22.8,5.4c-15.3,3.9-30.7,8.3-46.1,12.8c-15.4,4.6-30.7,9.4-45.8,14
		c-15.1,4.6-29.8,9.2-44.1,13s-28.1,7.3-41.1,9.8c-6.5,1.2-12.8,2.2-18.8,2.8c-3,0.4-6,0.6-8.9,0.8c-1.4,0.1-2.8,0.1-4.2,0.2
		c-1.4,0.1-2.8,0.1-4.1,0.1c-5.1,0-10.2-0.3-15.2-1c-4.3-0.6-8.6-1.7-12.7-3.2c-6.4-2.2-12.2-5.8-17.1-10.4c-1-0.9-1.9-1.8-2.7-2.8
		c-0.8-0.8-1.5-1.7-2.2-2.6c-1.2-1.8-2.3-3.2-3-4.5c-1.4-2.6-2.2-4-2.2-4s0.5,1.5,1.6,4.4c0.5,1.4,1.4,3,2.3,5c0.5,1,1.2,2,1.8,3
		c0.7,1.1,1.5,2.2,2.3,3.2c4.3,5.5,9.9,9.9,16.3,12.8c4.2,2,8.5,3.5,13,4.5c1.2,0.2,2.5,0.5,3.7,0.7c0.6,0.1,1.3,0.2,1.9,0.4
		c0.7,0.1,1.3,0.2,2,0.3c1.3,0.2,2.7,0.3,4,0.5c1.4,0.1,2.8,0.2,4.2,0.3c11.3,0.8,24-0.1,37.5-2c14.2-2.1,28.3-4.9,42.2-8.5
		c14.6-3.6,29.6-7.7,44.7-12.2c15.2-4.4,30.5-9.1,45.8-13.7c15.3-4.6,30.6-9.1,45.6-13.1c15-3.9,29.8-7.7,44-10.4
		c13.4-2.7,27-4.6,40.7-5.7c11.7-0.9,23.5-0.8,35.2,0.4c9.3,1.1,18.5,3.2,27.2,6.5c6.4,2.4,12.6,5.6,18.2,9.5
		c1.1,0.8,2.2,1.6,3.3,2.3c1,0.8,1.9,1.5,2.7,2.2c0.8,0.7,1.6,1.3,2.3,1.9c0.7,0.6,1.3,1.2,1.8,1.7c2.2,2.1,3.3,3.2,3.3,3.2
		l-2.7-3.7C255.9,632.1,255.5,631.4,254.9,630.7"/>
	<path id="Pfad_611" class="st0" d="M224.8,608c-2.3-1.4-4.8-3.1-7.7-4.6c-1.4-0.8-2.9-1.6-4.5-2.4c-1.6-0.7-3.3-1.5-5.1-2.3
		c-8.2-3.5-16.7-6.3-25.4-8.4c-10.8-2.5-21.9-4-33-4.5c-12.9-0.6-25.9-0.3-38.8,1c-6.8,0.6-13.8,1.5-20.8,2.6
		c-3.5,0.5-7,1.2-10.6,1.8c-3.6,0.7-7.1,1.4-10.7,2.1c-14.3,3-28.8,6.7-43.2,10.8c-14.4,4.2-28.7,8.7-42.6,13.4
		c-7,2.3-13.9,4.7-20.6,7.1c-6.8,2.4-13.4,4.7-20,7c-13.1,4.5-25.7,8.9-37.6,12.6c-5.9,1.9-11.7,3.6-17.3,5.1
		c-2.8,0.8-5.5,1.4-8.2,2.1c-2.7,0.6-5.3,1.2-7.8,1.7c-9,2-18.1,2.9-27.3,2.8c-7.8-0.3-14.2-1.9-18.9-4.1c-3.6-1.7-6.9-3.9-9.9-6.6
		c-1.9-2-3-3-3-3s0.2,0.3,0.5,1s0.7,1.6,1.4,2.9c2,3.6,4.7,6.7,7.9,9.3c4.2,3.4,10.5,6.6,18.8,8.4c8.3,1.7,18.3,2.1,29.3,1.1
		c11.9-1.1,23.8-3.1,35.4-5.9c12.5-2.9,25.5-6.4,38.9-10.3c6.7-1.9,13.5-4,20.3-6.1s13.7-4.2,20.6-6.4c13.9-4.2,27.8-8.6,41.8-12.6
		c13.9-4.1,27.9-7.8,41.5-11c6.8-1.6,13.6-3.1,20.2-4.4c3.3-0.7,6.6-1.3,9.9-1.8c3.3-0.6,6.5-1.1,9.7-1.6c25.7-4,49.3-4.7,68.7-2.8
		c8.7,0.8,17.4,2.2,26,4.2c1.9,0.5,3.7,0.9,5.5,1.3c1.7,0.5,3.4,1,5,1.4c3.3,0.8,6.1,1.9,8.7,2.8c5.1,1.9,9.2,3.3,11.9,4.6
		c2.7,1.1,4.2,1.7,4.2,1.7s-1.1-1-3.3-2.8C231.5,612.6,228.2,610.2,224.8,608"/>
	<path id="Pfad_612" class="st0" d="M250.5,668.9c0.1-5.7-1-11.4-3.2-16.7c-2.2-5.2-5.3-9.9-9.2-14c-3.9-4.1-8.4-7.6-13.3-10.3
		c-1.3-0.7-2.5-1.4-3.7-2l-3.9-1.7c-1.3-0.6-2.6-1.1-4-1.5c-1.3-0.5-2.7-0.9-4-1.3c-5.3-1.5-10.7-2.4-16.2-2.9
		c-2.7-0.2-5.2-0.5-7.8-0.4c-2.6,0-5-0.1-7.4,0.1c-2.4,0.2-4.6,0.2-6.9,0.5c-2.2,0.3-4.3,0.6-6.2,0.9c-3.9,0.7-7.3,1.4-10.1,2.1
		c-5.6,1.6-8.7,2.6-8.7,2.6s3.1,0.1,8.4,0.1c2.6,0.1,5.8,0.2,9.4,0.4c1.8,0.1,3.7,0.3,5.6,0.5c2,0.2,4,0.5,6.1,0.7
		c2.1,0.2,4.3,0.6,6.5,1c2.2,0.3,4.4,0.9,6.7,1.4c4.6,1.1,9.2,2.5,13.6,4.3c4.5,1.8,8.8,4,12.9,6.6c4,2.5,7.7,5.5,10.9,9
		c3.2,3.3,5.8,7.1,7.9,11.2c0.9,2,1.7,4.1,2.4,6.3c0.1,0.5,0.4,1.1,0.5,1.6l0.3,1.6c0.3,1.1,0.4,2.2,0.5,3.3
		c0.1,1.1,0.2,2.2,0.2,3.3c0,1.1-0.1,2.2-0.1,3.3c-0.1,1.1-0.3,2.2-0.4,3.3c-0.1,1.1-0.5,2.2-0.7,3.3c-0.1,0.5-0.2,1.1-0.4,1.6
		c-0.2,0.5-0.4,1.1-0.6,1.6c-0.3,1.1-0.7,2.1-1.1,3.1c-0.5,1-0.9,2-1.4,3c-0.5,1-1.1,1.9-1.6,2.8c-0.3,0.5-0.5,0.9-0.8,1.4
		s-0.6,0.9-0.9,1.3c-0.6,0.9-1.2,1.7-1.8,2.6c-1.2,1.7-2.6,3.2-3.7,4.6c-1.3,1.4-2.6,2.7-3.7,3.9c-1.2,1.2-2.3,2.2-3.4,3.2
		c-2,2-4,3.4-5.2,4.4c-1.2,1-1.9,1.6-1.9,1.6l2.2-1c0.7-0.3,1.6-0.7,2.6-1.2c0.5-0.2,1.1-0.5,1.7-0.8c0.6-0.3,1.2-0.7,1.9-1.1
		c1.3-0.8,2.8-1.6,4.4-2.6c1.5-1,3.2-2.2,4.9-3.4c1.7-1.4,3.4-2.8,5.3-4.5c0.9-0.9,1.7-1.8,2.6-2.7c0.4-0.5,0.9-0.9,1.4-1.4
		c0.4-0.5,0.8-1,1.3-1.5c3.7-4.3,6.6-9.2,8.8-14.4c0.6-1.4,1.1-2.7,1.5-4.1c0.4-1.4,0.7-2.8,1.1-4.3c0.2-1.4,0.5-2.9,0.7-4.3
		C250.4,671.8,250.5,670.4,250.5,668.9"/>
</g>
</svg>
